<svg width="52" height="52" viewBox="0 0 52 52" fill="none" xmlns="http://www.w3.org/2000/svg">
<g id="eyebrows-12">
<path id="Vector" d="M24.0939 17.8861C14.4379 20.5251 10.5489 26.7661 10.0379 27.9861C9.80354 28.5618 9.68821 29.1789 9.69893 29.8004C9.70964 30.4218 9.84618 31.0346 10.1003 31.6018C10.3544 32.169 10.7208 32.6788 11.1774 33.1005C11.634 33.5221 12.1714 33.8469 12.7569 34.0551C13.9489 34.5258 15.276 34.5208 16.4643 34.0412C17.6526 33.5617 18.6115 32.6442 19.1429 31.4781C19.1429 31.4781 22.0489 25.5842 26.7529 23.4401C33.0799 20.5561 43.0749 22.4401 43.0749 22.4401C43.0749 22.4401 34.1179 15.1461 24.0939 17.8861Z" fill="#E30000"/>
<path id="Vector_2" d="M24.0939 17.8861C14.4379 20.5251 10.5489 26.7661 10.0379 27.9861C9.80354 28.5618 9.68821 29.1789 9.69893 29.8004C9.70964 30.4218 9.84618 31.0346 10.1003 31.6018C10.3544 32.169 10.7208 32.6788 11.1774 33.1005C11.634 33.5221 12.1714 33.8469 12.7569 34.0551C13.9489 34.5258 15.276 34.5208 16.4643 34.0412C17.6526 33.5617 18.6115 32.6442 19.1429 31.4781C19.1429 31.4781 22.0489 25.5841 26.7529 23.4401C33.0799 20.5561 43.0749 22.4401 43.0749 22.4401C43.0749 22.4401 34.1179 15.1461 24.0939 17.8861Z" stroke="#E30000" stroke-width="1.463"/>
</g>
</svg>
