<svg width="52" height="52" viewBox="0 0 52 52" fill="none" xmlns="http://www.w3.org/2000/svg">
<g id="eyebrows-21">
<path id="Vector" d="M33.8451 25.3171C30.0931 23.6661 23.6171 23.4851 18.2831 23.9461C14.9841 24.2233 11.663 24.0714 8.40308 23.4941V30.7441C11.966 31.0454 15.5499 30.9958 19.1031 30.5961C23.3599 29.802 27.7202 29.7327 32.0001 30.3911C34.9068 31.0703 37.6788 32.2332 40.2001 33.8311L41.9541 30.5701C39.4515 28.5276 36.7322 26.766 33.8451 25.3171Z" fill="#FF5F5F"/>
<path id="Vector_2" d="M33.8451 25.3171C30.0931 23.6661 23.6171 23.4851 18.2831 23.9461C14.9841 24.2233 11.663 24.0714 8.40308 23.4941V30.7441C11.966 31.0454 15.5499 30.9958 19.1031 30.5961C23.3599 29.802 27.7202 29.7327 32.0001 30.3911C34.9068 31.0703 37.6788 32.2332 40.2001 33.8311L41.9541 30.5701C39.4515 28.5276 36.7322 26.766 33.8451 25.3171Z" stroke="#FF5F5F" stroke-width="1.463"/>
</g>
</svg>
