<svg width="52" height="52" viewBox="0 0 52 52" fill="none" xmlns="http://www.w3.org/2000/svg">
<g id="eyebrows-17">
<path id="Vector" d="M7.51709 31.0999C7.51709 31.486 7.63157 31.8634 7.84606 32.1844C8.06055 32.5054 8.36541 32.7556 8.72209 32.9033C9.07877 33.0511 9.47126 33.0897 9.84991 33.0144C10.2286 32.9391 10.5764 32.7532 10.8494 32.4802C11.1224 32.2072 11.3083 31.8594 11.3836 31.4807C11.4589 31.1021 11.4202 30.7096 11.2725 30.3529C11.1248 29.9962 10.8746 29.6914 10.5536 29.4769C10.2326 29.2624 9.85516 29.1479 9.46909 29.1479C9.21271 29.1478 8.95882 29.1982 8.72194 29.2962C8.48505 29.3943 8.26981 29.5381 8.08852 29.7193C7.90724 29.9006 7.76346 30.1159 7.66541 30.3528C7.56736 30.5896 7.51696 30.8435 7.51709 31.0999ZM13.6451 26.8819C13.6451 27.2679 13.7595 27.6451 13.9739 27.9661C14.1882 28.287 14.4929 28.5372 14.8494 28.685C15.2059 28.8329 15.5982 28.8717 15.9768 28.7966C16.3554 28.7215 16.7032 28.5359 16.9763 28.2632C17.2494 27.9905 17.4356 27.643 17.5112 27.2646C17.5869 26.8861 17.5486 26.4937 17.4014 26.137C17.2541 25.7803 17.0044 25.4752 16.6837 25.2603C16.3631 25.0455 15.986 24.9305 15.6001 24.9299C15.3434 24.9293 15.0892 24.9793 14.8519 25.0771C14.6146 25.1749 14.3989 25.3186 14.2173 25.5C14.0357 25.6813 13.8916 25.8968 13.7934 26.1339C13.6952 26.3711 13.6448 26.6252 13.6451 26.8819ZM19.7731 22.6599C19.7731 23.046 19.8876 23.4235 20.1021 23.7445C20.3167 24.0655 20.6216 24.3157 20.9783 24.4634C21.3351 24.6111 21.7276 24.6497 22.1063 24.5743C22.485 24.4989 22.8328 24.3129 23.1057 24.0398C23.3787 23.7667 23.5645 23.4188 23.6397 23.0401C23.7149 22.6614 23.6761 22.2689 23.5282 21.9122C23.3803 21.5556 23.13 21.2508 22.8088 21.0364C22.4877 20.822 22.1102 20.7077 21.7241 20.7079C21.4678 20.7078 21.2139 20.7582 20.9771 20.8562C20.7403 20.9543 20.5251 21.0981 20.3439 21.2794C20.1627 21.4607 20.019 21.676 19.921 21.9128C19.8231 22.1497 19.7728 22.4036 19.7731 22.6599ZM26.7001 20.6849C26.7001 21.071 26.8146 21.4485 27.0291 21.7695C27.2437 22.0905 27.5486 22.3407 27.9053 22.4884C28.2621 22.6361 28.6546 22.6747 29.0333 22.5993C29.412 22.5239 29.7598 22.3379 30.0327 22.0648C30.3057 21.7917 30.4915 21.4438 30.5667 21.0651C30.6419 20.6864 30.6031 20.2939 30.4552 19.9372C30.3073 19.5806 30.057 19.2758 29.7358 19.0614C29.4147 18.847 29.0372 18.7327 28.6511 18.7329C28.3948 18.7328 28.1409 18.7832 27.9041 18.8812C27.6673 18.9793 27.4521 19.1231 27.2709 19.3044C27.0897 19.4857 26.946 19.701 26.848 19.9378C26.7501 20.1747 26.6998 20.4286 26.7001 20.6849ZM33.6841 21.5129C33.6839 21.899 33.7982 22.2765 34.0126 22.5977C34.2269 22.9188 34.5317 23.1691 34.8884 23.317C35.2451 23.4649 35.6376 23.5037 36.0163 23.4285C36.395 23.3533 36.7429 23.1675 37.016 22.8945C37.2891 22.6216 37.4751 22.2738 37.5505 21.8951C37.6259 21.5164 37.5873 21.1239 37.4396 20.7671C37.2919 20.4104 37.0417 20.1055 36.7207 19.891C36.3996 19.6764 36.0222 19.5619 35.6361 19.5619C35.3798 19.5618 35.126 19.6121 34.8892 19.7101C34.6523 19.8081 34.4371 19.9518 34.2559 20.133C34.0746 20.3142 33.9308 20.5293 33.8327 20.7661C33.7346 21.0028 33.6841 21.2566 33.6841 21.5129ZM39.5101 26.1429C39.5099 26.529 39.6242 26.9065 39.8386 27.2277C40.0529 27.5488 40.3577 27.7991 40.7144 27.947C41.0711 28.0949 41.4636 28.1337 41.8423 28.0585C42.221 27.9833 42.5689 27.7975 42.842 27.5245C43.1151 27.2516 43.3011 26.9038 43.3765 26.5251C43.4519 26.1464 43.4133 25.7539 43.2656 25.3971C43.1179 25.0404 42.8677 24.7355 42.5467 24.521C42.2256 24.3064 41.8482 24.1919 41.4621 24.1919C40.9446 24.1919 40.4482 24.3974 40.0822 24.7633C39.7161 25.1291 39.5104 25.6254 39.5101 26.1429Z" fill="#E30000" stroke="#E30000"/>
</g>
</svg>
