<svg width="52" height="52" viewBox="0 0 52 52" fill="none" xmlns="http://www.w3.org/2000/svg">
<g id="eyebrows-23">
<path id="Vector" d="M30.533 16.2858C31.8312 16.3921 33.0796 16.8331 34.1566 17.5657C35.2336 18.2982 36.1023 19.2975 36.678 20.4658C38.056 22.9598 38.615 24.9008 42.051 26.4658C42.051 26.4658 37.702 26.2178 35.325 23.3438C33.679 21.3568 32.651 20.2588 30.388 20.3278C28.688 20.3798 26.119 23.3698 24.242 25.6668L22.253 28.0208C20.7448 29.6843 18.8471 30.9471 16.7302 31.6957C14.6133 32.4443 12.3436 32.6554 10.125 32.3098V28.3798C10.338 28.4168 15.748 29.2628 19.285 25.3418L21.146 23.1338C23.822 19.8638 26.855 16.1598 30.533 16.2858Z" fill="#FF5F5F" stroke="#FF5F5F" stroke-width="1.463"/>
</g>
</svg>
