<svg width="52" height="52" viewBox="0 0 52 52" fill="none" xmlns="http://www.w3.org/2000/svg">
<g id="eyebrows-16">
<g id="Vector">
<path d="M35.356 21.6182C42.28 23.1182 45.437 26.4252 45.437 26.4252C45.437 26.4252 39.451 23.5252 35.154 23.6252C31.197 23.7142 28.711 26.7562 25.498 28.2872C23.2146 29.5347 20.7723 30.4663 18.238 31.0562" fill="#FF5F5F"/>
<path d="M35.356 21.6182C42.28 23.1182 45.437 26.4252 45.437 26.4252C45.437 26.4252 39.451 23.5252 35.154 23.6252C31.197 23.7142 28.711 26.7562 25.498 28.2872C23.2146 29.5347 20.7723 30.4663 18.238 31.0562" stroke="#FF5F5F" stroke-width="1.463" stroke-linejoin="bevel"/>
</g>
<g id="Vector_2">
<path d="M35.154 23.6221C31.197 23.7111 28.711 26.7531 25.498 28.2841C23.2146 29.5317 20.7723 30.4632 18.238 31.0531C12.346 31.9901 9.57901 30.3141 9.08301 29.9651L12.633 27.7031C12.647 27.7091 13.942 28.3731 17.133 27.8651C19.0372 27.3258 20.8768 26.58 22.619 25.6411C26.826 23.6351 30.867 21.0221 35.36 21.6181" fill="#FF5F5F"/>
<path d="M35.154 23.6221C31.197 23.7111 28.711 26.7531 25.498 28.2841C23.2146 29.5317 20.7723 30.4632 18.238 31.0531C12.346 31.9901 9.57901 30.3141 9.08301 29.9651L12.633 27.7031C12.647 27.7091 13.942 28.3731 17.133 27.8651C19.0372 27.3258 20.8768 26.58 22.619 25.6411C26.826 23.6351 30.867 21.0221 35.36 21.6181" stroke="#FF5F5F" stroke-width="1.463"/>
</g>
</g>
</svg>
