<svg width="52" height="52" viewBox="0 0 52 52" fill="none" xmlns="http://www.w3.org/2000/svg">
<g id="eyes-47">
<path id="Vector" d="M8.45002 26.0802C8.45199 23.725 9.15218 21.4233 10.4621 19.4661C11.772 17.5088 13.6327 15.9838 15.8092 15.0839C17.9856 14.184 20.38 13.9496 22.6897 14.4102C24.9993 14.8709 27.1205 16.006 28.7852 17.6721C30.4498 19.3381 31.5832 21.4603 32.0419 23.7703C32.5006 26.0804 32.2642 28.4746 31.3625 30.6502C30.4607 32.8259 28.9342 34.6854 26.9758 35.9937C25.0174 37.3019 22.7152 38.0002 20.36 38.0002C18.7951 38.0002 17.2456 37.6918 15.7999 37.0926C14.3543 36.4935 13.0409 35.6153 11.9348 34.5083C10.8288 33.4013 9.95168 32.0872 9.35374 30.641C8.75579 29.1949 8.4487 27.6451 8.45002 26.0802Z" fill="white"/>
<path id="Vector_2" d="M8.51001 26.0802C8.50804 23.7361 9.20134 21.444 10.5022 19.494C11.8031 17.544 13.6532 16.0236 15.8183 15.1251C17.9834 14.2267 20.3664 13.9906 22.6657 14.4467C24.965 14.9028 27.0774 16.0306 28.7357 17.6875C30.3939 19.3443 31.5235 21.4558 31.9816 23.7547C32.4396 26.0537 32.2055 28.4368 31.3089 30.6027C30.4123 32.7686 28.8935 34.6199 26.9446 35.9224C24.9956 37.225 22.7041 37.9202 20.36 37.9202C17.2189 37.9202 14.2064 36.6731 11.9843 34.453C9.76231 32.2328 8.51266 29.2213 8.51001 26.0802Z" stroke="black" stroke-width="3.28"/>
<path id="Vector_3" d="M13.31 26.0801C13.31 27.4645 13.7205 28.8179 14.4897 29.9691C15.2589 31.1202 16.3521 32.0174 17.6312 32.5472C18.9103 33.077 20.3178 33.2157 21.6756 32.9456C23.0335 32.6755 24.2808 32.0088 25.2597 31.0298C26.2387 30.0509 26.9054 28.8036 27.1755 27.4457C27.4456 26.0878 27.307 24.6804 26.7772 23.4013C26.2473 22.1222 25.3501 21.029 24.199 20.2598C23.0478 19.4906 21.6945 19.0801 20.31 19.0801C18.4575 19.0932 16.6846 19.8349 15.3747 21.1448C14.0648 22.4547 13.3231 24.2276 13.31 26.0801Z" fill="#6C7070"/>
<path id="Vector_4" d="M16.84 26.0798C16.84 26.7784 17.0473 27.4613 17.4356 28.042C17.824 28.6227 18.3759 29.0751 19.0215 29.342C19.6671 29.6089 20.3774 29.6782 21.0624 29.5412C21.7474 29.4042 22.3764 29.067 22.8697 28.5723C23.3629 28.0776 23.6983 27.4477 23.8334 26.7623C23.9685 26.0769 23.8972 25.3668 23.6284 24.722C23.3597 24.0771 22.9057 23.5265 22.3239 23.1398C21.7421 22.7532 21.0586 22.5478 20.36 22.5498C19.4255 22.5524 18.5302 22.9255 17.8704 23.5872C17.2106 24.2489 16.84 25.1453 16.84 26.0798ZM40.5 26.4298L33.65 26.9998V23.4898L40.5 24.0798V26.4298ZM39.26 19.1498L33.18 22.3498L31.81 19.0998L38.35 16.9998L39.26 19.1498ZM35.29 12.9198L30.94 18.2398L28.41 15.7798L33.61 11.2798L35.29 12.9198Z" fill="black"/>
</g>
</svg>
