<svg width="52" height="52" viewBox="0 0 52 52" fill="none" xmlns="http://www.w3.org/2000/svg">
<g id="eyes-58">
<path id="Vector" d="M14.23 24.3901C13.4188 25.1992 12.8049 26.1842 12.4358 27.2688C12.0668 28.3534 11.9525 29.5084 12.1018 30.6443C12.2511 31.7802 12.6601 32.8665 13.2969 33.8188C13.9338 34.7712 14.7814 35.5641 15.7741 36.136C16.7668 36.7079 17.8779 37.0435 19.0212 37.1167C20.1646 37.19 21.3094 36.9989 22.367 36.5583C23.4245 36.1177 24.3664 35.4395 25.1196 34.5762C25.8727 33.7129 26.4169 32.6877 26.71 31.5801C26.8933 30.9562 26.9908 30.3103 27 29.6601C26.9796 28.3913 26.6353 27.1487 26 26.0501" fill="#6C7070"/>
<path id="Vector_2" d="M15.77 29.6602C15.77 30.3979 15.9888 31.1191 16.3986 31.7325C16.8085 32.3458 17.391 32.8239 18.0726 33.1062C18.7542 33.3886 19.5042 33.4624 20.2277 33.3185C20.9513 33.1746 21.6159 32.8193 22.1375 32.2977C22.6592 31.776 23.0144 31.1114 23.1583 30.3879C23.3023 29.6643 23.2284 28.9143 22.9461 28.2328C22.6638 27.5512 22.1857 26.9687 21.5723 26.5588C20.9589 26.1489 20.2377 25.9302 19.5 25.9302C18.5108 25.9302 17.562 26.3232 16.8625 27.0227C16.163 27.7222 15.77 28.6709 15.77 29.6602Z" fill="black"/>
<path id="Vector_3" d="M9.64001 19.6102C12.6807 17.8667 16.1353 16.9754 19.64 17.0302C22.7991 16.9976 25.921 17.7138 28.75 19.1202" stroke="black" stroke-width="2.93"/>
<path id="Vector_4" d="M8 28.6899C11.1557 25.7172 15.3347 24.0736 19.67 24.0999C24.008 24.0751 28.1895 25.7184 31.35 28.6899" stroke="black" stroke-width="3.28"/>
<path id="Vector_5" d="M7.33002 27.9998C10.683 24.8372 15.0647 22.9908 19.67 22.7998C24.272 22.9922 28.6501 24.8386 32 27.9998" stroke="black" stroke-width="3.28"/>
</g>
</svg>
