<svg width="52" height="52" viewBox="0 0 52 52" fill="none" xmlns="http://www.w3.org/2000/svg">
<g id="eyes-07">
<path id="Vector" d="M9 25.6698C9 25.6698 12.34 21.2198 20.76 18.7798C26.4689 17.2376 32.5091 17.4431 38.1 19.3698C38.1 19.3698 35.12 31.9998 28.62 33.6998C22.43 35.3698 10 32.1998 10 32.1998" fill="white"/>
<path id="Vector_2" d="M14.82 25.0002C14.8181 26.2325 15.1822 27.4376 15.8662 28.4627C16.5503 29.4877 17.5234 30.2864 18.6621 30.7576C19.8008 31.2287 21.0538 31.3509 22.2621 31.1088C23.4704 30.8667 24.5796 30.2711 25.4488 29.3976C26.3181 28.5241 26.9083 27.4121 27.1446 26.2026C27.3809 24.9931 27.2526 23.7408 26.7759 22.6043C26.2993 21.4679 25.4959 20.4987 24.4675 19.8196C23.4392 19.1405 22.2323 18.7822 21 18.7902C19.359 18.8007 17.7887 19.4593 16.6312 20.6225C15.4736 21.7857 14.8226 23.3592 14.82 25.0002Z" fill="#6C7070"/>
<path id="Vector_3" d="M17.93 25.0002C17.9281 25.6174 18.1098 26.2212 18.4522 26.7348C18.7945 27.2484 19.2819 27.6485 19.8523 27.8842C20.4228 28.1199 21.0504 28.1805 21.6555 28.0584C22.2605 27.9362 22.8154 27.6368 23.2498 27.1983C23.6841 26.7597 23.9781 26.2019 24.0943 25.5957C24.2106 24.9895 24.1438 24.3625 23.9026 23.7943C23.6614 23.2262 23.2565 22.7427 22.7396 22.4054C22.2227 22.0681 21.6172 21.8922 21 21.9002C20.1839 21.9107 19.4046 22.2416 18.8302 22.8215C18.2559 23.4015 17.9326 24.184 17.93 25.0002Z" fill="black"/>
<path id="Vector_4" d="M7.91998 25.77C7.91998 25.77 12.29 21.22 20.71 18.77C26.4189 17.2278 32.4591 17.4333 38.05 19.36C38.05 19.36 35.12 32 28.62 33.7C22.43 35.37 9.47998 32.76 9.47998 32.76" stroke="black" stroke-width="3.28"/>
</g>
</svg>
