<svg width="52" height="52" viewBox="0 0 52 52" fill="none" xmlns="http://www.w3.org/2000/svg">
<g id="eyes-05">
<path id="Vector" d="M10.53 29.9C10.528 27.9431 11.1066 26.0296 12.1926 24.4016C13.2785 22.7737 14.823 21.5045 16.6306 20.7547C18.4382 20.005 20.4276 19.8083 22.347 20.1896C24.2664 20.5708 26.0295 21.513 27.4133 22.8967C28.797 24.2805 29.7391 26.0436 30.1204 27.963C30.5017 29.8824 30.305 31.8718 29.5552 33.6794C28.8054 35.4869 27.5363 37.0314 25.9083 38.1174C24.2804 39.2034 22.3669 39.782 20.41 39.78C17.7896 39.78 15.2766 38.7391 13.4238 36.8862C11.5709 35.0334 10.53 32.5203 10.53 29.9Z" fill="#6C7070"/>
<path id="Vector_2" d="M11.47 29.5701C11.47 31.2948 11.9814 32.9807 12.9396 34.4147C13.8977 35.8487 15.2596 36.9663 16.853 37.6263C18.4463 38.2863 20.1996 38.459 21.8912 38.1225C23.5827 37.7861 25.1364 36.9556 26.3559 35.7361C27.5755 34.5166 28.406 32.9628 28.7424 31.2713C29.0789 29.5798 28.9062 27.8265 28.2462 26.2331C27.5862 24.6397 26.4685 23.2778 25.0345 22.3197C23.6005 21.3615 21.9146 20.8501 20.19 20.8501C17.8773 20.8501 15.6593 21.7688 14.024 23.4041C12.3887 25.0394 11.47 27.2574 11.47 29.5701Z" fill="#6C7070"/>
<path id="Vector_3" d="M15.83 29.57C15.83 30.4323 16.0857 31.2753 16.5648 31.9922C17.0439 32.7092 17.7248 33.2681 18.5215 33.5981C19.3182 33.9281 20.1949 34.0144 21.0406 33.8462C21.8864 33.678 22.6632 33.2627 23.273 32.6529C23.8828 32.0432 24.298 31.2663 24.4662 30.4206C24.6345 29.5748 24.5481 28.6981 24.2181 27.9015C23.8881 27.1048 23.3293 26.4238 22.6123 25.9448C21.8953 25.4657 21.0523 25.21 20.19 25.21C19.0337 25.21 17.9247 25.6693 17.107 26.487C16.2894 27.3046 15.83 28.4136 15.83 29.57Z" fill="black"/>
<path id="Vector_4" d="M7.22998 30.1299C8.40998 23.0499 14 17.6899 20.62 17.6899C27.24 17.6899 32.84 23.0499 34 30.1299" stroke="black" stroke-width="3.28"/>
<path id="Vector_5" d="M42.49 23.8001L35.95 26.7301L32.83 27.8701L31.76 24.9201L34.88 23.7901L41.77 21.8301L42.49 23.8001Z" fill="black"/>
</g>
</svg>
