<svg width="52" height="52" viewBox="0 0 52 52" fill="none" xmlns="http://www.w3.org/2000/svg">
<g id="eyes-08">
<path id="Vector" d="M24.32 14.29C32.32 14.29 38.77 18.92 38.77 26C38.77 33.08 32.3 37.7 24.32 37.7C16.34 37.7 9.87 33.08 9.87 26C9.87 18.92 16.34 14.29 24.32 14.29Z" fill="white"/>
<path id="Vector_2" d="M16.81 25.76C16.81 27.2536 17.2531 28.7138 18.0831 29.9556C18.9132 31.1974 20.0929 32.1651 21.4731 32.7362C22.8532 33.3074 24.3718 33.4563 25.8366 33.1642C27.3014 32.872 28.6467 32.152 29.7022 31.0951C30.7577 30.0382 31.476 28.692 31.7662 27.2268C32.0563 25.7615 31.9054 24.2432 31.3324 22.8638C30.7594 21.4844 29.7902 20.3059 28.5473 19.4775C27.3044 18.6491 25.8437 18.208 24.35 18.21C23.359 18.21 22.3777 18.4053 21.4623 18.7849C20.5468 19.1644 19.7152 19.7207 19.0149 20.4219C18.3146 21.1231 17.7594 21.9555 17.3811 22.8715C17.0027 23.7874 16.8087 24.769 16.81 25.76Z" fill="#6C7070"/>
<path id="Vector_3" d="M20.58 25.76C20.576 26.5089 20.7946 27.2421 21.208 27.8665C21.6214 28.491 22.2109 28.9786 22.9019 29.2675C23.5928 29.5563 24.354 29.6335 25.0888 29.4891C25.8236 29.3447 26.499 28.9853 27.0293 28.4564C27.5595 27.9276 27.9207 27.2531 28.0671 26.5187C28.2134 25.7842 28.1383 25.0229 27.8513 24.3312C27.5642 23.6395 27.0782 23.0486 26.4548 22.6336C25.8315 22.2186 25.0989 21.998 24.35 22C23.3519 22 22.3945 22.3958 21.6877 23.1007C20.981 23.8055 20.5827 24.7619 20.58 25.76Z" fill="black"/>
<path id="Vector_4" d="M24.32 14.29C32.32 14.29 38.77 18.92 38.77 26C38.77 33.08 32.3 37.7 24.32 37.7C16.34 37.7 9.87 33.08 9.87 26C9.87 18.92 16.34 14.29 24.32 14.29Z" stroke="black" stroke-width="3.28"/>
<path id="Vector_5" d="M9.87003 27.1898C9.87003 20.1098 16.34 18.2898 24.32 18.2898C32.3 18.2898 38.77 20.1098 38.77 27.1898C38.77 27.1898 38.84 14.8198 24.24 14.8198C9.64003 14.8198 9.87003 27.1898 9.87003 27.1898Z" fill="black" stroke="black" stroke-width="3.28"/>
</g>
</svg>
