<svg width="52" height="52" viewBox="0 0 52 52" fill="none" xmlns="http://www.w3.org/2000/svg">
<g id="eyes-06">
<path id="Vector" d="M11.85 30.0498C11.852 31.1886 12.1915 32.3012 12.8256 33.2471C13.4597 34.1931 14.36 34.9298 15.4126 35.3642C16.4653 35.7986 17.6232 35.9113 18.7398 35.6879C19.8565 35.4645 20.8819 34.9151 21.6864 34.1092C22.491 33.3032 23.0386 32.2769 23.26 31.1598C23.4815 30.0428 23.3668 28.8851 22.9306 27.8332C22.4943 26.7813 21.756 25.8823 20.809 25.2498C19.862 24.6174 18.7488 24.2798 17.61 24.2798C16.8527 24.2798 16.1029 24.4291 15.4034 24.7192C14.7039 25.0093 14.0685 25.4345 13.5335 25.9704C12.9985 26.5063 12.5744 27.1425 12.2856 27.8425C11.9967 28.5424 11.8487 29.2925 11.85 30.0498Z" fill="#6C7070"/>
<path id="Vector_2" d="M14.73 30.0499C14.73 30.6195 14.8989 31.1763 15.2153 31.65C15.5318 32.1236 15.9816 32.4927 16.5079 32.7107C17.0341 32.9287 17.6132 32.9857 18.1718 32.8746C18.7305 32.7635 19.2437 32.4892 19.6464 32.0864C20.0492 31.6836 20.3235 31.1704 20.4346 30.6118C20.5458 30.0531 20.4887 29.474 20.2708 28.9478C20.0528 28.4215 19.6836 27.9717 19.21 27.6553C18.7364 27.3388 18.1796 27.1699 17.61 27.1699C16.8462 27.1699 16.1136 27.4733 15.5735 28.0135C15.0334 28.5536 14.73 29.2861 14.73 30.0499Z" fill="black"/>
<path id="Vector_3" d="M33.65 15.5698C24.08 17.5798 15.8 21.9998 10 27.9998" stroke="black" stroke-width="3.28"/>
</g>
</svg>
