<svg width="52" height="52" viewBox="0 0 52 52" fill="none" xmlns="http://www.w3.org/2000/svg">
<g id="eyes-30">
<path id="Vector" d="M9.79997 20.6399C7.85997 26.2399 10.63 31.3699 17.8 34.0899C25.21 36.9199 32.97 35.0899 34.9 29.5099C36.83 23.9299 32.5 19.0899 25 16.4899C17.5 13.8899 11.73 14.9999 9.79997 20.6399Z" fill="white"/>
<path id="Vector_2" d="M11.51 23.45C11.51 25.1339 12.0096 26.78 12.9456 28.1799C13.8816 29.5798 15.2118 30.6706 16.768 31.3141C18.3242 31.9576 20.0363 32.1249 21.6876 31.795C23.3389 31.465 24.8552 30.6525 26.0446 29.4603C27.2339 28.2682 28.0428 26.75 28.3689 25.0979C28.695 23.4458 28.5236 21.7341 27.8765 20.1794C27.2293 18.6248 26.1354 17.2971 24.7333 16.3644C23.3313 15.4317 21.684 14.936 20 14.94C17.7465 14.9453 15.5871 15.8442 13.9955 17.4395C12.4038 19.0349 11.51 21.1964 11.51 23.45Z" fill="#6C7070"/>
<path id="Vector_3" d="M15.76 23.45C15.76 24.2934 16.0104 25.1178 16.4794 25.8188C16.9484 26.5198 17.6149 27.0658 18.3944 27.3876C19.174 27.7094 20.0316 27.7926 20.8585 27.6266C21.6854 27.4606 22.4444 27.0529 23.0394 26.4551C23.6343 25.8573 24.0385 25.0964 24.2006 24.2687C24.3627 23.4411 24.2755 22.5839 23.95 21.8059C23.6245 21.0278 23.0754 20.3639 22.3722 19.8982C21.669 19.4325 20.8434 19.186 20 19.19C19.4419 19.1913 18.8895 19.3025 18.3744 19.5173C17.8592 19.7321 17.3915 20.0463 16.9977 20.4419C16.604 20.8374 16.2921 21.3067 16.0797 21.8228C15.8673 22.339 15.7587 22.8919 15.76 23.45Z" fill="black"/>
<path id="Vector_4" d="M7.68001 25.8002C7.55449 24.5675 7.69779 23.3222 8.10001 22.1502C10 16.5302 17.48 14.0002 24.72 16.5002C31.96 19.0002 36 25.5002 34.3 31.2002C33.4398 33.3276 31.8424 35.0741 29.8 36.1202" stroke="black" stroke-width="3.28"/>
<path id="Vector_5" d="M37.12 39.8001L30.12 35.2801L32.31 32.3701L38.57 37.8601L37.12 39.8001ZM41.25 33.7001L33.25 31.5501L34.44 28.1001L42.08 31.4001L41.25 33.7001Z" fill="black"/>
</g>
</svg>
