<svg width="52" height="52" viewBox="0 0 52 52" fill="none" xmlns="http://www.w3.org/2000/svg">
<g id="eyes-26">
<path id="Vector" d="M11.0001 26.7998C11.0001 28.1843 11.4106 29.5377 12.1798 30.6888C12.9489 31.8399 14.0422 32.7372 15.3213 33.267C16.6004 33.7968 18.0078 33.9354 19.3657 33.6653C20.7236 33.3952 21.9708 32.7285 22.9498 31.7496C23.9288 30.7706 24.5955 29.5233 24.8656 28.1654C25.1357 26.8076 24.997 25.4001 24.4672 24.121C23.9374 22.8419 23.0402 21.7487 21.8891 20.9795C20.7379 20.2103 19.3845 19.7998 18.0001 19.7998C16.1435 19.7998 14.3631 20.5373 13.0503 21.8501C11.7376 23.1628 11.0001 24.9433 11.0001 26.7998Z" fill="#6C7070"/>
<path id="Vector_2" d="M14.5201 26.8002C14.5201 27.4957 14.7267 28.1755 15.1138 28.7533C15.5008 29.3311 16.0508 29.781 16.6939 30.0458C17.337 30.3105 18.0443 30.3782 18.726 30.2404C19.4076 30.1025 20.033 29.7652 20.5227 29.2713C21.0123 28.7774 21.3442 28.1492 21.4763 27.4664C21.6083 26.7835 21.5345 26.0769 21.2642 25.436C20.9939 24.7952 20.5394 24.2491 19.9582 23.8671C19.3771 23.485 18.6955 23.2842 18.0001 23.2902C17.0744 23.2981 16.1893 23.6714 15.5375 24.3288C14.8857 24.9862 14.52 25.8744 14.5201 26.8002Z" fill="black"/>
<path id="Vector_3" d="M41.11 28.1102C41.11 28.1102 36.44 32.3502 32.11 28.9202C28 25.6402 25.92 18.7802 17.36 18.7202C10.07 18.7202 7.29004 26.2602 7.29004 26.2602" stroke="black" stroke-width="3.28"/>
</g>
</svg>
