<svg width="52" height="52" viewBox="0 0 52 52" fill="none" xmlns="http://www.w3.org/2000/svg">
<g id="eyes-31">
<path id="Vector" d="M6.90002 33.3171C6.90002 33.3171 10.231 25.0651 18.6 22.3561C23.9969 20.719 29.8066 21.1167 34.93 23.4741C34.93 23.4741 32.288 32.6391 23.278 34.9601C17.7877 36.2456 12.0256 35.6675 6.90002 33.3171Z" fill="white"/>
<path id="Vector_2" d="M12.117 23.5719C11.7153 24.8545 11.671 26.2223 11.9888 27.5283C12.3066 28.8342 12.9745 30.0287 13.9205 30.9834C14.8666 31.938 16.0551 32.6166 17.3581 32.9461C18.6611 33.2756 20.0293 33.2436 21.3155 32.8535C22.6017 32.4634 23.7571 31.73 24.6575 30.7321C25.5579 29.7343 26.1692 28.5098 26.4255 27.1905C26.6819 25.8711 26.5737 24.5068 26.1124 23.2444C25.6512 21.982 24.8545 20.8692 23.808 20.0259" fill="#6C7070"/>
<path id="Vector_3" d="M15.477 25.78C15.477 26.5108 15.6937 27.2252 16.0998 27.8329C16.5058 28.4406 17.083 28.9142 17.7582 29.1938C18.4334 29.4734 19.1764 29.5465 19.8932 29.4039C20.61 29.2612 21.2684 28.9092 21.7851 28.3924C22.3018 27.8755 22.6537 27.217 22.7961 26.5002C22.9386 25.7834 22.8653 25.0404 22.5854 24.3653C22.3056 23.6901 21.8319 23.1131 21.2241 22.7072C20.6163 22.3013 19.9018 22.0848 19.171 22.085C18.6858 22.085 18.2054 22.1805 17.7571 22.3662C17.3089 22.552 16.9016 22.8241 16.5586 23.1673C16.2156 23.5104 15.9435 23.9177 15.7579 24.366C15.5723 24.8143 15.4769 25.2948 15.477 25.78Z" fill="black"/>
<path id="Vector_4" d="M6.90002 33.3171C6.90002 33.3171 10.231 25.0651 18.6 22.3561C23.9969 20.719 29.8066 21.1167 34.93 23.4741C34.93 23.4741 32.288 32.6391 23.278 34.9601C17.7877 36.2456 12.0256 35.6675 6.90002 33.3171Z" stroke="black" stroke-width="3.284"/>
<path id="Vector_5" d="M6.37701 34.4082C6.37701 34.4082 9.65501 23.2522 19.855 19.9712C29.639 16.8242 35.113 21.8872 35.113 21.8872" stroke="black" stroke-width="3.284"/>
<path id="Vector_6" d="M43.51 18.0689L35.113 23.7429L33.54 21.1449L42.461 16.3359L43.51 18.0689Z" fill="black"/>
</g>
</svg>
