<svg width="52" height="52" viewBox="0 0 52 52" fill="none" xmlns="http://www.w3.org/2000/svg">
<g id="eyes-55">
<path id="Vector" d="M35.39 32.5201C27.39 34.4701 23.21 34.7701 18.59 34.3601C15.6658 34.1908 12.7653 33.7353 9.92999 33.0001C9.92999 33.0001 10.69 20.6501 20.23 19.6301C32.89 18.2801 34.91 26.6301 34.91 26.6301C34.91 26.6301 37.86 31.9201 35.39 32.5201Z" fill="white"/>
<path id="Vector_2" d="M29.13 28.2502C29.166 27.2854 29.0071 26.3233 28.6628 25.4213C28.3184 24.5194 27.7957 23.6961 27.1259 23.0008C26.4561 22.3055 25.6529 21.7525 24.7645 21.3747C23.876 20.997 22.9205 20.8022 21.955 20.8022C20.9896 20.8022 20.0341 20.997 19.1456 21.3747C18.2571 21.7525 17.454 22.3055 16.7841 23.0008C16.1143 23.6961 15.5916 24.5194 15.2473 25.4213C14.9029 26.3233 14.744 27.2854 14.78 28.2502C14.7849 29.4319 15.0757 30.5948 15.6278 31.6397C16.1798 32.6845 16.9766 33.5802 17.95 34.2502L18.59 34.3202C21.0544 34.5635 23.537 34.5568 26 34.3002C26.9724 33.6203 27.7653 32.7146 28.3105 31.6608C28.8557 30.607 29.1369 29.4366 29.13 28.2502Z" fill="#6C7070"/>
<path id="Vector_3" d="M18.37 28.2501C18.3818 28.9557 18.6014 29.6422 19.0012 30.2238C19.4011 30.8054 19.9635 31.2562 20.6181 31.5198C21.2727 31.7835 21.9906 31.8484 22.6819 31.7064C23.3732 31.5644 24.0073 31.2218 24.505 30.7214C25.0026 30.221 25.3418 29.585 25.48 28.8929C25.6182 28.2008 25.5493 27.4834 25.282 26.8302C25.0148 26.177 24.5609 25.6171 23.9771 25.2205C23.3934 24.8238 22.7057 24.6081 22 24.6001C21.5216 24.6001 21.0479 24.6946 20.6062 24.8783C20.1645 25.062 19.7634 25.3312 19.4261 25.6704C19.0888 26.0096 18.8218 26.4121 18.6405 26.8548C18.4593 27.2975 18.3674 27.7717 18.37 28.2501Z" fill="black"/>
<path id="Vector_4" d="M8.84002 33.39C8.84002 33.39 8.30002 23.86 18.59 20.28C26.9 17.4 37.34 23.1 35.93 33.17" stroke="black" stroke-width="3.28"/>
<path id="Vector_5" d="M10 33.3898C9.98056 30.6708 10.8363 28.0177 12.4408 25.8226C14.0453 23.6274 16.3134 22.0066 18.91 21.1998C26.52 18.5198 35.79 23.8498 34.8 33.1998" stroke="black" stroke-width="3.03"/>
<path id="Vector_6" d="M34.25 18.1702C32.0209 16.5083 29.4542 15.3559 26.731 14.7944C24.0079 14.2328 21.1947 14.2758 18.49 14.9202C15.7247 15.5401 13.1532 16.8276 11 18.6702" stroke="black" stroke-width="2.93"/>
<path id="Vector_7" d="M44 26.81L37.13 29.81L36 26.71L43.23 24.71L44 26.81Z" fill="black"/>
</g>
</svg>
