<svg width="52" height="52" viewBox="0 0 52 52" fill="none" xmlns="http://www.w3.org/2000/svg">
<g id="eyes-53">
<path id="Vector" d="M9.99999 22.19C12.74 19.19 17.21 18.54 22 18.54C26.79 18.54 31.27 19.21 34 22.19C37 25.46 36.59 30.74 31.79 32.13C27.99 33.23 26.46 32.56 21.99 32.56C17.52 32.56 15.99 33.23 12.19 32.13C7.37999 30.74 6.99999 25.46 9.99999 22.19Z" fill="white"/>
<path id="Vector_2" d="M16.69 24.28C16.688 25.3259 16.9961 26.3488 17.5753 27.2196C18.1545 28.0904 18.9788 28.77 19.9441 29.1725C20.9094 29.575 21.9723 29.6824 22.9986 29.481C24.0248 29.2796 24.9684 28.7786 25.71 28.0412C26.4516 27.3038 26.958 26.3631 27.1652 25.338C27.3723 24.3128 27.271 23.2493 26.874 22.2818C26.477 21.3142 25.8021 20.4861 24.9345 19.902C24.067 19.3179 23.0458 19.004 22 19C21.3045 18.9974 20.6153 19.132 19.9718 19.396C19.3283 19.6601 18.7432 20.0484 18.25 20.5388C17.7568 21.0292 17.3652 21.6121 17.0975 22.2541C16.8298 22.896 16.6913 23.5845 16.69 24.28Z" fill="#6C7070"/>
<path id="Vector_3" d="M19.33 24.28C19.33 24.8032 19.485 25.3148 19.7753 25.7501C20.0656 26.1855 20.4783 26.5251 20.9613 26.7263C21.4444 26.9274 21.9762 26.981 22.4897 26.8804C23.0032 26.7798 23.4754 26.5294 23.8468 26.1607C24.2182 25.7921 24.4721 25.3218 24.5766 24.8091C24.6811 24.2964 24.6315 23.7642 24.434 23.2796C24.2365 22.7951 23.8999 22.3798 23.4668 22.0863C23.0336 21.7927 22.5233 21.6339 22 21.63C21.6503 21.6273 21.3036 21.6939 20.9798 21.8259C20.6559 21.9579 20.3614 22.1527 20.1132 22.399C19.865 22.6454 19.6681 22.9384 19.5336 23.2612C19.3992 23.584 19.33 23.9303 19.33 24.28Z" fill="black"/>
<path id="Vector_4" d="M9.99999 22.19C12.74 19.19 17.21 18.54 22 18.54C26.79 18.54 31.27 19.21 34 22.19C37 25.46 36.59 30.74 31.79 32.13C27.99 33.23 26.46 32.56 21.99 32.56C17.52 32.56 15.99 33.23 12.19 32.13C7.37999 30.74 6.99999 25.46 9.99999 22.19Z" stroke="black" stroke-width="3.28"/>
</g>
</svg>
