<svg width="52" height="52" viewBox="0 0 52 52" fill="none" xmlns="http://www.w3.org/2000/svg">
<g id="eyes-36">
<path id="Vector" d="M7.82001 33.3898C7.82001 27.1198 12.68 17.5898 21.99 17.5898C33.34 17.5898 35.4 27.1198 35.4 33.3898H7.82001Z" fill="white"/>
<path id="Vector_2" d="M10.77 26C10.77 27.78 11.2979 29.5201 12.2868 31.0001C13.2757 32.4802 14.6813 33.6337 16.3259 34.3149C17.9704 34.9961 19.78 35.1743 21.5258 34.8271C23.2717 34.4798 24.8753 33.6226 26.134 32.364C27.3927 31.1053 28.2498 29.5016 28.5971 27.7558C28.9444 26.01 28.7661 24.2004 28.0849 22.5558C27.4037 20.9113 26.2502 19.5057 24.7702 18.5168C23.2901 17.5278 21.5501 17 19.77 17C17.3831 17 15.0939 17.9482 13.4061 19.636C11.7182 21.3239 10.77 23.6131 10.77 26Z" fill="#6C7070"/>
<path id="Vector_3" d="M15.25 26C15.25 26.8861 15.5128 27.7523 16.005 28.489C16.4973 29.2257 17.197 29.7999 18.0156 30.139C18.8342 30.4781 19.735 30.5668 20.604 30.3939C21.4731 30.2211 22.2713 29.7944 22.8979 29.1679C23.5244 28.5413 23.9511 27.7431 24.1239 26.874C24.2968 26.005 24.2081 25.1042 23.869 24.2856C23.5299 23.467 22.9557 22.7673 22.219 22.275C21.4822 21.7828 20.6161 21.52 19.73 21.52C19.1413 21.5187 18.5582 21.6337 18.014 21.8584C17.4699 22.083 16.9755 22.413 16.5592 22.8293C16.143 23.2455 15.813 23.7399 15.5883 24.284C15.3637 24.8282 15.2487 25.4113 15.25 26Z" fill="black"/>
<path id="Vector_4" d="M7.82001 33.3898C7.82001 27.1198 12.68 17.5898 21.99 17.5898C33.34 17.5898 35.4 27.1198 35.4 33.3898H7.82001Z" stroke="black" stroke-width="3.28"/>
<path id="Vector_5" d="M39.59 20.3098L34.59 24.3098L32.78 21.5798L38.4 18.5098L39.59 20.3098ZM41.72 26.0498L35.72 28.2298L34.88 25.0498L41.19 23.9398L41.72 26.0498ZM41.91 32.1798L35.51 32.3098L35.72 28.9998L42.06 29.9998L41.91 32.1798Z" fill="black"/>
</g>
</svg>
