<svg width="52" height="52" viewBox="0 0 52 52" fill="none" xmlns="http://www.w3.org/2000/svg">
<g id="eyes-46">
<path id="Vector" d="M9.12 25.6698C9.12 31.6698 14.74 36.5898 21.67 36.5898C28.6 36.5898 34.21 31.6998 34.21 25.6698C34.21 19.6398 28.6 14.7598 21.67 14.7598C14.74 14.7598 9.12 19.6498 9.12 25.6698Z" fill="white"/>
<path id="Vector_2" d="M13.12 24.9399C13.12 26.5222 13.5892 28.0689 14.4682 29.3845C15.3473 30.7001 16.5967 31.7255 18.0585 32.331C19.5203 32.9365 21.1289 33.0949 22.6807 32.7862C24.2326 32.4775 25.658 31.7156 26.7768 30.5968C27.8957 29.478 28.6576 28.0525 28.9663 26.5007C29.275 24.9488 29.1165 23.3403 28.511 21.8785C27.9055 20.4167 26.8802 19.1672 25.5646 18.2882C24.249 17.4091 22.7022 16.9399 21.12 16.9399C18.9983 16.9399 16.9634 17.7828 15.4631 19.2831C13.9629 20.7834 13.12 22.8182 13.12 24.9399Z" fill="#6C7070"/>
<path id="Vector_3" d="M17.12 24.9399C17.12 25.7311 17.3546 26.5044 17.7941 27.1622C18.2336 27.82 18.8584 28.3327 19.5893 28.6355C20.3202 28.9382 21.1244 29.0174 21.9004 28.8631C22.6763 28.7087 23.389 28.3278 23.9484 27.7684C24.5078 27.209 24.8888 26.4962 25.0431 25.7203C25.1975 24.9444 25.1183 24.1401 24.8155 23.4092C24.5128 22.6783 24.0001 22.0536 23.3423 21.6141C22.6845 21.1745 21.9111 20.9399 21.12 20.9399C20.0591 20.9399 19.0417 21.3614 18.2916 22.1115C17.5414 22.8617 17.12 23.8791 17.12 24.9399Z" fill="black"/>
<path id="Vector_4" d="M9.12 25.6698C9.12 31.6698 14.74 36.5898 21.67 36.5898C28.6 36.5898 34.21 31.6998 34.21 25.6698C34.21 19.6398 28.6 14.7598 21.67 14.7598C14.74 14.7598 9.12 19.6498 9.12 25.6698Z" stroke="black" stroke-width="3.28"/>
<path id="Vector_5" d="M21.67 16C9.42998 16 7.59998 22.07 7.59998 25.67H10.6C10.6 22.87 16.6 20.5 21.6 20.5C26.6 20.5 32.6 22.87 32.6 25.67H35.6C35.73 22.07 33.9 16 21.67 16ZM35.29 37.16L31.04 34.39L33.11 31.85L36.68 35.46L35.29 37.16ZM30.89 40.88L27.68 36.95L30.44 35.16L32.73 39.69L30.89 40.88ZM25.19 42.72L23.33 37.99L26.5 37.13L27.3 42.14L25.19 42.72Z" fill="black"/>
</g>
</svg>
