<svg width="52" height="52" viewBox="0 0 52 52" fill="none" xmlns="http://www.w3.org/2000/svg">
<g id="eyes-56">
<path id="Vector" d="M13.45 20.4402C21.6 22.2002 30.92 18.5102 34.45 25.0202C36.75 29.2102 34.45 33.3902 29.82 35.0902C26.13 36.4502 20.82 36.2002 16.9 34.9302C12.98 33.6602 10.31 30.9302 10.23 27.1302C10.2681 24.5638 11.2548 22.1023 13 20.2202C13.133 20.3241 13.2863 20.3991 13.45 20.4402Z" fill="white"/>
<path id="Vector_2" d="M16.08 26.5799C16.1323 28.2581 16.8481 29.847 18.0704 30.9981C19.2927 32.1491 20.9217 32.7684 22.6 32.7199C24.2793 32.7684 25.9094 32.1495 27.1333 30.9987C28.3572 29.8479 29.0752 28.259 29.13 26.5799C29.0778 24.8991 28.3609 23.3076 27.1367 22.1546C25.9125 21.0017 24.281 20.3814 22.6 20.4299C20.92 20.3814 19.2896 21.002 18.067 22.1552C16.8444 23.3085 16.1297 24.8999 16.08 26.5799Z" fill="#6C7070"/>
<path id="Vector_3" d="M19.34 26.5798C19.3019 27.2338 19.4611 27.8841 19.797 28.4464C20.1328 29.0088 20.6299 29.4574 21.2236 29.734C21.8174 30.0106 22.4805 30.1025 23.1271 29.9978C23.7738 29.8931 24.374 29.5966 24.8502 29.1468C25.3263 28.6969 25.6564 28.1145 25.7976 27.4748C25.9388 26.8352 25.8847 26.1679 25.6422 25.5594C25.3997 24.9509 24.9801 24.4292 24.4377 24.062C23.8952 23.6948 23.255 23.499 22.6 23.4998C22.1837 23.4879 21.7691 23.558 21.3799 23.7064C20.9907 23.8547 20.6345 24.0783 20.3317 24.3643C20.029 24.6503 19.7856 24.9932 19.6154 25.3734C19.4452 25.7535 19.3517 26.1635 19.34 26.5798Z" fill="black"/>
<path id="Vector_4" d="M8 15.1001C8 15.1001 9.3 19.4101 12.88 20.3001C21.16 22.3801 30.83 18.3501 34.49 25.0201C36.79 29.2101 34.49 33.3901 29.86 35.0901C26.17 36.4501 20.86 36.2001 16.94 34.9301C13.02 33.6601 10.35 30.9301 10.27 27.1301C10.2972 24.569 11.2694 22.1082 13 20.2201" stroke="black" stroke-width="3.28"/>
</g>
</svg>
