<svg width="52" height="52" viewBox="0 0 52 52" fill="none" xmlns="http://www.w3.org/2000/svg">
<g id="eyes-25">
<path id="Vector" d="M22.72 31.0799C14.83 31.0799 7.59998 30.9999 7.59998 30.9999C9.51998 27.0699 14.71 21.9999 23.27 21.0799C31.66 20.1399 36.35 24.2099 34.97 28.5299C33.94 31.7599 29.43 31.0799 22.72 31.0799Z" fill="white"/>
<path id="Vector_2" d="M15 24C14.7787 24.6917 14.6674 25.4138 14.67 26.14C14.6702 27.8791 15.3069 29.5581 16.46 30.86C17.76 32.33 25.03 32.68 26.25 31.7C27.0774 31.0377 27.7465 30.199 28.2084 29.2452C28.6704 28.2914 28.9136 27.2465 28.9203 26.1867C28.927 25.1269 28.697 24.079 28.2472 23.1194C27.7973 22.1598 27.1389 21.3127 26.32 20.64C25.12 19.61 15.94 21.09 15 24Z" fill="#6C7070"/>
<path id="Vector_3" d="M18.26 26.1201C18.258 26.827 18.466 27.5186 18.8575 28.1072C19.249 28.6958 19.8065 29.155 20.4592 29.4264C21.112 29.6978 21.8306 29.7694 22.524 29.6319C23.2175 29.4945 23.8545 29.1543 24.3544 28.6544C24.8543 28.1546 25.1945 27.5175 25.3319 26.8241C25.4693 26.1306 25.3978 25.412 25.1263 24.7593C24.8549 24.1065 24.3958 23.5491 23.8072 23.1576C23.2186 22.766 22.527 22.5581 21.82 22.5601C20.8759 22.5601 19.9704 22.9351 19.3027 23.6028C18.6351 24.2704 18.26 25.1759 18.26 26.1201Z" fill="black"/>
<path id="Vector_4" d="M22.72 31.0799C14.83 31.0799 7.59998 30.9999 7.59998 30.9999C9.51998 27.0699 14.71 21.9999 23.27 21.0799C31.66 20.1399 36.35 24.2099 34.97 28.5299C33.94 31.7599 29.43 31.0799 22.72 31.0799Z" stroke="black" stroke-width="3.28" stroke-linecap="square"/>
<path id="Vector_5" d="M42.89 25.6298L35.89 28.2098L34.98 25.0498L42.33 23.5198L42.89 25.6298ZM40.43 18.9998L34.76 23.9098L32.76 21.2798L39.08 17.2798L40.43 18.9998Z" fill="black"/>
</g>
</svg>
