<svg width="52" height="52" viewBox="0 0 52 52" fill="none" xmlns="http://www.w3.org/2000/svg">
<g id="eyes-04">
<path id="Vector" d="M34 26C34 23.6266 33.2962 21.3066 31.9776 19.3332C30.6591 17.3598 28.7849 15.8217 26.5922 14.9135C24.3995 14.0052 21.9867 13.7676 19.6589 14.2306C17.3312 14.6936 15.193 15.8365 13.5147 17.5147C11.8365 19.193 10.6936 21.3312 10.2306 23.6589C9.76756 25.9867 10.0052 28.3995 10.9135 30.5922C11.8217 32.7849 13.3598 34.6591 15.3332 35.9776C17.3066 37.2962 19.6266 38 22 38C25.1826 38 28.2349 36.7357 30.4853 34.4853C32.7357 32.2349 34 29.1826 34 26Z" fill="white"/>
<path id="Vector_2" d="M28.55 26.0002C28.55 27.3005 28.1641 28.5715 27.4413 29.6524C26.7185 30.7332 25.6912 31.5753 24.4896 32.072C23.2879 32.5687 21.9659 32.6976 20.6909 32.4425C19.4159 32.1873 18.2452 31.5596 17.3272 30.6388C16.4092 29.7179 15.785 28.5454 15.5338 27.2696C15.2825 25.9939 15.4155 24.6722 15.9158 23.4721C16.4162 22.2719 17.2614 21.2472 18.3444 20.5277C19.4275 19.8082 20.6997 19.4262 22 19.4302C23.739 19.4355 25.405 20.13 26.6327 21.3616C27.8605 22.5931 28.55 24.2612 28.55 26.0002Z" fill="#6C7070"/>
<path id="Vector_3" d="M25.27 26C25.27 26.6516 25.0765 27.2884 24.7141 27.8299C24.3517 28.3714 23.8367 28.793 23.2344 29.0415C22.632 29.2899 21.9695 29.3538 21.3308 29.2253C20.692 29.0967 20.1058 28.7814 19.6465 28.3192C19.1872 27.8571 18.8755 27.269 18.7508 26.6295C18.6261 25.99 18.6941 25.3279 18.9462 24.7271C19.1983 24.1263 19.6231 23.6138 20.1668 23.2547C20.7104 22.8956 21.3485 22.7061 22 22.71C22.4307 22.7113 22.857 22.7975 23.2544 22.9635C23.6519 23.1296 24.0127 23.3723 24.3164 23.6778C24.62 23.9833 24.8605 24.3456 25.0242 24.7441C25.1878 25.1425 25.2713 25.5693 25.27 26Z" fill="black"/>
<path id="Vector_4" d="M33.93 26.0001C33.9201 23.6379 33.2103 21.3316 31.8904 19.3726C30.5704 17.4136 28.6995 15.8898 26.5139 14.9936C24.3283 14.0973 21.9261 13.869 19.6108 14.3373C17.2955 14.8057 15.1709 15.9497 13.5055 17.6249C11.8401 19.3001 10.7085 21.4314 10.2537 23.7494C9.79887 26.0674 10.0413 28.4682 10.9503 30.6485C11.8592 32.8288 13.394 34.6908 15.3607 35.9993C17.3274 37.3078 19.6378 38.004 22 38.0001C23.5718 37.9975 25.1277 37.6848 26.5785 37.0799C28.0293 36.4751 29.3465 35.59 30.4547 34.4753C31.5629 33.3606 32.4403 32.0382 33.0366 30.5839C33.633 29.1296 33.9366 27.5719 33.93 26.0001Z" stroke="black" stroke-width="3.28"/>
</g>
</svg>
