<svg width="52" height="52" viewBox="0 0 52 52" fill="none" xmlns="http://www.w3.org/2000/svg">
<g id="eyes-60">
<path id="Vector" d="M26.78 34.27C16.58 37.92 6.78003 30.55 6.78003 30.55C6.78003 30.55 12.02 20.67 21.28 20.13C34.39 19.38 33.79 29.77 33.79 29.77C31.8917 31.8627 29.473 33.4153 26.78 34.27Z" fill="white"/>
<path id="Vector_2" d="M12.77 27.6699C12.768 29.1027 13.1912 30.5039 13.986 31.696C14.7808 32.8882 15.9114 33.8177 17.2348 34.3669C18.5581 34.9161 20.0147 35.0604 21.42 34.7813C22.8254 34.5023 24.1163 33.8125 25.1295 32.7994C26.1426 31.7863 26.8324 30.4953 27.1114 29.0899C27.3904 27.6846 27.2462 26.228 26.697 24.9047C26.1478 23.5814 25.2183 22.4507 24.0261 21.6559C22.834 20.8612 21.4328 20.438 20 20.4399C18.0833 20.4426 16.2459 21.2052 14.8906 22.5605C13.5353 23.9158 12.7727 25.7532 12.77 27.6699Z" fill="#6C7070"/>
<path id="Vector_3" d="M16.39 27.6698C16.39 28.3862 16.6026 29.0865 17.0008 29.682C17.399 30.2775 17.965 30.7415 18.627 31.0152C19.2891 31.2889 20.0174 31.36 20.7199 31.2195C21.4224 31.079 22.0674 30.7333 22.5733 30.226C23.0791 29.7187 23.4231 29.0728 23.5617 28.3699C23.7002 27.667 23.6271 26.9389 23.3516 26.2776C23.0761 25.6163 22.6105 25.0516 22.0139 24.655C21.4173 24.2585 20.7164 24.0478 20 24.0498C19.0417 24.0525 18.1235 24.435 17.4468 25.1136C16.77 25.7922 16.39 26.7115 16.39 27.6698Z" fill="black"/>
<path id="Vector_4" d="M6.78998 30.6599C8.45945 27.8824 10.6136 25.4269 13.15 23.4099C15.7221 21.6144 18.8163 20.7211 21.9497 20.8694C25.083 21.0178 28.079 22.1994 30.47 24.2299C32.1787 25.8562 33.5395 27.8123 34.47 29.9799" stroke="black" stroke-width="3.28"/>
<path id="Vector_5" d="M38.2 27.1102C38.2 27.1102 30.94 14.1102 14.52 22.2502" stroke="black" stroke-width="2.93"/>
</g>
</svg>
