<svg width="52" height="52" viewBox="0 0 52 52" fill="none" xmlns="http://www.w3.org/2000/svg">
<g id="eyes-03">
<path id="Vector" d="M14.51 28.6201C14.4806 30.886 15.352 33.0709 16.9327 34.6947C18.5134 36.3186 20.6741 37.2484 22.94 37.2801C24.0615 37.2644 25.169 37.028 26.1991 36.5843C27.2293 36.1406 28.1619 35.4983 28.9438 34.6941C29.7257 33.89 30.3415 32.9396 30.7561 31.8974C31.1707 30.8552 31.3759 29.7416 31.36 28.6201C31.36 23.8401 27.59 21.3101 22.94 21.3101C18.29 21.3101 14.51 23.8401 14.51 28.6201Z" fill="#6C7070"/>
<path id="Vector_2" d="M16.16 27.8598C16.158 29.2012 16.554 30.513 17.2978 31.6293C18.0415 32.7456 19.0997 33.6162 20.3385 34.1309C21.5772 34.6456 22.9407 34.7813 24.2566 34.5208C25.5724 34.2603 26.7814 33.6154 27.7306 32.6676C28.6798 31.7198 29.3265 30.5117 29.589 29.1962C29.8514 27.8808 29.7177 26.517 29.2048 25.2776C28.692 24.0381 27.823 22.9786 26.7078 22.2332C25.5926 21.4877 24.2814 21.0898 22.94 21.0898C21.1435 21.0898 19.4205 21.8028 18.1493 23.0721C16.8781 24.3415 16.1626 26.0634 16.16 27.8598Z" fill="#6C7070"/>
<path id="Vector_3" d="M19.55 27.86C19.548 28.5309 19.7452 29.1873 20.1165 29.7461C20.4877 30.3049 21.0165 30.7409 21.6358 30.9991C22.255 31.2572 22.937 31.3257 23.5952 31.1961C24.2535 31.0664 24.8584 30.7443 25.3335 30.2706C25.8086 29.7969 26.1325 29.1929 26.2641 28.535C26.3957 27.8772 26.3292 27.195 26.0729 26.575C25.8166 25.955 25.3821 25.4249 24.8244 25.052C24.2667 24.6791 23.6109 24.48 22.94 24.48C22.0426 24.48 21.1819 24.8358 20.5464 25.4694C19.911 26.1029 19.5526 26.9626 19.55 27.86Z" fill="black"/>
<path id="Vector_4" d="M9 27.8798C10.66 24.1398 15.77 19.7998 23 19.7998C30.23 19.7998 35.29 24.1398 37 27.8798" stroke="black" stroke-width="3.28"/>
</g>
</svg>
