<svg width="52" height="52" viewBox="0 0 52 52" fill="none" xmlns="http://www.w3.org/2000/svg">
<g id="eyes-45">
<path id="Vector" d="M10.22 25.29C10.22 29.92 16.13 34 23.53 34.29C32.26 34.58 37.12 30.05 36.84 25.43C36.63 21.83 31.93 19.59 24.08 19.2C14.84 18.7 10.22 20.66 10.22 25.29Z" fill="white"/>
<path id="Vector_2" d="M17.46 24.34C17.4973 25.4946 17.8739 26.6126 18.5427 27.5544C19.2115 28.4963 20.143 29.2202 21.2207 29.636C22.2985 30.0517 23.4748 30.1408 24.6029 29.8921C25.7309 29.6434 26.7608 29.068 27.5638 28.2376C28.3668 27.4072 28.9075 26.3587 29.1182 25.2229C29.329 24.0872 29.2006 22.9145 28.749 21.8512C28.2974 20.788 27.5426 19.8814 26.5789 19.2445C25.6151 18.6076 24.4852 18.2687 23.33 18.27C21.7492 18.3042 20.2457 18.961 19.1465 20.0976C18.0473 21.2343 17.4412 22.7589 17.46 24.34Z" fill="#6C7070"/>
<path id="Vector_3" d="M20.4 24.3399C20.4119 24.9191 20.5945 25.4819 20.9251 25.9576C21.2557 26.4333 21.7195 26.8008 22.2582 27.0138C22.7969 27.2269 23.3866 27.276 23.9532 27.1551C24.5197 27.0341 25.0379 26.7485 25.4427 26.3341C25.8475 25.9196 26.1208 25.3948 26.2283 24.8256C26.3359 24.2563 26.2728 23.668 26.0471 23.1344C25.8214 22.6009 25.4431 22.1459 24.9597 21.8266C24.4763 21.5074 23.9093 21.338 23.33 21.3399C22.5466 21.3581 21.8014 21.6823 21.2538 22.2429C20.7063 22.8035 20.3998 23.5562 20.4 24.3399Z" fill="black"/>
<path id="Vector_4" d="M10.22 25.29C10.22 29.92 16.22 37.5 26.77 36.35C35.32 35.41 37.28 29.19 36.84 25.35" stroke="black" stroke-width="3.28"/>
<path id="Vector_5" d="M10.22 25.29C10.22 29.92 16.13 34 23.53 34.29C32.26 34.58 37.12 30.05 36.84 25.43C36.63 21.83 31.93 19.59 24.08 19.2C14.84 18.7 10.22 20.66 10.22 25.29Z" stroke="black" stroke-width="3.28"/>
</g>
</svg>
