<svg width="52" height="52" viewBox="0 0 52 52" fill="none" xmlns="http://www.w3.org/2000/svg">
<g id="eyes-33">
<path id="Vector" d="M16 27.0702C16 28.5852 16.4493 30.0661 17.2909 31.3258C18.1326 32.5855 19.329 33.5673 20.7286 34.1471C22.1283 34.7268 23.6685 34.8785 25.1544 34.583C26.6403 34.2874 28.0052 33.5579 29.0764 32.4866C30.1477 31.4153 30.8773 30.0504 31.1728 28.5645C31.4684 27.0787 31.3167 25.5385 30.7369 24.1388C30.1572 22.7391 29.1753 21.5428 27.9157 20.7011C26.656 19.8594 25.175 19.4102 23.66 19.4102C21.6284 19.4102 19.6801 20.2172 18.2436 21.6537C16.807 23.0902 16 25.0386 16 27.0702Z" fill="#6C7070"/>
<path id="Vector_2" d="M19.82 27.0698C19.82 27.8273 20.0446 28.5678 20.4655 29.1976C20.8863 29.8274 21.4845 30.3183 22.1843 30.6082C22.8842 30.8981 23.6543 30.9739 24.3972 30.8262C25.1402 30.6784 25.8226 30.3136 26.3582 29.778C26.8939 29.2423 27.2586 28.5599 27.4064 27.817C27.5542 27.074 27.4784 26.3039 27.1885 25.6041C26.8986 24.9042 26.4077 24.3061 25.7779 23.8852C25.148 23.4644 24.4075 23.2398 23.65 23.2398C23.1467 23.2384 22.6481 23.3366 22.1828 23.5286C21.7175 23.7206 21.2948 24.0027 20.9389 24.3586C20.5829 24.7145 20.3009 25.1372 20.1089 25.6025C19.9169 26.0678 19.8187 26.5664 19.82 27.0698Z" fill="black"/>
<path id="Vector_3" d="M12.34 32.9998C11.6857 31.7931 11.342 30.4425 11.34 29.0698C11.34 23.5698 16.86 19.0698 23.66 19.0698C30.46 19.0698 36 23.5298 36 28.9998C36.0102 30.3963 35.6661 31.7725 35 32.9998" stroke="black" stroke-width="3.28"/>
</g>
</svg>
