<svg width="52" height="52" viewBox="0 0 52 52" fill="none" xmlns="http://www.w3.org/2000/svg">
<g id="eyes-59">
<path id="Vector" d="M11.08 25.4402C8.82001 28.3102 4.91001 34.3102 7.66001 34.6902C11.9689 35.2676 16.3127 35.5449 20.66 35.5202C25.2635 35.5448 29.8626 35.2307 34.42 34.5802C36 34.3302 34 31.5102 34 31.5102C34 31.5102 32.41 28.2102 31.78 27.1202C30.37 24.6902 28.53 20.4102 21.43 20.4102C17 20.4102 14.17 21.5202 11.08 25.4402Z" fill="white"/>
<path id="Vector_2" d="M12.5 27.8699C12.5627 29.8796 13.4203 31.7824 14.8846 33.1604C16.3489 34.5384 18.3001 35.2791 20.31 35.2199C22.3216 35.2818 24.2754 34.5424 25.7418 33.164C27.2083 31.7857 28.0673 29.8814 28.13 27.8699C28.0699 25.8557 27.2123 23.9478 25.7459 22.5658C24.2795 21.1837 22.3242 20.4406 20.31 20.4999C18.2975 20.4433 16.3448 21.1877 14.8806 22.5694C13.4163 23.9512 12.5601 25.8575 12.5 27.8699Z" fill="#6C7070"/>
<path id="Vector_3" d="M16.4 27.8699C16.4155 28.3677 16.529 28.8576 16.7339 29.3115C16.9389 29.7654 17.2313 30.1744 17.5944 30.5153C17.9575 30.8561 18.3843 31.1221 18.8502 31.2979C19.3162 31.4737 19.8123 31.5559 20.31 31.5399C20.8161 31.5773 21.3244 31.5098 21.8033 31.3418C22.2821 31.1738 22.7211 30.9088 23.0929 30.5634C23.4647 30.2181 23.7613 29.7997 23.964 29.3345C24.1668 28.8694 24.2715 28.3674 24.2715 27.8599C24.2715 27.3525 24.1668 26.8505 23.964 26.3853C23.7613 25.9201 23.4647 25.5018 23.0929 25.1564C22.7211 24.811 22.2821 24.5461 21.8033 24.3781C21.3244 24.21 20.8161 24.1426 20.31 24.1799C19.8109 24.1653 19.3139 24.2491 18.8472 24.4267C18.3806 24.6042 17.9535 24.872 17.5903 25.2147C17.2272 25.5573 16.9352 25.9682 16.731 26.4238C16.5267 26.8794 16.4143 27.3708 16.4 27.8699ZM43 28.4999L36 31.2299L35 28.0899L42.3 26.3999L43 28.4999Z" fill="black"/>
<path id="Vector_4" d="M35.61 34.92C35.6096 34.0064 35.5427 33.094 35.41 32.19C34.27 24.76 28.56 20 21.69 20C14 20 7.77002 26.19 7.77002 34.92" stroke="black" stroke-width="3.27"/>
<path id="Vector_5" d="M33.58 34.9198C33.58 26.1898 28.29 20.5098 20.99 20.5098C13.69 20.5098 7.77002 26.1898 7.77002 34.9198" stroke="black" stroke-width="3.27"/>
<path id="Vector_6" d="M37.51 35.3599L27.81 36.9799" stroke="black" stroke-width="3.36"/>
</g>
</svg>
