<svg width="52" height="52" viewBox="0 0 52 52" fill="none" xmlns="http://www.w3.org/2000/svg">
<g id="eyes-51">
<path id="Vector" d="M22.41 30.6902C17.1241 30.8037 11.856 30.04 6.82001 28.4302C8.50704 25.8492 10.8235 23.7403 13.551 22.3022C16.2785 20.8641 19.3273 20.1441 22.41 20.2102C25.4927 20.1441 28.5415 20.8641 31.269 22.3022C33.9966 23.7403 36.313 25.8492 38 28.4302C32.9639 30.0397 27.6958 30.8034 22.41 30.6902Z" fill="white" stroke="black" stroke-width="0.65" stroke-linejoin="bevel"/>
<path id="Vector_2" d="M22.41 31.6599C25.8618 31.6599 28.66 29.0363 28.66 25.7999C28.66 22.5636 25.8618 19.9399 22.41 19.9399C18.9582 19.9399 16.16 22.5636 16.16 25.7999C16.16 29.0363 18.9582 31.6599 22.41 31.6599Z" fill="#6C7070"/>
<path id="Vector_3" d="M22.41 28.7301C24.1331 28.7301 25.53 27.4183 25.53 25.8001C25.53 24.1819 24.1331 22.8701 22.41 22.8701C20.6868 22.8701 19.29 24.1819 19.29 25.8001C19.29 27.4183 20.6868 28.7301 22.41 28.7301Z" fill="black"/>
<path id="Vector_4" d="M22.41 30.6898C17.1241 30.8033 11.856 30.0396 6.82001 28.4298C9.82001 23.5298 15.68 21.5098 22.41 21.5098C29.14 21.5098 35.01 23.5098 38.01 28.4298C32.9707 30.0403 27.6992 30.804 22.41 30.6898Z" stroke="black" stroke-width="3.28" stroke-linejoin="bevel"/>
<path id="Vector_5" d="M13.09 35.2598C16.1783 35.6863 19.2925 35.8969 22.41 35.8898C25.5309 35.897 28.6485 35.6865 31.74 35.2598" stroke="black" stroke-width="2.93" stroke-linejoin="bevel"/>
</g>
</svg>
