<svg width="52" height="52" viewBox="0 0 52 52" fill="none" xmlns="http://www.w3.org/2000/svg">
<g id="eyes-40">
<path id="Vector" d="M9.17001 22.3C7.69001 27.17 12.22 32.78 19.27 34.82C26.32 36.86 33.27 34.58 34.71 29.7C36.15 24.82 31.66 19.22 24.61 17.18C17.56 15.14 10.64 17.42 9.17001 22.3Z" fill="white"/>
<path id="Vector_2" d="M12.93 25.5501C12.928 27.068 13.3764 28.5523 14.2185 29.8151C15.0605 31.078 16.2583 32.0626 17.6602 32.6444C19.0621 33.2261 20.6051 33.3789 22.0939 33.0832C23.5826 32.7876 24.9502 32.0569 26.0235 30.9836C27.0968 29.9104 27.8275 28.5428 28.1231 27.054C28.4187 25.5653 28.266 24.0223 27.6842 22.6203C27.1025 21.2184 26.1178 20.0206 24.855 19.1786C23.5921 18.3366 22.1078 17.8882 20.59 17.8901C18.5584 17.8901 16.6101 18.6972 15.1736 20.1337C13.737 21.5702 12.93 23.5186 12.93 25.5501Z" fill="#6C7070"/>
<path id="Vector_3" d="M16.76 25.5502C16.758 26.3106 16.9818 27.0544 17.403 27.6874C17.8242 28.3204 18.4238 28.8141 19.1259 29.106C19.828 29.3979 20.6009 29.4748 21.3467 29.3269C22.0925 29.1791 22.7777 28.8131 23.3153 28.2755C23.8529 27.7379 24.2189 27.0527 24.3667 26.3069C24.5146 25.5611 24.4377 24.7882 24.1458 24.0861C23.8539 23.384 23.3602 22.7844 22.7272 22.3632C22.0942 21.942 21.3504 21.7183 20.59 21.7202C19.5742 21.7202 18.6001 22.1237 17.8818 22.842C17.1635 23.5603 16.76 24.5344 16.76 25.5502Z" fill="black"/>
<path id="Vector_4" d="M9.17001 22.3C7.69001 27.17 12.22 32.78 19.27 34.82C26.32 36.86 33.27 34.58 34.71 29.7C36.15 24.82 31.66 19.22 24.61 17.18C17.56 15.14 10.64 17.42 9.17001 22.3Z" stroke="black" stroke-width="3.28"/>
<path id="Vector_5" d="M20.77 17.5602C24.71 18.4102 32.9 21.2202 35.63 25.7402C36.0475 26.3879 36.3214 27.1174 36.4336 27.8798C36.5457 28.6422 36.4933 29.4197 36.28 30.1602L33.13 29.2502C33.2235 28.9326 33.2423 28.5977 33.1851 28.2716C33.1279 27.9455 32.9961 27.637 32.8 27.3702C31.1 24.5502 25 21.7602 20.06 20.7002C13.65 19.3202 11.65 19.7602 10.74 22.7502L7.59003 21.8402C9.61003 15.1502 16.32 16.6002 20.77 17.5602Z" fill="black"/>
</g>
</svg>
