<svg width="52" height="52" viewBox="0 0 52 52" fill="none" xmlns="http://www.w3.org/2000/svg">
<g id="eyes-23">
<path id="Vector" d="M39.26 19.1099C37.7367 23.0455 35.0816 26.4417 31.63 28.8699C25.27 32.9999 11.53 31.9999 11.53 31.9999C8.90999 31.9999 6.79999 30.1499 6.79999 27.8699C6.88214 26.6951 7.42556 25.6006 8.31169 24.825C9.19781 24.0494 10.3547 23.6557 11.53 23.7299C16.6988 23.8256 21.8666 23.4911 26.98 22.7299C31.1835 21.9345 35.2972 20.7219 39.26 19.1099Z" fill="white"/>
<path id="Vector_2" d="M13.77 27.6198C13.77 28.6638 14.0802 29.6842 14.661 30.5517C15.2419 31.4192 16.0673 32.0946 17.0326 32.4923C17.9979 32.89 19.0596 32.992 20.0829 32.7854C21.1063 32.5788 22.0452 32.0729 22.7806 31.3318C23.516 30.5908 24.0148 29.648 24.2136 28.6231C24.4124 27.5982 24.3023 26.5374 23.8973 25.5751C23.4923 24.6129 22.8106 23.7926 21.9387 23.2184C21.0668 22.6442 20.044 22.3418 19 22.3498C17.6093 22.3603 16.2791 22.9202 15.2994 23.9074C14.3197 24.8946 13.77 26.229 13.77 27.6198Z" fill="#6C7070"/>
<path id="Vector_3" d="M16.41 27.62C16.4061 28.1451 16.5589 28.6594 16.8488 29.0972C17.1388 29.535 17.5527 29.8764 18.0376 30.0777C18.5226 30.2791 19.0566 30.3312 19.5713 30.2275C20.0861 30.1238 20.5582 29.8689 20.9274 29.4955C21.2966 29.1221 21.546 28.647 21.6437 28.1311C21.7415 27.6152 21.6832 27.0818 21.4763 26.5992C21.2694 26.1166 20.9233 25.7067 20.4821 25.4218C20.041 25.1369 19.525 24.9901 19 25C18.3111 25.0105 17.6539 25.2908 17.1696 25.7807C16.6853 26.2707 16.4125 26.9311 16.41 27.62Z" fill="black"/>
<path id="Vector_4" d="M39.26 19.1099C37.7367 23.0455 35.0816 26.4417 31.63 28.8699C25.27 32.9999 11.53 31.9999 11.53 31.9999C8.90999 31.9999 6.79999 30.1499 6.79999 27.8699C6.88214 26.6951 7.42556 25.6006 8.31169 24.825C9.19781 24.0494 10.3547 23.6557 11.53 23.7299C16.6988 23.8256 21.8666 23.4911 26.98 22.7299C31.1835 21.9345 35.2972 20.7219 39.26 19.1099Z" stroke="black" stroke-width="3.28"/>
</g>
</svg>
