<svg width="52" height="52" viewBox="0 0 52 52" fill="none" xmlns="http://www.w3.org/2000/svg">
<g id="eyes-01">
<path id="Vector" d="M10.52 24.3802C15 17.0002 24.93 14.6402 31.5 20.4502C37.06 25.3802 35.91 34.8902 35.91 34.8902C31.0754 35.3116 26.2224 35.4852 21.37 35.4102C15.48 35.2702 7.07001 34.8602 7.07001 34.8602C7.44365 31.1574 8.62106 27.5808 10.52 24.3802Z" fill="white"/>
<path id="Vector_2" d="M13 27.0002C12.998 28.6901 13.4975 30.3426 14.4351 31.7486C15.3727 33.1545 16.7064 34.2506 18.2673 34.8982C19.8282 35.5458 21.5461 35.7158 23.2036 35.3866C24.8611 35.0574 26.3837 34.2439 27.5787 33.0489C28.7736 31.854 29.5872 30.3314 29.9164 28.6738C30.2456 27.0163 30.0756 25.2984 29.428 23.7375C28.7804 22.1766 27.6843 20.8429 26.2783 19.9053C24.8724 18.9677 23.2199 18.4682 21.53 18.4702C19.2677 18.4702 17.0981 19.3689 15.4984 20.9686C13.8987 22.5683 13 24.7379 13 27.0002Z" fill="#6C7070"/>
<path id="Vector_3" d="M17.21 27C17.21 27.8445 17.4605 28.6701 17.9296 29.3723C18.3988 30.0745 19.0657 30.6218 19.846 30.9449C20.6262 31.2681 21.4848 31.3527 22.3131 31.1879C23.1414 31.0232 23.9022 30.6165 24.4994 30.0193C25.0965 29.4222 25.5032 28.6613 25.668 27.833C25.8327 27.0047 25.7482 26.1462 25.425 25.3659C25.1018 24.5857 24.5545 23.9188 23.8523 23.4496C23.1501 22.9804 22.3245 22.73 21.48 22.73C20.3475 22.73 19.2615 23.1799 18.4607 23.9806C17.6599 24.7814 17.21 25.8675 17.21 27Z" fill="black"/>
<path id="Vector_4" d="M10.52 24.3802C15 17.0002 24.93 14.6402 31.5 20.4502C37.06 25.3802 35.91 34.8902 35.91 34.8902C35.91 34.8902 28.41 35.4602 21.37 35.4102C15.23 35.4102 7.07001 34.8602 7.07001 34.8602C7.44365 31.1574 8.62106 27.5808 10.52 24.3802Z" stroke="black" stroke-width="3.28"/>
<path id="Vector_5" d="M44 18.2302L35.6 23.9002L34.03 21.3002L42.95 16.4902L44 18.2302Z" fill="black"/>
</g>
</svg>
