<svg width="52" height="52" viewBox="0 0 52 52" fill="none" xmlns="http://www.w3.org/2000/svg">
<g id="eyes-19">
<path id="Vector" d="M12.75 26.0001C12.754 27.4283 13.1808 28.8234 13.9768 30.0093C14.7728 31.1952 15.9021 32.1188 17.2224 32.6635C18.5427 33.2083 19.9948 33.3497 21.3954 33.0701C22.796 32.7905 24.0824 32.1023 25.0924 31.0924C26.1023 30.0825 26.7905 28.7961 27.0701 27.3954C27.3497 25.9948 27.2082 24.5428 26.6634 23.2225C26.1187 21.9022 25.1951 20.7728 24.0092 19.9769C22.8233 19.1809 21.4282 18.754 20 18.7501C19.0468 18.7461 18.1023 18.9309 17.2209 19.2939C16.3395 19.6568 15.5386 20.1907 14.8646 20.8647C14.1906 21.5387 13.6567 22.3395 13.2938 23.2209C12.9309 24.1023 12.746 25.0469 12.75 26.0001Z" fill="#6C7070"/>
<path id="Vector_2" d="M16.36 26C16.3659 26.7114 16.5819 27.4052 16.9809 27.9942C17.3798 28.5833 17.9439 29.0413 18.6023 29.3108C19.2607 29.5803 19.9841 29.6493 20.6815 29.509C21.379 29.3688 22.0195 29.0256 22.5225 28.5225C23.0256 28.0195 23.3688 27.379 23.509 26.6815C23.6493 25.9841 23.5803 25.2607 23.3108 24.6023C23.0413 23.9439 22.5833 23.3798 21.9942 22.9809C21.4052 22.5819 20.7114 22.3659 20 22.36C19.5209 22.356 19.0457 22.4474 18.6023 22.6289C18.1589 22.8104 17.756 23.0784 17.4172 23.4172C17.0784 23.756 16.8104 24.1589 16.6289 24.6023C16.4474 25.0457 16.356 25.5209 16.36 26Z" fill="black"/>
</g>
</svg>
