<svg width="52" height="52" viewBox="0 0 52 52" fill="none" xmlns="http://www.w3.org/2000/svg">
<g id="eyes-12">
<path id="Vector" d="M11 29.0999C10.998 30.4274 11.3899 31.7257 12.126 32.8305C12.8621 33.9353 13.9093 34.7969 15.1353 35.3063C16.3612 35.8157 17.7107 35.95 19.0129 35.6922C20.3152 35.4344 21.5117 34.7961 22.4511 33.8581C23.3906 32.9201 24.0306 31.7245 24.2903 30.4226C24.5501 29.1208 24.4178 27.7711 23.9102 26.5444C23.4026 25.3177 22.5426 24.2692 21.4389 23.5314C20.3353 22.7937 19.0375 22.3999 17.71 22.3999C16.8293 22.3986 15.957 22.5709 15.143 22.907C14.3289 23.2432 13.5891 23.7365 12.9659 24.3588C12.3427 24.981 11.8483 25.7201 11.511 26.5336C11.1736 27.3472 11 28.2192 11 29.0999Z" fill="#6C7070"/>
<path id="Vector_2" d="M11.72 29.1001C11.72 30.2868 12.0719 31.4468 12.7312 32.4335C13.3904 33.4202 14.3275 34.1892 15.4239 34.6434C16.5202 35.0975 17.7266 35.2163 18.8905 34.9848C20.0544 34.7533 21.1235 34.1819 21.9626 33.3427C22.8017 32.5036 23.3732 31.4345 23.6047 30.2706C23.8362 29.1068 23.7174 27.9004 23.2632 26.804C22.8091 25.7076 22.0401 24.7706 21.0534 24.1113C20.0667 23.452 18.9067 23.1001 17.72 23.1001C16.1287 23.1001 14.6025 23.7322 13.4773 24.8575C12.3521 25.9827 11.72 27.5088 11.72 29.1001Z" fill="#6C7070"/>
<path id="Vector_3" d="M14.73 29.1001C14.73 29.6934 14.9059 30.2735 15.2356 30.7668C15.5652 31.2602 16.0338 31.6447 16.5819 31.8717C17.1301 32.0988 17.7333 32.1582 18.3153 32.0425C18.8972 31.9267 19.4317 31.641 19.8513 31.2214C20.2709 30.8019 20.5566 30.2673 20.6723 29.6854C20.7881 29.1034 20.7287 28.5002 20.5016 27.952C20.2746 27.4039 19.89 26.9353 19.3967 26.6057C18.9033 26.276 18.3233 26.1001 17.73 26.1001C16.9343 26.1001 16.1713 26.4162 15.6087 26.9788C15.0461 27.5414 14.73 28.3044 14.73 29.1001Z" fill="black"/>
<path id="Vector_4" d="M27.74 36.1399C29.3308 33.9988 30.1582 31.3864 30.09 28.7199C30.09 22.2499 25.3 17.7799 18.46 17.7799C15.4346 17.7662 12.503 18.8297 10.19 20.7799" stroke="black" stroke-width="3.28"/>
</g>
</svg>
