<svg width="52" height="52" viewBox="0 0 52 52" fill="none" xmlns="http://www.w3.org/2000/svg">
<g id="eyes-32">
<path id="Vector" d="M9.88 28.2L8.37 26.09C8.84 22.15 10.67 18.56 16.37 19.8C20.8478 20.6447 25.3786 21.1794 29.93 21.4C30.869 21.5116 31.7768 21.807 32.6015 22.2694C33.4263 22.7319 34.1519 23.3522 34.737 24.0951C35.322 24.838 35.7549 25.6888 36.0111 26.599C36.2673 27.5093 36.3417 28.461 36.23 29.4L34.13 31.18C34.13 31.18 32.76 34.63 26.51 34.86C19.42 35.1 12.85 33.84 9.88 28.2Z" fill="white"/>
<path id="Vector_2" d="M15.54 25.3801C15.54 26.3255 15.8203 27.2497 16.3456 28.0357C16.8708 28.8218 17.6173 29.4345 18.4908 29.7962C19.3642 30.158 20.3253 30.2527 21.2525 30.0683C22.1797 29.8838 23.0315 29.4286 23.6999 28.7601C24.3684 28.0916 24.8237 27.2399 25.0081 26.3126C25.1926 25.3854 25.0979 24.4243 24.7361 23.5509C24.3743 22.6774 23.7617 21.9309 22.9756 21.4057C22.1895 20.8804 21.2654 20.6001 20.32 20.6001C19.0522 20.6001 17.8364 21.1037 16.94 22.0001C16.0436 22.8966 15.54 24.1124 15.54 25.3801Z" fill="#6C7070"/>
<path id="Vector_3" d="M17.93 25.38C17.928 25.8531 18.0665 26.3162 18.3279 26.7105C18.5893 27.1049 18.9619 27.4128 19.3984 27.5952C19.835 27.7776 20.3158 27.8264 20.7801 27.7353C21.2444 27.6442 21.6712 27.4174 22.0064 27.0835C22.3417 26.7497 22.5703 26.3238 22.6633 25.86C22.7564 25.3961 22.7096 24.915 22.529 24.4777C22.3484 24.0404 22.0421 23.6666 21.6489 23.4035C21.2556 23.1404 20.7931 23 20.32 23C19.6879 23 19.0815 23.2504 18.6336 23.6965C18.1856 24.1425 17.9327 24.7479 17.93 25.38Z" fill="black"/>
<path id="Vector_4" d="M8.14001 28.0499L8.37001 26.0499C8.84001 22.1099 10.67 18.5199 16.37 19.7599C20.8478 20.6047 25.3786 21.1393 29.93 21.3599C30.869 21.4715 31.7768 21.767 32.6016 22.2294C33.4263 22.6918 34.152 23.3122 34.737 24.0551C35.322 24.798 35.755 25.6488 36.0111 26.559C36.2673 27.4692 36.3417 28.421 36.23 29.3599L36 31.3399" stroke="black" stroke-width="3.28"/>
</g>
</svg>
