<svg width="52" height="52" viewBox="0 0 52 52" fill="none" xmlns="http://www.w3.org/2000/svg">
<g id="eyes-42">
<path id="Vector" d="M16.84 27.5401C16.84 28.707 17.1861 29.8478 17.8344 30.818C18.4827 31.7883 19.4041 32.5445 20.4822 32.991C21.5603 33.4376 22.7466 33.5544 23.8911 33.3268C25.0355 33.0991 26.0868 32.5372 26.912 31.7121C27.7371 30.8869 28.299 29.8357 28.5267 28.6912C28.7543 27.5467 28.6375 26.3604 28.1909 25.2823C27.7444 24.2042 26.9881 23.2828 26.0179 22.6345C25.0476 21.9862 23.9069 21.6401 22.74 21.6401C21.1761 21.6428 19.6769 22.2652 18.571 23.3711C17.4651 24.477 16.8427 25.9762 16.84 27.5401Z" fill="#6C7070"/>
<path id="Vector_2" d="M19.79 27.5398C19.7801 28.1373 19.9489 28.7241 20.2747 29.225C20.6005 29.726 21.0685 30.1182 21.6187 30.3514C22.1689 30.5846 22.7762 30.6483 23.3627 30.5341C23.9493 30.4199 24.4884 30.1332 24.9109 29.7107C25.3335 29.2881 25.6202 28.749 25.7344 28.1625C25.8485 27.5759 25.7849 26.9686 25.5517 26.4184C25.3184 25.8683 24.9262 25.4003 24.4253 25.0745C23.9243 24.7487 23.3375 24.5799 22.74 24.5898C21.9616 24.6026 21.2188 24.9176 20.6683 25.468C20.1178 26.0185 19.8029 26.7614 19.79 27.5398Z" fill="black"/>
<path id="Vector_3" d="M36.52 21.0298H18.51L10.45 29.5898M36.52 23.0898H16.64" stroke="black" stroke-width="3.28"/>
</g>
</svg>
