<svg width="52" height="52" viewBox="0 0 52 52" fill="none" xmlns="http://www.w3.org/2000/svg">
<g id="eyes-13">
<path id="Vector" d="M13.81 27.4498C13.808 28.8795 14.2306 30.2776 15.024 31.4668C15.8175 32.6561 16.9462 33.5831 18.2671 34.1302C19.5879 34.6773 21.0415 34.8199 22.4435 34.54C23.8455 34.2601 25.1329 33.5703 26.1424 32.558C27.1519 31.5456 27.8382 30.2564 28.1142 28.8536C28.3902 27.4508 28.2435 25.9976 27.6927 24.6783C27.142 23.359 26.2119 22.2328 25.0204 21.4427C23.8289 20.6525 22.4297 20.2339 21 20.2398C19.0921 20.2477 17.2648 21.0105 15.9176 22.3615C14.5704 23.7125 13.8126 25.5419 13.81 27.4498Z" fill="#6C7070"/>
<path id="Vector_2" d="M17.42 27.4502C17.418 28.1659 17.6289 28.866 18.0257 29.4616C18.4225 30.0572 18.9874 30.5215 19.6486 30.7953C20.3098 31.0692 21.0375 31.1403 21.7392 30.9997C22.441 30.8591 23.0851 30.5131 23.5897 30.0056C24.0944 29.4982 24.4368 28.8521 24.5735 28.1496C24.7102 27.4471 24.635 26.7198 24.3575 26.0601C24.0799 25.4005 23.6126 24.8382 23.0148 24.4447C22.4169 24.0512 21.7157 23.8443 21 23.8502C20.0487 23.8555 19.1381 24.2371 18.4673 24.9117C17.7965 25.5862 17.42 26.4989 17.42 27.4502Z" fill="black"/>
<path id="Vector_3" d="M36.41 32.1402C36.41 32.1402 38.87 22.8502 30.8 18.5102C22.73 14.1702 13.8 18.3702 8 31.6502" stroke="black" stroke-width="3.28"/>
</g>
</svg>
