<svg width="52" height="52" viewBox="0 0 52 52" fill="none" xmlns="http://www.w3.org/2000/svg">
<g id="eyes-54">
<path id="Vector" d="M35.47 27.44C31.89 31 32.62 32.33 23.68 34C19.45 34.81 11.68 34.42 7.40997 31.24C8.91997 24.96 13.41 19.24 25.96 20.43C32.41 21.07 31.28 24.44 35.47 27.44Z" fill="white"/>
<path id="Vector_2" d="M13 27.1502C13.0575 29.0768 13.8777 30.9017 15.2804 32.2238C16.6831 33.5458 18.5533 34.2567 20.48 34.2002C21.4348 34.2295 22.3861 34.0704 23.2793 33.7319C24.1726 33.3934 24.9904 32.8821 25.686 32.2274C26.3816 31.5727 26.9414 30.7873 27.3333 29.9161C27.7252 29.0449 27.9415 28.105 27.97 27.1502C27.897 25.2314 27.0689 23.4193 25.6661 22.1082C24.2632 20.7971 22.3993 20.0934 20.48 20.1502C18.5624 20.0961 16.701 20.801 15.3004 22.1118C13.8997 23.4226 13.073 25.2332 13 27.1502Z" fill="#6C7070"/>
<path id="Vector_3" d="M16.7 27.15C16.7288 28.1138 17.1387 29.0267 17.8399 29.6885C18.5411 30.3503 19.4762 30.7069 20.44 30.68C20.9381 30.7454 21.4444 30.7036 21.9251 30.5577C22.4057 30.4117 22.8497 30.1648 23.2273 29.8335C23.6049 29.5022 23.9075 29.0941 24.1148 28.6365C24.322 28.1789 24.4293 27.6823 24.4293 27.18C24.4293 26.6777 24.322 26.1811 24.1148 25.7235C23.9075 25.2659 23.6049 24.8578 23.2273 24.5265C22.8497 24.1952 22.4057 23.9483 21.9251 23.8023C21.4444 23.6564 20.9381 23.6146 20.44 23.68C19.4862 23.6528 18.5599 24.0011 17.8604 24.6501C17.1609 25.2991 16.7442 26.1968 16.7 27.15ZM42.4 25.97L35.76 29.45L34.03 30.22L32.73 27.21L34.45 26.43L41.53 23.96L42.4 25.97ZM39.57 20.52L33.83 25.36L32.46 26.5L30.54 23.84L31.91 22.7L38.28 18.75L39.57 20.52Z" fill="black"/>
<path id="Vector_4" d="M35.12 30.2401C33.98 24.7301 28.48 20.5601 21.87 20.5601C14.44 20.5601 7.40997 25.8401 7.40997 32.3501" stroke="black" stroke-width="3.37"/>
<path id="Vector_5" d="M7.29999 32.08C7.29999 25.08 13.97 19.46 22.19 19.46C29.19 19.46 35.09 23.57 36.67 29.1L29 34.2" stroke="black" stroke-width="3.26"/>
</g>
</svg>
