<svg width="52" height="52" viewBox="0 0 52 52" fill="none" xmlns="http://www.w3.org/2000/svg">
<g id="eyes-43">
<path id="Vector" d="M6.56 26.13C6.56 31.33 12.71 35.55 20.31 35.55C27.91 35.55 34.06 31.33 34.06 26.13C34.06 20.93 27.9 16.71 20.31 16.71C12.72 16.71 6.56 20.93 6.56 26.13Z" fill="white"/>
<path id="Vector_2" d="M11.58 25.6101C11.5423 27.2757 12.0013 28.9149 12.8987 30.3187C13.796 31.7225 15.091 32.8274 16.6186 33.4925C18.1462 34.1576 19.8372 34.3528 21.4762 34.0533C23.1151 33.7538 24.6278 32.973 25.8214 31.8106C27.015 30.6482 27.8355 29.1567 28.1783 27.5263C28.5211 25.8958 28.3707 24.2002 27.7463 22.6555C27.1219 21.1109 26.0517 19.7871 24.6721 18.8529C23.2925 17.9187 21.6661 17.4164 20 17.4101C18.9083 17.3942 17.8242 17.5939 16.8099 17.9976C15.7955 18.4014 14.8707 19.0013 14.0886 19.763C13.3064 20.5247 12.6822 21.4333 12.2518 22.4366C11.8213 23.44 11.593 24.5184 11.58 25.6101Z" fill="#6C7070"/>
<path id="Vector_3" d="M15.77 25.61C15.7501 26.4446 15.9794 27.2663 16.4287 27.97C16.8779 28.6737 17.5267 29.2275 18.2922 29.5608C19.0577 29.8941 19.9051 29.9917 20.7263 29.8411C21.5475 29.6905 22.3052 29.2986 22.9027 28.7154C23.5001 28.1322 23.9101 27.3842 24.0805 26.5668C24.2508 25.7495 24.1737 24.8999 23.8589 24.1266C23.5442 23.3534 23.0061 22.6914 22.3134 22.2253C21.6208 21.7593 20.8049 21.5102 19.97 21.51C18.8701 21.4993 17.8107 21.9246 17.0236 22.693C16.2366 23.4613 15.7858 24.5101 15.77 25.61Z" fill="black"/>
<path id="Vector_4" d="M6.56 26.13C6.56 31.33 12.71 35.55 20.31 35.55C27.91 35.55 34.06 31.33 34.06 26.13C34.06 20.93 27.9 16.71 20.31 16.71C12.72 16.71 6.56 20.93 6.56 26.13Z" stroke="black" stroke-width="3.28"/>
<path id="Vector_5" d="M6.75 28.6902C6.75 25.0202 12.75 22.0602 20.09 22.0602C27.43 22.0602 33.44 25.0602 33.44 28.6902V22.6002L22.84 16.4502L12.2 19.0002L6.93 24.5902M42.06 25.2102L34.8 27.0902L34.21 23.8602L41.67 23.0602L42.06 25.2102ZM40.26 18.3802L34.14 22.7202L32.44 19.9102L39.13 16.5102L40.26 18.3802Z" fill="black"/>
</g>
</svg>
