<svg width="52" height="52" viewBox="0 0 52 52" fill="none" xmlns="http://www.w3.org/2000/svg">
<g id="eyes-29">
<path id="Vector" d="M41.46 23.6398L34.62 26.7198L31.36 27.8998L30.24 24.8198L33.5 23.6298L40.71 21.5898L41.46 23.6398Z" fill="black"/>
<path id="Vector_2" d="M19.48 15.1201C26.68 15.1201 32.83 20.5401 32.83 27.2301C32.83 31.4901 31.54 32.6001 27.96 34.7601H11.5C7.91001 32.6001 6.14001 31.4901 6.14001 27.2301C6.14001 20.5401 12.29 15.1201 19.48 15.1201Z" fill="white"/>
<path id="Vector_3" d="M11.64 26.5C11.64 28.0823 12.1092 29.629 12.9883 30.9446C13.8673 32.2602 15.1167 33.2855 16.5785 33.891C18.0404 34.4965 19.6489 34.655 21.2007 34.3463C22.7526 34.0376 24.178 33.2757 25.2969 32.1569C26.4157 31.038 27.1776 29.6126 27.4863 28.0607C27.795 26.5089 27.6366 24.9003 27.0311 23.4385C26.4255 21.9767 25.4002 20.7273 24.0846 19.8482C22.769 18.9692 21.2223 18.5 19.64 18.5C17.5183 18.5 15.4835 19.3429 13.9832 20.8431C12.4829 22.3434 11.64 24.3783 11.64 26.5Z" fill="#6C7070"/>
<path id="Vector_4" d="M15.65 26.5C15.65 27.2911 15.8846 28.0645 16.3241 28.7223C16.7637 29.3801 17.3884 29.8928 18.1193 30.1955C18.8502 30.4983 19.6545 30.5775 20.4304 30.4231C21.2063 30.2688 21.919 29.8878 22.4785 29.3284C23.0379 28.769 23.4188 28.0563 23.5732 27.2804C23.7275 26.5044 23.6483 25.7002 23.3455 24.9693C23.0428 24.2384 22.5301 23.6136 21.8723 23.1741C21.2145 22.7346 20.4411 22.5 19.65 22.5C18.5892 22.5 17.5717 22.9214 16.8216 23.6716C16.0715 24.4217 15.65 25.4391 15.65 26.5Z" fill="black"/>
<path id="Vector_5" d="M10.87 35.9998C9.59689 34.9123 8.57269 33.5635 7.86697 32.0451C7.16126 30.5267 6.79055 28.8742 6.78003 27.1998C6.78003 20.5098 12.61 15.0898 19.78 15.0898C26.95 15.0898 32.78 20.5098 32.78 27.1998C32.775 28.8693 32.4128 30.5183 31.7177 32.0361C31.0226 33.5539 30.0107 34.9054 28.75 35.9998" stroke="black" stroke-width="3.28"/>
</g>
</svg>
