<svg width="52" height="52" viewBox="0 0 52 52" fill="none" xmlns="http://www.w3.org/2000/svg">
<g id="eyes-50">
<path id="Vector" d="M7.75 32.4298C11.14 35.1598 18 38.0798 24.52 36.9998C27.2689 36.5997 29.8725 35.5128 32.09 33.8398C34.01 32.2398 34.65 32.9298 36.4 30.5798L31.4 26.1998L20.31 21.2998L11 23.8998L7.75 32.4298Z" fill="white"/>
<path id="Vector_2" d="M13.15 29.0901C13.2127 30.9292 13.9971 32.6696 15.3333 33.9347C16.6696 35.1999 18.4503 35.888 20.29 35.8501C22.1298 35.888 23.9105 35.1999 25.2467 33.9347C26.583 32.6696 27.3673 30.9292 27.43 29.0901C27.3673 27.251 26.583 25.5106 25.2467 24.2454C23.9105 22.9803 22.1298 22.2922 20.29 22.3301C18.4503 22.2922 16.6696 22.9803 15.3333 24.2454C13.9971 25.5106 13.2127 27.251 13.15 29.0901Z" fill="#6C7070"/>
<path id="Vector_3" d="M16.72 29.0902C16.68 29.8058 16.8557 30.517 17.2244 31.1317C17.5931 31.7464 18.1378 32.2362 18.788 32.5378C19.4382 32.8394 20.164 32.9389 20.8714 32.8234C21.5788 32.7079 22.2352 32.3827 22.7557 31.8899C23.2762 31.3971 23.6368 30.7594 23.7908 30.0594C23.9448 29.3593 23.8851 28.6292 23.6195 27.9635C23.3539 27.2977 22.8945 26.7271 22.3009 26.3253C21.7073 25.9236 21.0068 25.7093 20.29 25.7102C19.3687 25.686 18.4753 26.0283 17.806 26.6619C17.1368 27.2956 16.7462 28.1689 16.72 29.0902Z" fill="black"/>
<path id="Vector_4" d="M6.5 32.11C6.5 32.11 8.92 23.54 16 22.35C21.44 21.43 26.12 22.44 31.41 26.27C33.27 27.5896 34.9772 29.1124 36.5 30.81C36.5 30.81 35.2 32.66 33.35 34.81" stroke="black" stroke-width="3.28"/>
</g>
</svg>
