<svg width="52" height="52" viewBox="0 0 52 52" fill="none" xmlns="http://www.w3.org/2000/svg">
<g id="eyes-38">
<path id="Vector" d="M13.07 35.5602L8.62 29.9002C8.62 29.9002 11.12 23.7902 19.62 20.1002C28.62 16.1802 38.39 20.7002 38.39 20.7002C38.39 20.7002 36.39 24.4002 32.96 30.4302" fill="white"/>
<path id="Vector_2" d="M14.5 25.9099C14.5 27.3419 14.9246 28.7416 15.7202 29.9323C16.5157 31.1229 17.6464 32.0508 18.9694 32.5988C20.2923 33.1468 21.748 33.2902 23.1525 33.0108C24.5569 32.7315 25.8469 32.0419 26.8595 31.0294C27.872 30.0168 28.5615 28.7268 28.8409 27.3224C29.1202 25.918 28.9769 24.4622 28.4289 23.1393C27.8809 21.8164 26.9529 20.6856 25.7623 19.8901C24.5717 19.0945 23.1719 18.6699 21.74 18.6699C19.8198 18.6699 17.9783 19.4327 16.6205 20.7905C15.2628 22.1482 14.5 23.9898 14.5 25.9099Z" fill="#6C7070"/>
<path id="Vector_3" d="M18.12 25.91C18.12 26.626 18.3323 27.3259 18.7301 27.9212C19.1278 28.5165 19.6932 28.9805 20.3547 29.2545C21.0161 29.5285 21.744 29.6002 22.4462 29.4605C23.1484 29.3208 23.7935 28.976 24.2997 28.4698C24.806 27.9635 25.1508 27.3185 25.2904 26.6163C25.4301 25.9141 25.3584 25.1862 25.0844 24.5247C24.8104 23.8633 24.3465 23.2979 23.7512 22.9001C23.1559 22.5023 22.456 22.29 21.74 22.29C21.2646 22.29 20.7939 22.3837 20.3547 22.5656C19.9155 22.7475 19.5164 23.0142 19.1803 23.3503C18.8441 23.6865 18.5775 24.0855 18.3955 24.5247C18.2136 24.9639 18.12 25.4347 18.12 25.91Z" fill="black"/>
<path id="Vector_4" d="M12.91 36.2398L8.62 29.8998C8.62 29.8998 11.11 23.9998 20 20.1798C28.52 16.4798 38.4 20.6998 38.4 20.6998C37.5815 24.4367 36.156 28.0142 34.18 31.2898" stroke="black" stroke-width="3.28"/>
</g>
</svg>
