<svg width="52" height="52" viewBox="0 0 52 52" fill="none" xmlns="http://www.w3.org/2000/svg">
<g id="eyes-34">
<path id="Vector" d="M11.21 28.0901C11.2159 30.1051 11.8191 32.0731 12.9433 33.7453C14.0675 35.4175 15.6622 36.7189 17.5258 37.4849C19.3895 38.251 21.4384 38.4474 23.4136 38.0492C25.3889 37.651 27.2017 36.6761 28.623 35.2478C30.0443 33.8196 31.0102 32.002 31.3987 30.0248C31.7872 28.0477 31.5808 25.9997 30.8056 24.1398C30.0305 22.2799 28.7213 20.6916 27.0435 19.5757C25.3658 18.4597 23.3949 17.8662 21.38 17.8701C18.6765 17.8781 16.0868 18.959 14.1798 20.8753C12.2728 22.7916 11.2047 25.3867 11.21 28.0901Z" fill="white"/>
<path id="Vector_2" d="M10.59 24.71C10.5801 26.4447 11.0854 28.1432 12.0419 29.5903C12.9985 31.0375 14.3631 32.168 15.9629 32.8387C17.5627 33.5094 19.3256 33.6901 21.0281 33.3577C22.7307 33.0254 24.2962 32.1951 25.5263 30.972C26.7565 29.7489 27.5957 28.1881 27.9378 26.4875C28.2799 24.7868 28.1094 23.0229 27.4478 21.4193C26.7863 19.8157 25.6636 18.4447 24.2219 17.4799C22.7803 16.5151 21.0847 16 19.35 16C17.0353 16 14.8147 16.916 13.1733 18.548C11.532 20.1801 10.6032 22.3954 10.59 24.71Z" fill="#6C7070"/>
<path id="Vector_3" d="M19.35 29.0901C21.769 29.0901 23.73 27.1291 23.73 24.7101C23.73 22.2911 21.769 20.3301 19.35 20.3301C16.931 20.3301 14.97 22.2911 14.97 24.7101C14.97 27.1291 16.931 29.0901 19.35 29.0901Z" fill="black"/>
<path id="Vector_4" d="M28.4 37.5198C30.0186 36.325 31.3039 34.7354 32.1332 32.9025C32.9626 31.0697 33.3083 29.0549 33.1374 27.0504C32.9665 25.0459 32.2847 23.1187 31.157 21.4527C30.0294 19.7868 28.4935 18.4376 26.6961 17.5341C24.8986 16.6306 22.8996 16.2029 20.8898 16.2918C18.88 16.3807 16.9266 16.9832 15.216 18.0419C13.5053 19.1006 12.0946 20.5801 11.1184 22.3391C10.1423 24.0982 9.63326 26.0781 9.64002 28.0898" stroke="black" stroke-width="3.28"/>
</g>
</svg>
