<svg width="52" height="52" viewBox="0 0 52 52" fill="none" xmlns="http://www.w3.org/2000/svg">
<g id="eyes-39">
<path id="Vector" d="M22.88 33.4499C18.4 33.4499 14.3 33.6499 11.07 33.9799C9.94578 32.4516 9.33328 30.6071 9.32001 28.7099C9.32001 22.7099 15.46 17.9199 23.04 17.9199C30.62 17.9199 36.76 22.7499 36.76 28.7099C36.748 30.6151 36.1318 32.4673 35 33.9999C30.9721 33.6091 26.9268 33.4255 22.88 33.4499Z" fill="white"/>
<path id="Vector_2" d="M14.76 26.4598C14.7605 24.8767 15.2148 23.3269 16.069 21.9941C16.9233 20.6613 18.1418 19.6013 19.58 18.9398C20.6979 18.6561 21.8466 18.5117 23 18.5098C24.1635 18.508 25.3226 18.6524 26.45 18.9398C27.9095 19.609 29.1429 20.6881 30.0001 22.0458C30.8573 23.4035 31.3013 24.981 31.278 26.5865C31.2547 28.1919 30.7651 29.756 29.8688 31.0882C28.9726 32.4203 27.7083 33.4632 26.23 34.0898C25.14 34.0898 24.01 34.0398 22.85 34.0398H19.75C18.2714 33.3982 17.0119 32.3395 16.1257 30.9932C15.2394 29.647 14.7648 28.0716 14.76 26.4598Z" fill="#6C7070"/>
<path id="Vector_3" d="M18.9 26.4598C18.902 27.2798 19.1475 28.0809 19.6054 28.7612C20.0633 29.4415 20.713 29.9705 21.472 30.2811C22.231 30.5918 23.0651 30.6699 23.8686 30.5058C24.6721 30.3417 25.4087 29.9426 25.9851 29.3592C26.5614 28.7758 26.9515 28.0344 27.1059 27.229C27.2603 26.4235 27.172 25.5904 26.8523 24.8352C26.5325 24.0801 25.9956 23.4369 25.3098 22.9873C24.6239 22.5376 23.82 22.3018 23 22.3098C21.9072 22.3203 20.8629 22.7625 20.0949 23.5399C19.3268 24.3174 18.8973 25.3669 18.9 26.4598Z" fill="black"/>
<path id="Vector_4" d="M22.88 33.4499C18.4 33.4499 14.3 33.6499 11.07 33.9799C9.94578 32.4516 9.33328 30.6071 9.32001 28.7099C9.32001 22.7099 15.46 17.9199 23.04 17.9199C30.62 17.9199 36.76 22.7499 36.76 28.7099C36.748 30.6151 36.1318 32.4673 35 33.9999C30.9721 33.6091 26.9268 33.4255 22.88 33.4499Z" stroke="black" stroke-width="3.28"/>
<path id="Vector_5" d="M11.07 34.0002C9.97156 32.7473 9.35167 31.1462 9.32001 29.4802C9.32001 24.3602 15.46 20.2202 23.04 20.2202C30.62 20.2202 36.76 24.3602 36.76 29.4802C36.7308 31.1485 36.1066 32.7515 35 34.0002" stroke="black" stroke-width="3.28"/>
</g>
</svg>
