<svg width="52" height="52" viewBox="0 0 52 52" fill="none" xmlns="http://www.w3.org/2000/svg">
<g id="eyes-17">
<path id="Vector" d="M10.12 27.9098C10.118 29.2156 10.5034 30.4926 11.2274 31.5793C11.9515 32.666 12.9815 33.5135 14.1874 34.0146C15.3932 34.5156 16.7205 34.6478 18.0015 34.3942C19.2824 34.1407 20.4593 33.5129 21.3834 32.5903C22.3074 31.6676 22.937 30.4917 23.1924 29.2111C23.4479 27.9306 23.3178 26.603 22.8186 25.3964C22.3193 24.1899 21.4734 23.1585 20.3878 22.4328C19.3022 21.7072 18.0258 21.3198 16.72 21.3198C14.9713 21.3198 13.2941 22.0138 12.0566 23.2494C10.8192 24.485 10.1227 26.1611 10.12 27.9098Z" fill="#6C7070"/>
<path id="Vector_2" d="M13.42 27.9099C13.42 28.5625 13.6135 29.2006 13.9761 29.7432C14.3387 30.2859 14.8541 30.7089 15.4571 30.9587C16.0601 31.2084 16.7236 31.2738 17.3638 31.1465C18.0039 31.0191 18.5919 30.7048 19.0534 30.2433C19.5149 29.7818 19.8292 29.1938 19.9566 28.5537C20.0839 27.9135 20.0186 27.25 19.7688 26.647C19.519 26.044 19.096 25.5286 18.5534 25.166C18.0107 24.8034 17.3727 24.6099 16.72 24.6099C15.8448 24.6099 15.0054 24.9575 14.3865 25.5764C13.7677 26.1953 13.42 27.0346 13.42 27.9099Z" fill="black"/>
<path id="Vector_3" d="M35.34 26.0699L8.88 17.6099" stroke="black" stroke-width="3.61"/>
</g>
</svg>
