<svg width="52" height="52" viewBox="0 0 52 52" fill="none" xmlns="http://www.w3.org/2000/svg">
<g id="eyes-41">
<path id="Vector" d="M8.78997 33.8398C8.37575 32.9503 8.16074 31.981 8.15997 30.9998C8.15997 26.0598 13.71 22.0498 20.55 22.0498C27.39 22.0498 32.94 26.0498 32.94 31.0498C32.9369 32.0168 32.7254 32.9719 32.32 33.8498L8.78997 33.8398Z" fill="white"/>
<path id="Vector_2" d="M13.91 33.8402C13.0235 32.6111 12.4936 31.1612 12.3787 29.6502C12.2637 28.1392 12.5682 26.6258 13.2585 25.2768C13.9488 23.9278 14.9982 22.7956 16.2909 22.0049C17.5837 21.2143 19.0696 20.7959 20.585 20.7959C22.1003 20.7959 23.5863 21.2143 24.879 22.0049C26.1718 22.7956 27.2211 23.9278 27.9115 25.2768C28.6018 26.6258 28.9062 28.1392 28.7913 29.6502C28.6763 31.1612 28.1464 32.6111 27.26 33.8402H13.91Z" fill="#6C7070"/>
<path id="Vector_3" d="M16.47 28.9999C16.47 29.8152 16.7119 30.6121 17.165 31.2899C17.6182 31.9676 18.2622 32.4957 19.0156 32.8072C19.769 33.1188 20.598 33.1998 21.3974 33.04C22.1969 32.8802 22.931 32.4868 23.5068 31.9096C24.0826 31.3324 24.4742 30.5974 24.632 29.7975C24.7899 28.9977 24.7068 28.169 24.3935 27.4163C24.0801 26.6636 23.5505 26.0209 22.8716 25.5694C22.1928 25.1179 21.3953 24.8779 20.58 24.8799C19.489 24.8825 18.4436 25.3178 17.6732 26.0901C16.9027 26.8625 16.47 27.9089 16.47 28.9999Z" fill="black"/>
<path id="Vector_4" d="M7.71001 33.4298C7.71001 25.4298 13.81 19.2598 20.99 19.2598C28.17 19.2598 33.58 24.9998 33.58 33.0498L33.49 33.8698C33.49 30.7398 29.85 21.0898 20.64 21.4498C10.89 21.8398 7.64001 30.7398 7.64001 33.8698L7.71001 33.4298Z" stroke="black" stroke-width="3.28"/>
<path id="Vector_5" d="M41.15 32.3098L33.7 33.1498L33.56 29.8698L41.06 30.1198L41.15 32.3098ZM40.32 25.2998L33.66 28.7298L32.37 25.7298L39.46 23.2998L40.32 25.2998Z" fill="black"/>
</g>
</svg>
