<svg width="52" height="52" viewBox="0 0 52 52" fill="none" xmlns="http://www.w3.org/2000/svg">
<g id="eyes-10">
<path id="Vector" d="M15.27 30.0501C15.2857 31.1016 15.5084 32.1396 15.9256 33.1049C16.3428 34.0702 16.9462 34.9438 17.7013 35.6757C18.4564 36.4075 19.3484 36.9834 20.3262 37.3702C21.3041 37.757 22.3486 37.9473 23.4 37.9301C24.4515 37.9473 25.496 37.757 26.4738 37.3702C27.4517 36.9834 28.3436 36.4075 29.0987 35.6757C29.8538 34.9438 30.4572 34.0702 30.8744 33.1049C31.2916 32.1396 31.5144 31.1016 31.53 30.0501C31.53 25.6901 27.86 23.1001 23.37 23.1001C18.88 23.1001 15.27 25.6901 15.27 30.0501Z" fill="#6C7070"/>
<path id="Vector_2" d="M16.09 29.3701C16.09 30.8158 16.5188 32.2292 17.322 33.4313C18.1252 34.6334 19.2669 35.5703 20.6026 36.1236C21.9383 36.6769 23.4081 36.8217 24.8261 36.5396C26.2441 36.2575 27.5467 35.5613 28.569 34.539C29.5913 33.5167 30.2875 32.2142 30.5696 30.7962C30.8516 29.3782 30.7069 27.9084 30.1536 26.5726C29.6003 25.2369 28.6634 24.0953 27.4612 23.292C26.2591 22.4888 24.8458 22.0601 23.4 22.0601C21.4613 22.0601 19.602 22.8302 18.2311 24.2011C16.8602 25.572 16.09 27.4313 16.09 29.3701Z" fill="#6C7070"/>
<path id="Vector_3" d="M19.75 29.3702C19.748 30.095 19.9613 30.804 20.3627 31.4074C20.7641 32.0108 21.3356 32.4814 22.0048 32.7597C22.674 33.038 23.4107 33.1113 24.1216 32.9704C24.8325 32.8295 25.4855 32.4807 25.998 31.9682C26.5105 31.4558 26.8593 30.8027 27.0002 30.0918C27.1411 29.3809 27.0677 28.6442 26.7895 27.975C26.5112 27.3058 26.0406 26.7343 25.4372 26.3329C24.8337 25.9315 24.1247 25.7183 23.4 25.7202C22.432 25.7202 21.5036 26.1048 20.8191 26.7893C20.1346 27.4738 19.75 28.4022 19.75 29.3702Z" fill="black"/>
<path id="Vector_4" d="M8.78998 27.7999C13.2242 25.2181 18.269 23.8714 23.4 23.8999C28.5277 23.8722 33.5691 25.2189 38 27.7999" stroke="black" stroke-width="3.28"/>
<path id="Vector_5" d="M23.4 22.73C16.74 22.73 7.91998 26.36 7.91998 26.36C8.87998 21.91 14.33 17 23.4 17C32.47 17 37.92 21.92 38.88 26.37C38.88 26.36 30.07 22.73 23.4 22.73Z" fill="black"/>
</g>
</svg>
