<svg width="52" height="52" viewBox="0 0 52 52" fill="none" xmlns="http://www.w3.org/2000/svg">
<g id="eyes-02">
<path id="Vector" d="M10.66 26.2C10.654 27.6312 11.073 29.032 11.8638 30.2249C12.6547 31.4178 13.7817 32.3492 15.1023 32.901C16.4229 33.4528 17.8775 33.6003 19.282 33.3247C20.6865 33.0491 21.9775 32.3629 22.9917 31.353C24.0058 30.3431 24.6974 29.0549 24.9788 27.6516C25.2602 26.2483 25.1188 24.793 24.5724 23.4702C24.0261 22.1473 23.0995 21.0164 21.9098 20.2206C20.7202 19.4248 19.3212 19 17.89 19C15.9776 19 14.1432 19.7576 12.7882 21.107C11.4331 22.4564 10.6679 24.2877 10.66 26.2Z" fill="#6C7070"/>
<path id="Vector_2" d="M14.27 26.1998C14.268 26.9162 14.4786 27.6171 14.8752 28.2137C15.2718 28.8103 15.8364 29.2759 16.4977 29.5514C17.159 29.8269 17.8872 29.9 18.59 29.7615C19.2929 29.623 19.9389 29.279 20.4461 28.7731C20.9534 28.2672 21.2992 27.6222 21.4397 26.9198C21.5802 26.2173 21.5091 25.4889 21.2354 24.8268C20.9617 24.1648 20.4977 23.5988 19.9022 23.2006C19.3066 22.8024 18.6064 22.5898 17.89 22.5898C16.9316 22.5898 16.0124 22.9699 15.3338 23.6466C14.6552 24.3233 14.2726 25.2415 14.27 26.1998Z" fill="black"/>
<path id="Vector_3" d="M10.66 26.2001C10.6605 26.6702 10.7074 27.1392 10.8 27.6001C11.4654 26.2982 12.4824 25.209 13.7356 24.456C14.9889 23.703 16.4281 23.3164 17.89 23.3401C19.3552 23.3126 20.7987 23.6974 22.0558 24.4506C23.3129 25.2038 24.3331 26.2951 25 27.6001C25.2058 26.5525 25.1764 25.4722 24.9139 24.4373C24.6514 23.4024 24.1624 22.4388 23.4821 21.6159C22.8018 20.7931 21.9473 20.1316 20.9802 19.6792C20.0131 19.2268 18.9576 18.9949 17.89 19.0001C15.9776 19.0001 14.1432 19.7577 12.7882 21.1071C11.4331 22.4565 10.6679 24.2878 10.66 26.2001Z" fill="black"/>
<path id="Vector_4" d="M29.24 20.7602L24.81 24.1502L22.94 21.0602L28 18.7002L29.24 20.7602Z" fill="black"/>
</g>
</svg>
