<svg width="52" height="52" viewBox="0 0 52 52" fill="none" xmlns="http://www.w3.org/2000/svg">
<g id="eyes-44">
<path id="Vector" d="M10.13 21.8701C10.13 25.5115 11.5766 29.0038 14.1514 31.5787C16.7263 34.1536 20.2186 35.6001 23.86 35.6001C27.5014 35.6001 30.9937 34.1536 33.5686 31.5787C36.1435 29.0038 37.59 25.5115 37.59 21.8701H10.13Z" fill="white"/>
<path id="Vector_2" d="M32.56 21.8701C32.5996 23.0381 32.4038 24.2021 31.9841 25.2928C31.5645 26.3835 30.9296 27.3786 30.1174 28.2189C29.3051 29.0591 28.3321 29.7273 27.2562 30.1837C26.1804 30.64 25.0237 30.8752 23.855 30.8752C22.6864 30.8752 21.5297 30.64 20.4538 30.1837C19.3779 29.7273 18.4049 29.0591 17.5927 28.2189C16.7804 27.3786 16.1456 26.3835 15.7259 25.2928C15.3063 24.2021 15.1104 23.0381 15.15 21.8701H32.56Z" fill="#6C7070"/>
<path id="Vector_3" d="M28.21 21.8701C28.1564 22.989 27.6741 24.0444 26.8633 24.8173C26.0524 25.5902 24.9752 26.0214 23.855 26.0214C22.7348 26.0214 21.6576 25.5902 20.8467 24.8173C20.0359 24.0444 19.5536 22.989 19.5 21.8701H28.21Z" fill="black"/>
<path id="Vector_4" d="M10.13 21.8701C10.13 25.5115 11.5766 29.0038 14.1514 31.5787C16.7263 34.1536 20.2186 35.6001 23.86 35.6001C27.5014 35.6001 30.9937 34.1536 33.5686 31.5787C36.1435 29.0038 37.59 25.5115 37.59 21.8701H10.13Z" stroke="black" stroke-width="3.28"/>
</g>
</svg>
