<svg width="52" height="52" viewBox="0 0 52 52" fill="none" xmlns="http://www.w3.org/2000/svg">
<g id="eyes-49">
<path id="Vector" d="M36 32.3402C36 27.4002 29.71 21.9302 21.94 21.9302C14.17 21.9302 7.94 27.4002 7.94 32.3402" fill="white"/>
<path id="Vector_2" d="M27.35 32.3398C28.0382 31.2835 28.4284 30.0609 28.4793 28.8012C28.5302 27.5415 28.2399 26.2914 27.6392 25.183C27.0385 24.0746 26.1495 23.149 25.0663 22.504C23.983 21.859 22.7457 21.5186 21.485 21.5186C20.2243 21.5186 18.9869 21.859 17.9037 22.504C16.8205 23.149 15.9315 24.0746 15.3308 25.183C14.73 26.2914 14.4398 27.5415 14.4907 28.8012C14.5416 30.0609 14.9318 31.2835 15.62 32.3398H27.35Z" fill="#6C7070"/>
<path id="Vector_3" d="M18 28.5C17.998 29.1951 18.2025 29.8751 18.5874 30.4538C18.9723 31.0326 19.5204 31.484 20.1622 31.7509C20.8039 32.0178 21.5105 32.0882 22.1923 31.953C22.8741 31.8179 23.5005 31.4834 23.9919 30.9919C24.4834 30.5005 24.8179 29.8741 24.953 29.1923C25.0882 28.5105 25.0178 27.8039 24.7509 27.1622C24.484 26.5204 24.0326 25.9723 23.4538 25.5874C22.8751 25.2025 22.1951 24.998 21.5 25C20.5726 25.0027 19.6839 25.3722 19.0281 26.0281C18.3722 26.6839 18.0027 27.5726 18 28.5Z" fill="black"/>
<path id="Vector_4" d="M36 32.3402C36 27.4002 29.71 21.9302 21.94 21.9302C14.17 21.9302 7.94 27.4002 7.94 32.3402" stroke="black" stroke-width="3.28"/>
</g>
</svg>
