<svg width="52" height="52" viewBox="0 0 52 52" fill="none" xmlns="http://www.w3.org/2000/svg">
<g id="eyes-37">
<path id="Vector" d="M7.07001 30.0002C7.07001 30.0702 12.31 32.3102 25.07 29.6502C35.85 27.4102 39.54 23.7202 39.49 23.6502C37.74 20.1502 26.82 19.8702 21.14 21.3402C12.33 23.5902 7.73001 27.4002 7.07001 30.0002Z" fill="white"/>
<path id="Vector_2" d="M15.27 25.9998C15.2681 27.1383 15.6041 28.2518 16.2356 29.1991C16.8671 30.1464 17.7656 30.885 18.8173 31.3211C19.869 31.7573 21.0264 31.8714 22.143 31.649C23.2596 31.4267 24.2851 30.8778 25.0894 30.0721C25.8938 29.2663 26.4408 28.2399 26.6612 27.1229C26.8816 26.006 26.7655 24.8487 26.3275 23.7978C25.8896 22.7469 25.1495 21.8497 24.201 21.2198C23.2526 20.59 22.1385 20.2558 21 20.2598C19.4794 20.2624 18.022 20.8684 16.9477 21.9445C15.8734 23.0207 15.27 24.4792 15.27 25.9998Z" fill="#6C7070"/>
<path id="Vector_3" d="M21.01 28.8699C22.5951 28.8699 23.88 27.5849 23.88 25.9999C23.88 24.4148 22.5951 23.1299 21.01 23.1299C19.425 23.1299 18.14 24.4148 18.14 25.9999C18.14 27.5849 19.425 28.8699 21.01 28.8699Z" fill="black"/>
<path id="Vector_4" d="M7.07001 30.0002C7.07001 30.0702 12.31 32.3102 25.07 29.6502C35.85 27.4102 39.54 23.7202 39.49 23.6502C37.74 20.1502 26.82 19.8702 21.14 21.3402C12.33 23.5902 7.73001 27.4002 7.07001 30.0002Z" stroke="black" stroke-width="3.28"/>
</g>
</svg>
