<svg width="52" height="52" viewBox="0 0 52 52" fill="none" xmlns="http://www.w3.org/2000/svg">
<g id="face-09">
<path id="Vector" d="M26 42.48C26.6975 42.522 27.396 42.4173 28.0505 42.1727C28.705 41.9281 29.301 41.5491 29.8 41.06C32.1143 38.9071 34.0839 36.4113 35.64 33.66C37.26 30.5 38.93 27.36 38.93 24.2C38.93 16.09 33.75 9.52002 26 9.52002C18.25 9.52002 13.07 16.09 13.07 24.2C13.07 27.36 14.74 30.5 16.36 33.66C17.9161 36.4113 19.8857 38.9071 22.2 41.06C22.699 41.5491 23.295 41.9281 23.9495 42.1727C24.604 42.4173 25.3026 42.522 26 42.48Z" fill="white" stroke="#6F6F6F" stroke-width="2.34"/>
<path id="Vector_2" d="M22.42 25.4202C22.42 25.7604 22.3191 26.0929 22.1301 26.3758C21.9411 26.6586 21.6725 26.8791 21.3582 27.0093C21.0439 27.1395 20.6981 27.1735 20.3644 27.1071C20.0308 27.0408 19.7243 26.877 19.4838 26.6364C19.2432 26.3959 19.0794 26.0894 19.013 25.7558C18.9467 25.4221 18.9807 25.0763 19.1109 24.762C19.2411 24.4477 19.4615 24.1791 19.7444 23.9901C20.0273 23.8011 20.3598 23.7002 20.7 23.7002C21.1562 23.7002 21.5936 23.8814 21.9162 24.204C22.2388 24.5265 22.42 24.964 22.42 25.4202ZM32.94 25.4202C32.94 25.7604 32.8391 26.0929 32.6501 26.3758C32.4611 26.6586 32.1925 26.8791 31.8782 27.0093C31.5639 27.1395 31.2181 27.1735 30.8844 27.1071C30.5508 27.0408 30.2443 26.877 30.0038 26.6364C29.7632 26.3959 29.5994 26.0894 29.533 25.7558C29.4667 25.4221 29.5007 25.0763 29.6309 24.762C29.7611 24.4477 29.9815 24.1791 30.2644 23.9901C30.5473 23.8011 30.8798 23.7002 31.22 23.7002C31.6762 23.7002 32.1136 23.8814 32.4362 24.204C32.7588 24.5265 32.94 24.964 32.94 25.4202ZM26 34.4702C24.2963 34.4832 22.6037 34.1955 21 33.6202L21.6 31.9702C24.4257 32.9401 27.4942 32.9401 30.32 31.9702L30.92 33.6202C29.3161 34.1947 27.6236 34.4824 25.92 34.4702H26Z" fill="#8D8D8D"/>
</g>
</svg>
