<svg width="52" height="52" viewBox="0 0 52 52" fill="none" xmlns="http://www.w3.org/2000/svg">
<g id="face-12">
<path id="Vector" d="M30.58 42.7299L37.2 38.3399C37.1635 36.4421 37.2604 34.5441 37.49 32.6599C37.88 29.0499 38.71 26.1699 38.71 24.4199C38.71 16.5299 33.71 10.1299 26 10.1299C18.29 10.1299 13.29 16.5299 13.29 24.4199C13.29 26.1699 14.12 29.0499 14.51 32.6599C14.7396 34.5441 14.8365 36.4421 14.8 38.3399L21.42 42.7299H30.58Z" fill="white" stroke="#6F6F6F" stroke-width="2.34"/>
<path id="Vector_2" d="M20.7 27.1998C21.6499 27.1998 22.42 26.4297 22.42 25.4798C22.42 24.5298 21.6499 23.7598 20.7 23.7598C19.7501 23.7598 18.98 24.5298 18.98 25.4798C18.98 26.4297 19.7501 27.1998 20.7 27.1998Z" fill="#8D8D8D"/>
<path id="Vector_3" d="M31.22 27.1998C32.1699 27.1998 32.94 26.4297 32.94 25.4798C32.94 24.5298 32.1699 23.7598 31.22 23.7598C30.2701 23.7598 29.5 24.5298 29.5 25.4798C29.5 26.4297 30.2701 27.1998 31.22 27.1998Z" fill="#8D8D8D"/>
<path id="Vector_4" d="M26 34.53C24.2959 34.5482 22.6024 34.2603 21 33.68L21.6 32.04C24.4274 33.0001 27.4926 33.0001 30.32 32.04L30.92 33.68C29.3174 34.2594 27.624 34.5473 25.92 34.53H26Z" fill="#8D8D8D"/>
</g>
</svg>
