<svg width="52" height="52" viewBox="0 0 52 52" fill="none" xmlns="http://www.w3.org/2000/svg">
<g id="face-11">
<path id="Vector" d="M26 42.48C40.41 42.48 38.93 32.3 38.93 24.2C38.93 16.1 33.74 9.52002 26 9.52002C18.26 9.52002 13.07 16.09 13.07 24.2C13.07 32.31 11.59 42.48 26 42.48Z" fill="white" stroke="#6F6F6F" stroke-width="2.34"/>
<path id="Vector_2" d="M22.42 25.4202C22.42 25.7604 22.3191 26.093 22.1301 26.3758C21.9411 26.6587 21.6725 26.8791 21.3582 27.0093C21.0439 27.1395 20.6981 27.1735 20.3644 27.1072C20.0308 27.0408 19.7243 26.877 19.4838 26.6364C19.2432 26.3959 19.0794 26.0894 19.013 25.7558C18.9467 25.4221 18.9807 25.0763 19.1109 24.762C19.2411 24.4477 19.4615 24.1791 19.7444 23.9901C20.0273 23.8011 20.3598 23.7002 20.7 23.7002C20.9262 23.6989 21.1505 23.7425 21.3598 23.8284C21.569 23.9144 21.7592 24.0411 21.9192 24.201C22.0791 24.361 22.2058 24.5512 22.2918 24.7604C22.3777 24.9697 22.4213 25.194 22.42 25.4202ZM32.94 25.4202C32.94 25.7604 32.8391 26.093 32.6501 26.3758C32.4611 26.6587 32.1925 26.8791 31.8782 27.0093C31.5639 27.1395 31.2181 27.1735 30.8844 27.1072C30.5508 27.0408 30.2443 26.877 30.0038 26.6364C29.7632 26.3959 29.5994 26.0894 29.533 25.7558C29.4667 25.4221 29.5007 25.0763 29.6309 24.762C29.7611 24.4477 29.9815 24.1791 30.2644 23.9901C30.5473 23.8011 30.8798 23.7002 31.22 23.7002C31.4462 23.6989 31.6705 23.7425 31.8798 23.8284C32.089 23.9144 32.2792 24.0411 32.4392 24.201C32.5991 24.361 32.7258 24.5512 32.8118 24.7604C32.8977 24.9697 32.9413 25.194 32.94 25.4202ZM26 34.4702C24.2963 34.4833 22.6037 34.1955 21 33.6202L21.6 31.9702C24.4257 32.9401 27.4942 32.9401 30.32 31.9702L30.92 33.6202C29.3161 34.1947 27.6236 34.4824 25.92 34.4702H26Z" fill="#8D8D8D"/>
</g>
</svg>
