<svg width="52" height="52" viewBox="0 0 52 52" fill="none" xmlns="http://www.w3.org/2000/svg">
<g id="face-10">
<path id="Vector" d="M26 38.1099C29.6564 38.275 33.255 37.1533 36.17 34.9399C38.71 32.9999 40 29.9999 40 25.8999C40 24.0614 39.6379 22.2409 38.9343 20.5423C38.2307 18.8438 37.1995 17.3004 35.8995 16.0004C34.5995 14.7004 33.0561 13.6692 31.3576 12.9656C29.659 12.262 27.8385 11.8999 26 11.8999C24.1615 11.8999 22.341 12.262 20.6424 12.9656C18.9439 13.6692 17.4005 14.7004 16.1005 16.0004C14.8005 17.3004 13.7693 18.8438 13.0657 20.5423C12.3621 22.2409 12 24.0614 12 25.8999C12 30.0399 13.31 32.9499 15.85 34.8999C18.7543 37.1231 22.3455 38.2588 26 38.1099Z" fill="white" stroke="#6F6F6F" stroke-width="2.34"/>
<path id="Vector_2" d="M22.42 25.3101C22.4219 25.6507 22.3227 25.9842 22.135 26.2684C21.9472 26.5526 21.6792 26.7746 21.3651 26.9063C21.051 27.038 20.7049 27.0735 20.3706 27.0083C20.0363 26.943 19.7289 26.78 19.4873 26.5399C19.2458 26.2997 19.081 25.9933 19.0138 25.6593C18.9466 25.3254 18.9801 24.9791 19.1099 24.6642C19.2398 24.3493 19.4603 24.0801 19.7433 23.8907C20.0264 23.7012 20.3593 23.6001 20.7 23.6001C21.1544 23.6001 21.5904 23.7799 21.9127 24.1003C22.2349 24.4207 22.4173 24.8557 22.42 25.3101ZM32.94 25.3101C32.9419 25.6507 32.8427 25.9842 32.655 26.2684C32.4672 26.5526 32.1992 26.7746 31.8851 26.9063C31.571 27.038 31.2249 27.0735 30.8906 27.0083C30.5563 26.943 30.2489 26.78 30.0073 26.5399C29.7658 26.2997 29.601 25.9933 29.5338 25.6593C29.4666 25.3254 29.5001 24.9791 29.6299 24.6642C29.7598 24.3493 29.9803 24.0801 30.2633 23.8907C30.5464 23.7012 30.8793 23.6001 31.22 23.6001C31.6744 23.6001 32.1104 23.7799 32.4327 24.1003C32.7549 24.4207 32.9373 24.8557 32.94 25.3101ZM26 34.3601C24.2968 34.3765 22.6042 34.0922 21 33.5201L21.6 31.8701C24.4257 32.84 27.4942 32.84 30.32 31.8701L30.92 33.5201C29.3155 34.0914 27.623 34.3757 25.92 34.3601H26Z" fill="#8D8D8D"/>
</g>
</svg>
