<svg width="52" height="52" viewBox="0 0 52 52" fill="none" xmlns="http://www.w3.org/2000/svg">
<g id="face-07">
<path id="Vector" d="M31.94 42.1001L38.71 33.5801V24.3701C38.71 16.4801 33.71 10.0801 26 10.0801C18.29 10.0801 13.29 16.4801 13.29 24.3701V33.5801L20.06 42.1001H31.94Z" fill="white" stroke="#6F6F6F" stroke-width="2.34"/>
<path id="Vector_2" d="M22.42 25.43C22.42 25.7701 22.3191 26.1027 22.1301 26.3855C21.9411 26.6684 21.6725 26.8889 21.3582 27.019C21.0439 27.1492 20.6981 27.1833 20.3644 27.1169C20.0308 27.0505 19.7243 26.8867 19.4838 26.6462C19.2432 26.4056 19.0794 26.0992 19.013 25.7655C18.9467 25.4319 18.9807 25.086 19.1109 24.7717C19.2411 24.4575 19.4615 24.1888 19.7444 23.9998C20.0273 23.8108 20.3598 23.71 20.7 23.71C21.1562 23.71 21.5936 23.8912 21.9162 24.2137C22.2388 24.5363 22.42 24.9738 22.42 25.43ZM32.94 25.43C32.94 25.7701 32.8391 26.1027 32.6501 26.3855C32.4611 26.6684 32.1925 26.8889 31.8782 27.019C31.5639 27.1492 31.2181 27.1833 30.8844 27.1169C30.5508 27.0505 30.2443 26.8867 30.0038 26.6462C29.7632 26.4056 29.5994 26.0992 29.533 25.7655C29.4667 25.4319 29.5007 25.086 29.6309 24.7717C29.7611 24.4575 29.9815 24.1888 30.2644 23.9998C30.5473 23.8108 30.8798 23.71 31.22 23.71C31.6762 23.71 32.1136 23.8912 32.4362 24.2137C32.7588 24.5363 32.94 24.9738 32.94 25.43ZM26 34.48C24.2963 34.493 22.6037 34.2052 21 33.63L21.6 31.98C24.4241 32.9599 27.4959 32.9599 30.32 31.98L30.92 33.63C29.3161 34.2044 27.6236 34.4922 25.92 34.48H26Z" fill="#8D8D8D"/>
</g>
</svg>
