<svg width="52" height="52" viewBox="0 0 52 52" fill="none" xmlns="http://www.w3.org/2000/svg">
<g id="glasses-19">
<path id="Vector" d="M26 42.0902C34.8863 42.0902 42.09 34.8864 42.09 26.0002C42.09 17.1139 34.8863 9.91016 26 9.91016C17.1137 9.91016 9.91 17.1139 9.91 26.0002C9.91 34.8864 17.1137 42.0902 26 42.0902Z" fill="white" stroke="#BFBEBD" stroke-width="2.48"/>
<path id="Vector_2" d="M41.25 23.6501H40.42V22.4701C40.2976 21.8171 39.9485 21.2284 39.4345 20.8076C38.9204 20.3868 38.2743 20.161 37.61 20.1701H29.66C29.2699 20.1618 28.8826 20.2369 28.5239 20.3904C28.1651 20.5438 27.8434 20.7722 27.58 21.0601C27.2861 21.3943 27.0628 21.7845 26.9236 22.2073C26.7844 22.63 26.7321 23.0766 26.77 23.5201V23.6501H25.22V23.5201C25.2579 23.0766 25.2056 22.63 25.0664 22.2073C24.9272 21.7845 24.7039 21.3943 24.41 21.0601C24.1467 20.7722 23.8249 20.5438 23.4662 20.3904C23.1074 20.2369 22.7201 20.1618 22.33 20.1701H14.39C13.7257 20.161 13.0796 20.3868 12.5655 20.8076C12.0515 21.2284 11.7024 21.8171 11.58 22.4701V23.6501H10.75C10.5034 23.6501 10.2668 23.748 10.0924 23.9224C9.91799 24.0969 9.82001 24.3334 9.82001 24.5801C9.82001 24.8267 9.91799 25.0633 10.0924 25.2377C10.2668 25.4121 10.5034 25.5101 10.75 25.5101H11.66L11.83 27.4501C11.9172 28.288 12.2932 29.0695 12.8934 29.6606C13.4937 30.2517 14.2808 30.6157 15.12 30.6901H21.62C22.4559 30.6139 23.2395 30.2504 23.8375 29.6615C24.4355 29.0726 24.811 28.2946 24.9 27.4601L25.06 25.5101H26.94L27.1 27.4501C27.1872 28.288 27.5632 29.0695 28.1634 29.6606C28.7637 30.2517 29.5508 30.6157 30.39 30.6901H36.89C37.7259 30.6139 38.5095 30.2504 39.1075 29.6615C39.7055 29.0726 40.081 28.2946 40.17 27.4601L40.34 25.5101H41.25C41.4967 25.5101 41.7332 25.4121 41.9076 25.2377C42.082 25.0633 42.18 24.8267 42.18 24.5801C42.18 24.3334 42.082 24.0969 41.9076 23.9224C41.7332 23.748 41.4967 23.6501 41.25 23.6501Z" fill="#7B0000"/>
</g>
</svg>
