<svg width="52" height="52" viewBox="0 0 52 52" fill="none" xmlns="http://www.w3.org/2000/svg">
<g id="glasses-12">
<path id="Vector" d="M26 42.0902C34.8863 42.0902 42.09 34.8864 42.09 26.0002C42.09 17.1139 34.8863 9.91016 26 9.91016C17.1137 9.91016 9.91 17.1139 9.91 26.0002C9.91 34.8864 17.1137 42.0902 26 42.0902Z" fill="white" stroke="#BFBEBD" stroke-width="2.48"/>
<path id="Vector_2" d="M39.77 22.4501C38.71 21.2001 36.67 21.1001 33.9 21.1001C30.9 21.1001 29.04 21.5801 28.16 22.6001C27.8342 22.9829 27.6258 23.4517 27.56 23.9501H24.44C24.3742 23.4517 24.1658 22.9829 23.84 22.6001C22.96 21.6001 21.13 21.1001 18.1 21.1001C15.33 21.1001 13.29 21.2001 12.23 22.4501C11.5 23.3101 11.33 24.5901 11.67 26.6201L12.79 26.4401C12.52 24.7901 12.62 23.7601 13.1 23.1901C13.78 22.3901 15.31 22.2501 18.1 22.2501C20.7 22.2501 22.34 22.6201 22.97 23.3501C23.6 24.0801 23.36 24.8301 23.21 25.8501V26.0601L24.35 26.2201V26.0201C24.35 25.7101 24.43 25.4001 24.46 25.0901H27.54C27.54 25.4001 27.61 25.7101 27.65 26.0201V26.2201L28.79 26.0601V25.8501C28.65 24.8501 28.52 23.9401 29.04 23.3501C29.56 22.7601 31.31 22.2501 33.91 22.2501C36.7 22.2501 38.23 22.3901 38.91 23.1901C39.4 23.7601 39.5 24.7901 39.22 26.4401L40.35 26.6201C40.67 24.5901 40.5 23.3101 39.77 22.4501Z" fill="#7B0000"/>
</g>
</svg>
