<svg width="52" height="52" viewBox="0 0 52 52" fill="none" xmlns="http://www.w3.org/2000/svg">
<g id="glasses-20">
<path id="Vector" d="M26 42.0902C34.8863 42.0902 42.09 34.8864 42.09 26.0002C42.09 17.1139 34.8863 9.91016 26 9.91016C17.1137 9.91016 9.91 17.1139 9.91 26.0002C9.91 34.8864 17.1137 42.0902 26 42.0902Z" fill="white" stroke="#BFBEBD" stroke-width="2.48"/>
<path id="Vector_2" d="M41.34 24.22C40.26 22.13 37.56 20.64 34.86 20C31.9325 19.5158 28.9667 19.3016 26 19.36C23.0333 19.3016 20.0675 19.5158 17.14 20C14.44 20.64 11.74 22.13 10.66 24.22C10.3656 24.7937 10.2062 25.4271 10.194 26.0719C10.1819 26.7166 10.3174 27.3556 10.59 27.94L12.25 27.51C13.06 30.08 16.35 31.43 19.69 30.51C21.0982 30.222 22.3604 29.4483 23.256 28.3242C24.1517 27.2 24.6239 25.7969 24.59 24.36H27.42C27.3862 25.7969 27.8583 27.2 28.754 28.3242C29.6496 29.4483 30.9118 30.222 32.32 30.51C35.66 31.42 38.95 30.07 39.76 27.51L41.42 27.94C41.6911 27.3548 41.8249 26.7155 41.811 26.0707C41.7971 25.426 41.636 24.7929 41.34 24.22ZM25.26 22.86C24.6374 21.7301 23.6241 20.8661 22.41 20.43C23.41 20.36 24.41 20.32 26 20.32C27.59 20.32 28.58 20.32 29.59 20.43C28.3759 20.8661 27.3626 21.7301 26.74 22.86H25.26Z" fill="#7B0000"/>
</g>
</svg>
