<svg width="52" height="52" viewBox="0 0 52 52" fill="none" xmlns="http://www.w3.org/2000/svg">
<g id="glasses-5">
<path id="Vector" d="M42.09 26.0002C42.09 29.1825 41.1463 32.2933 39.3784 34.9393C37.6104 37.5853 35.0974 39.6476 32.1574 40.8654C29.2173 42.0832 25.9822 42.4018 22.861 41.781C19.7399 41.1602 16.8729 39.6277 14.6227 37.3775C12.3724 35.1273 10.84 32.2603 10.2192 29.1392C9.59834 26.018 9.91698 22.7828 11.1348 19.8428C12.3526 16.9027 14.4149 14.3898 17.0609 12.6218C19.7069 10.8538 22.8177 9.91016 26 9.91016C30.2665 9.91281 34.3575 11.6088 37.3744 14.6257C40.3913 17.6426 42.0874 21.7336 42.09 26.0002Z" fill="white" stroke="#BFBEBD" stroke-width="2.48"/>
<path id="Vector_2" d="M27.42 24.7501H24.58M24.36 25.0001C24.36 22.5701 21.62 20.6001 18.25 20.6001C14.88 20.6001 12.14 22.6001 12.14 25.0001C12.14 27.4001 14.87 29.3901 18.25 29.3901C21.63 29.3901 24.36 27.4601 24.36 25.0001ZM27.64 25.0001C27.64 22.5701 30.38 20.6001 33.75 20.6001C37.12 20.6001 39.86 22.6001 39.86 25.0001C39.86 27.4001 37.13 29.3901 33.75 29.3901C30.37 29.3901 27.64 27.4601 27.64 25.0001Z" stroke="#7B0000" stroke-width="1.24"/>
</g>
</svg>
