<svg width="52" height="52" viewBox="0 0 52 52" fill="none" xmlns="http://www.w3.org/2000/svg">
<g id="glasses-15">
<path id="Vector" d="M26 42.0902C34.8863 42.0902 42.09 34.8864 42.09 26.0002C42.09 17.1139 34.8863 9.91016 26 9.91016C17.1137 9.91016 9.91 17.1139 9.91 26.0002C9.91 34.8864 17.1137 42.0902 26 42.0902Z" fill="white" stroke="#BFBEBD" stroke-width="2.48"/>
<path id="Vector_2" d="M39.31 21.7701C38.18 20.4501 36.31 19.7701 33.64 19.7701C32.109 19.7645 30.6006 20.139 29.25 20.8601L29.09 20.9601C28.8282 21.1195 28.5777 21.2965 28.34 21.4901C27.6879 22.0996 26.8767 22.5122 26 22.6801C25.1244 22.515 24.3133 22.106 23.66 21.5001C23.4206 21.3089 23.1702 21.1319 22.91 20.9701L22.74 20.8701C21.3891 20.1498 19.8809 19.7753 18.35 19.7801C15.71 19.7801 13.81 20.4401 12.68 21.7801C12.2042 22.3794 11.8676 23.077 11.6946 23.8225C11.5217 24.5679 11.5167 25.3425 11.68 26.0901C12.22 29.5201 15.3 30.7501 18.01 30.7501C19.1287 30.7442 20.2317 30.4868 21.2374 29.9969C22.2431 29.507 23.1257 28.7972 23.82 27.9201C24.402 27.045 24.8945 26.1137 25.29 25.1401C25.3626 25.0206 25.4684 24.9248 25.5944 24.8645C25.7205 24.8041 25.8614 24.7817 26 24.8001C26.1311 24.7897 26.2625 24.8148 26.3804 24.8729C26.4983 24.931 26.5984 25.0198 26.67 25.1301C27.0613 26.1057 27.554 27.0375 28.14 27.9101C28.8395 28.7938 29.7302 29.5076 30.7452 29.9977C31.7601 30.4879 32.8729 30.7417 34 30.7401C36.71 30.7401 39.8 29.5101 40.34 26.0801C40.4964 25.3302 40.4852 24.5549 40.3071 23.8099C40.129 23.0648 39.7886 22.3683 39.31 21.7701Z" fill="#7B0000"/>
<path id="Vector_3" d="M18.36 20.9302C16.07 20.9302 14.46 21.4602 13.56 22.5202C13.1987 22.998 12.9455 23.5486 12.8177 24.1339C12.69 24.7192 12.6907 25.3252 12.82 25.9102C13.24 28.6202 15.82 29.5902 18.02 29.5902C19.3556 29.6088 20.6592 29.1812 21.7243 28.3751C22.7894 27.569 23.5551 26.4306 23.9 25.1402C24.0006 24.7498 24.0088 24.3413 23.9237 23.9472C23.8386 23.5531 23.6627 23.1843 23.41 22.8702C22.33 21.5302 20.1 20.9302 18.36 20.9302ZM33.64 20.9302C35.93 20.9302 37.54 21.4602 38.44 22.5202C38.7995 22.999 39.0517 23.5496 39.1793 24.1346C39.307 24.7195 39.3073 25.3251 39.18 25.9102C38.75 28.6202 36.18 29.5902 33.97 29.5902C32.6361 29.6065 31.3348 29.1779 30.2717 28.372C29.2087 27.5661 28.4445 26.4289 28.1 25.1402C27.997 24.75 27.9876 24.3409 28.0728 23.9464C28.158 23.5519 28.3352 23.1831 28.59 22.8702C29.67 21.5302 31.9 20.9302 33.64 20.9302Z" fill="#F60000"/>
</g>
</svg>
