<svg width="52" height="52" viewBox="0 0 52 52" fill="none" xmlns="http://www.w3.org/2000/svg">
<g id="glasses-9">
<path id="Vector" d="M26 42.0902C34.8863 42.0902 42.09 34.8864 42.09 26.0002C42.09 17.1139 34.8863 9.91016 26 9.91016C17.1137 9.91016 9.91 17.1139 9.91 26.0002C9.91 34.8864 17.1137 42.0902 26 42.0902Z" fill="white" stroke="#BFBEBD" stroke-width="2.48"/>
<path id="Vector_2" d="M40 21.9999C38.65 20.3999 35.85 20.1999 33.57 20.1999C31.63 20.1999 29.25 20.3799 27.99 21.7899C27.3905 22.4968 27.0798 23.4039 27.12 24.3299H24.92C24.9542 23.3809 24.6252 22.4547 24 21.7399C22.74 20.3299 20.36 20.1499 18.42 20.1499C16.14 20.1499 13.34 20.3499 11.99 21.9499C11.6412 22.3968 11.398 22.9167 11.2785 23.4709C11.159 24.025 11.1663 24.599 11.3 25.1499C12.08 29.6999 14.5 30.0799 16.91 30.0799H18.59C20.92 30.0799 24.08 30.0799 24.78 25.4299H27.14C27.85 30.0699 31.01 30.0799 33.33 30.0799H35.02C37.43 30.0799 39.84 29.6999 40.62 25.1499C40.7577 24.6118 40.7735 24.0498 40.6662 23.5048C40.559 22.9598 40.3314 22.4457 40 21.9999ZM23.74 24.8799C23.31 28.6599 21.52 28.9299 18.63 28.9299H17C14.84 28.9299 13.15 28.6399 12.52 24.9299C12.4148 24.5431 12.3998 24.1373 12.476 23.7437C12.5523 23.3502 12.7179 22.9794 12.96 22.6599C14.01 21.3999 16.63 21.2599 18.51 21.2599C20.08 21.2599 22.27 21.3899 23.24 22.4699C23.4938 22.811 23.67 23.2034 23.7563 23.6196C23.8427 24.0359 23.8371 24.466 23.74 24.8799ZM39.54 24.9599C38.9 28.6399 37.21 28.9599 35.06 28.9599H33.37C30.48 28.9599 28.69 28.6899 28.26 24.9099C28.1744 24.497 28.1792 24.0705 28.2742 23.6596C28.3691 23.2488 28.5519 22.8634 28.81 22.5299C29.81 21.4499 31.97 21.3199 33.54 21.3199C35.42 21.3199 38.04 21.4599 39.1 22.7199C39.339 23.0429 39.5025 23.4154 39.5787 23.81C39.6548 24.2045 39.6416 24.6111 39.54 24.9999V24.9599Z" fill="#7B0000"/>
</g>
</svg>
