<svg width="52" height="52" viewBox="0 0 52 52" fill="none" xmlns="http://www.w3.org/2000/svg">
<g id="glasses-7">
<path id="Vector" d="M26 42.0902C34.8863 42.0902 42.09 34.8864 42.09 26.0002C42.09 17.1139 34.8863 9.91016 26 9.91016C17.1137 9.91016 9.91 17.1139 9.91 26.0002C9.91 34.8864 17.1137 42.0902 26 42.0902Z" fill="white" stroke="#BFBEBD" stroke-width="2.48"/>
<path id="Vector_2" d="M24.58 24.3701V23.9401C23.88 21.6001 20.44 20.6101 17.2 21.4901C13.96 22.3701 11.36 24.7001 12.31 27.4901C13.12 30.0701 16.4 31.4201 19.75 30.4901C21.1582 30.2021 22.4204 29.4284 23.316 28.3043C24.2117 27.1801 24.6838 25.777 24.65 24.3401L24.58 24.3701Z" fill="#F60000"/>
<path id="Vector_3" d="M41.34 24.22C40.26 22.13 37.56 20.64 34.86 20C31.9325 19.5158 28.9667 19.3016 26 19.36C23.0333 19.3016 20.0675 19.5158 17.14 20C14.44 20.64 11.74 22.13 10.66 24.22C10.3677 24.7944 10.2095 25.4276 10.1974 26.0719C10.1853 26.7163 10.3195 27.355 10.59 27.94L12.28 27.5C11.28 24.67 13.91 22.35 17.17 21.5C20.43 20.65 23.85 21.61 24.55 23.96V24.41H26V22.86H25.28C24.6603 21.7277 23.646 20.8629 22.43 20.43C23.43 20.36 24.43 20.32 26.02 20.32C27.61 20.32 28.6 20.32 29.61 20.43C28.394 20.8629 27.3797 21.7277 26.76 22.86H26V24.37H27.39V23.92C28.09 21.57 31.53 20.58 34.77 21.46C38.01 22.34 40.62 24.67 39.66 27.46L41.35 27.9C41.6256 27.3254 41.7679 26.6961 41.7662 26.0588C41.7644 25.4216 41.6187 24.793 41.34 24.22Z" fill="#030303"/>
<path id="Vector_4" d="M27.42 24.3701V23.9401C28.12 21.6001 31.57 20.6101 34.8 21.4901C38.03 22.3701 40.65 24.7001 39.69 27.4901C38.88 30.0701 35.6 31.4201 32.25 30.4901C30.8418 30.2021 29.5796 29.4284 28.684 28.3043C27.7883 27.1801 27.3162 25.777 27.35 24.3401L27.42 24.3701Z" fill="#F60000"/>
</g>
</svg>
