<svg width="52" height="52" viewBox="0 0 52 52" fill="none" xmlns="http://www.w3.org/2000/svg">
<g id="glasses-18">
<path id="Vector" d="M26 42.0902C34.8863 42.0902 42.09 34.8864 42.09 26.0002C42.09 17.1139 34.8863 9.91016 26 9.91016C17.1137 9.91016 9.91 17.1139 9.91 26.0002C9.91 34.8864 17.1137 42.0902 26 42.0902Z" fill="white" stroke="#BFBEBD" stroke-width="2.48"/>
<path id="Vector_2" d="M26 22.6801V24.8001C25.8688 24.7886 25.737 24.8132 25.6189 24.8714C25.5007 24.9296 25.4008 25.0191 25.33 25.1301C24.9345 26.1037 24.442 27.035 23.86 27.9101C23.1605 28.7938 22.2698 29.5076 21.2549 29.9977C20.2399 30.4879 19.1271 30.7417 18 30.7401C15.29 30.7401 12.21 29.5101 11.67 26.0801C11.5067 25.3325 11.5117 24.5579 11.6846 23.8125C11.8576 23.067 12.1942 22.3694 12.67 21.7701C13.8 20.4501 15.67 19.7701 18.34 19.7701C19.8709 19.7653 21.3791 20.1398 22.73 20.8601L22.9 20.9601C23.1602 21.1219 23.4106 21.2989 23.65 21.4901C24.3049 22.1013 25.1198 22.5139 26 22.6801ZM26 22.6801V24.8001C26.131 24.7897 26.2625 24.8148 26.3804 24.8729C26.4983 24.931 26.5984 25.0198 26.67 25.1301C27.0612 26.1057 27.5539 27.0375 28.14 27.9101C28.8395 28.7938 29.7302 29.5076 30.7451 29.9977C31.7601 30.4879 32.8729 30.7417 34 30.7401C36.71 30.7401 39.8 29.5101 40.34 26.0801C40.5005 25.3323 40.4941 24.5584 40.3213 23.8134C40.1484 23.0684 39.8134 22.3707 39.34 21.7701C38.21 20.4501 36.34 19.7701 33.67 19.7701C32.139 19.7645 30.6306 20.139 29.28 20.8601L29.12 20.9601C28.8582 21.1195 28.6076 21.2965 28.37 21.4901C27.7096 22.1046 26.8873 22.5175 26 22.6801Z" fill="#7B0000"/>
</g>
</svg>
