<svg width="52" height="52" viewBox="0 0 52 52" fill="none" xmlns="http://www.w3.org/2000/svg">
<g id="glasses-3">
<path id="Vector" d="M26 42.0902C34.8863 42.0902 42.09 34.8864 42.09 26.0002C42.09 17.1139 34.8863 9.91016 26 9.91016C17.1137 9.91016 9.91 17.1139 9.91 26.0002C9.91 34.8864 17.1137 42.0902 26 42.0902Z" fill="white" stroke="#BFBEBD" stroke-width="2.48"/>
<path id="Vector_2" d="M28.01 24.72H23.99M24.11 26.86C24.0919 27.2349 23.926 27.5875 23.6486 27.8404C23.3713 28.0934 23.0051 28.2263 22.63 28.21H13.63C13.254 28.2263 12.8866 28.0938 12.6077 27.8411C12.3288 27.5883 12.1607 27.2358 12.14 26.86V23.45C12.1607 23.0742 12.3288 22.7216 12.6077 22.4689C12.8866 22.2162 13.254 22.0836 13.63 22.1H22.63C23.0051 22.0837 23.3713 22.2166 23.6486 22.4695C23.926 22.7225 24.0919 23.075 24.11 23.45V26.86ZM27.89 26.86C27.9082 27.2349 28.0741 27.5875 28.3514 27.8404C28.6287 28.0934 28.995 28.2263 29.37 28.21H38.37C38.7461 28.2263 39.1134 28.0938 39.3923 27.8411C39.6713 27.5883 39.8393 27.2358 39.86 26.86V23.45C39.8393 23.0742 39.6713 22.7216 39.3923 22.4689C39.1134 22.2162 38.7461 22.0836 38.37 22.1H29.37C28.995 22.0837 28.6287 22.2166 28.3514 22.4695C28.0741 22.7225 27.9082 23.075 27.89 23.45V26.86Z" stroke="#7B0000" stroke-width="1.49"/>
</g>
</svg>
