<svg width="52" height="52" viewBox="0 0 52 52" fill="none" xmlns="http://www.w3.org/2000/svg">
<g id="glasses-2">
<path id="Vector" d="M42.09 26.0002C42.09 29.1825 41.1463 32.2933 39.3783 34.9393C37.6103 37.5853 35.0974 39.6476 32.1574 40.8654C29.2173 42.0832 25.9821 42.4018 22.861 41.781C19.7398 41.1602 16.8729 39.6277 14.6226 37.3775C12.3724 35.1273 10.84 32.2603 10.2192 29.1392C9.59832 26.018 9.91696 22.7828 11.1348 19.8428C12.3526 16.9027 14.4149 14.3898 17.0609 12.6218C19.7069 10.8538 22.8177 9.91016 26 9.91016C28.113 9.91016 30.2052 10.3263 32.1574 11.1349C34.1095 11.9435 35.8833 13.1287 37.3773 14.6228C38.8714 16.1169 40.0566 17.8907 40.8652 19.8428C41.6738 21.7949 42.09 23.8872 42.09 26.0002Z" fill="white" stroke="#BFBEBD" stroke-width="2.48"/>
<path id="Vector_2" d="M28.28 24.8099H23.72M24.19 23.2599L23.86 27.1799C23.7958 27.7831 23.5281 28.3465 23.1009 28.7773C22.6738 29.2081 22.1127 29.4806 21.51 29.5499H15C14.3973 29.4806 13.8362 29.2081 13.4091 28.7773C12.9819 28.3465 12.7142 27.7831 12.65 27.1799L12.32 23.2599C12.2716 22.971 12.2873 22.675 12.3659 22.3929C12.4446 22.1107 12.5842 21.8493 12.775 21.627C12.9657 21.4048 13.203 21.2271 13.47 21.1067C13.737 20.9862 14.0271 20.9259 14.32 20.9299H22.23C22.5195 20.9317 22.8052 20.9963 23.0672 21.1194C23.3293 21.2424 23.5616 21.4208 23.7479 21.6424C23.9343 21.8639 24.0703 22.1233 24.1467 22.4026C24.223 22.6818 24.2378 22.9743 24.19 23.2599ZM27.81 23.2599L28.14 27.1799C28.2077 27.7818 28.4765 28.3433 28.903 28.7734C29.3295 29.2035 29.8887 29.4771 30.49 29.5499H37C37.6027 29.4806 38.1638 29.2081 38.5909 28.7773C39.0181 28.3465 39.2858 27.7831 39.35 27.1799L39.68 23.2599C39.7284 22.971 39.7127 22.675 39.6341 22.3929C39.5554 22.1107 39.4158 21.8493 39.225 21.627C39.0343 21.4048 38.797 21.2271 38.53 21.1067C38.263 20.9862 37.9729 20.9259 37.68 20.9299H29.77C29.4805 20.9317 29.1948 20.9963 28.9328 21.1194C28.6707 21.2424 28.4384 21.4208 28.2521 21.6424C28.0657 21.8639 27.9297 22.1233 27.8533 22.4026C27.777 22.6818 27.7622 22.9743 27.81 23.2599Z" stroke="#7B0000" stroke-width="1.49"/>
</g>
</svg>
