<svg width="52" height="52" viewBox="0 0 52 52" fill="none" xmlns="http://www.w3.org/2000/svg">
<g id="glasses-14">
<path id="Vector" d="M26 42.0902C34.8863 42.0902 42.09 34.8864 42.09 26.0002C42.09 17.1139 34.8863 9.91016 26 9.91016C17.1137 9.91016 9.91 17.1139 9.91 26.0002C9.91 34.8864 17.1137 42.0902 26 42.0902Z" fill="white" stroke="#BFBEBD" stroke-width="2.48"/>
<path id="Vector_2" d="M24.28 23.7502C23.5165 22.7834 22.5463 21.9996 21.4407 21.4563C20.335 20.913 19.1219 20.6239 17.89 20.6102C13.89 20.3702 11 22.1902 11.96 24.5002C12.7058 26.1076 13.8654 27.4881 15.32 28.5002C16.71 29.5702 20.16 30.9602 22.6 29.6002C23.0958 29.3277 23.5327 28.9599 23.8858 28.5179C24.2388 28.0759 24.501 27.5684 24.6571 27.0247C24.8132 26.481 24.8603 25.9117 24.7956 25.3498C24.7309 24.7878 24.5557 24.2442 24.28 23.7502Z" fill="#F60000"/>
<path id="Vector_3" d="M23.46 22C21.3847 20.8104 19.0588 20.1253 16.67 20C13.96 19.93 11.78 20.53 11.42 22.29C11.3109 22.987 11.4641 23.6996 11.85 24.29C11.85 21.57 14.17 20.75 16.75 20.82C18.9682 20.8679 21.1305 21.5252 23 22.72C23.8693 23.2706 24.5062 24.121 24.79 25.11C25.1632 24.9056 25.5757 24.7829 26 24.75V22.75C25.0962 22.7681 24.209 22.5062 23.46 22Z" fill="#7B0000"/>
<path id="Vector_4" d="M27.72 23.7502C28.4835 22.7834 29.4537 21.9996 30.5593 21.4563C31.665 20.913 32.8781 20.6239 34.11 20.6102C38.11 20.3702 41 22.1902 40.04 24.5002C39.2942 26.1076 38.1346 27.4881 36.68 28.5002C35.29 29.5702 31.84 30.9602 29.4 29.6002C28.9052 29.3267 28.4692 28.9584 28.1169 28.5163C27.7646 28.0741 27.503 27.5669 27.3469 27.0235C27.1909 26.4802 27.1435 25.9114 27.2075 25.3497C27.2715 24.788 27.4457 24.2445 27.72 23.7502Z" fill="#F60000"/>
<path id="Vector_5" d="M28.54 22C30.6153 20.8104 32.9412 20.1253 35.33 20C38.04 19.93 40.22 20.53 40.58 22.29C40.6891 22.987 40.5359 23.6996 40.15 24.29C40.15 21.57 37.83 20.75 35.26 20.82C33.0385 20.8666 30.8726 21.5239 29 22.72C28.1307 23.2706 27.4938 24.121 27.21 25.11C26.8368 24.9056 26.4243 24.7829 26 24.75V22.75C26.9038 22.7681 27.791 22.5062 28.54 22Z" fill="#7B0000"/>
</g>
</svg>
