<svg width="52" height="52" viewBox="0 0 52 52" fill="none" xmlns="http://www.w3.org/2000/svg">
<g id="glasses-8">
<path id="Vector" d="M42.09 26.0002C42.09 29.1825 41.1463 32.2933 39.3784 34.9393C37.6104 37.5853 35.0974 39.6476 32.1574 40.8654C29.2173 42.0832 25.9822 42.4018 22.861 41.781C19.7399 41.1602 16.8729 39.6277 14.6227 37.3775C12.3724 35.1273 10.84 32.2603 10.2192 29.1392C9.59834 26.018 9.91698 22.7828 11.1348 19.8428C12.3526 16.9027 14.4149 14.3898 17.0609 12.6218C19.7069 10.8538 22.8177 9.91016 26 9.91016C30.2665 9.91281 34.3575 11.6088 37.3744 14.6257C40.3913 17.6426 42.0874 21.7336 42.09 26.0002Z" fill="white" stroke="#BFBEBD" stroke-width="2.48"/>
<path id="Vector_2" d="M24.22 24.4499L24.31 23.4499C24.3496 23.1618 24.3277 22.8686 24.2459 22.5896C24.164 22.3106 24.0241 22.0521 23.8351 21.8311C23.6462 21.61 23.4126 21.4315 23.1498 21.3072C22.8869 21.1829 22.6007 21.1157 22.31 21.1099H14.39C13.9354 21.1075 13.4945 21.2657 13.145 21.5566C12.7956 21.8474 12.5601 22.2523 12.48 22.6999L12.54 24.8399L12.76 27.3899C12.826 27.9951 13.0954 28.5601 13.524 28.9924C13.9527 29.4247 14.5154 29.6988 15.12 29.7699H21.61C22.2216 29.7048 22.7924 29.432 23.2273 28.9971C23.6621 28.5622 23.9349 27.9915 24 27.3799L24.09 26.3799L24.22 24.4499Z" fill="white" stroke="#030303" stroke-width="1.86"/>
<path id="Vector_3" d="M10.4 24.8599H12.02" stroke="#030303" stroke-width="1.86" stroke-linecap="round"/>
<path id="Vector_4" d="M23.59 24.5598L23.67 23.6598C23.7051 23.4047 23.6863 23.145 23.6148 22.8976C23.5432 22.6502 23.4205 22.4206 23.2546 22.2235C23.0887 22.0265 22.8833 21.8666 22.6517 21.754C22.4201 21.6413 22.1674 21.5786 21.91 21.5698H14.82C14.4133 21.5687 14.0194 21.7118 13.7082 21.9736C13.397 22.2354 13.1886 22.599 13.12 22.9998L13.17 24.9098L13.37 27.1798C13.4294 27.7184 13.6692 28.221 14.0505 28.6059C14.4317 28.9908 14.9321 29.2354 15.47 29.2998H21.26C21.7991 29.2358 22.3007 28.9915 22.6837 28.6068C23.0666 28.222 23.3085 27.7192 23.37 27.1798L23.44 26.2898L23.59 24.5598Z" fill="#F60000"/>
<path id="Vector_5" d="M27.78 24.4499L27.69 23.4499C27.6504 23.1618 27.6723 22.8686 27.7541 22.5896C27.836 22.3106 27.976 22.0521 28.1649 21.8311C28.3538 21.61 28.5874 21.4315 28.8502 21.3072C29.1131 21.1829 29.3993 21.1157 29.69 21.1099H37.69C38.1447 21.1075 38.5856 21.2657 38.935 21.5566C39.2844 21.8474 39.5199 22.2523 39.6 22.6999L39.54 24.8399L39.32 27.3899C39.254 27.9951 38.9847 28.5601 38.556 28.9924C38.1273 29.4247 37.5647 29.6988 36.96 29.7699H30.39C29.7784 29.7048 29.2077 29.432 28.7728 28.9971C28.3379 28.5622 28.0651 27.9915 28 27.3799L27.91 26.3799L27.78 24.4499Z" fill="white" stroke="#030303" stroke-width="1.86"/>
<path id="Vector_6" d="M41.25 24.5801H39.64" stroke="#030303" stroke-width="1.86" stroke-linecap="round"/>
<path id="Vector_7" d="M27.82 24.5801H24.18" stroke="#030303" stroke-width="1.86" stroke-linejoin="round"/>
<path id="Vector_8" d="M28.41 24.5598L28.33 23.6598C28.2949 23.4047 28.3137 23.145 28.3852 22.8976C28.4568 22.6502 28.5795 22.4206 28.7454 22.2235C28.9113 22.0265 29.1167 21.8666 29.3483 21.754C29.5799 21.6413 29.8326 21.5786 30.09 21.5698H37.18C37.5867 21.5687 37.9806 21.7118 38.2918 21.9736C38.6031 22.2354 38.8114 22.599 38.88 22.9998L38.83 24.9098L38.63 27.1798C38.5707 27.7184 38.3308 28.221 37.9495 28.6059C37.5683 28.9908 37.068 29.2354 36.53 29.2998H30.74C30.2016 29.234 29.7009 28.9893 29.3183 28.6048C28.9356 28.2204 28.6933 27.7185 28.63 27.1798L28.56 26.2898L28.41 24.5598Z" fill="#F60000"/>
</g>
</svg>
