<svg width="52" height="52" viewBox="0 0 52 52" fill="none" xmlns="http://www.w3.org/2000/svg">
<g id="glasses-6">
<path id="Vector" d="M26 42.0902C34.8863 42.0902 42.09 34.8864 42.09 26.0002C42.09 17.1139 34.8863 9.91016 26 9.91016C17.1137 9.91016 9.91 17.1139 9.91 26.0002C9.91 34.8864 17.1137 42.0902 26 42.0902Z" fill="white" stroke="#BFBEBD" stroke-width="2.48"/>
<path id="Vector_2" d="M40.36 21.4898C39.36 18.6098 35.36 18.0998 31.52 19.3298C30.4954 19.6045 29.5567 20.1335 28.791 20.8677C28.0253 21.6019 27.4574 22.5176 27.14 23.5298H24.86C24.5443 22.5183 23.9782 21.603 23.2143 20.8687C22.4503 20.1345 21.5132 19.6051 20.49 19.3298C16.65 18.0998 12.64 18.6098 11.64 21.4898C10.64 24.3698 13.19 27.5898 16.5 28.7398C19.81 29.8898 23.73 28.8898 24.73 26.0098C24.858 25.6845 24.9486 25.3456 25 24.9998H27.1C27.136 25.3403 27.2098 25.6757 27.32 25.9998C28.32 28.8798 32.24 29.8798 35.55 28.7298C38.86 27.5798 41.36 24.3698 40.36 21.4898ZM23.61 25.6798C22.84 27.8898 19.84 28.6798 17.29 27.7698C14.74 26.8598 12.79 24.4198 13.55 22.1998C14.31 19.9798 17.41 19.5998 20.35 20.5398C22.78 21.3198 24.38 23.4598 23.61 25.6798ZM34.71 27.7698C32.17 28.6598 29.16 27.8898 28.39 25.6798C27.62 23.4698 29.22 21.3198 31.65 20.5398C34.59 19.5998 37.65 19.9898 38.45 22.1998C39.25 24.4098 37.26 26.8898 34.71 27.7698Z" fill="#7B0000"/>
</g>
</svg>
