<svg width="52" height="52" viewBox="0 0 52 52" fill="none" xmlns="http://www.w3.org/2000/svg">
<g id="glasses-4">
<path id="Vector" d="M26 42.0902C34.8863 42.0902 42.09 34.8864 42.09 26.0002C42.09 17.1139 34.8863 9.91016 26 9.91016C17.1137 9.91016 9.91 17.1139 9.91 26.0002C9.91 34.8864 17.1137 42.0902 26 42.0902Z" fill="white" stroke="#BFBEBD" stroke-width="2.48"/>
<path id="Vector_2" d="M27.42 24.8101H24.58M24.59 25.1601C24.592 24.119 24.2849 23.1006 23.7077 22.2341C23.1305 21.3675 22.3091 20.6918 21.3475 20.2924C20.386 19.8931 19.3276 19.7881 18.3063 19.9907C17.285 20.1934 16.3469 20.6945 15.6106 21.4308C14.8744 22.167 14.3732 23.1051 14.1706 24.1264C13.968 25.1477 14.073 26.2061 14.4723 27.1677C14.8717 28.1292 15.5474 28.9506 16.4139 29.5278C17.2805 30.105 18.2988 30.4121 19.34 30.4101C20.0294 30.4101 20.7121 30.2743 21.3491 30.0105C21.986 29.7467 22.5648 29.3599 23.0523 28.8724C23.5398 28.3849 23.9265 27.8062 24.1904 27.1692C24.4542 26.5323 24.59 25.8496 24.59 25.1601ZM27.41 25.1601C27.408 24.119 27.7151 23.1006 28.2923 22.2341C28.8695 21.3675 29.6909 20.6918 30.6525 20.2924C31.614 19.8931 32.6724 19.7881 33.6937 19.9907C34.715 20.1934 35.6531 20.6945 36.3894 21.4308C37.1256 22.167 37.6268 23.1051 37.8294 24.1264C38.032 25.1477 37.927 26.2061 37.5277 27.1677C37.1283 28.1292 36.4526 28.9506 35.5861 29.5278C34.7195 30.105 33.7012 30.4121 32.66 30.4101C31.2676 30.4101 29.9323 29.857 28.9477 28.8724C27.9631 27.8879 27.41 26.5525 27.41 25.1601Z" stroke="#7B0000" stroke-width="0.93"/>
</g>
</svg>
