<svg width="52" height="52" viewBox="0 0 52 52" fill="none" xmlns="http://www.w3.org/2000/svg">
<g id="glasses-16">
<path id="Vector" d="M26 42.0902C34.8863 42.0902 42.09 34.8864 42.09 26.0002C42.09 17.1139 34.8863 9.91016 26 9.91016C17.1137 9.91016 9.91 17.1139 9.91 26.0002C9.91 34.8864 17.1137 42.0902 26 42.0902Z" fill="white" stroke="#BFBEBD" stroke-width="2.48"/>
<path id="Vector_2" d="M32.66 19.4399C31.2843 19.4426 29.9554 19.9401 28.9162 20.8416C27.877 21.7431 27.1969 22.9884 27 24.3499H25C24.7859 22.8965 24.018 21.5822 22.8569 20.682C21.6957 19.7819 20.2315 19.3658 18.7705 19.5208C17.3096 19.6757 15.9652 20.3898 15.0188 21.5134C14.0723 22.6371 13.5972 24.0833 13.6928 25.5493C13.7884 27.0154 14.4473 28.3876 15.5317 29.3788C16.6161 30.37 18.0418 30.9034 19.5105 30.8673C20.9792 30.8312 22.377 30.2284 23.4114 29.1851C24.4458 28.1418 25.0365 26.7389 25.06 25.2699H27C27.0217 26.3967 27.3757 27.492 28.0177 28.4183C28.6597 29.3446 29.561 30.0606 30.6085 30.4764C31.656 30.8922 32.803 30.9893 33.9055 30.7555C35.008 30.5217 36.0168 29.9675 36.8054 29.1623C37.594 28.3572 38.1272 27.337 38.338 26.2299C38.5488 25.1228 38.4278 23.978 37.9903 22.9394C37.5528 21.9008 36.8183 21.0146 35.8788 20.392C34.9394 19.7694 33.837 19.4382 32.71 19.4399H32.66Z" fill="#7B0000"/>
</g>
</svg>
