<svg width="52" height="52" viewBox="0 0 52 52" fill="none" xmlns="http://www.w3.org/2000/svg">
<g id="glasses-10">
<path id="Vector" d="M26 42.0902C34.8863 42.0902 42.09 34.8864 42.09 26.0002C42.09 17.1139 34.8863 9.91016 26 9.91016C17.1137 9.91016 9.91 17.1139 9.91 26.0002C9.91 34.8864 17.1137 42.0902 26 42.0902Z" fill="white" stroke="#BFBEBD" stroke-width="2.48"/>
<path id="Vector_2" d="M40.34 24.2399V23.6499H39.2V24.2399C39.2 25.6299 39.2 26.4699 38.8 26.8799C38.4 27.2899 36.58 27.5499 34.08 27.5499C28.62 27.5499 28.59 27.1199 28.44 23.7999V23.7399L27.3 23.7999V24.4399H24.67V23.7999L23.53 23.7399V23.7999C23.37 27.1199 23.35 27.5499 17.89 27.5499C15.38 27.5499 13.72 27.4299 13.17 26.8799C12.62 26.3299 12.76 25.6299 12.77 24.2399V23.6499H11.66V24.2399C11.66 25.8599 11.66 26.9399 12.38 27.6799C13.1 28.4199 14.91 28.6799 17.92 28.6799C23.13 28.6799 24.24 27.9899 24.57 25.5799H27.43C27.76 27.9899 28.87 28.6799 34.08 28.6799C37.08 28.6799 38.77 28.5199 39.61 27.6799C40.45 26.8399 40.35 25.8599 40.34 24.2399Z" fill="#7B0000"/>
</g>
</svg>
