<svg width="52" height="52" viewBox="0 0 52 52" fill="none" xmlns="http://www.w3.org/2000/svg">
<g id="glasses-11">
<path id="Vector" d="M26 42.0902C34.8863 42.0902 42.09 34.8864 42.09 26.0002C42.09 17.1139 34.8863 9.91016 26 9.91016C17.1137 9.91016 9.91 17.1139 9.91 26.0002C9.91 34.8864 17.1137 42.0902 26 42.0902Z" fill="white" stroke="#BFBEBD" stroke-width="2.48"/>
<path id="Vector_2" d="M33.26 19.8701C29.86 19.8701 27.38 21.6401 27.26 24.1201H24.77C24.62 21.6401 22.14 19.8701 18.77 19.8701C15.4 19.8701 12.77 21.7501 12.77 24.3501C12.6838 25.9401 13.2327 27.4992 14.2961 28.6844C15.3594 29.8696 16.85 30.5839 18.44 30.6701C20.03 30.7563 21.5891 30.2074 22.7743 29.144C23.9595 28.0807 24.6738 26.5901 24.76 25.0001H27.24C27.3235 26.5994 28.039 28.0999 29.2289 29.1717C30.4188 30.2435 31.9857 30.7987 33.585 30.7151C35.1843 30.6316 36.6848 29.9161 37.7566 28.7262C38.8284 27.5363 39.3835 25.9694 39.3 24.3701C39.3 21.7501 36.76 19.8701 33.26 19.8701ZM18.74 29.7201C18.0361 29.7474 17.3343 29.6257 16.6807 29.3629C16.0271 29.1001 15.4365 28.7022 14.9474 28.1952C14.4583 27.6882 14.0819 27.0835 13.8428 26.4209C13.6037 25.7583 13.5073 25.0526 13.56 24.3501C13.56 22.2501 15.74 20.7201 18.74 20.7201C21.74 20.7201 23.93 22.2501 23.93 24.3501C23.9672 25.0499 23.8598 25.7498 23.6146 26.4062C23.3693 27.0626 22.9914 27.6614 22.5044 28.1653C22.0174 28.6692 21.4318 29.0673 20.7841 29.3348C20.1365 29.6023 19.4406 29.7335 18.74 29.7201ZM33.26 29.7201C32.5594 29.7335 31.8635 29.6023 31.2159 29.3348C30.5682 29.0673 29.9826 28.6692 29.4956 28.1653C29.0086 27.6614 28.6307 27.0626 28.3854 26.4062C28.1401 25.7498 28.0328 25.0499 28.07 24.3501C28.07 22.2501 30.25 20.7201 33.26 20.7201C36.27 20.7201 38.44 22.2501 38.44 24.3501C38.4927 25.0526 38.3963 25.7583 38.1572 26.4209C37.9181 27.0835 37.5417 27.6882 37.0526 28.1952C36.5635 28.7022 35.9729 29.1001 35.3193 29.3629C34.6657 29.6257 33.9639 29.7474 33.26 29.7201Z" fill="#7B0000"/>
</g>
</svg>
