<svg width="52" height="52" viewBox="0 0 52 52" fill="none" xmlns="http://www.w3.org/2000/svg">
<g id="goatee-5">
<path id="Vector" d="M26 39.2598C34.1462 39.2598 40.75 32.656 40.75 24.5098C40.75 16.3636 34.1462 9.75977 26 9.75977C17.8538 9.75977 11.25 16.3636 11.25 24.5098C11.25 32.656 17.8538 39.2598 26 39.2598Z" fill="white" stroke="#BFBFBF" stroke-width="2.27"/>
<path id="Vector_2" d="M38.2 27.3301C38.2 27.3301 36.64 33.0001 32.88 33.6801C29.55 34.3201 28.62 32.6801 28.62 32.6801H23.45C23.45 32.6801 22.53 34.3501 19.19 33.6801C15.44 32.9601 13.87 27.3301 13.87 27.3301H12.68C13.3309 30.3799 15.0087 33.114 17.4331 35.0755C19.8574 37.037 22.8815 38.1072 26 38.1072C29.1185 38.1072 32.1426 37.037 34.5669 35.0755C36.9913 33.114 38.6691 30.3799 39.32 27.3301H38.2Z" fill="#1E1E1E"/>
</g>
</svg>
