<svg width="52" height="52" viewBox="0 0 52 52" fill="none" xmlns="http://www.w3.org/2000/svg">
<g id="goatee-1">
<path id="Vector" d="M40.85 24.5102C40.85 27.4472 39.9791 30.3183 38.3473 32.7604C36.7156 35.2024 34.3963 37.1058 31.6828 38.2298C28.9694 39.3537 25.9835 39.6478 23.1029 39.0748C20.2223 38.5018 17.5763 37.0875 15.4995 35.0107C13.4227 32.9339 12.0083 30.2879 11.4353 27.4072C10.8623 24.5266 11.1564 21.5408 12.2804 18.8273C13.4044 16.1138 15.3077 13.7946 17.7498 12.1628C20.1919 10.5311 23.0629 9.66016 26 9.66016C29.9385 9.66016 33.7156 11.2247 36.5005 14.0096C39.2854 16.7945 40.85 20.5717 40.85 24.5102Z" fill="white" stroke="#BFBFBF" stroke-width="2.48"/>
</g>
</svg>
