<svg width="52" height="52" viewBox="0 0 52 52" fill="none" xmlns="http://www.w3.org/2000/svg">
<g id="goatee-4">
<path id="Vector" d="M40.85 24.7499C40.85 27.687 39.9791 30.5581 38.3473 33.0001C36.7156 35.4422 34.3963 37.3456 31.6828 38.4695C28.9694 39.5935 25.9835 39.8876 23.1029 39.3146C20.2223 38.7416 17.5763 37.3272 15.4995 35.2504C13.4227 33.1736 12.0083 30.5276 11.4353 27.647C10.8623 24.7664 11.1564 21.7805 12.2804 19.0671C13.4044 16.3536 15.3077 14.0343 17.7498 12.4026C20.1919 10.7708 23.0629 9.8999 26 9.8999C29.9385 9.8999 33.7156 11.4645 36.5005 14.2494C39.2854 17.0343 40.85 20.8114 40.85 24.7499Z" fill="white" stroke="#BFBFBF" stroke-width="2.48"/>
<path id="Vector_2" d="M26 36.6801L28.28 38.2401L29.94 36.4101L32.31 37.6501C33.802 36.9188 35.1343 35.8992 36.23 34.6501C37.3978 33.1294 38.3346 31.4446 39.01 29.6501L41.18 30.3801C40.7188 33.7867 39.2848 36.988 37.05 39.6001C34.27 42.9801 29.37 44.6001 29.37 44.6001L27.86 43.3701L26 45.1801L24.14 43.2701L22.63 44.5001C22.63 44.5001 17.73 42.9301 14.95 39.5001C12.7154 36.889 11.2844 33.6867 10.83 30.2801L13 29.6001C13.6754 31.3946 14.6122 33.0794 15.78 34.6001C16.8757 35.8492 18.208 36.8688 19.7 37.6001L22.08 36.3601L23.73 38.1901L26 36.6801Z" fill="#1E1E1E"/>
</g>
</svg>
