<svg width="52" height="52" viewBox="0 0 52 52" fill="none" xmlns="http://www.w3.org/2000/svg">
<g id="goatee-3">
<path id="Vector" d="M40.85 24.6698C40.85 27.6069 39.9791 30.478 38.3473 32.92C36.7156 35.3621 34.3963 37.2655 31.6828 38.3894C28.9694 39.5134 25.9835 39.8075 23.1029 39.2345C20.2223 38.6615 17.5763 37.2472 15.4995 35.1704C13.4227 33.0936 12.0083 30.4475 11.4353 27.5669C10.8623 24.6863 11.1564 21.7005 12.2804 18.987C13.4044 16.2735 15.3077 13.9542 17.7498 12.3225C20.1919 10.6908 23.0629 9.81982 26 9.81982C27.9501 9.81982 29.8812 10.2039 31.6828 10.9502C33.4845 11.6965 35.1216 12.7903 36.5005 14.1693C37.8795 15.5482 38.9733 17.1853 39.7196 18.987C40.4659 20.7887 40.85 22.7197 40.85 24.6698Z" fill="white" stroke="#BFBFBF" stroke-width="2.48"/>
<path id="Vector_2" d="M26 36.46L28.1 38.3L30.75 36L32.69 37.52L37.24 36.19C37.24 36.19 36.47 36.97 34.78 38.99C33.8188 40.118 32.7832 41.1804 31.68 42.17L30.51 41.27L29.09 43.07L27.71 42L26 43.7L24.3 42L22.91 43.14L21.49 41.34L20.32 42.24C19.2148 41.2311 18.1791 40.1486 17.22 39C15.53 37 14.76 36.2 14.76 36.2L19.31 37.53L21.25 36L23.9 38.3L26 36.46Z" fill="#1E1E1E"/>
</g>
</svg>
