<svg width="52" height="52" viewBox="0 0 52 52" fill="none" xmlns="http://www.w3.org/2000/svg">
<g id="goatee-6">
<path id="Vector" d="M40.85 24.5102C40.85 27.4472 39.9791 30.3183 38.3473 32.7604C36.7156 35.2024 34.3963 37.1058 31.6828 38.2298C28.9694 39.3537 25.9835 39.6478 23.1029 39.0748C20.2223 38.5018 17.5763 37.0875 15.4995 35.0107C13.4227 32.9339 12.0083 30.2879 11.4353 27.4072C10.8623 24.5266 11.1564 21.5408 12.2804 18.8273C13.4044 16.1138 15.3077 13.7946 17.7498 12.1628C20.1919 10.5311 23.0629 9.66016 26 9.66016C29.9385 9.66016 33.7156 11.2247 36.5005 14.0096C39.2854 16.7945 40.85 20.5717 40.85 24.5102Z" fill="white" stroke="#BFBFBF" stroke-width="2.48"/>
<path id="Vector_2" d="M39.58 24H38C37.8445 25.3738 37.4089 26.7012 36.72 27.9C36.28 28.46 34.44 30.09 32.66 28.65C30.05 26.53 26 26.67 26 26.67C26 26.67 22 26.53 19.38 28.6C17.6 30.04 15.76 28.41 15.32 27.85C14.6236 26.6694 14.1745 25.3595 14 24H12.42V24.56C12.4819 28.1395 13.9335 31.5547 16.4677 34.0833C19.002 36.612 22.4204 38.056 26 38.11C29.5934 38.0634 33.0267 36.6159 35.5687 34.0757C38.1108 31.5356 39.5608 28.1034 39.61 24.51C39.61 24.32 39.59 24.13 39.58 24ZM31.4 32.29C31.0921 32.4537 30.7487 32.5393 30.4 32.5393C30.0513 32.5393 29.7079 32.4537 29.4 32.29C28.95 31.89 28.66 30.54 28.55 30.58H23.47C23.36 30.58 23.07 31.89 22.63 32.29C22.3216 32.452 21.9784 32.5367 21.63 32.5367C21.2816 32.5367 20.9384 32.452 20.63 32.29C20.07 31.85 19.63 31.29 20.42 30.15C21.91 27.93 25.77 28.05 26.03 28.06C26.29 28.07 30.15 27.93 31.64 30.15C32.37 31.29 32 31.85 31.4 32.29Z" fill="#1E1E1E"/>
</g>
</svg>
