<svg width="52" height="52" viewBox="0 0 52 52" fill="none" xmlns="http://www.w3.org/2000/svg">
<g id="hair-7">
<g id="7">
<path id="Vector" d="M42.6619 34.858L39.8159 31.3L42.5439 27.743L39.9349 25.19C40.0526 23.761 40.0127 22.3233 39.8159 20.903C39.491 17.4636 37.895 14.269 35.3398 11.9438C32.7847 9.61863 29.4542 8.33008 25.9994 8.33008C22.5447 8.33008 19.2141 9.61863 16.659 11.9438C14.1038 14.269 12.5078 17.4636 12.1829 20.903C11.985 22.3232 11.9455 23.761 12.0649 25.19L9.45591 27.743L12.1829 31.3L9.33691 34.858L12.8999 38.416L9.45591 42.27L14.2559 45.47L18.1689 42.27L22.0829 45.47L25.9999 43.042L29.9129 45.473L33.8269 42.273L37.7399 45.473L42.5399 42.273L39.0999 38.416L42.6619 34.858Z" fill="#5F5F5F"/>
<path id="Vector_2" d="M25.9999 11.3169C18.9609 11.3169 14.6399 17.6409 15.1709 26.3219C15.6349 33.8999 20.0439 39.2379 25.9999 39.2379C31.9559 39.2379 36.3639 33.9009 36.8279 26.3219C37.3599 17.6409 33.0379 11.3169 25.9999 11.3169Z" fill="white" stroke="#BFBFBF" stroke-width="2.475"/>
<path id="Vector_3" d="M35.0488 23.6921L39.0748 26.9521L39.4898 20.5471L34.5688 11.8311L25.9998 9.15112L17.4358 11.8361L13.3978 21.4371L12.9238 26.9521L16.9498 23.6921L20.8168 19.0511L20.4298 16.3441L23.1228 14.6181L25.9998 16.8721L28.8758 14.6181L31.5678 16.2121L31.1818 19.0421L35.0488 23.6921Z" fill="#5F5F5F"/>
</g>
</g>
</svg>
