<svg width="52" height="52" viewBox="0 0 52 52" fill="none" xmlns="http://www.w3.org/2000/svg">
<g id="hair-4">
<g id="4">
<path id="Vector" d="M39.2829 23.9941V22.4221C39.2829 15.3491 33.0719 8.48706 25.9989 8.48706C18.9259 8.48706 12.7169 15.3491 12.7169 22.4221V23.9941L11.4719 45.4581H40.5269L39.2829 23.9941Z" fill="#5F5F5F"/>
<path id="Vector_2" d="M25.9999 11.324C18.9619 11.324 14.6409 17.648 15.1719 26.329C15.6349 33.908 20.0439 39.245 25.9999 39.245C31.9549 39.245 36.3639 33.908 36.8279 26.329C37.3589 17.648 33.0379 11.324 25.9999 11.324Z" fill="white" stroke="#BFBFBF" stroke-width="2.475"/>
<path id="Vector_3" d="M38.926 22.88L35.843 13.462L25.999 8.50903L16.157 13.462L13.073 22.88L12.895 27.377L17.579 23.01H34.419L39.104 27.377L38.926 22.88Z" fill="#5F5F5F"/>
</g>
</g>
</svg>
