<svg width="52" height="52" viewBox="0 0 52 52" fill="none" xmlns="http://www.w3.org/2000/svg">
<g id="hair-10">
<g id="10">
<path id="Vector" d="M39.6379 19.8001C37.9189 13.6921 33.0719 8.4751 25.9999 8.4751C18.9279 8.4751 14.0799 13.6921 12.3609 19.8001C10.8379 25.2091 10.2969 29.8251 13.0139 38.0641C14.8509 43.6381 20.1289 45.4311 25.9989 45.4311C31.8689 45.4311 37.1469 43.6381 38.9849 38.0641C41.6999 29.8251 41.1599 25.2091 39.6379 19.8001Z" fill="#5F5F5F"/>
<path id="Vector_2" d="M25.9999 11.322C18.9619 11.322 14.6409 17.646 15.1719 26.327C15.6359 33.907 20.0449 39.243 25.9999 39.243C31.9549 39.243 36.3639 33.907 36.8279 26.327C37.3589 17.646 33.0379 11.322 25.9999 11.322Z" fill="white" stroke="#BFBFBF" stroke-width="2.475"/>
<path id="Vector_3" d="M36.0219 14.5592L32.3449 10.7052L25.9999 9.46021L19.6559 10.7052L15.9789 14.5592L13.0149 22.5282L13.3699 31.7782C13.3699 31.7782 19.2989 19.8682 21.0779 14.7082L25.9999 15.5002L30.9219 14.7102C32.7009 19.8702 38.6319 31.7802 38.6319 31.7802L38.9859 22.5302L36.0219 14.5592Z" fill="#5F5F5F"/>
</g>
</g>
</svg>
