<svg width="52" height="52" viewBox="0 0 52 52" fill="none" xmlns="http://www.w3.org/2000/svg">
<g id="hair-91">
<g id="91">
<path id="Vector" d="M25.9999 11.0332C18.9609 11.0332 14.6399 17.3572 15.1709 26.0382C15.6349 33.6172 20.0439 38.9552 25.9999 38.9552C31.9559 38.9552 36.3639 33.6172 36.8279 26.0382C37.3599 17.3572 33.0379 11.0332 25.9999 11.0332Z" fill="white" stroke="#BFBFBF" stroke-width="2.475"/>
<path id="Vector_2" d="M18.262 16.287L15.95 21.729L13.331 29.9C13.0018 28.5209 12.8356 27.1079 12.836 25.69V23.29C12.8308 20.5236 13.6679 17.8211 15.236 15.542C16.394 13.7401 17.986 12.2579 19.866 11.2314C21.7459 10.2049 23.8535 9.66699 25.9955 9.66699C28.1374 9.66699 30.245 10.2049 32.125 11.2314C34.0049 12.2579 35.5969 13.7401 36.755 15.542C38.3235 17.8209 39.1606 20.5235 39.155 23.29V25.69C39.1556 27.1078 38.9898 28.5208 38.661 29.9L36.05 21.729L33.737 16.287" fill="#5F5F5F"/>
<path id="Vector_3" d="M34.8949 8.89198L31.7519 11.145L30.8029 7.58698L27.7899 9.43798L25.9999 6.10498L24.2089 9.43798L21.1959 7.58698L20.2479 11.145L17.1049 8.89198L16.9189 13.85L20.0689 15.474L25.9999 15.177L31.9299 15.474L35.0799 13.85L34.8949 8.89198Z" fill="#5F5F5F"/>
<path id="Vector_4" d="M26 10.688L35.063 14.125V23.5C32.0732 22.9451 29.0407 22.6523 26 22.625C22.9593 22.6524 19.9268 22.9451 16.937 23.5V14.125L26 10.688Z" fill="#5F5F5F"/>
</g>
</g>
</svg>
