<svg width="52" height="52" viewBox="0 0 52 52" fill="none" xmlns="http://www.w3.org/2000/svg">
<g id="hair-105">
<g id="105">
<path id="Vector" d="M39.7581 20.6999C37.8001 12.3999 33.0731 8.48389 26.0001 8.48389C18.9271 8.48389 14.2001 12.3999 12.2431 20.6999C10.3941 28.5429 11.4611 32.7999 13.3691 37.3809C16.2451 44.2879 18.3501 44.7439 18.3501 44.7439L22.2631 43.3199L26.0001 45.6929L29.7361 43.3199L33.6491 44.7439C33.6491 44.7439 35.7551 44.2879 38.6311 37.3809C40.5391 32.7999 41.6061 28.5429 39.7581 20.6999Z" fill="#5F5F5F"/>
<path id="Vector_2" d="M26.0001 11.3359C18.9611 11.3359 14.6401 17.6599 15.1711 26.3409C15.6361 33.9199 20.0441 39.2579 26.0001 39.2579C31.9561 39.2579 36.3651 33.9199 36.8281 26.3409C37.3601 17.6599 33.0381 11.3359 26.0001 11.3359Z" fill="white" stroke="#BFBFBF" stroke-width="2.475"/>
<path id="Vector_3" d="M31.0831 17.4457C31.0831 17.4457 32.8331 20.5827 34.8331 25.0827C36.7531 29.4027 39.4011 35.2827 39.4011 35.2827V22.2997L35.0131 12.6997L26.0001 8.78271L16.9871 12.6997L12.6001 22.2997V35.2867C12.6001 35.2867 17.3921 29.2267 20.9181 25.7227C24.0844 22.7017 27.4832 19.9342 31.0831 17.4457Z" fill="#5F5F5F"/>
</g>
</g>
</svg>
