<svg width="52" height="52" viewBox="0 0 52 52" fill="none" xmlns="http://www.w3.org/2000/svg">
<g id="hair-75">
<g id="75">
<path id="Vector" d="M26 22.6772L38.271 23.0902L41.675 29.0702L39.812 29.6882L40.249 36.6252L38.937 34.8132L38.437 38.0002L36.375 37.0002L34.375 39.6252L26 35.9382L17.625 39.6252L15.625 37.0002L13.562 38.0002L13.062 34.8132L11.75 36.6252L12.187 29.6882L10.324 29.0702L13.728 23.0902L26 22.6772Z" fill="#5F5F5F"/>
<path id="Vector_2" d="M25.9999 11.1001C18.9609 11.1001 14.6399 17.4231 15.1709 26.1001C15.6349 33.6851 20.0429 39.0221 25.9999 39.0221C31.9549 39.0221 36.3639 33.6851 36.8279 26.1061C37.3589 17.4251 33.0379 11.1001 25.9999 11.1001Z" fill="white" stroke="#BFBFBF" stroke-width="2.475"/>
<path id="Vector_3" d="M26 12.569L36.75 29.375L38.375 23.125L39.874 29.75L42.175 28.867L38.706 16.48L42.175 13.969L34.726 10.67L36.96 6.52002L26 8.86002L15.038 6.52002L17.273 10.67L9.82397 13.969L13.293 16.48L9.82397 28.867L12.124 29.75L13.624 23.125L15.249 29.375L26 12.569Z" fill="#5F5F5F"/>
<path id="Vector_4" d="M30.75 12.625C30.75 12.625 29 19.875 26 24.75C23 19.875 21.25 12.625 21.25 12.625" fill="#5F5F5F"/>
</g>
</g>
</svg>
