<svg width="52" height="52" viewBox="0 0 52 52" fill="none" xmlns="http://www.w3.org/2000/svg">
<g id="hair-94">
<g id="94">
<path id="Vector" d="M26 7.92188C33.073 7.92188 40 14.0129 41.006 21.2829C41.57 25.795 41.0186 30.3765 39.4 34.6259L38.765 32.8069C38.765 32.8069 36.344 37.9689 34.898 39.6909L33.178 36.4589L30.154 41.7789L28.018 39.3499L26 42.5529L23.983 39.3529L21.85 41.7789L18.825 36.4589L17.106 39.6909C15.659 37.9689 13.238 32.8069 13.238 32.8069L12.6 34.6259C10.9832 30.3761 10.4338 25.7945 11 21.2829C12 14.0129 18.927 7.92188 26 7.92188Z" fill="#5F5F5F"/>
<path id="Vector_2" d="M26.0001 11.1499C18.9621 11.1499 14.6411 17.4749 15.1721 26.1559C15.6361 33.7349 20.0451 39.0719 26.0001 39.0719C31.9551 39.0719 36.3641 33.7349 36.8281 26.1559C37.3601 17.4749 33.0391 11.1499 26.0001 11.1499Z" fill="white" stroke="#BFBFBF" stroke-width="2.475"/>
<path id="Vector_3" d="M18.885 17.381L14.863 30.723L12.895 28.291L13.316 19.969L16.719 11.692L26 8.68799L35.281 11.692L38.685 19.969L39.106 28.291L37.138 30.723L33.115 17.381" fill="#5F5F5F"/>
<path id="Vector_4" d="M35.625 21.709L33.125 23.875L30.813 21.709L28.438 23.813L26 21.709L23.563 23.813L21.188 21.709L18.875 23.875L16.375 21.709L18 14.5L33.375 14L35.625 21.709Z" fill="#5F5F5F"/>
</g>
</g>
</svg>
