<svg width="52" height="52" viewBox="0 0 52 52" fill="none" xmlns="http://www.w3.org/2000/svg">
<g id="hair-80">
<g id="80">
<path id="Vector" d="M25.9999 25.423L38.1249 27.583L38.0829 39.96L35.7499 43.71L32.8329 40.917L29.9109 43.834L25.9999 40.834L22.0889 43.834L19.1659 40.917L16.2489 43.71L13.9159 39.96L13.8739 27.583L25.9999 25.423ZM12.1069 20.307L13.5779 22.691L15.3619 22.808L16.0169 17.994L14.3919 17.749L12.1069 20.307Z" fill="#5F5F5F"/>
<path id="Vector_2" d="M11.812 25.25L13.25 28.125L15.912 27.507L15.937 23.462L13.494 23.5L11.812 25.25ZM39.893 20.307L38.422 22.691L36.638 22.808L35.983 17.994L37.608 17.749L39.893 20.307ZM40.187 25.25L38.75 28.125L36.088 27.507L36.062 23.462L38.506 23.5L40.187 25.25Z" fill="#5F5F5F"/>
<path id="Vector_3" d="M26.0001 11.1172C18.9621 11.1172 14.6411 17.4402 15.1721 26.1172C15.6391 33.7002 20.0481 39.0382 26.0001 39.0382C31.9551 39.0382 36.3641 33.7012 36.8281 26.1212C37.3641 17.4402 33.0421 11.1172 26.0001 11.1172Z" fill="white" stroke="#BFBFBF" stroke-width="2.475"/>
<path id="Vector_4" d="M15.249 16.875L16.374 18L19.374 14.875L18.999 12.375L19.749 11.875L21.624 14L24.624 13.375L26 9.83L21.999 9.25L19.833 11.666L18.749 12.375L15.374 13.625L15.249 16.875ZM36.75 16.875L35.625 18L32.625 14.875L33 12.375L32.25 11.875L30.375 14L27.375 13.375L26 9.83L30 9.25L32.167 11.666L33.25 12.375L36.625 13.625L36.75 16.875Z" fill="#5F5F5F"/>
</g>
</g>
</svg>
