<svg width="52" height="52" viewBox="0 0 52 52" fill="none" xmlns="http://www.w3.org/2000/svg">
<g id="hair-64">
<g id="64">
<path id="Vector" d="M25.9989 38.5H24.3719L21.3719 40.875L19.4969 37.5L16.9969 40L10.9929 26.202L12.6159 22.412L11.3799 17.385L15.3229 13.363L15.6339 10.037L19.1139 9.95997L20.8939 7.17597L23.3679 8.25798L25.9969 6.32397H26.0009L28.6299 8.25798L31.1049 7.17597L32.8839 9.95997L36.3639 10.037L36.6749 13.363L40.6179 17.385L39.3819 22.412L41.0049 26.202L35.0009 40L32.5009 37.5L30.6259 40.875L27.6259 38.5H25.9989Z" fill="#5F5F5F"/>
<path id="Vector_2" d="M25.9999 11.043C18.9619 11.043 14.6409 17.366 15.1719 26.043C15.6359 33.623 20.0449 38.96 25.9999 38.96C31.9549 38.96 36.3639 33.623 36.8279 26.043C37.3589 17.366 33.0379 11.043 25.9999 11.043Z" fill="white" stroke="#BFBFBF" stroke-width="2.475"/>
<path id="Vector_3" d="M26.9269 19.2409C30.0209 18.1579 30.9499 16.8409 30.9499 16.8409C32.1774 18.5516 33.7606 19.9762 35.5909 21.0169L37.1379 27.9769L38.6849 25.3489L38.0649 17.4589L34.8169 11.9679L25.9999 9.10889L17.1829 11.9709L13.9349 17.4619L13.3149 25.3519L14.8619 27.9799L16.4089 21.0199C18.2392 19.9792 19.8225 18.5546 21.0499 16.8439C21.3 17.9634 21.3 19.1243 21.0499 20.2439C23.0497 20.2232 25.0335 19.8846 26.9269 19.2409Z" fill="#5F5F5F"/>
</g>
</g>
</svg>
