<svg width="52" height="52" viewBox="0 0 52 52" fill="none" xmlns="http://www.w3.org/2000/svg">
<g id="hair-32">
<g id="32">
<path id="Vector" d="M36.886 31.7468L33.054 43.6648L29.919 39.0398L26 45.3558L22.08 39.0398L18.945 43.6648L15.113 31.7468" fill="#5F5F5F"/>
<path id="Vector_2" d="M26.0001 11.3279C18.9611 11.3279 14.6401 17.6509 15.1711 26.3329C15.6351 33.9119 20.0441 39.2489 26.0001 39.2489C31.9561 39.2489 36.3641 33.9119 36.8281 26.3329C37.3601 17.6509 33.0381 11.3279 26.0001 11.3279Z" fill="white" stroke="#BFBFBF" stroke-width="2.475"/>
<path id="Vector_3" d="M39.6081 20.7169C39.6081 13.6439 33.0731 8.6499 26.0001 8.6499C18.9271 8.6499 12.3911 13.6439 12.3911 20.7169C12.3911 20.7169 11.7681 27.4769 14.2581 30.5899L14.7031 21.7899L15.7711 18.0539L17.1051 23.2999L19.5051 15.6519L21.2841 23.3889L23.6001 15.1139L26.0001 22.9399L28.4001 15.1139L30.7131 23.3849L32.4921 15.6479L34.9001 23.2999L36.2341 18.0529L37.3001 21.7849L37.7451 30.5899C40.2311 27.4769 39.6081 20.7169 39.6081 20.7169Z" fill="#5F5F5F"/>
</g>
</g>
</svg>
