<svg width="52" height="52" viewBox="0 0 52 52" fill="none" xmlns="http://www.w3.org/2000/svg">
<g id="hair-115">
<g id="115">
<path id="Vector" d="M25.9999 11.0493C18.9609 11.0493 14.6399 17.3733 15.1709 26.0543C15.6359 33.6343 20.0439 38.9713 25.9999 38.9713C31.9549 38.9713 36.3639 33.6343 36.8279 26.0543C37.3599 17.3733 33.0389 11.0493 25.9999 11.0493Z" fill="white" stroke="#BFBFBF" stroke-width="2.475"/>
<path id="Vector_2" d="M27.3919 17.7111L28.0879 21.5001L31.6459 18.7161L34.8949 21.9651L35.9779 21.0361L37.4109 24.6491H38.5299L39.2259 15.9991L36.5969 14.3751L35.8229 9.81111L30.4859 9.11511L25.9999 6.64111L21.5139 9.11511L16.1769 9.81111L15.4029 14.3751L12.7739 15.9991L13.4699 24.6491H14.5899L16.0219 21.0361L17.1049 21.9651L20.3539 18.7161L22.7509 21.5001L27.3919 17.7111Z" fill="#5F5F5F"/>
</g>
</g>
</svg>
