<svg width="52" height="52" viewBox="0 0 52 52" fill="none" xmlns="http://www.w3.org/2000/svg">
<g id="hair-102">
<g id="102">
<path id="Vector" d="M25.9999 45.821L29.0939 42.24L31.4939 44.756C33.2769 43.6712 34.7854 42.1894 35.9019 40.426C36.8642 38.8911 37.5203 37.1843 37.8339 35.4L38.8099 36.668C38.8099 36.668 40.2579 35.305 40.8499 30.62C41.1709 27.5072 40.9821 24.363 40.2909 21.311C40.2909 14.234 33.0729 8.5 25.9999 8.5C18.9269 8.5 11.7089 14.234 11.7089 21.309C11.0188 24.3611 10.83 27.5052 11.1499 30.618C11.7439 35.303 13.1909 36.666 13.1909 36.666L14.1659 35.398C14.4804 37.183 15.1371 38.8903 16.0999 40.426C17.2172 42.1891 18.7259 43.6708 20.5089 44.756L22.9089 42.24L25.9999 45.821Z" fill="#5F5F5F"/>
<path id="Vector_2" d="M25.9999 11.3442C18.9619 11.3442 14.6409 17.6682 15.1719 26.3492C15.6359 33.9282 20.0449 39.2662 25.9999 39.2662C31.9549 39.2662 36.3639 33.9282 36.8279 26.3492C37.3599 17.6682 33.0389 11.3442 25.9999 11.3442Z" fill="white" stroke="#BFBFBF" stroke-width="2.475"/>
<path id="Vector_3" d="M25.9999 12.5001L35.1909 20.4181C35.1909 20.4181 36.0559 27.8181 34.9729 30.6801C34.9729 30.6801 38.9269 29.7291 39.9949 28.2461L39.2239 19.5891L35.0739 11.8801L25.9999 9.68506L16.9279 11.8851L12.7759 19.5941L12.0059 28.2511C13.0729 29.7341 17.0279 30.6851 17.0279 30.6851C15.9449 27.8231 16.8099 20.4231 16.8099 20.4231L25.9999 12.5001Z" fill="#5F5F5F"/>
<path id="Vector_4" d="M15.9998 21.084L17.4158 25C17.4158 25 19.6658 24.5 22.4158 21L21.4158 25.333C25.8532 23.9745 29.7007 21.1551 32.3328 17.333L30.7488 12L25.9998 10.333L15.2488 17L15.9998 21.084Z" fill="#5F5F5F"/>
</g>
</g>
</svg>
