<svg width="52" height="52" viewBox="0 0 52 52" fill="none" xmlns="http://www.w3.org/2000/svg">
<g id="hair-81">
<g id="81">
<path id="Vector" d="M38.1381 28.8218L33.5221 42.1768L29.8101 39.6668L25.9951 42.9168L22.1791 39.6668L18.4661 42.1768L13.8511 28.8218" fill="#5F5F5F"/>
<path id="Vector_2" d="M26.0001 11.1099C18.9601 11.1099 14.6401 17.4339 15.1711 26.1149C15.6301 33.6939 20.0391 39.0309 26.0001 39.0309C31.9551 39.0309 36.3641 33.6939 36.8281 26.1149C37.3541 17.4339 33.0331 11.1099 26.0001 11.1099Z" fill="white" stroke="#BFBFBF" stroke-width="2.475"/>
<path id="Vector_3" d="M33.007 11.0338C33.007 11.0338 39.195 13.0958 39.607 20.9338C39.849 25.5438 38.482 29.0278 37.426 33.3148C37.426 33.3148 36.508 22.3908 35.665 19.0018C35.1215 16.9267 33.9585 15.0664 32.331 13.6688C24.831 24.0018 20.331 26.9188 20.331 26.9188L20.631 19.9028C19.084 22.1458 14.561 33.3148 14.561 33.3148C13.505 29.0278 11.684 25.4968 12.38 20.9338C13.428 14.0668 18.053 8.04385 24.549 7.52785C30.931 7.01985 33.007 11.0338 33.007 11.0338Z" fill="#5F5F5F"/>
</g>
</g>
</svg>
