<svg width="52" height="52" viewBox="0 0 52 52" fill="none" xmlns="http://www.w3.org/2000/svg">
<g id="hair-9">
<g id="9">
<path id="Vector" d="M31.585 32.0149C31.585 32.0149 27.596 36.0249 29.185 40.3149C29.7106 41.7634 30.6611 43.0197 31.9121 43.9194C33.1631 44.8192 34.6565 45.3205 36.197 45.3579C37.3863 44.377 38.2517 43.0598 38.6799 41.5789C39.1081 40.0979 39.0792 38.5222 38.597 37.0579C37.2 32.7069 31.585 32.0149 31.585 32.0149Z" fill="#5F5F5F"/>
<path id="Vector_2" d="M25.9999 11.3169C18.9609 11.3169 14.6399 17.6409 15.1709 26.3219C15.6349 33.8999 20.0439 39.2379 25.9999 39.2379C31.9559 39.2379 36.3639 33.9009 36.8279 26.3219C37.3599 17.6409 33.0379 11.3169 25.9999 11.3169Z" fill="white" stroke="#BFBFBF" stroke-width="2.475"/>
<path id="Vector_3" d="M26 12.941L30.177 14.488C31.337 17.04 33.348 21.062 35.513 25.088C37.876 29.474 38.993 31.276 38.993 31.276C38.993 31.276 41.004 25.32 39.638 19.776C37.905 12.748 33.073 8.44995 26 8.44995C18.926 8.44995 14.094 12.75 12.361 19.776C10.995 25.316 13.005 31.276 13.005 31.276C13.005 31.276 14.124 29.476 16.486 25.088C18.651 21.066 20.663 17.044 21.823 14.488L26 12.941Z" fill="#5F5F5F"/>
</g>
</g>
</svg>
