<svg width="52" height="52" viewBox="0 0 52 52" fill="none" xmlns="http://www.w3.org/2000/svg">
<g id="hair-76">
<g id="76">
<path id="Vector" d="M26.0001 11.0771C18.9621 11.0771 14.6411 17.4011 15.1721 26.0821C15.6351 33.6621 20.0441 39.0001 26.0001 39.0001C31.9551 39.0001 36.3641 33.6641 36.8281 26.0841C37.3591 17.4001 33.0381 11.0771 26.0001 11.0771Z" fill="white" stroke="#BFBFBF" stroke-width="2.475"/>
<path id="Vector_2" d="M26.0001 17.8839C28.3006 17.9736 30.6003 17.6861 32.8081 17.0329L35.4371 19.6619L36.3141 30.2849L40.3351 24.8179L40.2581 21.2609L41.1861 17.6249L39.0901 14.6079L38.0051 10.5869L34.0001 9.64994L31.8921 7.39195L28.6671 7.90595L26.0001 6.66895L23.3311 7.90595L20.1071 7.39195L18.0001 9.64994L14.0001 10.5869L12.9101 14.6079L10.8101 17.6249L11.7381 21.2609L11.6611 24.8179L15.6831 30.2849L16.5601 19.6619L19.1881 17.0329C21.397 17.6866 23.6982 17.974 26.0001 17.8839Z" fill="#5F5F5F"/>
</g>
</g>
</svg>
