<svg width="52" height="52" viewBox="0 0 52 52" fill="none" xmlns="http://www.w3.org/2000/svg">
<g id="hair-103">
<g id="103">
<path id="Vector" d="M25.9999 11.0552C18.9609 11.0552 14.6399 17.3792 15.1709 26.0602C15.6349 33.6392 20.0439 38.9772 25.9999 38.9772C31.9549 38.9772 36.3629 33.6392 36.8279 26.0602C37.3599 17.3792 33.0389 11.0552 25.9999 11.0552Z" fill="white" stroke="#BFBFBF" stroke-width="2.475"/>
<path id="Vector_2" d="M25.9999 9.89404C22.6033 9.89404 19.3459 11.2432 16.944 13.6447C14.5421 16.0462 13.1924 19.3035 13.1919 22.7V27.92L16.8089 20.92C16.8089 20.92 19.9519 12.083 25.9999 12.083C32.0479 12.083 35.1909 20.922 35.1909 20.922L38.8079 27.922V22.7C38.8074 19.3035 37.4577 16.0462 35.0558 13.6447C32.6539 11.2432 29.3964 9.89404 25.9999 9.89404Z" fill="#5F5F5F"/>
<path id="Vector_3" d="M31.218 11.6292C31.218 12.6614 30.9119 13.6705 30.3384 14.5288C29.7649 15.3871 28.9497 16.056 27.996 16.451C27.0423 16.846 25.9929 16.9493 24.9805 16.7478C23.9681 16.5463 23.0381 16.0492 22.3083 15.3192C21.5784 14.5892 21.0815 13.6592 20.8802 12.6467C20.6789 11.6343 20.7824 10.5849 21.1776 9.63124C21.5728 8.67761 22.2418 7.86258 23.1002 7.28923C23.9586 6.71588 24.9678 6.40996 26 6.41016C26.6854 6.41016 27.364 6.54516 27.9971 6.80745C28.6302 7.06974 29.2055 7.45418 29.6901 7.93883C30.1746 8.42347 30.559 8.99882 30.8211 9.63201C31.0833 10.2652 31.2182 10.9438 31.218 11.6292Z" fill="#5F5F5F"/>
<path id="Vector_4" d="M13.1909 27.92C15.2522 25.0361 17.8797 22.6025 20.913 20.768C23.9462 18.9335 27.3216 17.7364 30.8329 17.25C33.7712 20.5886 36.438 24.1566 38.8079 27.92L35.9999 16.5L25.9999 9.83301L16.7499 15.666L13.9169 22.666L13.1909 27.92Z" fill="#5F5F5F"/>
</g>
</g>
</svg>
