<svg width="52" height="52" viewBox="0 0 52 52" fill="none" xmlns="http://www.w3.org/2000/svg">
<g id="hair-69">
<g id="69">
<path id="Vector" d="M39.743 17.7721C37.984 12.2061 33.664 7.87207 25.999 7.87207C18.334 7.87207 14.015 12.2091 12.255 17.7721C10.876 22.1311 6.89205 35.6231 26 36.5641C45.106 35.6231 41.121 22.1311 39.743 17.7721Z" fill="#5F5F5F"/>
<path id="Vector_2" d="M26.0001 11.1182C18.9611 11.1182 14.6401 17.4412 15.1711 26.1182C15.6351 33.7002 20.0431 39.0392 26.0001 39.0392C31.9551 39.0392 36.3641 33.7022 36.8281 26.1222C37.3591 17.4412 33.0381 11.1182 26.0001 11.1182Z" fill="white" stroke="#BFBFBF" stroke-width="2.475"/>
<path id="Vector_3" d="M29.557 17.228C34.275 20.321 38.142 28.288 38.142 28.288L38.374 21.868L37.06 16.609L34.507 12.819L30.95 10.267L26 9.41602L21.05 10.267L17.492 12.819L14.94 16.609L13.625 21.868L13.857 28.288C13.857 28.288 17.724 20.321 22.442 17.228L21.823 20.244L29.403 17.306" fill="#5F5F5F"/>
</g>
</g>
</svg>
