<svg width="52" height="52" viewBox="0 0 52 52" fill="none" xmlns="http://www.w3.org/2000/svg">
<g id="hair-42">
<g id="42">
<path id="Vector" d="M26.0001 32.7549L15.4041 31.6719L16.0231 40.1799L17.9421 41.6489L20.5961 40.9419L22.2871 34.6889L23.0261 41.8039L26.0001 42.7319L28.9731 41.8039L29.7121 34.6889L31.4031 40.9419L34.0581 41.6489L35.9771 40.1799L36.5951 31.6719L26.0001 32.7549Z" fill="#5F5F5F"/>
<path id="Vector_2" d="M26.0001 11.0999C18.9611 11.0999 14.6401 17.4229 15.1711 26.0999C15.6351 33.6829 20.0441 39.0199 26.0001 39.0199C31.9561 39.0199 36.3641 33.6829 36.8281 26.1029C37.3601 17.4219 33.0381 11.0999 26.0001 11.0999Z" fill="white" stroke="#BFBFBF" stroke-width="2.475"/>
<path id="Vector_3" d="M26.0001 12.2589C25.1731 12.4739 22.6751 12.7669 22.6751 12.7669C22.6751 12.7669 22.0081 14.9759 20.9751 18.4459C20.2752 20.6172 19.7571 22.8428 19.4261 25.0999L17.4151 26.2599V33.1439L14.0891 38.4799L11.0001 37.3999C11.0776 34.5246 11.3357 31.6569 11.7731 28.8139L9.75806 26.0249C10.4581 12.7249 18.9581 6.84492 18.9581 6.84492L20.1221 6.99992L21.0501 6.69092L23.2941 7.39092L23.6031 7.08092L26.0031 7.78092L28.4031 7.08092L28.7121 7.39092L30.9551 6.69092L31.8771 6.99992L33.0371 6.84592C33.0371 6.84592 41.5451 12.7239 42.2371 26.0259L40.2271 28.8109C40.664 31.6549 40.9222 34.5236 41.0001 37.3999L37.9101 38.4779L34.5841 33.1419V26.2579L32.5731 25.0999C32.2426 22.8436 31.7251 20.6186 31.0261 18.4479C29.9921 14.9779 29.3261 12.7689 29.3261 12.7689C29.3261 12.7689 26.8261 12.4759 26.0011 12.2609L26.0001 12.2589Z" fill="#5F5F5F"/>
</g>
</g>
</svg>
