<svg width="52" height="52" viewBox="0 0 52 52" fill="none" xmlns="http://www.w3.org/2000/svg">
<g id="hair-79">
<g id="79">
<path id="Vector" d="M13.083 33.583L19.667 26.916H26V17.416H13.5L13.083 33.583ZM38.917 33.583L32.334 26.916H26V17.416H38.501L38.917 33.583Z" fill="#5F5F5F"/>
<path id="Vector_2" d="M25.9999 11.1943C18.9609 11.1943 14.6399 17.5183 15.1709 26.1993C15.6349 33.7783 20.0439 39.1153 25.9999 39.1153C31.9559 39.1153 36.3639 33.7783 36.8279 26.1993C37.3599 17.5183 33.0379 11.1943 25.9999 11.1943Z" fill="white" stroke="#BFBFBF" stroke-width="2.475"/>
<path id="Vector_3" d="M26 6.50017C26.063 6.43817 29.917 7.50017 29.917 7.50017L35.25 6.58217L37.75 10.4992L42.167 12.7492L41.334 18.0002L42.918 21.4172L39.334 25.8332C39.334 26.8332 38.918 31.7502 38.918 31.7502L35.818 23.2832C35.718 23.2832 34.587 18.7502 34.587 18.7502V23.0562C34.587 23.0562 28.887 22.5832 26.001 22.5832C23.116 22.5832 17.415 23.0562 17.415 23.0562V18.7502C17.415 18.7502 16.282 23.2882 16.183 23.2832L13.083 31.7502C13.083 31.7502 12.667 26.8332 12.667 25.8332L9.08301 21.4172L10.667 18.0002L9.83301 12.7502L14.25 10.5002L16.75 6.58317L22.083 7.50117C22.083 7.50117 25.937 6.43817 26 6.50017Z" fill="#5F5F5F"/>
</g>
</g>
</svg>
