<svg width="52" height="52" viewBox="0 0 52 52" fill="none" xmlns="http://www.w3.org/2000/svg">
<g id="hair-3">
<g id="3">
<path id="Vector" d="M38.3751 23.5281C38.3751 23.5281 38.2341 29.7401 39.8441 32.5781C41.4681 35.4391 41.7671 38.9781 38.9931 41.1631C36.4411 43.1741 32.7231 43.5461 26.0001 43.5461C19.2771 43.5461 15.5581 43.1741 13.0051 41.1631C10.2321 38.9781 10.5301 35.4391 12.1551 32.5781C13.7651 29.7401 13.6241 23.5281 13.6241 23.5281" fill="#5F5F5F"/>
<path id="Vector_2" d="M26.0001 11.2312C18.9611 11.2312 14.6401 17.5552 15.1711 26.2312C15.6351 33.8112 20.0441 39.1482 26.0001 39.1482C31.9561 39.1482 36.3641 33.8112 36.8281 26.2312C37.3601 17.5552 33.0381 11.2312 26.0001 11.2312Z" fill="white" stroke="#BFBFBF" stroke-width="2.475"/>
<path id="Vector_3" d="M26.0002 14.8231L29.0932 13.9341C29.9412 15.8341 31.6732 20.4761 33.8932 23.4511C35.6272 25.7781 36.9872 26.6991 38.5002 26.8011C41.2642 26.9871 40.6352 21.4011 40.6352 21.4011C40.0002 14.3241 33.0732 8.53809 26.0002 8.53809C18.9272 8.53809 12.0002 14.3241 11.3682 21.4051C11.3682 21.4051 10.7392 26.9871 13.5032 26.8051C15.0162 26.7051 16.3772 25.7821 18.1102 23.4551C20.3262 20.4801 22.0582 15.8341 22.9102 13.9381L26.0002 14.8231Z" fill="#5F5F5F"/>
</g>
</g>
</svg>
