<svg width="52" height="52" viewBox="0 0 52 52" fill="none" xmlns="http://www.w3.org/2000/svg">
<g id="hair-39">
<g id="39">
<path id="Vector" d="M26.0001 11.1218C18.9611 11.1218 14.6401 17.4458 15.1711 26.1268C15.6351 33.7058 20.0441 39.0428 26.0001 39.0428C31.9561 39.0428 36.3641 33.7058 36.8281 26.1268C37.3601 17.4458 33.0381 11.1218 26.0001 11.1218Z" fill="white" stroke="#BFBFBF" stroke-width="2.475"/>
<path id="Vector_2" d="M36.2101 10.6489C35.5582 10.0833 34.7967 9.65812 33.9731 9.39993C33.4491 9.19993 31.5171 11.3149 31.5171 11.3149C31.5171 11.3149 30.9371 8.49393 30.2461 8.36193C28.8467 8.09225 27.4252 7.95464 26.0001 7.95093C21.3721 7.96093 16.6311 9.66493 15.7901 10.6509C14.0901 12.6419 13.0901 20.0509 13.7011 23.5099H15.6651C15.814 21.9826 16.045 20.4644 16.3571 18.9619C17.1821 16.4619 20.6751 14.3469 25.9991 14.3469C31.3231 14.3469 34.8161 16.4609 35.6411 18.9619C35.9532 20.4644 36.1842 21.9826 36.3331 23.5099H38.3001C38.9141 20.0519 37.9101 12.6399 36.2101 10.6489Z" fill="#5F5F5F"/>
</g>
</g>
</svg>
