<svg width="52" height="52" viewBox="0 0 52 52" fill="none" xmlns="http://www.w3.org/2000/svg">
<g id="hair-114">
<g id="114">
<path id="Vector" d="M38.2999 21.1298C38.2999 12.0358 33.075 8.32178 26 8.32178C18.925 8.32178 13.7 12.0358 13.7 21.1298" fill="#5F5F5F"/>
<path id="Vector_2" d="M25.9999 11.1846C18.9619 11.1846 14.6409 17.5086 15.1719 26.1896C15.6349 33.7696 20.0439 39.1056 25.9999 39.1056C31.9549 39.1056 36.3639 33.7696 36.8279 26.1896C37.3599 17.5086 33.0389 11.1846 25.9999 11.1846Z" fill="white" stroke="#BFBFBF" stroke-width="2.475"/>
<path id="Vector_3" d="M25.9999 14.8117C28.2271 14.6623 30.4479 15.1849 32.3749 16.3117C36.9199 19.2497 38.1429 25.4117 38.1429 25.4117L37.9939 15.3117L31.4939 9.55273H20.5079L14.0079 15.3117L13.8589 25.4117C13.8589 25.4117 15.0819 19.2457 19.6269 16.3117C21.5533 15.1853 23.7733 14.6628 25.9999 14.8117Z" fill="#5F5F5F"/>
<path id="Vector_4" d="M18.265 11.5718C18.265 11.5718 9.72595 11.7218 8.44295 19.2288C6.89595 28.2778 13.543 30.5988 13.543 30.5988C13.543 30.5988 12.151 21.5488 15.4 19.1508C17.5429 17.4847 19.4203 15.5028 20.968 13.2728L18.265 11.5718ZM33.735 11.5718C33.735 11.5718 42.273 11.7218 43.557 19.2288C45.104 28.2778 38.457 30.5988 38.457 30.5988C38.457 30.5988 39.849 21.5488 36.6 19.1508C34.457 17.4847 32.5796 15.5028 31.032 13.2728L33.735 11.5718Z" fill="#5F5F5F"/>
</g>
</g>
</svg>
