<svg width="52" height="52" viewBox="0 0 52 52" fill="none" xmlns="http://www.w3.org/2000/svg">
<g id="hair-47">
<g id="47">
<path id="Vector" d="M25.9999 11.1492C18.9619 11.1492 14.6409 17.4732 15.1719 26.1542C15.6359 33.7332 20.0449 39.0702 25.9999 39.0702C31.9549 39.0702 36.3639 33.7332 36.8279 26.1542C37.3599 17.4732 33.0389 11.1492 25.9999 11.1492Z" fill="white" stroke="#BFBFBF" stroke-width="2.475"/>
<path id="Vector_2" d="M25.9999 16.1771L28.2439 13.3931L30.9509 16.9501L32.3429 13.8561L34.6629 18.1101L35.5919 16.9501C36.6739 20.5081 36.5199 29.4791 36.5199 29.4791H38.8089V21.5001C38.8239 19.8085 38.5036 18.1307 37.8666 16.5636C37.2296 14.9965 36.2885 13.5711 35.0977 12.3697C33.9068 11.1682 32.4898 10.2146 30.9283 9.56376C29.3669 8.91296 27.692 8.57788 26.0004 8.57788C24.3088 8.57788 22.6339 8.91296 21.0725 9.56376C19.5111 10.2146 18.094 11.1682 16.9031 12.3697C15.7123 13.5711 14.7712 14.9965 14.1342 16.5636C13.4972 18.1307 13.177 19.8085 13.1919 21.5001V29.4801H15.4819C15.4819 29.4801 15.3259 20.5091 16.4089 16.9511L17.3379 18.1111L19.6579 13.8571L21.0499 16.9501L23.7569 13.3931L25.9999 16.1771Z" fill="#5F5F5F"/>
</g>
</g>
</svg>
