<svg width="52" height="52" viewBox="0 0 52 52" fill="none" xmlns="http://www.w3.org/2000/svg">
<g id="hair-121">
<g id="121">
<path id="Vector" d="M25.9991 6.32422L23.3701 8.25822L20.8951 7.17622L19.1161 9.96022L15.6351 10.0372L15.3261 13.3632L11.3811 17.3852L12.6191 22.4122L11.9951 26.2022L19.9991 35.0002L20.9721 35.5002L25.9991 36.1182L31.0271 35.5002L31.9991 35.0002L40.0041 26.2022L39.3801 22.4122L40.6181 17.3852L36.6731 13.3632L36.3641 10.0372L32.8831 9.96022L31.1041 7.17622L28.6291 8.25822L25.9991 6.32422Z" fill="#5F5F5F"/>
<path id="Vector_2" d="M26.0001 11.0435C18.9621 11.0435 14.6411 17.3665 15.1721 26.0435C15.6361 33.6235 20.0451 38.9605 26.0001 38.9605C31.9551 38.9605 36.3641 33.6235 36.8281 26.0435C37.3601 17.3665 33.0391 11.0435 26.0001 11.0435Z" fill="white" stroke="#BFBFBF" stroke-width="2.475"/>
<path id="Vector_3" d="M26.8742 21.3124C28.0821 20.3413 29.2302 19.2981 30.3122 18.1884C31.9874 19.9614 33.341 22.0127 34.3122 24.2504L35.5902 22.0204L39.1372 28.9804L39.6842 25.3524L38.0652 17.4624L34.8172 11.9714L26.0002 9.10938L17.1832 11.9714L13.9352 17.4624L12.3162 25.3524L12.8632 28.9804L16.4102 22.0204L17.6872 24.2504C18.6587 22.0129 20.0122 19.9617 21.6872 18.1884L22.5622 24.1884C24.0812 23.3583 25.5241 22.3959 26.8742 21.3124Z" fill="#5F5F5F"/>
</g>
</g>
</svg>
