<svg width="52" height="52" viewBox="0 0 52 52" fill="none" xmlns="http://www.w3.org/2000/svg">
<g id="hair-52">
<g id="52">
<path id="Vector" d="M25.9999 11.2002C18.9619 11.2002 14.6409 17.5242 15.1719 26.2052C15.6349 33.7792 20.0439 39.1162 25.9999 39.1162C31.9549 39.1162 36.3639 33.7792 36.8279 26.2002C37.3589 17.5192 33.0379 11.2002 25.9999 11.2002Z" fill="white" stroke="#BFBFBF" stroke-width="2.475"/>
<path id="Vector_2" d="M25.9999 15.3001L28.1669 13.2881C29.4174 15.1662 30.0895 17.3698 30.0999 19.6261L36.5999 20.3991L36.9859 25.8141L38.0689 26.2001L38.3789 21.7911C38.3789 13.0521 33.0789 8.89111 26.0029 8.89111C18.9269 8.89111 13.6279 13.0521 13.6279 21.7911L13.9379 26.2001L15.0209 25.8141L15.3999 20.4001L21.8999 19.6271C21.9097 17.369 22.5821 15.1635 23.8339 13.2841L25.9999 15.3001Z" fill="#5F5F5F"/>
</g>
</g>
</svg>
