<svg width="52" height="52" viewBox="0 0 52 52" fill="none" xmlns="http://www.w3.org/2000/svg">
<g id="hair-123">
<g id="123">
<path id="Vector" d="M12.48 21.3098C11.38 29.4958 14.552 36.5338 15.945 39.3178C17.423 42.2738 22.086 43.8658 25.999 43.8658V8.44385C18.927 8.44385 13.578 13.1258 12.48 21.3098ZM39.521 21.3098C38.423 13.1258 33.073 8.44385 25.999 8.44385V43.8658C29.912 43.8658 34.577 42.2738 36.055 39.3178C37.448 36.5338 40.619 29.4998 39.521 21.3098Z" fill="#5F5F5F"/>
<path id="Vector_2" d="M25.9999 11.2427C18.9609 11.2427 14.6399 17.5657 15.1709 26.2477C15.6349 33.8267 20.0439 39.1637 25.9999 39.1637C31.9559 39.1637 36.3639 33.8267 36.8279 26.2477C37.3599 17.5657 33.0379 11.2427 25.9999 11.2427Z" fill="white" stroke="#BFBFBF" stroke-width="2.475"/>
<path id="Vector_3" d="M13.4999 17.2501C13.4999 17.2501 10.2709 24.2501 9.04994 28.1161C7.62494 32.6251 7.30194 36.6461 9.12494 39.1251C12.2499 43.3751 17.5999 43.2671 17.5999 43.2671C17.5999 43.2671 15.0859 41.0601 15.1999 35.6171C15.3349 29.1451 16.4719 19.2171 16.7749 18.5911C19.0429 13.9221 22.6249 13.1911 25.9999 12.3261V9.31006L19.5799 10.6241L13.4999 17.2501Z" fill="#5F5F5F"/>
<path id="Vector_4" d="M38.5 17.2501C38.5 17.2501 41.728 24.2501 42.95 28.1161C44.375 32.6251 44.699 36.6461 42.875 39.1251C39.75 43.3751 34.4 43.2671 34.4 43.2671C34.4 43.2671 36.914 41.0601 36.8 35.6171C36.665 29.1451 35.528 19.2171 35.225 18.5911C32.957 13.9221 29.375 13.1911 26 12.3261V9.31006L32.42 10.6241L38.5 17.2501Z" fill="#5F5F5F"/>
<path id="Vector_5" d="M15.667 27.1669C22.8308 25.5439 29.6006 22.5131 35.583 18.2509L34.5 13.6669L26 9.81494L15.583 15.4149L13.75 26.6669L15.667 27.1669Z" fill="#5F5F5F"/>
</g>
</g>
</svg>
