<svg width="52" height="52" viewBox="0 0 52 52" fill="none" xmlns="http://www.w3.org/2000/svg">
<g id="hair-53">
<g id="53">
<path id="Vector" d="M26 36.686L32.5 36.996L38.455 37.847L41.085 35.217L39.768 32.2L41.315 30.19L39.768 27.946C40.8846 25.1343 41.0206 22.0284 40.154 19.13C38 11.1 33.073 8.08496 26 8.08496C18.927 8.08496 14 11.1 11.846 19.13C10.9801 22.0285 11.1161 25.1342 12.232 27.946L10.686 30.19L12.232 32.2L10.918 35.217L13.548 37.847L19.5 37L26 36.686Z" fill="#5F5F5F"/>
<path id="Vector_2" d="M26.0001 11.0859C18.9621 11.0859 14.6411 17.4089 15.1721 26.0909C15.6361 33.6699 20.0451 39.0069 26.0001 39.0069C31.9551 39.0069 36.3641 33.6699 36.8281 26.0909C37.3601 17.4089 33.0391 11.0859 26.0001 11.0859Z" fill="white" stroke="#BFBFBF" stroke-width="2.475"/>
<path id="Vector_3" d="M38.6861 17.118L34.2001 10.776L26.0001 8.30005L17.8001 10.774L13.3131 17.116L12.4631 26.243C16.6557 23.2729 19.7547 19.0058 21.2821 14.1L26.0001 14.95L30.7191 14.1C32.2462 19.0052 35.3445 23.2718 39.5361 26.2421L38.6861 17.118Z" fill="#5F5F5F"/>
</g>
</g>
</svg>
