<svg width="52" height="52" viewBox="0 0 52 52" fill="none" xmlns="http://www.w3.org/2000/svg">
<g id="hair-131">
<g id="131">
<path id="Vector" d="M12.5872 29.6592L11.5872 38.3222L17.0012 43.3852L16.7122 39.5602L21.0012 44.1722L23.0012 39.5602L26.0002 43.6252L29.0002 39.5602L31.0002 44.1722L35.2892 39.5602L35.0002 43.3852L40.4142 38.3222L39.4142 29.6592" fill="#5F5F5F"/>
<path id="Vector_2" d="M26.0001 11.2871C18.9611 11.2871 14.6401 17.6101 15.1711 26.2871C15.6351 33.8671 20.0441 39.2041 26.0001 39.2041C31.9561 39.2041 36.3641 33.8671 36.8291 26.2871C37.3601 17.6101 33.0391 11.2871 26.0001 11.2871Z" fill="white" stroke="#BFBFBF" stroke-width="2.475"/>
<path id="Vector_3" d="M40.3001 24.2471C40.1966 22.7187 39.8941 21.2103 39.4001 19.7601C38.2751 16.4971 37.5161 13.6171 35.9001 11.8281C33.0131 8.62813 28.9141 9.03313 26.0001 9.03313C23.0861 9.03313 18.9871 8.63313 16.1001 11.8331C14.4841 13.6221 13.7251 16.5021 12.6001 19.7651C12.1061 21.2152 11.8035 22.7237 11.7001 24.2521L9.11206 29.7711C10.7453 32.0871 12.5151 34.3037 14.4121 36.4091L16.7871 29.5471L16.1001 25.1591L21.8371 14.0211C23.201 14.4742 24.5912 14.8439 26.0001 15.1281C27.4093 14.844 28.7998 14.4743 30.1641 14.0211L35.9001 25.1591L35.2121 29.5471L37.5871 36.4091C39.484 34.3037 41.2538 32.0871 42.8871 29.7711L40.3001 24.2471Z" fill="#5F5F5F"/>
</g>
</g>
</svg>
