<svg width="52" height="52" viewBox="0 0 52 52" fill="none" xmlns="http://www.w3.org/2000/svg">
<g id="hair-68">
<g id="68">
<path id="Vector" d="M25.9999 11.158C18.9609 11.158 14.6399 17.482 15.1709 26.163C15.6359 33.743 20.0439 39.079 25.9999 39.079C31.9549 39.079 36.3639 33.743 36.8279 26.163C37.3589 17.482 33.0379 11.158 25.9999 11.158Z" fill="white" stroke="#BFBFBF" stroke-width="2.475"/>
<path id="Vector_2" d="M40.3079 18.815L37.7559 15.567L36.7509 11.545L33.4239 10.845L31.0999 8.06502L28.0059 8.37402L25.9999 7.29102L23.9879 8.37402L20.8939 8.06502L18.5739 10.849L15.2479 11.549L14.2419 15.571L11.6899 18.815L12.6179 22.45L12.5409 26.009L14.3199 28.716L16.5629 19.743L19.1919 17.114C21.3996 17.7672 23.6994 18.0547 25.9999 17.965C28.3002 18.0548 30.5996 17.7673 32.8069 17.114L35.4369 19.743L37.6789 28.716L39.4589 26.009L39.3799 22.45L40.3079 18.815Z" fill="#5F5F5F"/>
</g>
</g>
</svg>
