<svg width="52" height="52" viewBox="0 0 52 52" fill="none" xmlns="http://www.w3.org/2000/svg">
<g id="hair-101">
<g id="101">
<path id="Vector" d="M38.6061 28.8931L40.6171 36.0141L37.8331 40.2421L38.9931 44.6191L35.2811 40.7621L33.1151 45.2131L30.0211 41.2071L26.0001 45.0651L21.9761 41.2071L18.8831 45.2131L16.7181 40.7621L13.0061 44.6191L14.1661 40.2421L11.3811 36.0141L13.3921 28.8931" fill="#5F5F5F"/>
<path id="Vector_2" d="M26 11.3359C18.961 11.3359 14.639 17.6599 15.171 26.3359C15.635 33.9199 20.043 39.2569 26 39.2569C31.955 39.2569 36.364 33.9199 36.828 26.3399C37.359 17.6599 33.038 11.3359 26 11.3359Z" fill="white" stroke="#BFBFBF" stroke-width="2.475"/>
<path id="Vector_3" d="M39.5351 26.5001L39.8121 22.8001V21.2231C39.8121 14.1481 33.0721 8.95605 26.0001 8.95605C18.9281 8.95605 12.1851 14.1481 12.1851 21.2231V22.7941L12.4641 26.4941L12.0771 29.3561L16.4861 34.6151L18.3421 28.2721L16.9491 20.6161L23.6781 12.9591L26.0001 14.7381L28.3201 12.9601L35.0491 20.6171L33.6572 28.2731L35.5131 34.6161L39.9221 29.3571L39.5351 26.5001Z" fill="#5F5F5F"/>
<path id="Vector_4" d="M15.833 24.916C15.833 24.916 21.667 21.25 24 19.25L21.5 24.666C25.5492 22.9213 29.163 20.3036 32.083 17L31.917 11.666L25.917 9.75L17.25 14.333L15.833 24.916Z" fill="#5F5F5F"/>
</g>
</g>
</svg>
