<svg width="52" height="52" viewBox="0 0 52 52" fill="none" xmlns="http://www.w3.org/2000/svg">
<g id="hair-99">
<g id="99">
<path id="Vector" d="M39.7 21.4789C39.7 14.4059 33.075 8.67188 26 8.67188C18.925 8.67188 12.3 14.4059 12.3 21.4789C12.3 21.4789 11.648 29.4839 14.317 35.5329C15.3694 38.1156 17.109 40.3607 19.347 42.0249L22.131 39.2659L26 44.1309L29.868 39.2659L32.651 42.0249C34.8892 40.361 36.6289 38.1158 37.681 35.5329C40.349 29.4839 39.7 21.4789 39.7 21.4789Z" fill="#5F5F5F"/>
<path id="Vector_2" d="M25.9999 11.2681C18.9609 11.2681 14.6399 17.5921 15.1709 26.2681C15.6349 33.8521 20.0439 39.1891 25.9999 39.1891C31.9559 39.1891 36.3639 33.8521 36.8279 26.2711C37.3599 17.5921 33.0379 11.2681 25.9999 11.2681Z" fill="white" stroke="#BFBFBF" stroke-width="2.475"/>
<path id="Vector_3" d="M25.583 19.25C26.8745 18.5648 28.078 17.7254 29.167 16.75C29.167 16.75 37.167 24.417 38.986 28.185L39.286 20.115L34.364 11.775L26 9.33398L17.638 11.775L12.717 20.115L13.017 28.185C14.836 24.417 22.836 16.75 22.836 16.75L21.086 21.25C22.6534 20.7492 24.1614 20.0785 25.583 19.25Z" fill="#5F5F5F"/>
</g>
</g>
</svg>
