<svg width="52" height="52" viewBox="0 0 52 52" fill="none" xmlns="http://www.w3.org/2000/svg">
<g id="hair-126">
<g id="126">
<path id="Vector" d="M15.784 14.6727C15.784 14.6727 11.938 12.9377 8.56304 17.1247C6.21104 20.0427 6.12604 24.8747 6.81304 28.7497C7.40856 32.5029 8.61201 36.1339 10.376 39.4997C10.6481 35.8356 11.2122 32.1991 12.063 28.6247C13.063 25.1877 15.363 23.3807 18.001 21.6247L15.784 14.6727ZM36.217 14.6727C36.217 14.6727 40.063 12.9377 43.438 17.1247C45.79 20.0427 45.876 24.8747 45.188 28.7497C44.5925 32.5028 43.3894 36.1337 41.626 39.4997C41.3535 35.8356 40.789 32.1991 39.938 28.6247C38.938 25.1877 36.638 23.3807 34.001 21.6247L36.217 14.6727Z" fill="#5F5F5F"/>
<path id="Vector_2" d="M26.0001 11.1938C18.9611 11.1938 14.6401 17.5178 15.1711 26.1988C15.6361 33.7778 20.0441 39.1148 26.0001 39.1148C31.9561 39.1148 36.3641 33.7778 36.8281 26.1988C37.3611 17.5178 33.0391 11.1938 26.0001 11.1938Z" fill="white" stroke="#BFBFBF" stroke-width="2.475"/>
<path id="Vector_3" d="M33.5 17.0828L38.73 27.9498C38.93 26.7178 39.0303 25.4718 39.03 24.2238V21.8458C39.0341 19.107 38.204 16.432 36.65 14.1768C35.5039 12.393 33.9281 10.9257 32.0673 9.90955C30.2064 8.89337 28.1202 8.36084 26 8.36084C23.8798 8.36084 21.7935 8.89337 19.9327 9.90955C18.0719 10.9257 16.4961 12.393 15.35 14.1768C13.796 16.432 12.9658 19.107 12.97 21.8458V24.2238C12.9697 25.4718 13.07 26.7178 13.27 27.9498L18.5 17.0828" fill="#5F5F5F"/>
<path id="Vector_4" d="M36.001 19.5L34.001 24L32.001 19.5L30.001 24L28.001 19.5L26.001 24L24.001 19.5L22.001 24L20.001 19.5L18.001 24L16.001 19.5L26.083 9L36.001 19.5Z" fill="#5F5F5F"/>
</g>
</g>
</svg>
