<svg width="52" height="52" viewBox="0 0 52 52" fill="none" xmlns="http://www.w3.org/2000/svg">
<g id="hair-113">
<g id="113">
<path id="Vector" d="M39.254 20.0751C38.6963 16.9659 37.0632 14.1517 34.6404 12.1248C32.2176 10.0979 29.1593 8.9873 26.0005 8.9873C22.8416 8.9873 19.7833 10.0979 17.3605 12.1248C14.9377 14.1517 13.3047 16.9659 12.747 20.0751C11.502 26.1831 11.654 28.9401 14.525 31.3121C18.617 34.6921 26 34.6921 26 34.6921C26 34.6921 33.383 34.6921 37.475 31.3121C40.348 28.9401 40.5 26.1831 39.254 20.0751Z" fill="#5F5F5F"/>
<path id="Vector_2" d="M25.9999 11.1709C18.9619 11.1709 14.6409 17.4939 15.1719 26.1759C15.6359 33.7559 20.0449 39.0919 25.9999 39.0919C31.9549 39.0919 36.3639 33.7559 36.8279 26.1759C37.3599 17.4939 33.0389 11.1709 25.9999 11.1709Z" fill="white" stroke="#BFBFBF" stroke-width="2.475"/>
<path id="Vector_3" d="M38.3641 18.7342L33.1161 11.5842L26.0001 9.26318L18.8851 11.5842L13.6371 18.7342L13.5691 27.3122C13.5691 27.3122 16.1281 23.3122 26.0001 23.3122C35.8721 23.3122 38.4321 27.3122 38.4321 27.3122L38.3641 18.7342Z" fill="#5F5F5F"/>
</g>
</g>
</svg>
