<svg width="52" height="52" viewBox="0 0 52 52" fill="none" xmlns="http://www.w3.org/2000/svg">
<g id="hair-60">
<g id="60">
<path id="Vector" d="M38.143 29.0469L35.9 44.5939L32.265 40.2619L26 45.2889L19.734 40.2619L16.099 44.5939L13.856 29.0469" fill="#5F5F5F"/>
<path id="Vector_2" d="M26.0001 11.3359C18.9611 11.3359 14.6401 17.6589 15.1711 26.3359C15.6351 33.9199 20.0441 39.2569 26.0001 39.2569C31.9561 39.2569 36.3641 33.9199 36.8281 26.3399C37.3601 17.6589 33.0381 11.3359 26.0001 11.3359Z" fill="white" stroke="#BFBFBF" stroke-width="2.475"/>
<path id="Vector_3" d="M26 8.87598C31.878 8.87598 38.565 14.291 39.612 21.158C40.1968 25.6658 39.7202 30.248 38.22 34.539C38.22 34.539 36.132 27.039 35.436 24.716L29.325 16.516C27.314 20.692 22.825 24.096 22.825 24.096L21.51 17.443C19.963 19.687 16.56 24.714 16.56 24.714C15.86 27.034 13.776 34.537 13.776 34.537C12.2759 30.246 11.7992 25.6638 12.384 21.156C13.434 14.291 20.121 8.87598 26 8.87598Z" fill="#5F5F5F"/>
</g>
</g>
</svg>
