<svg width="52" height="52" viewBox="0 0 52 52" fill="none" xmlns="http://www.w3.org/2000/svg">
<g id="hair-25">
<g id="25">
<path id="Vector" d="M40.5001 20.3731C38.2701 13.1001 33.0731 8.84009 26.0001 8.84009C18.9271 8.84009 13.7301 13.1001 11.5001 20.3731C9.81009 25.8881 10.2551 33.5381 13.6341 40.7421C17.4635 38.7827 21.6986 37.747 26.0001 37.7181C30.3006 37.7472 34.5347 38.7828 38.3631 40.7421C41.7431 33.5381 42.1881 25.8881 40.5001 20.3731Z" fill="#5F5F5F"/>
<path id="Vector_2" d="M26.0001 11.2051C18.9611 11.2051 14.6401 17.5291 15.1711 26.2051C15.6351 33.7851 20.0441 39.1221 26.0001 39.1221C31.9561 39.1221 36.3641 33.7851 36.8281 26.2051C37.3601 17.5291 33.0381 11.2051 26.0001 11.2051Z" fill="white" stroke="#BFBFBF" stroke-width="2.475"/>
<path id="Vector_3" d="M36.4072 16.4602L33.4242 11.0502L26.0002 9.50317L18.4192 11.1272L15.5922 16.4602L13.1912 22.5972H38.8082L36.4072 16.4602Z" fill="#5F5F5F"/>
</g>
</g>
</svg>
