<svg width="52" height="52" viewBox="0 0 52 52" fill="none" xmlns="http://www.w3.org/2000/svg">
<g id="hair-5">
<g id="5">
<path id="Vector" d="M26.0001 7.9209C33.0731 7.9209 40.0001 14.0119 41.0061 21.2819C41.5701 25.794 41.0186 30.3755 39.4001 34.6249L38.7651 32.8059C38.7651 32.8059 36.3421 37.9679 34.9001 39.6899L33.1801 36.4579L30.1561 41.7779L28.0221 39.3479L26.0001 42.5519L23.9831 39.3519L21.8501 41.7819L18.8251 36.4619L17.1061 39.6899C15.6591 37.9679 13.2381 32.8059 13.2381 32.8059L12.6001 34.6249C10.9831 30.3751 10.4337 25.7935 11.0001 21.2819C12.0001 14.0119 18.9271 7.9209 26.0001 7.9209Z" fill="#5F5F5F"/>
<path id="Vector_2" d="M26.0001 11.1499C18.9621 11.1499 14.6411 17.4739 15.1721 26.1549C15.6361 33.7349 20.0451 39.0709 26.0001 39.0709C31.9551 39.0709 36.3641 33.7349 36.8281 26.1549C37.3601 17.4739 33.0391 11.1499 26.0001 11.1499Z" fill="white" stroke="#BFBFBF" stroke-width="2.475"/>
<path id="Vector_3" d="M11.8462 18.034L22.1462 8.78101L35.2812 11.691L38.6812 19.967L39.1022 28.291L37.1342 30.722L35.6032 25.322L33.1152 17.38C28.5939 21.8338 22.7029 24.6329 16.3942 25.325L14.8622 30.725L12.9002 28.291L11.8462 18.034Z" fill="#5F5F5F"/>
</g>
</g>
</svg>
