<svg width="52" height="52" viewBox="0 0 52 52" fill="none" xmlns="http://www.w3.org/2000/svg">
<g id="hair-34">
<g id="34">
<path id="Vector" d="M26.0001 11.0608C18.9621 11.0608 14.6411 17.3848 15.1721 26.0608C15.6361 33.6408 20.0451 38.9778 26.0001 38.9778C31.9551 38.9778 36.3641 33.6408 36.8281 26.0608C37.3591 17.3848 33.0381 11.0608 26.0001 11.0608Z" fill="white" stroke="#BFBFBF" stroke-width="2.475"/>
<path id="Vector_2" d="M17.999 20.875L14.062 27.625L13.624 21.438L17.999 20.875ZM34.124 20.875L38.062 27.625L38.499 21.438L34.124 20.875Z" fill="#5F5F5F"/>
<path id="Vector_3" d="M26 7.3479C19.41 7.3479 13.238 12.9949 13.238 22.8169C13.238 22.8169 17.714 20.3419 26 20.3419C34.286 20.3419 38.763 22.8169 38.763 22.8169C38.762 12.9999 32.589 7.3479 26 7.3479Z" fill="#808080"/>
<path id="Vector_4" d="M22.5661 14.1139L22.8201 20.4709C23.2201 20.4399 23.6351 20.4139 24.0591 20.3939L23.8811 14.0699L22.5661 14.1139ZM25.4221 20.3529C25.6161 20.3529 25.8021 20.3419 25.9991 20.3419C26.2281 20.3419 26.4401 20.3509 26.6631 20.3549V14.0249L25.3361 14.0409L25.4221 20.3529ZM19.7991 14.2529L20.1991 20.7779C20.5937 20.7159 21.0047 20.6596 21.4321 20.6089L21.1001 14.1839L19.7991 14.2529ZM13.2371 22.8149C13.2371 22.8149 13.3811 22.7379 13.6461 22.6149L13.4331 19.9099C13.3019 20.8733 13.2364 21.8446 13.2371 22.8169V22.8149ZM17.0741 14.4419L17.5921 21.2939C17.9741 21.2009 18.3841 21.1109 18.8141 21.0239L18.3491 14.3469L17.0741 14.4419ZM15.0001 14.6059C14.8181 14.9769 14.6481 15.3599 14.4921 15.7589L15.0041 22.0649C15.3551 21.9379 15.7631 21.8049 16.2181 21.6649L15.6501 14.5509L15.0001 14.6059ZM27.9371 20.3939C28.3611 20.4139 28.7761 20.4399 29.1761 20.4709L29.4301 14.1139L28.1151 14.0699L27.9371 20.3939ZM36.3371 14.5539L35.7681 21.6679C36.2231 21.8049 36.6321 21.9379 36.9831 22.0679L37.4951 15.7619C37.3391 15.3619 37.1681 14.9799 36.9851 14.6089L36.3371 14.5539ZM38.5581 19.9139L38.3461 22.6139C38.6091 22.7359 38.7531 22.8139 38.7531 22.8139C38.7563 21.8442 38.6941 20.8753 38.5671 19.9139H38.5581ZM33.1761 21.0269C33.6061 21.1129 34.0161 21.2029 34.3991 21.2959L34.9161 14.4439L33.6411 14.3439L33.1761 21.0269ZM30.5621 20.6109C30.9891 20.6619 31.3991 20.7179 31.7951 20.7799L32.1951 14.2549L30.8951 14.1839L30.5621 20.6109Z" fill="#404040"/>
<path id="Vector_5" d="M14.9531 14.7099C14.7032 15.229 14.4812 15.7611 14.2881 16.3039C18.0221 14.8651 21.9991 14.1616 26.0001 14.2319C30.0002 14.1602 33.9765 14.8624 37.7101 16.2999C37.518 15.757 37.2967 15.2249 37.0471 14.7059C33.4873 13.5184 29.7523 12.9416 26.0001 12.9999C22.2477 12.9429 18.5126 13.521 14.9531 14.7099ZM33.1571 11.7519C33.2701 11.7908 33.3912 11.8001 33.5088 11.7789C33.6265 11.7577 33.7367 11.7068 33.8291 11.6309L34.4941 11.0219C34.3288 10.8512 34.1598 10.6846 33.9871 10.5219C33.9469 10.5416 33.9093 10.5661 33.8751 10.5949L33.0811 11.3229C33.0419 11.348 33.011 11.3842 32.9923 11.4269C32.9736 11.4696 32.968 11.5169 32.9761 11.5627C32.9842 11.6086 33.0057 11.6511 33.038 11.6847C33.0702 11.7184 33.1116 11.7418 33.1571 11.7519ZM32.5731 9.3999C32.1524 9.11229 31.7139 8.85176 31.2601 8.6199C31.2414 8.65032 31.2302 8.68473 31.2274 8.7203C31.2246 8.75588 31.2303 8.79162 31.2439 8.8246C31.2576 8.85757 31.2788 8.88684 31.306 8.91001C31.3331 8.93318 31.3654 8.94959 31.4001 8.9579L32.4001 9.3639C32.4556 9.38468 32.5139 9.39682 32.5731 9.3999ZM24.3181 10.3599L25.5021 10.9359C25.6425 10.9948 25.7933 11.0251 25.9456 11.0251C26.0979 11.0251 26.2486 10.9948 26.3891 10.9359C26.6341 10.8169 26.6341 10.6229 26.3891 10.5039L25.2061 9.9279C25.0656 9.86849 24.9146 9.83788 24.7621 9.83788C24.6096 9.83788 24.4586 9.86849 24.3181 9.9279C24.0731 10.0479 24.0731 10.2419 24.3181 10.3609V10.3599ZM25.9181 8.4519C26.0582 8.51131 26.2089 8.54192 26.3611 8.54192C26.5133 8.54192 26.664 8.51131 26.8041 8.4519L27.9881 7.8759C28.1691 7.7879 28.2141 7.6589 28.1291 7.5499C27.8218 7.49091 27.5122 7.44487 27.2011 7.4119C27.1669 7.4197 27.1334 7.4304 27.1011 7.4439L25.9181 8.0199C25.6741 8.1399 25.6741 8.3339 25.9201 8.4529L25.9181 8.4519ZM33.3601 10.8519C33.3982 10.8262 33.4281 10.79 33.446 10.7476C33.4639 10.7052 33.4691 10.6585 33.4609 10.6133C33.4528 10.568 33.4316 10.5261 33.4 10.4926C33.3684 10.4592 33.3278 10.4357 33.2831 10.4249L32.2831 10.0199C32.1697 9.98079 32.0482 9.97147 31.9301 9.99283C31.8121 10.0142 31.7016 10.0655 31.6091 10.1419C31.5712 10.1675 31.5415 10.2036 31.5237 10.2458C31.506 10.288 31.5009 10.3345 31.509 10.3795C31.5172 10.4246 31.5383 10.4662 31.5697 10.4995C31.6011 10.5328 31.6416 10.5562 31.6861 10.5669L32.6861 10.9729C32.7997 11.0125 32.9215 11.0222 33.0399 11.001C33.1584 10.9798 33.2693 10.9285 33.3621 10.8519H33.3601ZM24.3181 8.7279L25.5001 9.2999C25.6405 9.35879 25.7913 9.38911 25.9436 9.38911C26.0959 9.38911 26.2466 9.35879 26.3871 9.2999C26.6321 9.1809 26.6321 8.9869 26.3871 8.8679L25.2061 8.2999C25.0657 8.24005 24.9147 8.20919 24.7621 8.20919C24.6095 8.20919 24.4585 8.24005 24.3181 8.2999C24.0731 8.4139 24.0731 8.6069 24.3181 8.7279ZM34.8371 12.0849C34.724 12.0457 34.6028 12.0362 34.4849 12.0572C34.3671 12.0782 34.2567 12.129 34.1641 12.2049L33.3641 12.9339C33.3257 12.9593 33.2957 12.9955 33.2777 13.0378C33.2597 13.0802 33.2546 13.1269 33.2629 13.1721C33.2712 13.2174 33.2926 13.2592 33.3245 13.2924C33.3563 13.3256 33.3972 13.3487 33.4421 13.3589C33.5548 13.3986 33.6758 13.4084 33.7934 13.3874C33.911 13.3664 34.0212 13.3152 34.1131 13.2389L34.9131 12.5099C34.9514 12.4846 34.9815 12.4486 34.9996 12.4064C35.0177 12.3642 35.0231 12.3176 35.015 12.2724C35.0069 12.2272 34.9857 12.1853 34.9541 12.152C34.9225 12.1187 34.8818 12.0953 34.8371 12.0849ZM32.8681 10.1429C32.9672 10.1768 33.0727 10.1878 33.1766 10.175C33.2806 10.1622 33.3802 10.1259 33.4681 10.0689C33.2801 9.9149 33.0891 9.7689 32.8951 9.6249L32.7951 9.7179C32.7567 9.74298 32.7266 9.77873 32.7083 9.82074C32.69 9.86275 32.6843 9.9092 32.6921 9.95436C32.6999 9.99952 32.7206 10.0414 32.7519 10.0749C32.7832 10.1084 32.8236 10.1321 32.8681 10.1429ZM33.5751 12.0339L32.5751 11.6279C32.4619 11.5885 32.3404 11.5789 32.2224 11.5999C32.1044 11.6209 31.9938 11.6719 31.9011 11.7479C31.8627 11.7733 31.8327 11.8093 31.8146 11.8516C31.7966 11.8939 31.7913 11.9405 31.7995 11.9858C31.8077 12.031 31.829 12.0729 31.8607 12.1061C31.8925 12.1394 31.9333 12.1626 31.9781 12.1729L32.9781 12.5809C33.0908 12.6199 33.2117 12.6291 33.3291 12.6077C33.4464 12.5864 33.5563 12.5351 33.6481 12.4589C33.6864 12.4338 33.7166 12.3981 33.7349 12.3561C33.7532 12.314 33.7588 12.2676 33.7511 12.2224C33.7433 12.1773 33.7225 12.1354 33.6913 12.1019C33.66 12.0684 33.6196 12.0447 33.5751 12.0339ZM19.1311 10.1429C19.1759 10.1326 19.2167 10.1094 19.2484 10.0761C19.2802 10.0429 19.3014 10.001 19.3096 9.95578C19.3178 9.91054 19.3126 9.86389 19.2945 9.82161C19.2765 9.77933 19.2464 9.74327 19.2081 9.7179L19.1081 9.6249C18.9081 9.7659 18.7221 9.9149 18.5341 10.0689C18.6216 10.1254 18.7207 10.1615 18.8241 10.1743C18.9275 10.1871 19.0324 10.1764 19.1311 10.1429ZM19.4231 11.6279L18.4231 12.0339C18.3783 12.0442 18.3375 12.0674 18.3057 12.1007C18.274 12.1339 18.2527 12.1758 18.2445 12.221C18.2363 12.2663 18.2416 12.3129 18.2596 12.3552C18.2777 12.3975 18.3077 12.4335 18.3461 12.4589C18.4384 12.5349 18.5486 12.5861 18.6662 12.6074C18.7838 12.6288 18.905 12.6196 19.0181 12.5809L20.0181 12.1729C20.0627 12.1623 20.1032 12.139 20.1348 12.1058C20.1663 12.0726 20.1875 12.0309 20.1958 11.9859C20.2041 11.9408 20.199 11.8943 20.1813 11.852C20.1636 11.8098 20.134 11.7736 20.0961 11.7479C20.0035 11.672 19.8931 11.6212 19.7752 11.6002C19.6574 11.5792 19.5362 11.5887 19.4231 11.6279ZM27.9901 10.7119C27.8498 10.6525 27.699 10.6219 27.5466 10.6219C27.3942 10.6219 27.2434 10.6525 27.1031 10.7119L25.9201 11.2879C25.6741 11.4079 25.6741 11.6019 25.9201 11.7209C26.0605 11.7793 26.211 11.8094 26.3631 11.8094C26.5151 11.8094 26.6657 11.7793 26.8061 11.7209L27.9901 11.1449C28.2351 11.0249 28.2351 10.8319 27.9901 10.7119ZM17.8341 12.2049C17.7416 12.1292 17.6313 12.0784 17.5137 12.0574C17.3961 12.0364 17.275 12.0459 17.1621 12.0849C17.1176 12.0956 17.0771 12.119 17.0457 12.1523C17.0143 12.1856 16.9932 12.2273 16.985 12.2723C16.9769 12.3173 16.982 12.3638 16.9997 12.406C17.0175 12.4482 17.0472 12.4843 17.0851 12.5099L17.8801 13.2389C17.9726 13.3148 18.0831 13.3656 18.2009 13.3866C18.3188 13.4077 18.44 13.3981 18.5531 13.3589C18.5978 13.3485 18.6385 13.3251 18.6701 13.2918C18.7017 13.2585 18.7229 13.2166 18.731 13.1714C18.7391 13.1262 18.7337 13.0796 18.7156 13.0374C18.6975 12.9952 18.6674 12.9592 18.6291 12.9339L17.8341 12.2049ZM26.3891 12.1379L25.2061 11.5629C25.0657 11.503 24.9147 11.4722 24.7621 11.4722C24.6095 11.4722 24.4585 11.503 24.3181 11.5629C24.0731 11.6819 24.0731 11.8759 24.3181 11.9939L25.5021 12.5699C25.6424 12.6293 25.7932 12.6599 25.9456 12.6599C26.098 12.6599 26.2488 12.6293 26.3891 12.5699C26.6341 12.4509 26.6341 12.2589 26.3891 12.1379ZM18.8411 11.7519C18.8859 11.7415 18.9267 11.7182 18.9585 11.6849C18.9903 11.6516 19.0116 11.6098 19.0199 11.5645C19.0282 11.5192 19.0231 11.4725 19.0052 11.4301C18.9872 11.3877 18.9573 11.3515 18.9191 11.3259L18.1191 10.5979C18.0848 10.5691 18.0472 10.5446 18.0071 10.5249C17.8341 10.6849 17.6661 10.8509 17.4991 11.0249L18.1651 11.6339C18.2582 11.7099 18.3692 11.7608 18.4876 11.7814C18.606 11.8021 18.7278 11.7919 18.8411 11.7519ZM27.9901 9.0779C27.8496 9.01902 27.6989 8.98869 27.5466 8.98869C27.3943 8.98869 27.2435 9.01902 27.1031 9.0779L25.9201 9.6549C25.6741 9.7739 25.6741 9.9669 25.9201 10.0869C26.0602 10.1463 26.2109 10.1769 26.3631 10.1769C26.5153 10.1769 26.6659 10.1463 26.8061 10.0869L27.9901 9.5099C28.2351 9.3909 28.2351 9.1999 27.9901 9.0779ZM26.3901 7.6689C26.5611 7.5859 26.6051 7.4689 26.5381 7.3619C26.3581 7.3549 26.1801 7.3479 26.0001 7.3479C25.6481 7.3479 25.3001 7.3679 24.9491 7.3989L25.5031 7.6689C25.6433 7.72814 25.7939 7.75867 25.9461 7.75867C26.0983 7.75867 26.2499 7.72814 26.3901 7.6689ZM19.4261 9.3999C19.4853 9.39682 19.5436 9.38468 19.5991 9.3639L20.5991 8.9579C20.6338 8.94966 20.6661 8.93327 20.6933 8.91008C20.7204 8.88689 20.7417 8.85757 20.7553 8.82455C20.7688 8.79152 20.7744 8.75573 20.7714 8.72015C20.7684 8.68456 20.757 8.6502 20.7381 8.6199C20.2847 8.85198 19.8465 9.1125 19.4261 9.3999ZM19.7111 10.0189L18.7111 10.4239C18.6664 10.4348 18.6259 10.4584 18.5944 10.4919C18.563 10.5254 18.5419 10.5674 18.5339 10.6126C18.5258 10.6579 18.5311 10.7045 18.5491 10.7468C18.567 10.7891 18.5969 10.8253 18.6351 10.8509C18.7273 10.9266 18.8374 10.9774 18.9549 10.9986C19.0723 11.0198 19.1932 11.0106 19.3061 10.9719L20.3061 10.5659C20.3506 10.5552 20.391 10.5318 20.4225 10.4985C20.4539 10.4652 20.475 10.4235 20.4832 10.3785C20.4913 10.3335 20.4862 10.287 20.4684 10.2448C20.4507 10.2026 20.421 10.1665 20.3831 10.1409C20.2907 10.065 20.1805 10.0141 20.0628 9.99291C19.9452 9.97173 19.8241 9.98102 19.7111 10.0199V10.0189Z" fill="#404040"/>
</g>
</g>
</svg>
