<svg width="52" height="52" viewBox="0 0 52 52" fill="none" xmlns="http://www.w3.org/2000/svg">
<g id="hair-22">
<g id="22">
<path id="Vector" d="M26 42.2069L29.2 39.7069L32.108 41.8719L33.808 38.4719L35.818 41.9529C39.613 38.5719 39.856 33.9929 39.454 27.9529C39.2936 25.658 39.0772 23.3673 38.805 21.0829C38.8009 19.4131 38.4653 17.7607 37.8175 16.2217C37.1698 14.6826 36.2228 13.2876 35.0315 12.1174C33.8403 10.9473 32.4285 10.0254 30.8781 9.40527C29.3277 8.78513 27.6696 8.4791 26 8.50493C22.6017 8.45898 19.3243 9.76393 16.8876 12.1331C14.451 14.5022 13.0545 17.7417 13.005 21.1399C13.005 21.1399 12.773 24.4659 12.541 27.9459C12.141 33.9859 12.381 38.5649 16.177 41.9459L18.188 38.4649L19.888 41.8649L22.8 39.6999L26 42.2069Z" fill="#5F5F5F"/>
<path id="Vector_2" d="M25.9999 11.1628C18.9619 11.1628 14.6409 17.4868 15.1719 26.1678C15.6349 33.7468 20.0439 39.0838 25.9999 39.0838C31.9549 39.0838 36.3639 33.7468 36.8279 26.1678C37.3589 17.4868 33.0379 11.1628 25.9999 11.1628Z" fill="white" stroke="#BFBFBF" stroke-width="2.475"/>
<path id="Vector_3" d="M25.9999 8.84302L34.1999 12.243L37.7579 19.281L38.6869 25.004C38.6869 25.004 38.7639 29.181 37.7579 30.65C37.7579 30.65 30.1789 21.524 29.5579 13.867L25.9999 15.881L22.4409 13.87C21.8219 21.527 14.2409 30.653 14.2409 30.653C13.2349 29.184 13.3119 25.007 13.3119 25.007L14.2409 19.284L17.7999 12.246L25.9999 8.84302Z" fill="#5F5F5F"/>
</g>
</g>
</svg>
