<svg width="52" height="52" viewBox="0 0 52 52" fill="none" xmlns="http://www.w3.org/2000/svg">
<g id="hair-40">
<g id="40">
<path id="Vector" d="M26.0001 11.1621C18.9621 11.1621 14.6411 17.4851 15.1721 26.1621C15.6361 33.7421 20.0451 39.0791 26.0001 39.0791C31.9551 39.0791 36.3641 33.7421 36.8281 26.1621C37.3591 17.4851 33.0381 11.1621 26.0001 11.1621Z" fill="white" stroke="#BFBFBF" stroke-width="2.475"/>
<path id="Vector_2" d="M38.3001 18.432C36.9551 13.183 33.0721 8.78003 26.0001 8.78003C18.9281 8.78003 15.0451 13.18 13.7001 18.432C12.8109 21.9866 12.8109 25.7055 13.7001 29.26L15.4801 20.289L16.0981 21.526L18.5761 17.582L21.0541 20.056L23.5251 17.582L26.0001 20.056L28.4741 17.582L30.9461 20.056L33.4231 17.582L35.9001 21.526L36.5201 20.289L38.3001 29.26C39.1893 25.7055 39.1893 21.9866 38.3001 18.432Z" fill="#5F5F5F"/>
</g>
</g>
</svg>
