<svg width="52" height="52" viewBox="0 0 52 52" fill="none" xmlns="http://www.w3.org/2000/svg">
<g id="hair-16">
<g id="16">
<path id="Vector" d="M39.223 21.268C39.0467 17.8568 37.5846 14.6391 35.1312 12.2627C32.6777 9.88623 29.4151 8.52747 26 8.45996C22.5848 8.52699 19.3217 9.88555 16.868 12.2621C14.4143 14.6386 12.9522 17.8566 12.776 21.268C12.776 21.268 11.189 30.599 13.251 37.098C15.563 44.391 19.892 45.459 25.999 45.459C32.106 45.459 36.437 44.391 38.748 37.1C40.81 30.6 39.223 21.268 39.223 21.268Z" fill="#5F5F5F"/>
<path id="Vector_2" d="M26.0001 11.323C18.9621 11.323 14.6411 17.648 15.1721 26.328C15.6361 33.908 20.0451 39.245 26.0001 39.245C31.9551 39.245 36.3641 33.908 36.8281 26.328C37.3591 17.648 33.0381 11.323 26.0001 11.323Z" fill="white" stroke="#BFBFBF" stroke-width="2.475"/>
<path id="Vector_3" d="M36.6731 15.458L30.8731 9.93095L21.3581 9.69995L15.0881 15.459L12.9001 26.131C12.9001 26.131 18.1151 22.306 20.4361 17.975C20.4361 17.975 19.6461 20.548 19.7361 20.527C21.5513 20.1039 23.164 19.0654 24.3001 17.588C24.3001 17.588 24.2221 18.288 24.1451 19.909C24.1451 19.909 25.6931 20.05 28.3211 18.516C29.3974 17.9056 30.3435 17.0902 31.1061 16.116C33.0631 20.444 39.1061 26.128 39.1061 26.128L36.6731 15.458Z" fill="#5F5F5F"/>
</g>
</g>
</svg>
