<svg width="52" height="52" viewBox="0 0 52 52" fill="none" xmlns="http://www.w3.org/2000/svg">
<g id="hair-46">
<g id="46">
<path id="Vector" d="M38.2999 21.13C38.2999 12.036 33.074 8.32202 26 8.32202C18.926 8.32202 13.7 12.036 13.7 21.13" fill="#5F5F5F"/>
<path id="Vector_2" d="M26.0001 11.1851C18.9621 11.1851 14.6411 17.5091 15.1721 26.1901C15.6351 33.7701 20.0441 39.1061 26.0001 39.1061C31.9551 39.1061 36.3641 33.7701 36.8281 26.1901C37.3591 17.5091 33.0381 11.1851 26.0001 11.1851Z" fill="white" stroke="#BFBFBF" stroke-width="2.475"/>
<path id="Vector_3" d="M37.9922 15.3191L31.4922 9.56006L31.5552 10.4431L30.8732 9.79306L20.5082 9.56006L14.0082 15.3191L13.8582 25.4191C16.4086 23.5311 18.4768 21.0671 19.8942 18.2281C20.8863 18.6705 21.9484 18.9355 23.0322 19.0111C22.5162 20.1652 21.682 21.1483 20.6272 21.8451C20.6272 21.8451 24.7562 21.7861 27.3062 20.1261C27.8011 19.8039 28.2675 19.4399 28.7002 19.0381C29.8765 18.9766 31.0317 18.701 32.1092 18.2251C33.5265 21.0641 35.5947 23.5281 38.1452 25.4161L37.9922 15.3191Z" fill="#5F5F5F"/>
<path id="Vector_4" d="M18.265 11.572C18.265 11.572 9.72604 11.722 8.44204 19.228C6.90004 28.278 13.547 30.6 13.547 30.6C13.547 30.6 12.154 21.55 15.403 19.152C17.5462 17.4859 19.4239 15.504 20.972 13.274L18.265 11.572ZM33.734 11.572C33.734 11.572 42.272 11.722 43.557 19.228C45.1 28.278 38.452 30.6 38.452 30.6C38.452 30.6 39.845 21.55 36.596 19.152C34.4529 17.4859 32.5751 15.504 31.027 13.274L33.734 11.572Z" fill="#5F5F5F"/>
</g>
</g>
</svg>
