<svg width="52" height="52" viewBox="0 0 52 52" fill="none" xmlns="http://www.w3.org/2000/svg">
<g id="hair-36">
<g id="36">
<path id="Vector" d="M25.9999 11.248C18.9609 11.248 14.6399 17.572 15.1709 26.253C15.6349 33.833 20.0439 39.169 25.9999 39.169C31.9559 39.169 36.3639 33.833 36.8279 26.253C37.3599 17.572 33.0379 11.248 25.9999 11.248Z" fill="white" stroke="#BFBFBF" stroke-width="2.475"/>
<path id="Vector_2" d="M26 9.6001C33.2 9.6001 35.251 11.1121 35.251 11.1121C39.608 18.2281 38.719 28.9901 38.719 28.9901H37.207L36.21 22.0001L34.044 16.8511C34.044 16.8511 32.226 18.3311 26 18.3311C19.774 18.3311 17.955 16.8511 17.955 16.8511L15.79 22.0001L14.79 28.9871H13.28C13.28 28.9871 12.391 18.2251 16.749 11.1091C16.749 11.1091 18.8 9.6001 26 9.6001Z" fill="#5F5F5F"/>
</g>
</g>
</svg>
