<svg width="52" height="52" viewBox="0 0 52 52" fill="none" xmlns="http://www.w3.org/2000/svg">
<g id="hair-66">
<g id="66">
<path id="Vector" d="M26.0001 11.2002C18.9611 11.2002 14.6401 17.5242 15.1711 26.2002C15.6351 33.7802 20.0441 39.1172 26.0001 39.1172C31.9551 39.1172 36.3631 33.7802 36.8281 26.2002C37.3591 17.5192 33.0381 11.2002 26.0001 11.2002Z" fill="white" stroke="#BFBFBF" stroke-width="2.475"/>
<path id="Vector_2" d="M26 8.73511C24.334 8.74125 22.6859 9.07908 21.1518 9.72889C19.6177 10.3787 18.2284 11.3275 17.0648 12.5199C15.9013 13.7123 14.9868 15.1244 14.3748 16.674C13.7627 18.2235 13.4654 19.8794 13.5 21.5451V28.0561H14.86L15.17 22.1001L16.099 24.8841L17.099 20.8621L18.878 24.1881C18.878 24.1881 21.817 16.0661 24.678 13.5881L25.993 14.4381L27.308 13.5881C30.17 16.0621 33.108 24.1881 33.108 24.1881L34.887 20.8621L35.9 24.8851L36.829 22.1011L37.138 28.0561H38.5V21.5451C38.5346 19.8795 38.2371 18.2236 37.625 16.6741C37.0129 15.1247 36.0985 13.7126 34.9349 12.5202C33.7714 11.3278 32.3821 10.379 30.8481 9.72916C29.3141 9.07931 27.666 8.74139 26 8.73511Z" fill="#5F5F5F"/>
</g>
</g>
</svg>
