<svg width="52" height="52" viewBox="0 0 52 52" fill="none" xmlns="http://www.w3.org/2000/svg">
<g id="hair-67">
<g id="67">
<path id="Vector" d="M26.0001 11.0889C18.9621 11.0889 14.6411 17.4129 15.1721 26.0939C15.6361 33.6739 20.0441 39.0109 26.0001 39.0109C31.9561 39.0109 36.3641 33.6739 36.8281 26.0939C37.3641 17.4129 33.0421 11.0889 26.0001 11.0889Z" fill="white" stroke="#BFBFBF" stroke-width="2.475"/>
<path id="Vector_2" d="M26 7.69995C32.6 7.69995 36.906 12.866 38.221 18.9C38.8274 22.1628 39.0096 25.4904 38.763 28.7999H36.987C36.987 28.7999 36.287 19.751 32.887 14.955C32.887 14.955 30.953 16.425 26.081 16.425H26C21.128 16.425 19.194 14.955 19.194 14.955C15.794 19.755 15.094 28.7999 15.094 28.7999H13.314C13.0674 25.4904 13.2496 22.1628 13.856 18.9C15.171 12.867 19.473 7.69995 26.077 7.69995H26Z" fill="#5F5F5F"/>
</g>
</g>
</svg>
