<svg width="52" height="52" viewBox="0 0 52 52" fill="none" xmlns="http://www.w3.org/2000/svg">
<g id="hair-104">
<g id="104">
<path id="Vector" d="M16.927 29.2002C14.7215 30.9895 13.1555 33.4456 12.464 36.2002C10.986 42.6002 7.97803 43.5482 7.97803 43.5482C7.97803 43.5482 13.178 46.3712 16.254 43.4702C18.961 40.9172 19.464 34.7242 22.132 32.9512L16.927 29.2002ZM35.073 29.2002C37.2786 30.9895 38.8445 33.4456 39.536 36.2002C41.014 42.6002 44.022 43.5482 44.022 43.5482C44.022 43.5482 38.822 46.3712 35.746 43.4702C33.039 40.9172 32.536 34.7242 29.868 32.9512L35.073 29.2002Z" fill="#5F5F5F"/>
<path id="Vector_2" d="M13.14 28.2301L26 36.2701L38.669 28.2301C39.0001 27.0032 39.1682 25.738 39.169 24.4671V22.0671C39.1742 19.301 38.3371 16.5988 36.769 14.3201C35.611 12.518 34.0189 11.0356 32.1389 10.009C30.2588 8.98234 28.1511 8.44434 26.009 8.44434C23.8669 8.44434 21.7591 8.98234 19.8791 10.009C17.9991 11.0356 16.407 12.518 15.249 14.3201C13.6809 16.5988 12.8438 19.301 12.849 22.0671V24.4671C12.8452 25.7272 12.9425 26.9856 13.14 28.2301Z" fill="#5F5F5F"/>
<path id="Vector_3" d="M26.0001 11.2881C18.9611 11.2881 14.6401 17.6121 15.1711 26.2931C15.6351 33.8731 20.0441 39.2091 26.0001 39.2091C31.9551 39.2091 36.3631 33.8731 36.8281 26.2931C37.3601 17.6121 33.0391 11.2881 26.0001 11.2881Z" fill="white" stroke="#BFBFBF" stroke-width="2.475"/>
<path id="Vector_4" d="M20.6639 15.9292L13.3309 28.2292C13.0018 27.002 12.8358 25.7368 12.8369 24.4662V22.0662C12.8313 19.3 13.6684 16.5977 15.2369 14.3192C16.3948 12.5171 17.9868 11.0347 19.8668 10.008C21.7467 8.98138 23.8544 8.44336 25.9964 8.44336C28.1385 8.44336 30.2462 8.98138 32.1261 10.008C34.0061 11.0347 35.5981 12.5171 36.7559 14.3192C38.324 16.5979 39.1611 19.3001 39.1559 22.0662V24.4662C39.1552 25.737 38.987 27.0023 38.6559 28.2292L31.3229 15.9292" fill="#5F5F5F"/>
<path id="Vector_5" d="M26.001 13.416L32.917 14.5L34.084 23.083H17.918L19.084 14.5L26.001 13.416Z" fill="#5F5F5F"/>
</g>
</g>
</svg>
