<svg width="52" height="52" viewBox="0 0 52 52" fill="none" xmlns="http://www.w3.org/2000/svg">
<g id="hair-119">
<g id="119">
<path id="Vector" d="M26.0079 11.1758C18.9699 11.1758 14.6479 17.4998 15.1789 26.1808C15.6439 33.7608 20.0519 39.0978 26.0079 39.0978C31.9629 39.0978 36.3709 33.7608 36.8359 26.1808C37.3669 17.4998 33.0449 11.1758 26.0079 11.1758Z" fill="white" stroke="#BFBFBF" stroke-width="2.475"/>
<path id="Vector_2" d="M36.0309 21.9269V30.8209H38.5059V28.0369L40.0529 26.2579L38.5839 24.6339L40.9039 20.7669L38.4289 18.5999C36.4949 12.0999 33.0799 8.8999 26.0069 8.8999H26.1309C19.0569 8.8999 15.6429 12.0999 13.7089 18.5999L11.2339 20.7649L13.5549 24.6319L12.0839 26.2559L13.6309 28.0349V30.8189H16.1069V21.9269" fill="#5F5F5F"/>
<path id="Vector_3" d="M36 17.875V22L34.5 24L33 22L30.75 24L28.438 22L26 24L23.563 22L21.25 24L19 22L17.5 24L16 22V17.875" fill="#5F5F5F"/>
</g>
</g>
</svg>
