<svg width="52" height="52" viewBox="0 0 52 52" fill="none" xmlns="http://www.w3.org/2000/svg">
<g id="hair-124">
<g id="124">
<path id="Vector" d="M25.9999 39.8151C26.3359 39.8151 33.1249 37.0001 33.1249 37.0001L34.1249 40.0001L36.6249 36.8751L37.5439 39.7301C39.1011 38.2549 40.2933 36.4372 41.0259 34.4211C42.7779 28.6701 41.4509 24.1551 40.2329 20.4991C38.3759 14.9311 33.0749 8.43408 25.9999 8.43408C18.9249 8.43408 13.6259 14.9311 11.7689 20.5001C10.5509 24.1561 9.22291 28.6711 10.9749 34.4221C11.7077 36.4383 12.9002 38.256 14.4579 39.7311L15.3759 36.8761L17.8759 40.0001L18.8759 37.0001C18.8759 37.0001 25.6659 39.8151 25.9999 39.8151Z" fill="#5F5F5F"/>
<path id="Vector_2" d="M25.9999 11.0898C18.9609 11.0898 14.6409 17.4138 15.1719 26.0948C15.6359 33.6738 20.0449 39.0108 25.9999 39.0108C31.9569 39.0108 36.3659 33.6738 36.8289 26.0948C37.3609 17.4138 33.0399 11.0898 25.9999 11.0898Z" fill="white" stroke="#BFBFBF" stroke-width="2.475"/>
<path id="Vector_3" d="M40.168 24.25L37.668 16.25L33.575 11.626L26 8.77002L18.426 11.626L14.334 16.25L11.834 24.25H40.168Z" fill="#5F5F5F"/>
</g>
</g>
</svg>
