<svg width="52" height="52" viewBox="0 0 52 52" fill="none" xmlns="http://www.w3.org/2000/svg">
<g id="hair-33">
<g id="33">
<path id="Vector" d="M26.0001 11.157C18.9611 11.157 14.6401 17.481 15.1711 26.162C15.6351 33.742 20.0441 39.078 26.0001 39.078C31.9561 39.078 36.3641 33.742 36.8281 26.162C37.3601 17.481 33.0381 11.157 26.0001 11.157Z" fill="white" stroke="#BFBFBF" stroke-width="2.475"/>
<path id="Vector_2" d="M38.808 22.361C38.808 20.679 38.4767 19.0135 37.8331 17.4596C37.1894 15.9056 36.246 14.4937 35.0567 13.3044C33.8673 12.115 32.4554 11.1716 30.9014 10.5279C29.3475 9.88427 27.682 9.55298 26 9.55298C24.3181 9.55298 22.6526 9.88427 21.0986 10.5279C19.5447 11.1716 18.1327 12.115 16.9434 13.3044C15.7541 14.4937 14.8106 15.9056 14.167 17.4596C13.5233 19.0135 13.192 20.679 13.192 22.361C13.0007 24.8589 13.2107 27.3714 13.814 29.803L15.148 23.043L17.371 25.889L19.062 20.989L21.591 23.754L23.954 19.2L26 23.487L28.045 19.2L30.408 23.755L32.938 20.99L34.628 25.89L36.852 23.044L38.186 29.804C38.7888 27.372 38.9988 24.8593 38.808 22.361Z" fill="#5F5F5F"/>
</g>
</g>
</svg>
