<svg width="52" height="52" viewBox="0 0 52 52" fill="none" xmlns="http://www.w3.org/2000/svg">
<g id="hair-15">
<g id="15">
<path id="Vector" d="M38.6061 28.8931L40.6181 36.0141L37.8331 40.2431L38.9931 44.6191L35.2811 40.7621L33.1161 45.2121L30.0221 41.2071L26.0001 45.0641L21.9771 41.2071L18.8831 45.2121L16.7181 40.7621L13.0051 44.6191L14.1661 40.2431L11.3811 36.0141L13.3921 28.8931" fill="#5F5F5F"/>
<path id="Vector_2" d="M26.0001 11.3359C18.9611 11.3359 14.6401 17.6599 15.1711 26.3359C15.6351 33.9199 20.0441 39.2569 26.0001 39.2569C31.9561 39.2569 36.3641 33.9199 36.8281 26.3399C37.3601 17.6599 33.0381 11.3359 26.0001 11.3359Z" fill="white" stroke="#BFBFBF" stroke-width="2.475"/>
<path id="Vector_3" d="M39.5351 26.5001L39.8121 22.8001V21.2231C39.8121 14.1491 33.0731 8.95605 26.0001 8.95605C18.9271 8.95605 12.1861 14.1491 12.1861 21.2231V22.7941L12.4641 26.4941L12.0771 29.3561L16.4861 34.6151L18.3421 28.2731L16.9501 20.6171L23.6791 12.9601L26.0001 14.7391L28.3201 12.9601L35.0491 20.6171L33.6572 28.2741L35.5131 34.6161L39.9212 29.3571L39.5351 26.5001Z" fill="#5F5F5F"/>
</g>
</g>
</svg>
