<svg width="52" height="52" viewBox="0 0 52 52" fill="none" xmlns="http://www.w3.org/2000/svg">
<g id="hair-28">
<g id="28">
<path id="Vector" d="M20.1421 33.4998C20.1421 31.6568 19.2141 30.1638 18.0671 30.1638C16.9201 30.1638 15.9921 31.6568 15.9921 33.4998C15.9752 34.3296 16.1877 35.148 16.6061 35.8648C16.1393 35.9528 15.6992 36.1473 15.3199 36.4331C14.9406 36.719 14.6323 37.0884 14.4191 37.5128C13.9438 38.3059 13.731 39.2287 13.8111 40.1498C13.4434 39.8745 13.0111 39.6985 12.5556 39.639C12.1002 39.5794 11.6371 39.6382 11.2111 39.8098C9.72706 40.3428 7.60505 42.2648 7.93705 43.5688C8.26905 44.8728 10.9251 45.0628 12.4091 44.5308C13.0158 44.3339 13.5477 43.9557 13.9328 43.4472C14.318 42.9387 14.5379 42.3243 14.5631 41.6868C15.5041 42.4128 16.9491 41.8238 17.8241 40.3378C18.1564 39.82 18.3629 39.2315 18.4268 38.6195C18.4907 38.0076 18.4103 37.3891 18.1921 36.8138C19.2781 36.7068 20.1421 35.2698 20.1421 33.4998ZM31.8571 33.4998C31.8571 31.6568 32.7861 30.1638 33.9321 30.1638C35.0781 30.1638 36.0071 31.6568 36.0071 33.4998C36.0237 34.3295 35.8117 35.1477 35.3941 35.8648C35.8605 35.9531 36.3004 36.1477 36.6795 36.4335C37.0586 36.7193 37.3668 37.0886 37.5801 37.5128C38.0551 38.306 38.2681 39.2287 38.1891 40.1498C38.5565 39.8742 38.9889 39.6981 39.4444 39.6385C39.8999 39.579 40.3631 39.638 40.7891 39.8098C42.2731 40.3428 44.3951 42.2648 44.0631 43.5688C43.7311 44.8728 41.0751 45.0628 39.5901 44.5308C38.9837 44.3335 38.4524 43.9551 38.0676 43.4466C37.6829 42.9381 37.4632 42.324 37.4381 41.6868C36.4961 42.4128 35.0501 41.8238 34.1761 40.3378C33.8437 39.82 33.6372 39.2315 33.5733 38.6195C33.5094 38.0076 33.5898 37.3891 33.8081 36.8138C32.7211 36.7068 31.8571 35.2698 31.8571 33.4998Z" fill="#5F5F5F"/>
<path id="Vector_2" d="M26.0001 11.292C18.9621 11.292 14.6411 17.616 15.1721 26.292C15.6361 33.872 20.0451 39.209 26.0001 39.209C31.9551 39.209 36.3641 33.872 36.8281 26.292C37.3591 17.616 33.0381 11.292 26.0001 11.292Z" fill="white" stroke="#BFBFBF" stroke-width="2.475"/>
<path id="Vector_3" d="M40.5001 20.9049C40.041 17.4105 38.3064 14.2091 35.6298 11.9161C32.9533 9.62309 29.5236 8.40035 26.0001 8.48293C22.4766 8.40035 19.0469 9.62309 16.3703 11.9161C13.6938 14.2091 11.9592 17.4105 11.5001 20.9049C10.8581 24.7129 11.8551 27.7539 13.0131 29.1769C15.4352 26.7208 17.5813 24.0069 19.4131 21.0839C21.7261 17.0839 22.9011 14.9269 22.9011 14.9269L25.9951 15.1269L29.0891 14.9269C29.0891 14.9269 30.2651 17.0809 32.5781 21.0839C34.4102 24.0067 36.5563 26.7205 38.9781 29.1769C40.1431 27.7539 41.1401 24.7129 40.5001 20.9049Z" fill="#5F5F5F"/>
</g>
</g>
</svg>
