<svg width="52" height="52" viewBox="0 0 52 52" fill="none" xmlns="http://www.w3.org/2000/svg">
<g id="hair-48">
<g id="48">
<path id="Vector" d="M25.9999 11.2161C18.9609 11.2161 14.6399 17.5391 15.1709 26.2211C15.6359 33.8001 20.0439 39.1371 25.9999 39.1371C31.9559 39.1371 36.3639 33.8001 36.8279 26.2211C37.3609 17.5391 33.0389 11.2161 25.9999 11.2161Z" fill="white" stroke="#BFBFBF" stroke-width="2.475"/>
<path id="Vector_2" d="M38.1429 27.3C38.451 24.5496 38.451 21.7734 38.1429 19.023C37.728 16.1213 36.2623 13.4729 34.0239 11.5805C31.7854 9.6881 28.9301 8.68335 25.9999 8.75696C23.0689 8.68322 20.2128 9.68842 17.9741 11.5817C15.7354 13.4749 14.2699 16.1244 13.8559 19.027C13.5566 21.7537 13.5828 24.5064 13.9339 27.227C17.5209 26.0386 20.8342 24.1452 23.6789 21.658C25.7933 19.8303 27.5503 17.6264 28.8609 15.158C28.8609 15.158 33.8129 23.978 38.1429 27.3Z" fill="#5F5F5F"/>
</g>
</g>
</svg>
