<svg width="52" height="52" viewBox="0 0 52 52" fill="none" xmlns="http://www.w3.org/2000/svg">
<g id="hair-11">
<g id="11">
<path id="Vector" d="M37.742 30.627L40.173 31.754L39.164 21.673C39.0241 18.2595 37.5816 15.0295 35.133 12.6471C32.6844 10.2647 29.416 8.91124 26 8.86499C22.5842 8.91149 19.316 10.2651 16.8677 12.6474C14.4193 15.0298 12.9769 18.2597 12.837 21.673L11.828 31.754L14.26 30.627C14.26 30.627 13.073 38.04 11.531 39.4L18.531 39.519L26 39.106L33.473 39.522L40.473 39.403C38.928 38.04 37.742 30.627 37.742 30.627Z" fill="#5F5F5F"/>
<path id="Vector_2" d="M26.0001 11.1479C18.9621 11.1479 14.6411 17.4719 15.1721 26.1529C15.6361 33.7319 20.0451 39.069 26.0001 39.069C31.9551 39.069 36.3641 33.7319 36.8281 26.1529C37.3601 17.4719 33.0391 11.1479 26.0001 11.1479Z" fill="white" stroke="#BFBFBF" stroke-width="2.475"/>
<path id="Vector_3" d="M37.6229 17.9379L33.6569 11.7669L25.9999 9.18994L18.5749 11.6119L14.3749 17.9379L12.8359 25.9999L13.5479 30.9809C13.5479 30.9809 17.1059 22.1129 17.6979 19.1469L19.4179 21.1039L21.1379 18.6139L23.3919 21.1039L25.9999 16.4809L28.6099 21.1059L30.8639 18.6159L32.5829 21.1059L34.2999 19.1489C34.8939 22.1149 38.4509 30.9829 38.4509 30.9829L39.1639 25.9999L37.6229 17.9379Z" fill="#5F5F5F"/>
</g>
</g>
</svg>
