<svg width="52" height="52" viewBox="0 0 52 52" fill="none" xmlns="http://www.w3.org/2000/svg">
<g id="hair-72">
<g id="72">
<path id="Vector" d="M12.4802 21.3098C11.3802 29.4958 14.5522 36.5338 15.9442 39.3178C17.4222 42.2738 22.0862 43.8658 25.9992 43.8658V8.44385C18.9262 8.44385 13.5782 13.1258 12.4802 21.3098ZM39.5212 21.3098C38.4222 13.1258 33.0732 8.44385 25.9992 8.44385V43.8658C29.9122 43.8658 34.5772 42.2738 36.0552 39.3178C37.4482 36.5338 40.6192 29.4998 39.5212 21.3098Z" fill="#5F5F5F"/>
<path id="Vector_2" d="M26.0001 11.2427C18.9611 11.2427 14.6401 17.5657 15.1711 26.2477C15.6351 33.8267 20.0441 39.1637 26.0001 39.1637C31.9561 39.1637 36.3641 33.8267 36.8281 26.2477C37.3601 17.5657 33.0381 11.2427 26.0001 11.2427Z" fill="white" stroke="#BFBFBF" stroke-width="2.475"/>
<path id="Vector_3" d="M13.5001 17.2501C13.5001 17.2501 10.2711 24.2501 9.05009 28.1161C7.62509 32.6251 7.30109 36.6461 9.12509 39.1251C12.2501 43.3751 17.6001 43.2671 17.6001 43.2671C17.6001 43.2671 15.0851 41.0601 15.2001 35.6171C15.3351 29.1451 16.4721 19.2171 16.7741 18.5911C19.0431 13.9221 22.6251 13.1911 26.0001 12.3261V9.31006L19.5801 10.6241L13.5001 17.2501Z" fill="#5F5F5F"/>
<path id="Vector_4" d="M38.5 17.2501C38.5 17.2501 41.729 24.2501 42.95 28.1161C44.375 32.6251 44.698 36.6461 42.875 39.1251C39.75 43.3751 34.4 43.2671 34.4 43.2671C34.4 43.2671 36.914 41.0601 36.8 35.6171C36.665 29.1451 35.528 19.2171 35.225 18.5911C32.957 13.9221 29.375 13.1911 26 12.3261V9.31006L32.42 10.6241L38.5 17.2501Z" fill="#5F5F5F"/>
<path id="Vector_5" d="M26.0002 9.81494L35.6002 14.4669L35.0012 24.2159H17.0002L16.3992 14.4669L26.0002 9.81494Z" fill="#5F5F5F"/>
</g>
</g>
</svg>
