<svg width="52" height="52" viewBox="0 0 52 52" fill="none" xmlns="http://www.w3.org/2000/svg">
<g id="hair-87">
<g id="87">
<path id="Vector" d="M13.3999 17.6367L8.45093 26.0367L11.4999 27.3747L12.1249 34.2497L13.6249 39.7497L16.7499 38.4997L18.0509 40.8867L25.9999 34.7497L13.3999 17.6367ZM38.5999 17.6367L43.5489 26.0367L40.5009 27.3747L39.8759 34.2497L38.3759 39.7497L35.2509 38.4997L33.9489 40.8867L25.9999 34.7497L38.5999 17.6367Z" fill="#5F5F5F"/>
<path id="Vector_2" d="M25.9999 11.1128C18.9609 11.1128 14.6399 17.4378 15.1709 26.1178C15.6359 33.6998 20.0439 39.0338 25.9999 39.0338C31.9559 39.0338 36.3639 33.6968 36.8279 26.1178C37.3599 17.4378 33.0389 11.1128 25.9999 11.1128Z" fill="white" stroke="#BFBFBF" stroke-width="2.475"/>
<path id="Vector_3" d="M26 7.02886C31.878 7.02886 39.184 13.0639 40.232 19.9289C40.932 24.4909 39.459 27.8169 38.221 30.8289C38.221 30.8289 37.132 26.4199 36.436 24.0989C36.436 24.0989 33.35 22.1299 32.299 19.9989C31.6328 18.5826 31.1783 17.0762 30.95 15.5279C27.933 22.3339 15.563 24.0969 15.563 24.0969C14.863 26.4179 13.779 30.8269 13.779 30.8269C12.541 27.8099 11.072 24.4839 11.768 19.9269C12.815 13.0599 20.121 7.02686 26 7.02686" fill="#5F5F5F"/>
</g>
</g>
</svg>
