<svg width="52" height="52" viewBox="0 0 52 52" fill="none" xmlns="http://www.w3.org/2000/svg">
<g id="hair-127">
<g id="127">
<path id="Vector" d="M25.9999 11.1943C18.9609 11.1943 14.6399 17.5183 15.1709 26.1993C15.6349 33.7783 20.0439 39.1153 25.9999 39.1153C31.9549 39.1153 36.3629 33.7783 36.8279 26.1993C37.3599 17.5183 33.0389 11.1943 25.9999 11.1943Z" fill="white" stroke="#BFBFBF" stroke-width="2.475"/>
<path id="Vector_2" d="M26 13.1662C28.5505 13.1749 31.021 14.0572 33 15.6662L35.813 24.0332L35.832 25.6672L39.332 27.8342L42.915 21.4172L41.333 18.0002L42.167 12.7502L37.751 10.5002L35.251 6.58317L29.917 7.50017C29.917 7.50017 26.063 6.43817 26 6.50017C25.938 6.43817 22.083 7.50017 22.083 7.50017L16.75 6.58317L14.25 10.5002L9.83301 12.7502L10.667 18.0002L9.08301 21.4172L12.666 27.8342L16.166 25.6672L16.185 24.0332L19 15.6662C20.979 14.0572 23.4495 13.1749 26 13.1662Z" fill="#5F5F5F"/>
</g>
</g>
</svg>
