<svg width="52" height="52" viewBox="0 0 52 52" fill="none" xmlns="http://www.w3.org/2000/svg">
<g id="hair-41">
<g id="41">
<path id="Vector" d="M26.01 11.1819C18.971 11.1819 14.65 17.5049 15.182 26.1819C15.646 33.7659 20.054 39.0999 26.01 39.0999C31.966 39.0999 36.374 33.7629 36.838 26.1829C37.37 17.5049 33.049 11.1819 26.01 11.1819Z" fill="white" stroke="#BFBFBF" stroke-width="2.475"/>
<path id="Vector_2" d="M18.9711 16.6728C17.1737 19.4477 16.331 22.7334 16.5711 26.0308L11.9651 25.4998C11.9651 25.4998 11.8561 19.0698 14.8721 15.0488L18.9711 16.6728ZM33.2161 16.6728C35.0133 19.4478 35.8559 22.7334 35.6161 26.0308L40.2251 25.4998C40.2251 25.4998 40.3341 19.0698 37.3181 15.0488L33.2161 16.6728Z" fill="#5F5F5F"/>
</g>
</g>
</svg>
