<svg width="52" height="52" viewBox="0 0 52 52" fill="none" xmlns="http://www.w3.org/2000/svg">
<g id="hair-122">
<g id="122">
<path id="Vector" d="M39.7441 17.7711C37.9841 12.2061 33.6641 7.87109 25.9991 7.87109C18.3341 7.87109 14.0151 12.2081 12.2551 17.7711C10.8771 22.1311 6.89209 35.6231 26.0001 36.5641C45.1071 35.6231 41.1221 22.1311 39.7441 17.7711Z" fill="#5F5F5F"/>
<path id="Vector_2" d="M26.0001 11.1182C18.9621 11.1182 14.6411 17.4412 15.1721 26.1182C15.6351 33.7002 20.0431 39.0392 26.0001 39.0392C31.9561 39.0392 36.3641 33.7022 36.8281 26.1222C37.3601 17.4412 33.0381 11.1182 26.0001 11.1182Z" fill="white" stroke="#BFBFBF" stroke-width="2.475"/>
<path id="Vector_3" d="M29.558 17.228C34.276 20.321 38.143 28.288 38.143 28.288L38.374 21.868L37.06 16.609L34.508 12.819L30.95 10.267L26 9.41602L21.05 10.267L17.492 12.819L14.94 16.609L13.625 21.868L13.857 28.288C13.857 28.288 17.724 20.321 22.442 17.228L29.403 17.306" fill="#5F5F5F"/>
<path id="Vector_4" d="M34.812 21.594L32.609 22.344L30.406 21.594L28.203 22.344L25.999 21.594L23.796 22.344L21.593 21.594L19.39 22.344L17.187 21.594V14.063H35.124L34.812 21.594Z" fill="#5F5F5F"/>
</g>
</g>
</svg>
