<svg width="52" height="52" viewBox="0 0 52 52" fill="none" xmlns="http://www.w3.org/2000/svg">
<g id="hair-96">
<g id="96">
<path id="Vector" d="M42.6619 34.859L39.8159 31.3L42.5429 27.742L39.9349 25.19C40.0526 23.7613 40.0127 22.324 39.8159 20.904C39.491 17.4646 37.895 14.27 35.3398 11.9448C32.7847 9.61961 29.4542 8.33105 25.9994 8.33105C22.5447 8.33105 19.2141 9.61961 16.659 11.9448C14.1038 14.27 12.5078 17.4646 12.1829 20.904C11.9853 22.3239 11.9454 23.7613 12.0639 25.19L9.45591 27.743L12.1829 31.3L9.33691 34.859L12.8999 38.416L9.45591 42.271L14.2559 45.471L18.1689 42.271L22.0829 45.471L25.9999 43.043L29.9129 45.473L33.8269 42.273L37.7399 45.473L42.5399 42.273L39.0999 38.416L42.6619 34.859Z" fill="#5F5F5F"/>
<path id="Vector_2" d="M25.9999 11.3169C18.9609 11.3169 14.6399 17.6419 15.1709 26.3219C15.6349 33.8999 20.0429 39.2379 25.9999 39.2379C31.9559 39.2379 36.3639 33.9019 36.8279 26.3219C37.3599 17.6419 33.0379 11.3169 25.9999 11.3169Z" fill="white" stroke="#BFBFBF" stroke-width="2.475"/>
<path id="Vector_3" d="M35.4988 24.8129L39.3738 27.8749L39.4898 20.5479L34.5688 11.8319L25.9998 9.15186L17.4358 11.8369L13.3978 21.4379L12.9238 26.9519L17.8108 26.3129L19.6238 22.9379L23.5608 22.3129L24.7488 18.5629L28.9988 17.4999L30.1858 14.1879L32.1238 14.9379L32.3108 17.9999L35.2488 20.8749L35.4988 24.8129Z" fill="#5F5F5F"/>
</g>
</g>
</svg>
