<svg width="52" height="52" viewBox="0 0 52 52" fill="none" xmlns="http://www.w3.org/2000/svg">
<g id="hair-73">
<g id="73">
<path id="Vector" d="M26.0001 41.9659L30.0001 36.8749L34.1251 41.1249L36.0001 35.9999L39.2721 39.1819C39.4121 37.2309 39.5001 29.7499 39.5001 29.7499L43.1701 29.0649C43.1151 27.9979 40.1251 20.3749 40.1251 20.3749L42.1501 19.3189L35.9311 11.5189L37.4161 10.6849L32.3341 8.68489L26.0001 8.08789L19.6661 8.68789L14.5841 10.6879L16.0681 11.5219L9.8501 19.3219L11.8751 20.3779C11.8751 20.3779 8.8851 27.9999 8.8291 29.0649L12.5001 29.7499C12.5001 29.7499 12.5881 37.2309 12.7271 39.1819L16.0001 35.9999L17.8751 41.1249L22.0001 36.8749L26.0001 41.9659Z" fill="#5F5F5F"/>
<path id="Vector_2" d="M26.0002 12.52C19.6652 12.52 15.7762 18.212 16.2542 26.02C16.6722 32.842 20.6392 37.644 26.0002 37.644C31.3602 37.644 35.3282 32.844 35.7462 26.02C36.2242 18.212 32.3352 12.52 26.0002 12.52Z" fill="white" stroke="#BFBFBF" stroke-width="2.228"/>
<path id="Vector_3" d="M15.883 27.3008L21.125 18.4998L21.173 24.8878L30.625 17.1248L35.281 26.5588L37.044 20.4328L33.425 11.7078L25.257 8.92383L18.481 10.5948L14.305 16.5338L13.655 24.8878L15.883 27.3008Z" fill="#5F5F5F"/>
</g>
</g>
</svg>
