<svg width="52" height="52" viewBox="0 0 52 52" fill="none" xmlns="http://www.w3.org/2000/svg">
<g id="hair-97">
<g id="97">
<path id="Vector" d="M31.5851 32.0161C31.5851 32.0161 27.5951 36.0251 29.1851 40.3101C29.7103 41.759 30.6606 43.0156 31.9117 43.9156C33.1628 44.8155 34.6564 45.3169 36.1971 45.3541C37.3864 44.3732 38.2518 43.056 38.68 41.5751C39.1082 40.0941 39.0793 38.5184 38.5971 37.0541C37.2001 32.7091 31.5851 32.0161 31.5851 32.0161Z" fill="#5F5F5F"/>
<path id="Vector_2" d="M26.0001 11.3179C18.9611 11.3179 14.6401 17.6429 15.1711 26.3179C15.6351 33.8999 20.0441 39.2389 26.0001 39.2389C31.9561 39.2389 36.3651 33.9019 36.8281 26.3219C37.3601 17.6429 33.0391 11.3179 26.0001 11.3179Z" fill="white" stroke="#BFBFBF" stroke-width="2.475"/>
<path id="Vector_3" d="M26.0001 14.938C28.0881 14.938 31.1641 14.804 31.1641 14.804L35.5851 17.544L36.4171 26.334L38.5301 26.36C38.5401 26.114 39.2301 18.935 35.5911 14.141C34.4276 12.7279 32.9619 11.5939 31.3021 10.8224C29.6422 10.0509 27.8304 9.6615 26.0001 9.68298C24.1698 9.66143 22.358 10.0508 20.6981 10.8223C19.0382 11.5938 17.5726 12.7279 16.4091 14.141C12.7731 18.935 13.4601 26.114 13.4691 26.36L15.5831 26.334L16.4141 17.544L20.8351 14.804C20.8351 14.804 23.9111 14.938 26.0001 14.938Z" fill="#5F5F5F"/>
</g>
</g>
</svg>
