<svg width="52" height="52" viewBox="0 0 52 52" fill="none" xmlns="http://www.w3.org/2000/svg">
<g id="hair-78">
<g id="78">
<path id="Vector" d="M15.784 14.6732C15.784 14.6732 11.938 12.9382 8.563 17.1252C6.211 20.0432 6.125 24.8752 6.813 28.7502C7.40849 32.5032 8.61159 36.1342 10.375 39.5002C10.647 35.836 11.2115 32.1995 12.063 28.6252C13.063 25.1882 15.363 23.3812 18 21.6252L15.784 14.6732ZM36.216 14.6732C36.216 14.6732 40.063 12.9382 43.438 17.1252C45.789 20.0432 45.875 24.8752 45.188 28.7502C44.5919 32.5032 43.3885 36.1341 41.625 39.5002C41.353 35.8361 40.7889 32.1995 39.938 28.6252C38.938 25.1882 36.638 23.3812 34 21.6252L36.216 14.6732Z" fill="#5F5F5F"/>
<path id="Vector_2" d="M25.9999 11.1943C18.9609 11.1943 14.6399 17.5183 15.1709 26.1993C15.6349 33.7783 20.0439 39.1153 25.9999 39.1153C31.9549 39.1153 36.3629 33.7783 36.8279 26.1993C37.3599 17.5183 33.0389 11.1943 25.9999 11.1943Z" fill="white" stroke="#BFBFBF" stroke-width="2.475"/>
<path id="Vector_3" d="M13.269 27.9501C13.269 27.9501 25.383 20.8791 31.283 15.7711L38.542 27.9501C38.8681 26.735 39.0328 25.4822 39.032 24.2241V21.8461C39.0363 19.1072 38.2057 16.432 36.651 14.1771C35.505 12.3932 33.9293 10.9257 32.0684 9.90932C30.2076 8.89297 28.1213 8.36035 26.001 8.36035C23.8807 8.36035 21.7943 8.89297 19.9335 9.90932C18.0726 10.9257 16.4969 12.3932 15.351 14.1771C13.797 16.4323 12.9668 19.1074 12.971 21.8461V24.2241C12.97 25.4721 13.0697 26.7181 13.269 27.9501Z" fill="#5F5F5F"/>
</g>
</g>
</svg>
