<svg width="52" height="52" viewBox="0 0 52 52" fill="none" xmlns="http://www.w3.org/2000/svg">
<g id="hair-77">
<g id="77">
<path id="Vector" d="M28 9.24998C28.6667 8.48571 29.5399 7.9303 30.5148 7.65053C31.4896 7.37077 32.5245 7.37856 33.495 7.67298C35.2788 8.27809 36.8921 9.30107 38.2001 10.6566C39.508 12.012 40.4729 13.6607 41.014 15.465C42.236 19.713 40.446 25.52 40.446 25.52L35.869 18.5L28 9.24998Z" fill="#5F5F5F"/>
<path id="Vector_2" d="M28.4478 9.11572L29.2951 6.95492L32.3003 8.13337L31.453 10.2942L28.4478 9.11572Z" fill="#BFBFBF"/>
<path id="Vector_3" d="M39.608 21.2293C38.508 13.0453 33.161 8.36328 26.088 8.36328C19.015 8.36328 13.666 13.0453 12.568 21.2293C11.47 29.4133 12.535 36.0003 15.062 38.9843C16.4794 40.4956 18.1855 41.7074 20.0793 42.548C21.9731 43.3886 24.0163 43.8409 26.088 43.8783C28.1595 43.8408 30.2024 43.3884 32.0961 42.5478C33.9897 41.7072 35.6956 40.4955 37.113 38.9843C39.642 36.0003 40.706 29.4153 39.608 21.2293Z" fill="#5F5F5F"/>
<path id="Vector_4" d="M26.088 11.1621C19.049 11.1621 14.729 17.4851 15.26 26.1621C15.724 33.7421 20.132 39.0791 26.088 39.0791C32.044 39.0791 36.452 33.7421 36.916 26.1621C37.448 17.4851 33.127 11.1621 26.088 11.1621Z" fill="white" stroke="#BFBFBF" stroke-width="2.475"/>
<path id="Vector_5" d="M26.0879 8.9502L19.6679 10.5432L13.5749 18.4432L13.0859 23.8432L13.3259 30.1152L14.2539 33.2092L16.1259 20.9882C16.4429 20.9372 20.9819 16.1942 20.9819 16.1942M26.0879 8.9502L32.5079 10.5432L38.5999 18.4432L39.0899 23.8432L38.8499 30.1152L37.9219 33.2092L36.0509 20.9842C35.7319 20.9332 31.8749 14.2502 31.8749 14.2502" fill="#5F5F5F"/>
<path id="Vector_6" d="M18.4309 14.565L14.2749 24.7C14.2749 24.7 20.5879 23.466 24.3749 21.378C29.6749 18.456 33.4999 15.753 35.2499 13.378L28.4849 9.38295L27.5569 8.37695L23.3809 9.99995L18.4309 14.565Z" fill="#5F5F5F"/>
</g>
</g>
</svg>
