<svg width="52" height="52" viewBox="0 0 52 52" fill="none" xmlns="http://www.w3.org/2000/svg">
<g id="hair-88">
<g id="88">
<path id="Vector" d="M26.0001 11.1748C18.9621 11.1748 14.6411 17.4978 15.1721 26.1748C15.6351 33.7588 20.0441 39.0998 26.0001 39.0998C31.9551 39.0998 36.3641 33.7628 36.8281 26.1828C37.3591 17.4998 33.0371 11.1748 26.0001 11.1748Z" fill="white" stroke="#BFBFBF" stroke-width="2.475"/>
<path id="Vector_2" d="M15.1711 15.0159C12.6151 20.7969 13.6091 26.3269 13.9341 31.6159H15.2731C15.0054 27.1601 15.2831 22.6883 16.1001 18.2999C16.6821 16.1149 17.5541 12.8999 20.6001 12.1119C23.5641 11.3459 23.3181 13.9119 26.0001 13.9119V9.31792C22.7701 9.31792 17.1301 10.5819 15.1711 15.0159ZM36.8291 15.0159C34.8691 10.5819 29.2291 9.31592 26.0001 9.31592V13.9069C28.6811 13.9069 28.4351 11.3409 31.4001 12.1069C34.4471 12.8949 35.3191 16.1069 35.9001 18.2949C36.7172 22.6853 36.9946 27.1592 36.7261 31.6169H38.0661C38.3901 26.3269 39.3831 20.7999 36.8291 15.0159Z" fill="#5F5F5F"/>
</g>
</g>
</svg>
