<svg width="52" height="52" viewBox="0 0 52 52" fill="none" xmlns="http://www.w3.org/2000/svg">
<g id="hair-35">
<g id="35">
<path id="Vector" d="M39.254 20.0749C38.6963 16.9657 37.0632 14.1515 34.6404 12.1246C32.2176 10.0976 29.1593 8.98706 26.0005 8.98706C22.8416 8.98706 19.7833 10.0976 17.3605 12.1246C14.9377 14.1515 13.3047 16.9657 12.747 20.0749C11.502 26.1829 11.654 32.3749 14.525 34.7509C18.617 38.1309 26 38.1309 26 38.1309C26 38.1309 33.383 38.1309 37.475 34.7509C40.348 32.3789 40.5 26.1829 39.254 20.0749Z" fill="#5F5F5F"/>
<path id="Vector_2" d="M25.9999 11.1709C18.9619 11.1709 14.6409 17.4949 15.1719 26.1709C15.6359 33.7509 20.0449 39.0879 25.9999 39.0879C31.9549 39.0879 36.3639 33.7509 36.8279 26.1709C37.3599 17.4999 33.0389 11.1709 25.9999 11.1709Z" fill="white" stroke="#BFBFBF" stroke-width="2.475"/>
<path id="Vector_3" d="M38.3641 18.7349L33.1161 11.5839L26.0001 9.26294L18.8851 11.5839L13.6371 18.7349L12.5691 29.4139C12.5691 29.4139 16.1281 20.3139 26.0001 20.3139C35.8721 20.3139 39.4321 29.4139 39.4321 29.4139L38.3641 18.7349Z" fill="#5F5F5F"/>
</g>
</g>
</svg>
