<svg width="52" height="52" viewBox="0 0 52 52" fill="none" xmlns="http://www.w3.org/2000/svg">
<g id="hair-27">
<g id="27">
<path id="Vector" d="M39.2529 23.1099C39.2529 23.1099 39.3459 30.0189 40.6749 33.5169C42.3669 37.9639 41.3869 42.4109 38.0969 45.1679L36.1399 40.9879C35.2258 42.4454 33.8925 43.5925 32.3149 44.2789C30.3256 45.1585 28.1745 45.6128 25.9994 45.6128C23.8243 45.6128 21.6732 45.1585 19.6839 44.2789C18.1063 43.5925 16.773 42.4454 15.8589 40.9879L13.8999 45.1679C10.6089 42.4109 9.6299 37.9679 11.3199 33.5169C12.6489 30.0169 12.7429 23.1099 12.7429 23.1099H39.2529Z" fill="#5F5F5F"/>
<path id="Vector_2" d="M25.9999 11.3091C18.9609 11.3091 14.6399 17.6341 15.1709 26.3141C15.6349 33.8941 20.0439 39.2301 25.9999 39.2301C31.9559 39.2301 36.3639 33.8941 36.8279 26.3141C37.3599 17.6341 33.0379 11.3091 25.9999 11.3091Z" fill="white" stroke="#BFBFBF" stroke-width="2.475"/>
<path id="Vector_3" d="M39.4309 19.138C38.9212 15.9712 37.2779 13.0976 34.8071 11.0522C32.3362 9.00688 29.2062 7.92925 25.9999 8.01997C22.7935 7.929 19.6633 9.00653 17.1922 11.0519C14.7211 13.0972 13.0777 15.971 12.5679 19.138C11.5899 24.653 11.0559 28.038 8.38794 29.633C8.38794 29.633 15.6819 30.345 19.1499 23.674C21.4269 19.296 22.2629 17.274 22.2629 17.274L25.9999 15.047L29.7359 17.271C29.7359 17.271 30.5719 19.296 32.8489 23.671C36.3169 30.342 43.6109 29.63 43.6109 29.63C40.9429 28.033 40.4099 24.653 39.4309 19.138Z" fill="#5F5F5F"/>
</g>
</g>
</svg>
