<svg width="52" height="52" viewBox="0 0 52 52" fill="none" xmlns="http://www.w3.org/2000/svg">
<g id="hair-56">
<g id="56">
<path id="Vector" d="M25.9999 11.0491C18.9609 11.0491 14.6399 17.3731 15.1709 26.0541C15.6349 33.6341 20.0439 38.9711 25.9999 38.9711C31.9559 38.9711 36.3639 33.6341 36.8279 26.0541C37.3599 17.3731 33.0379 11.0491 25.9999 11.0491Z" fill="white" stroke="#BFBFBF" stroke-width="2.475"/>
<path id="Vector_2" d="M27.391 14.9941L28.0869 18.7831L31.646 15.9991L34.895 19.2481L35.978 18.3191L37.41 24.6491H38.5299L39.226 15.9991L36.596 14.3751L35.823 9.81111L30.486 9.11511L25.9999 6.64111L21.5129 9.11511L16.176 9.81111L15.4029 14.3751L12.7729 15.9991L13.4689 24.6491H14.5889L16.0219 18.3191L17.1049 19.2481L20.353 15.9991L22.7509 18.7831L27.391 14.9941Z" fill="#5F5F5F"/>
</g>
</g>
</svg>
