<svg width="52" height="52" viewBox="0 0 52 52" fill="none" xmlns="http://www.w3.org/2000/svg">
<g id="hair-29">
<g id="29">
<path id="Vector" d="M26 22.75L18.059 22.834L16.713 34.191L15.566 38.684L17.268 41.314L15.713 45.483L15.264 41.562L12.859 38.762L13.125 33.875L12.125 30.125L16.625 19.375L35.5 19.25L39.875 30.125L38.875 33.875L39.141 38.762L36.736 41.562L36.287 45.483L34.732 41.314L36.434 38.684L35.287 34.191L33.941 22.834L26 22.75Z" fill="#5F5F5F"/>
<path id="Vector_2" d="M26.0001 11.22C18.9621 11.22 14.6411 17.545 15.1721 26.225C15.6361 33.805 20.0451 39.142 26.0001 39.142C31.9551 39.142 36.3641 33.805 36.8281 26.225C37.3601 17.545 33.0391 11.22 26.0001 11.22Z" fill="white" stroke="#BFBFBF" stroke-width="2.475"/>
<path id="Vector_3" d="M26.0001 12.544C29.1001 21.971 39.9231 30.788 39.9231 30.788C39.9231 30.788 41.3931 27.308 40.4101 21.036C39.8226 17.615 38.0637 14.5047 35.4347 12.2382C32.8057 9.97175 29.4703 8.69014 26.0001 8.61304C22.53 8.69037 19.1948 9.97208 16.566 12.2385C13.9372 14.505 12.1784 17.6152 11.5911 21.036C10.6081 27.308 12.0781 30.788 12.0781 30.788C12.0781 30.788 22.9061 21.971 26.0001 12.544Z" fill="#5F5F5F"/>
<path id="Vector_4" d="M32.939 7.26498L29.114 8.42198L26 6.37598L22.887 8.42198L19.062 7.26498L17.728 13.403L26 12.602L34.273 13.403L32.939 7.26498Z" fill="#5F5F5F"/>
</g>
</g>
</svg>
