<svg width="52" height="52" viewBox="0 0 52 52" fill="none" xmlns="http://www.w3.org/2000/svg">
<g id="hair-111">
<g id="111">
<path id="Vector" d="M20.1421 33.5001C20.1421 31.6581 19.2141 30.1641 18.0681 30.1641C16.9221 30.1641 15.9921 31.6581 15.9921 33.5001C15.975 34.3299 16.1875 35.1483 16.6061 35.8651C16.1392 35.9531 15.699 36.1477 15.3197 36.4337C14.9403 36.7197 14.6321 37.0894 14.4191 37.5141C13.9438 38.3068 13.7311 39.2293 13.8111 40.1501C13.4435 39.8746 13.011 39.6987 12.5556 39.6393C12.1001 39.5799 11.637 39.6391 11.2111 39.8111C9.72706 40.3441 7.60505 42.2661 7.93705 43.5691C8.26905 44.8721 10.9251 45.0691 12.4101 44.5311C13.0165 44.3341 13.548 43.956 13.933 43.4476C14.3179 42.9393 14.5378 42.3252 14.5631 41.6881C15.5041 42.4141 16.9501 41.8241 17.8251 40.3381C18.1572 39.8202 18.3635 39.2317 18.4274 38.6197C18.4913 38.0078 18.4111 37.3894 18.1931 36.8141C19.2791 36.7071 20.1421 35.2711 20.1421 33.5001ZM31.8581 33.5001C31.8581 31.6581 32.7861 30.1641 33.9321 30.1641C35.0781 30.1641 36.0071 31.6581 36.0071 33.5001C36.0244 34.3298 35.8122 35.1482 35.3941 35.8651C35.8603 35.953 36.3 36.1471 36.6791 36.4324C37.0582 36.7176 37.3665 37.0864 37.5801 37.5101C38.0552 38.3028 38.2686 39.2251 38.1901 40.1461C38.5574 39.8701 38.9898 39.6938 39.4454 39.6344C39.901 39.575 40.3642 39.6345 40.7901 39.8071C42.2741 40.3401 44.3971 42.2621 44.0651 43.5651C43.7331 44.8681 41.0771 45.0651 39.5911 44.5271C38.9848 44.33 38.4536 43.9518 38.069 43.4434C37.6844 42.9351 37.4649 42.321 37.4401 41.6841C36.4971 42.4101 35.0511 41.8201 34.1771 40.3341C33.8449 39.8162 33.6386 39.2277 33.5747 38.6158C33.5108 38.0038 33.5911 37.3854 33.8091 36.8101C32.7211 36.7071 31.8581 35.2711 31.8581 33.5001Z" fill="#5F5F5F"/>
<path id="Vector_2" d="M26.0001 11.292C18.9621 11.292 14.6411 17.617 15.1721 26.297C15.6361 33.877 20.0451 39.213 26.0001 39.213C31.9551 39.213 36.3651 33.877 36.8281 26.297C37.3601 17.617 33.0381 11.292 26.0001 11.292Z" fill="white" stroke="#BFBFBF" stroke-width="2.475"/>
<path id="Vector_3" d="M40.5001 20.9059C40.0412 17.4113 38.3067 14.2096 35.6301 11.9164C32.9535 9.62325 29.5237 8.40038 26.0001 8.48293C22.4764 8.40038 19.0466 9.62325 16.37 11.9164C13.6934 14.2096 11.959 17.4113 11.5001 20.9059C10.8591 24.7139 11.8561 27.7549 13.0131 29.1779C15.4351 26.7213 17.5812 24.0072 19.4131 21.0839C21.7261 17.0839 22.9021 14.9279 22.9021 14.9279L25.9951 15.1279L29.0891 14.9279C29.0891 14.9279 30.2651 17.0819 32.5781 21.0839C34.4102 24.007 36.5563 26.7211 38.9781 29.1779C40.1421 27.7549 41.1401 24.7139 40.5001 20.9059Z" fill="#5F5F5F"/>
<path id="Vector_4" d="M16.094 13.563H35.906V22.751H16.094V13.563Z" fill="#5F5F5F"/>
</g>
</g>
</svg>
