<svg width="52" height="52" viewBox="0 0 52 52" fill="none" xmlns="http://www.w3.org/2000/svg">
<g id="hair-109">
<g id="109">
<path id="Vector" d="M26.283 11.1279C19.244 11.1279 14.923 17.4519 15.455 26.1329C15.919 33.7119 20.327 39.0489 26.283 39.0489C32.238 39.0489 36.646 33.7119 37.111 26.1329C37.643 17.4519 33.321 11.1279 26.283 11.1279Z" fill="white" stroke="#BFBFBF" stroke-width="2.475"/>
<path id="Vector_2" d="M26.282 9.45631C29.5787 9.40333 32.7735 10.5982 35.2263 12.8016C37.6791 15.0049 39.2085 18.0539 39.508 21.3373C39.888 26.6193 39.199 27.7573 37.708 30.5603C37.708 30.5603 36.954 26.6743 36.258 23.3483C35.625 20.3283 35.02 13.9183 35.02 13.9183H17.542C17.542 13.9183 16.937 20.3283 16.304 23.3483C15.604 26.6743 14.854 30.5603 14.854 30.5603C13.365 27.7603 12.677 26.6193 13.054 21.3373C13.3535 18.0535 14.8832 15.0043 17.3364 12.8009C19.7896 10.5975 22.985 9.40282 26.282 9.45631Z" fill="#5F5F5F"/>
<path id="Vector_3" d="M35.3309 13.1391L30.1719 15.5191L25.8169 10.0451C26.4527 9.11203 27.301 8.34325 28.2919 7.80205C29.2829 7.26084 30.3882 6.96269 31.5169 6.93213C35.1279 7.02013 37.3879 9.86713 38.3659 12.5321C39.4219 15.4121 39.3659 20.4401 41.5919 21.7981C42.5174 22.3784 43.5928 22.6743 44.6849 22.6491C44.6849 22.6491 42.0089 27.9281 37.0279 23.0361L35.3309 13.1391Z" fill="#5F5F5F"/>
<path id="Vector_4" d="M14.166 24.667C14.166 24.667 25 24.251 31.166 16C31.166 16 34.582 19.5 37.249 27.417L36.416 14.667L28.249 11L17.332 13.418L14.166 24.667Z" fill="#5F5F5F"/>
</g>
</g>
</svg>
