<svg width="52" height="52" viewBox="0 0 52 52" fill="none" xmlns="http://www.w3.org/2000/svg">
<g id="hair-51">
<g id="51">
<path id="Vector" d="M25.9999 11.1731C18.9609 11.1731 14.6399 17.4971 15.1709 26.1781C15.6349 33.7581 20.0439 39.1001 25.9999 39.1001C31.9559 39.1001 36.3639 33.7631 36.8279 26.1831C37.3599 17.5001 33.0379 11.1731 25.9999 11.1731Z" fill="white" stroke="#BFBFBF" stroke-width="2.475"/>
<path id="Vector_2" d="M29.944 15.5821C31.3534 17.1597 33.2672 18.1986 35.358 18.5211L36.983 26.9511L37.9879 27.0281L38.297 22.8531C38.3 14.5131 33.073 9.6001 26 9.6001C18.927 9.6001 13.7 14.5131 13.7 22.8531L14.009 27.0281L15.014 26.9511L16.639 18.5211C18.7297 18.1986 20.6435 17.1597 22.053 15.5821C21.7272 17.1761 20.8834 18.6177 19.653 19.6821C19.653 19.6821 26.7 20.8411 29.944 15.5821Z" fill="#5F5F5F"/>
</g>
</g>
</svg>
