<svg width="52" height="52" viewBox="0 0 52 52" fill="none" xmlns="http://www.w3.org/2000/svg">
<g id="hair-65">
<g id="65">
<path id="Vector" d="M25.9999 11.1001C18.9619 11.1001 14.6409 17.4241 15.1719 26.1001C15.6359 33.6891 20.0449 39.0251 25.9999 39.0251C31.9549 39.0251 36.3639 33.6891 36.8279 26.1081C37.3599 17.4281 33.0389 11.1001 25.9999 11.1001Z" fill="white" stroke="#BFBFBF" stroke-width="2.475"/>
<path id="Vector_2" d="M25.9999 7.87109C24.3178 7.87123 22.6522 8.20267 21.0982 8.8465C19.5442 9.49034 18.1322 10.434 16.9429 11.6235C15.7535 12.813 14.8101 14.2251 14.1665 15.7792C13.5229 17.3333 13.1918 18.999 13.1919 20.6811V25.3351H15.1719C15.1719 25.3351 15.6359 11.5681 25.9999 11.5681C36.3639 11.5681 36.8289 25.3351 36.8289 25.3351H38.8089V20.6811C38.8089 17.2838 37.4594 14.0257 35.0573 11.6234C32.6552 9.2211 29.3971 7.87136 25.9999 7.87109Z" fill="#5F5F5F"/>
</g>
</g>
</svg>
