<svg width="52" height="52" viewBox="0 0 52 52" fill="none" xmlns="http://www.w3.org/2000/svg">
<g id="hair-106">
<g id="106">
<path id="Vector" d="M39.461 20.9338C38.037 12.8688 33.072 8.7168 26 8.7168C18.928 8.7168 13.962 12.8688 12.539 20.9338C11.229 28.3548 8.77296 34.7948 13.839 39.3148C16.571 41.7458 21.375 41.4498 26 41.3908C30.625 41.4498 35.428 41.7458 38.156 39.3148C43.227 34.7998 40.77 28.3548 39.461 20.9338Z" fill="#5F5F5F"/>
<path id="Vector_2" d="M25.9999 11.1348C18.9609 11.1348 14.6399 17.4588 15.1709 26.1398C15.6349 33.7188 20.0429 39.0568 25.9999 39.0568C31.9549 39.0568 36.3639 33.7188 36.8279 26.1398C37.3589 17.4588 33.0379 11.1348 25.9999 11.1348Z" fill="white" stroke="#BFBFBF" stroke-width="2.475"/>
<path id="Vector_3" d="M18.2649 11.135L25.9999 9.25195L33.8109 11.367L37.4999 17.791L39.5779 27.93L37.7509 29.166L33.3339 14.333C30.9575 13.6205 28.4786 13.3105 25.9999 13.416C21.0189 13.416 18.2499 18.5 18.2499 18.5L13.8339 31.5L12.4199 27.93L14.4999 17.791L18.2649 11.135Z" fill="#5F5F5F"/>
<path id="Vector_4" d="M14.417 29.75C14.417 29.75 25.584 24.166 29.417 14.833C29.417 14.833 31.417 21.75 38 29.75L33.834 13.5L25.584 10.833L14.917 18.166L14.417 29.75Z" fill="#5F5F5F"/>
</g>
</g>
</svg>
