<svg width="52" height="52" viewBox="0 0 52 52" fill="none" xmlns="http://www.w3.org/2000/svg">
<g id="hair-70">
<g id="70">
<path id="Vector" d="M25.9999 11.1201C18.9619 11.1201 14.6409 17.4441 15.1719 26.1251C15.6339 33.7001 20.0429 39.0411 25.9999 39.0411C31.9549 39.0411 36.3639 33.7041 36.8279 26.1251C37.3579 17.4441 33.0369 11.1201 25.9999 11.1201Z" fill="white" stroke="#BFBFBF" stroke-width="2.475"/>
<path id="Vector_2" d="M36.5169 25.2V29.76H38.6839V25.738C41.8539 25.038 40.6939 20.247 39.0699 17.462C36.9429 13.816 33.0699 8.73804 25.9979 8.73804C18.9259 8.73804 15.0539 13.816 12.9269 17.462C11.3029 20.247 10.1419 25.042 13.3129 25.738V29.76H15.4789V25.2C20.1206 22.3496 24.2731 18.7705 27.7769 14.6L29.8649 15.064L32.0309 14.6C32.0309 14.6 33.9659 22.645 36.5169 25.2Z" fill="#5F5F5F"/>
</g>
</g>
</svg>
