<svg width="52" height="52" viewBox="0 0 52 52" fill="none" xmlns="http://www.w3.org/2000/svg">
<g id="hair-14">
<g id="14">
<path id="Vector" d="M26.0001 45.5999C29.9131 45.5999 35.8231 44.8999 37.6001 42.1199C39.1741 39.6559 37.6001 36.3969 37.6001 36.3969L37.4171 32.6129H38.5301C38.5301 32.6129 40.6181 29.5899 39.5201 21.4049C38.4221 13.2199 33.0731 8.53491 26.0001 8.53491C18.9271 8.53491 13.5781 13.2169 12.4801 21.3999C11.3821 29.5829 13.4691 32.6079 13.4691 32.6079H14.5811L14.4001 36.3939C14.4001 36.3939 12.8251 39.6529 14.4001 42.1169C16.1761 44.8999 22.0861 45.5999 26.0001 45.5999Z" fill="#5F5F5F"/>
<path id="Vector_2" d="M26.0001 11.334C18.9611 11.334 14.6401 17.658 15.1711 26.339C15.6351 33.919 20.0441 39.255 26.0001 39.255C31.9561 39.255 36.3641 33.919 36.8281 26.339C37.3601 17.658 33.0381 11.334 26.0001 11.334Z" fill="white" stroke="#BFBFBF" stroke-width="2.475"/>
<path id="Vector_3" d="M39.085 24.0108L36.985 15.2008L28.66 9.1228L19.58 10.7148L13.487 18.6148L13 24.0108L13.627 32.5498H16.039V24.1998C21.329 23.2252 26.1113 20.4304 29.557 16.2998C30.1536 17.7696 30.9622 19.1442 31.957 20.3798C33.1477 21.7944 34.4915 23.0725 35.964 24.1908V32.5498H38.377L39.085 24.0108Z" fill="#5F5F5F"/>
</g>
</g>
</svg>
