<svg width="52" height="52" viewBox="0 0 52 52" fill="none" xmlns="http://www.w3.org/2000/svg">
<g id="hair-43">
<g id="43">
<path id="Vector" d="M26.0219 11.0898C18.9829 11.0898 14.6619 17.4138 15.1929 26.0948C15.6569 33.6748 20.0659 39.0118 26.0219 39.0118C31.9769 39.0118 36.3849 33.6748 36.8499 26.0948C37.3809 17.4138 33.0599 11.0898 26.0219 11.0898Z" fill="white" stroke="#BFBFBF" stroke-width="2.475"/>
<path id="Vector_2" d="M40.9479 14.4159C39.387 13.8579 37.7298 13.6199 36.0749 13.7159C36.4563 12.6518 37.1259 11.7146 38.0089 11.0089C35.9903 10.4882 33.8993 10.3054 31.8209 10.4679C27.3349 6.36791 17.8209 7.37391 17.8209 7.37391L20.4509 10.1579L12.9509 10.5449L15.8909 13.2519L11.4819 13.9519C12.8739 16.2719 13.1679 21.8039 13.1679 22.6299L13.2149 27.5649H15.2699C15.2699 27.5649 14.8829 22.6139 16.7389 19.5209C18.7659 16.1439 21.4579 14.4159 26.0209 14.4159C30.5839 14.4159 33.2759 16.1439 35.3029 19.5209C37.1589 22.6139 36.7719 27.5649 36.7719 27.5649H38.8289L38.8759 22.6299C38.8759 22.5759 38.8679 22.5239 38.8679 22.4709C38.9571 19.6651 39.6675 16.9141 40.9479 14.4159Z" fill="#5F5F5F"/>
</g>
</g>
</svg>
