<svg width="52" height="52" viewBox="0 0 52 52" fill="none" xmlns="http://www.w3.org/2000/svg">
<g id="hair-129">
<g id="129">
<path id="Vector" d="M26 44.75C31.25 44.75 34.758 40.604 36.251 37.625C37.07 36.0955 37.5048 34.3898 37.518 32.655L41.376 32.625C41.376 32.625 39.731 29.609 38.626 21.352C37.521 13.095 33.134 8.37695 26 8.37695C18.867 8.37695 14.484 13.099 13.375 21.352C12.266 29.605 10.625 32.625 10.625 32.625L14.482 32.655C14.4951 34.39 14.9303 36.0957 15.75 37.625C17.241 40.604 20.75 44.75 26 44.75Z" fill="#5F5F5F"/>
<path id="Vector_2" d="M25.9999 11.1099C18.9609 11.1099 14.6399 17.4339 15.1709 26.1149C15.6349 33.6939 20.0439 39.0309 25.9999 39.0309C31.9549 39.0309 36.3649 33.6939 36.8279 26.1149C37.3589 17.4339 33.0379 11.1099 25.9999 11.1099Z" fill="white" stroke="#BFBFBF" stroke-width="2.475"/>
<path id="Vector_3" d="M41.25 31C40.3112 28.7371 39.5955 26.388 39.113 23.986L37.5 17.5L32.474 10.574L26 9.25L19.525 10.574L14.5 17.5L12.888 23.986C12.4052 26.3881 11.6888 28.7373 10.749 31C9.56701 33.761 8.24901 37.125 9.87401 40.75C11.329 44 17.124 46 17.124 46L19.874 40.25C18.6895 38.4784 17.6045 36.6422 16.624 34.75C15.88 30.916 16.288 22.125 19.624 16.75C21.874 13.125 24.124 12.875 25.999 12.727C27.874 12.875 30.124 13.127 32.374 16.75C35.71 22.125 36.119 30.916 35.374 34.75C34.3932 36.6422 33.3079 38.4784 32.123 40.25L34.874 46C34.874 46 40.669 44 42.125 40.75C43.75 37.125 42.431 33.761 41.25 31Z" fill="#5F5F5F"/>
<path id="Vector_4" d="M34 22.416V13.5L26 9.33301L18 13.5V22.416H34Z" fill="#5F5F5F"/>
</g>
</g>
</svg>
