<svg width="52" height="52" viewBox="0 0 52 52" fill="none" xmlns="http://www.w3.org/2000/svg">
<g id="hair-2">
<g id="2">
<path id="Vector" d="M38.3801 28.1841C37.4037 28.1841 36.4492 28.4736 35.6373 29.0161C34.8254 29.5586 34.1926 30.3297 33.8189 31.2318C33.4453 32.1339 33.3475 33.1266 33.538 34.0842C33.7285 35.0419 34.1987 35.9216 34.8891 36.6121C35.5796 37.3025 36.4593 37.7727 37.417 37.9632C38.3746 38.1537 39.3673 38.0559 40.2694 37.6823C41.1715 37.3086 41.9426 36.6758 42.4851 35.8639C43.0276 35.052 43.3171 34.0975 43.3171 33.1211C43.3172 32.4727 43.1896 31.8307 42.9416 31.2316C42.6935 30.6326 42.3299 30.0883 41.8714 29.6298C41.4129 29.1713 40.8686 28.8077 40.2696 28.5596C39.6705 28.3116 39.0285 28.184 38.3801 28.1841ZM38.3801 28.1841C37.4037 28.1841 36.4492 28.4736 35.6373 29.0161C34.8254 29.5586 34.1926 30.3297 33.8189 31.2318C33.4453 32.1339 33.3475 33.1266 33.538 34.0842C33.7285 35.0419 34.1987 35.9216 34.8891 36.6121C35.5796 37.3025 36.4593 37.7727 37.417 37.9632C38.3746 38.1537 39.3673 38.0559 40.2694 37.6823C41.1715 37.3086 41.9426 36.6758 42.4851 35.8639C43.0276 35.052 43.3171 34.0975 43.3171 33.1211C43.3172 32.4727 43.1896 31.8307 42.9416 31.2316C42.6935 30.6326 42.3299 30.0883 41.8714 29.6298C41.4129 29.1713 40.8686 28.8077 40.2696 28.5596C39.6705 28.3116 39.0285 28.184 38.3801 28.1841Z" fill="#5F5F5F"/>
<path id="Vector_2" d="M26.1471 11.2632C19.1081 11.2632 14.7871 17.5872 15.3181 26.2682C15.7831 33.8482 20.1911 39.1842 26.1471 39.1842C32.1021 39.1842 36.5111 33.8482 36.9751 26.2682C37.5061 17.5872 33.1851 11.2632 26.1471 11.2632Z" fill="white" stroke="#BFBFBF" stroke-width="2.475"/>
<path id="Vector_3" d="M38.816 28.1841C41.573 28.4511 40.455 22.0141 40.455 22.0141C39.108 14.8761 33.22 9.09009 26.146 9.09009C19.072 9.09009 13.184 14.8761 11.837 22.0141C11.837 22.0141 10.719 28.4511 13.476 28.1841C14.766 28.0601 20.921 19.6451 22.434 16.2651L26.146 17.1551L29.858 16.2651C31.371 19.6451 37.526 28.0601 38.816 28.1841Z" fill="#5F5F5F"/>
</g>
</g>
</svg>
