<svg width="52" height="52" viewBox="0 0 52 52" fill="none" xmlns="http://www.w3.org/2000/svg">
<g id="hair-44">
<g id="44">
<path id="Vector" d="M25.9999 11.1609C18.9609 11.1609 14.6399 17.4849 15.1709 26.1659C15.6349 33.7459 20.0439 39.0829 25.9999 39.0829C31.9559 39.0829 36.3639 33.7459 36.8289 26.1659C37.3639 17.4849 33.0429 11.1609 25.9999 11.1609Z" fill="white" stroke="#BFBFBF" stroke-width="2.475"/>
<path id="Vector_2" d="M26 8.625C33.416 8.625 39.381 14.19 39.381 21.425C39.2262 22.9202 38.9547 24.4011 38.569 25.854C33.0448 23.2019 28.6266 18.6949 26.085 13.119H26C23.4569 18.6965 19.0366 23.2042 13.51 25.856C13.125 24.403 12.8538 22.9222 12.699 21.427C12.699 14.19 18.664 8.627 26.08 8.627L26 8.625Z" fill="#5F5F5F"/>
</g>
</g>
</svg>
