<svg width="52" height="52" viewBox="0 0 52 52" fill="none" xmlns="http://www.w3.org/2000/svg">
<g id="hair-49">
<g id="49">
<path id="Vector" d="M26.0001 11.1492C18.9611 11.1492 14.6401 17.4732 15.1711 26.1492C15.6351 33.7332 20.0441 39.0702 26.0001 39.0702C31.9561 39.0702 36.3641 33.7332 36.8281 26.1532C37.3601 17.4732 33.0381 11.1492 26.0001 11.1492Z" fill="white" stroke="#BFBFBF" stroke-width="2.475"/>
<path id="Vector_2" d="M26.0001 6.66309L28.0111 8.36309L29.4811 7.43509L30.6411 8.60009L32.7291 7.28509L33.8121 9.68509L35.6681 9.14309L36.1321 10.6901L38.9171 10.0711L39.1481 27.3881H36.5191C36.4178 25.0521 36.1333 22.7276 35.6681 20.4361C35.2082 18.2917 34.313 16.2645 33.0381 14.4801C30.7382 15.0564 28.3701 15.3148 26.0001 15.2481C23.6294 15.3132 21.2611 15.0531 18.9611 14.4751C17.6866 16.2598 16.7915 18.2869 16.3311 20.4311C15.8665 22.7226 15.5823 25.0471 15.4811 27.3831H12.8511L13.0831 10.0661L15.8671 10.6851L16.3311 9.13809L18.1881 9.68009L19.2701 7.28009L21.3581 8.60009L22.5191 7.43909L23.9881 8.36709L26.0001 6.66309Z" fill="#5F5F5F"/>
</g>
</g>
</svg>
