<svg width="52" height="52" viewBox="0 0 52 52" fill="none" xmlns="http://www.w3.org/2000/svg">
<g id="hair-93">
<g id="93">
<path id="Vector" d="M39.2829 23.9998V22.4238C39.2829 15.3508 33.0719 8.48779 25.9989 8.48779C18.9259 8.48779 12.7169 15.3508 12.7169 22.4238V23.9998L11.4719 45.4588H40.5269L39.2829 23.9998Z" fill="#5F5F5F"/>
<path id="Vector_2" d="M25.9999 11.3247C18.9619 11.3247 14.6409 17.6487 15.1719 26.3297C15.6349 33.9097 20.0439 39.2457 25.9999 39.2457C31.9549 39.2457 36.3639 33.9097 36.8279 26.3297C37.3589 17.6487 33.0379 11.3247 25.9999 11.3247Z" fill="white" stroke="#BFBFBF" stroke-width="2.475"/>
<path id="Vector_3" d="M14.0828 18.035L17.5828 12.835L22.1448 10.252L27.2448 9.33496L33.8288 12.085L38.6798 19.97L39.0998 23C38.3564 22.9162 37.638 22.6807 36.9892 22.3082C36.3404 21.9356 35.7749 21.4338 35.3278 20.834C34.2702 19.4248 33.3494 17.918 32.5778 16.334C30.478 18.4912 27.9587 20.1955 25.1752 21.3419C22.3916 22.4884 19.4028 23.0526 16.3928 23L12.8928 22.917L14.0828 18.035Z" fill="#5F5F5F"/>
</g>
</g>
</svg>
