<svg width="52" height="52" viewBox="0 0 52 52" fill="none" xmlns="http://www.w3.org/2000/svg">
<g id="hair-86">
<g id="86">
<path id="Vector" d="M26.0001 11.1709C18.9611 11.1709 14.6401 17.4949 15.1711 26.1759C15.6351 33.7559 20.0441 39.0919 26.0001 39.0919C31.9561 39.0919 36.3641 33.7559 36.8281 26.1759C37.3601 17.4999 33.0381 11.1709 26.0001 11.1709Z" fill="white" stroke="#BFBFBF" stroke-width="2.475"/>
<path id="Vector_2" d="M36.8301 16.0439C35.8431 13.8109 32.1881 9.85693 26.0001 9.85693C19.8121 9.85693 16.1571 13.8109 15.1701 16.0439C12.6151 21.8249 13.6091 26.3239 13.9331 31.6159H15.2731C14.9641 26.6659 15.4541 20.5229 16.4731 18.4809C17.6071 16.2129 19.1731 15.4809 20.7851 15.7809C22.8361 16.1619 23.3171 17.7309 25.9981 17.7309C28.6791 17.7309 29.1601 16.1619 31.2111 15.7809C32.8231 15.4809 34.3891 16.2119 35.5231 18.4809C36.5441 20.5229 37.0341 26.6659 36.7231 31.6159H38.0631C38.3911 26.3239 39.3851 21.8249 36.8301 16.0439Z" fill="#5F5F5F"/>
</g>
</g>
</svg>
