<svg width="52" height="52" viewBox="0 0 52 52" fill="none" xmlns="http://www.w3.org/2000/svg">
<g id="hair-118">
<g id="118">
<path id="Vector" d="M25.9999 35.625C35.4999 35.875 40.2209 32.747 40.4999 30C40.9123 25.4344 40.182 20.838 38.3749 16.625C38.3749 16.625 31.3749 8.875 25.9999 8.875C20.6249 8.875 13.6249 16.625 13.6249 16.625C11.8179 20.838 11.0876 25.4344 11.4999 30C11.7789 32.747 16.4999 35.875 25.9999 35.625Z" fill="#5F5F5F"/>
<path id="Vector_2" d="M25.9999 11.2148C18.9629 11.2148 14.6409 17.5378 15.1719 26.2148C15.6369 33.7998 20.0449 39.1358 25.9999 39.1358C31.9549 39.1358 36.3629 33.7988 36.8279 26.2188C37.3609 17.5378 33.0389 11.2148 25.9999 11.2148Z" fill="white" stroke="#BFBFBF" stroke-width="2.475"/>
<path id="Vector_3" d="M26 14C28.1512 14.0511 30.2897 14.3447 32.375 14.875C34.2939 17.3313 35.6199 20.1974 36.25 23.25C37.098 27.481 37.875 28.75 37.875 28.75L40.375 26C40.375 26 42.5 7.25 26 7.25C9.50003 7.25 11.625 26 11.625 26L14.125 28.75C14.125 28.75 14.903 27.481 15.75 23.25C16.3801 20.1974 17.7062 17.3313 19.625 14.875C21.7104 14.3447 23.8489 14.0511 26 14Z" fill="#5F5F5F"/>
</g>
</g>
</svg>
