<svg width="52" height="52" viewBox="0 0 52 52" fill="none" xmlns="http://www.w3.org/2000/svg">
<g id="hair-130">
<g id="130">
<path id="Vector" d="M37.7711 20.2568C37.7711 20.2568 32.2011 25.2568 35.3711 28.5568C38.0112 31.3899 40.1513 34.6505 41.7001 38.1998C41.7001 38.1998 46.4541 30.4948 44.7841 25.2998C43.3861 20.9498 37.7711 20.2568 37.7711 20.2568Z" fill="#5F5F5F"/>
<path id="Vector_2" d="M25.9999 11.2778C18.9619 11.2778 14.6399 17.6028 15.1709 26.2828C15.6359 33.8618 20.0439 39.1998 25.9999 39.1998C31.9549 39.1998 36.3639 33.8628 36.8289 26.2838C37.3609 17.5998 33.0389 11.2778 25.9999 11.2778Z" fill="white" stroke="#BFBFBF" stroke-width="2.475"/>
<path id="Vector_3" d="M26 13.4998C26 13.4998 25.056 12.7148 22.5 13.2498C18.918 13.9998 18.21 24.6588 18.21 24.6588C17.636 26.9788 15.937 44.1998 15.937 44.1998C14.918 41.1838 11.691 25.6638 12.388 21.0998C13.435 14.2338 20.123 8.81885 26 8.81885C31.878 8.81885 38.566 14.2338 39.613 21.1008C40.313 25.6638 37.083 41.1838 36.064 44.2008C36.064 44.2008 34.364 26.9798 33.79 24.6598C33.79 24.6598 33.082 14.0008 29.499 13.2508C26.945 12.7148 26 13.4998 26 13.4998Z" fill="#5F5F5F"/>
</g>
</g>
</svg>
