<svg width="52" height="52" viewBox="0 0 52 52" fill="none" xmlns="http://www.w3.org/2000/svg">
<g id="hair-38">
<g id="38">
<path id="Vector" d="M25.9999 11.1111C18.9609 11.1111 14.6399 17.4351 15.1709 26.1161C15.6349 33.7001 20.0439 39.0321 25.9999 39.0321C31.9559 39.0321 36.3639 33.6951 36.8279 26.1161C37.3599 17.4351 33.0379 11.1111 25.9999 11.1111Z" fill="white" stroke="#BFBFBF" stroke-width="2.475"/>
<path id="Vector_2" d="M31.337 7.7861L30.409 10.3381L28.088 6.5481L26 9.3331L23.911 6.5481L21.59 10.3381L20.663 7.7861C10.956 17.4921 13.083 30.3701 13.083 30.3701H15.621C15.577 28.8121 15.544 23.7321 17.414 20.3931C19.647 16.4061 21.436 14.5151 26 14.5151C30.564 14.5151 32.353 16.4061 34.585 20.3931C36.455 23.7321 36.422 28.8121 36.378 30.3701H38.917C38.917 30.3701 41.044 17.4921 31.337 7.7861Z" fill="#5F5F5F"/>
</g>
</g>
</svg>
