<svg width="52" height="52" viewBox="0 0 52 52" fill="none" xmlns="http://www.w3.org/2000/svg">
<g id="hair-6">
<g id="6">
<path id="Vector" d="M26.0001 8.48389C33.0731 8.48389 38.5001 14.2949 39.9211 21.2929C41.3701 28.4159 42.4841 36.0269 33.2941 45.2179L32.2201 42.9249L30.3311 44.5939L29.9441 42.2729L26.0001 45.6919L22.0551 42.2729L21.6681 44.5939L19.7791 42.9249L18.7061 45.2179C9.51509 36.0269 10.6291 28.5179 12.0771 21.3909C13.5001 14.3929 18.9261 8.48389 26.0001 8.48389Z" fill="#5F5F5F"/>
<path id="Vector_2" d="M26.0001 11.3359C18.9611 11.3359 14.6401 17.6599 15.1711 26.3359C15.6351 33.9199 20.0441 39.2569 26.0001 39.2569C31.9561 39.2569 36.3641 33.9199 36.8281 26.3399C37.3601 17.6599 33.0381 11.3359 26.0001 11.3359Z" fill="white" stroke="#BFBFBF" stroke-width="2.475"/>
<path id="Vector_3" d="M26.0001 9.32495L31.9561 10.253L34.9931 13.037L39.9211 23.092L38.1431 35.312L36.2101 34.3839C37.9881 24.0979 35.5901 18.684 35.5901 18.684L31.5631 16.284C29.9521 16.176 28.0481 16.112 26.0001 16.112C23.9521 16.112 22.0461 16.176 20.4371 16.284L16.4081 18.684C16.4081 18.684 14.0081 24.0979 15.7901 34.3839L13.8561 35.312L12.0781 23.092L17.0061 13.037L20.0441 10.253L26.0001 9.32495Z" fill="#5F5F5F"/>
</g>
</g>
</svg>
