<svg width="52" height="52" viewBox="0 0 52 52" fill="none" xmlns="http://www.w3.org/2000/svg">
<g id="hair-24">
<g id="24">
<path id="Vector" d="M26.0001 40.9699L31.0941 43.6769L35.0331 40.5119L39.8441 43.5229L42.2441 39.2689L40.7751 35.7159L42.0121 32.0089L39.1481 24.9599L38.8071 21.5479C38.6976 18.1739 37.4556 14.935 35.2811 12.3529C33.5811 10.5739 31.6191 9.85289 28.8351 9.26989L26.0001 9.18188L23.1641 9.26989C20.3801 9.85189 18.4191 10.5699 16.7181 12.3529C14.5432 14.9348 13.3008 18.1738 13.1911 21.5479L12.8511 24.9599L9.98908 32.0089L11.2271 35.7159L9.75708 39.2689L12.1571 43.5229L16.9691 40.5119L20.9081 43.6769L26.0001 40.9699Z" fill="#5F5F5F"/>
<path id="Vector_2" d="M26.0001 11.271C18.9611 11.271 14.6401 17.595 15.1711 26.271C15.6351 33.851 20.0441 39.187 26.0001 39.187C31.9561 39.187 36.3641 33.851 36.8281 26.271C37.3601 17.6 33.0381 11.271 26.0001 11.271Z" fill="white" stroke="#BFBFBF" stroke-width="2.475"/>
<path id="Vector_3" d="M37.291 18.077L36.131 15.6L31.877 10.959L26 9.646L19.889 11.116L16.795 14.516L14.4 18L14.082 21.876C15.4825 20.2586 16.7531 18.5333 17.882 16.716C20.5729 17.068 23.287 17.2124 26 17.148C28.7148 17.2123 31.4305 17.0676 34.123 16.715C35.252 18.5323 36.5226 20.2576 37.923 21.875L37.291 18.077Z" fill="#5F5F5F"/>
</g>
</g>
</svg>
