<svg width="52" height="52" viewBox="0 0 52 52" fill="none" xmlns="http://www.w3.org/2000/svg">
<g id="hair-54">
<g id="54">
<path id="Vector" d="M25.9999 33.891C25.9999 33.891 32.7679 34.603 37.1369 31.441C41.9839 27.935 44.1499 22.47 42.0869 16.282C39.7869 9.38198 35.0869 6.78198 25.9999 6.78198C16.9129 6.78198 12.2109 9.38198 9.91192 16.282C7.84892 22.47 10.0119 27.935 14.8609 31.441C19.2309 34.6 25.9999 33.891 25.9999 33.891Z" fill="#5F5F5F"/>
<path id="Vector_2" d="M25.9999 11.1001C18.9609 11.1001 14.6399 17.4231 15.1709 26.1001C15.6349 33.6851 20.0439 39.0221 25.9999 39.0221C31.9559 39.0221 36.3639 33.6851 36.8279 26.1041C37.3599 17.4241 33.0379 11.1001 25.9999 11.1001Z" fill="white" stroke="#BFBFBF" stroke-width="2.475"/>
<path id="Vector_3" d="M26 8.69995L31.336 10.557L37.836 15.507L38.919 26.025L37.24 32.575L34.869 30.2C35.391 28.4969 35.6345 26.7207 35.59 24.94C35.3918 23.1866 35.0118 21.4586 34.456 19.784L32.29 17.417C32.29 17.417 31.104 18.139 26 18.139C20.896 18.139 19.709 17.417 19.709 17.417L17.543 19.788C16.9872 21.4627 16.6068 23.1906 16.408 24.944C16.3642 26.7247 16.608 28.5009 17.13 30.204L14.759 32.575L13.083 26.027L14.166 15.509L20.666 10.559L26 8.69995Z" fill="#5F5F5F"/>
</g>
</g>
</svg>
