<svg width="52" height="52" viewBox="0 0 52 52" fill="none" xmlns="http://www.w3.org/2000/svg">
<g id="hair-107">
<g id="107">
<path id="Vector" d="M25.9999 11.1572C18.9609 11.1572 14.6399 17.4802 15.1709 26.1622C15.6359 33.7422 20.0449 39.0782 25.9999 39.0782C31.9569 39.0782 36.3649 33.7422 36.8289 26.1622C37.3609 17.4802 33.0389 11.1572 25.9999 11.1572Z" fill="white" stroke="#BFBFBF" stroke-width="2.475"/>
<path id="Vector_2" d="M38.8081 22.3611C38.823 20.6697 38.5028 18.992 37.8659 17.4251C37.2289 15.8581 36.2879 14.4328 35.0971 13.2314C33.9064 12.0301 32.4894 11.0765 30.9281 10.4257C29.3668 9.77499 27.6921 9.43994 26.0006 9.43994C24.3091 9.43994 22.6343 9.77499 21.073 10.4257C19.5117 11.0765 18.0948 12.0301 16.904 13.2314C15.7133 14.4328 14.7722 15.8581 14.1353 17.4251C13.4984 18.992 13.1781 20.6697 13.1931 22.3611C13.0018 24.859 13.2114 27.3715 13.8141 29.8031L17.0621 20.9891L18.8761 23.1251L21.0001 19.2001L24.0001 23.4881L28.3741 18.7511L31.5001 23.8751L33.9381 20.9891L35.0001 25.2501L36.8521 23.0431L38.1861 29.8031C38.7888 27.3715 38.9987 24.8591 38.8081 22.3611Z" fill="#5F5F5F"/>
<path id="Vector_3" d="M20.501 10.875L11.876 12.875L13.751 16L10.251 16.75L13.376 24.5" fill="#5F5F5F"/>
</g>
</g>
</svg>
