<svg width="52" height="52" viewBox="0 0 52 52" fill="none" xmlns="http://www.w3.org/2000/svg">
<g id="hair-55">
<g id="55">
<path id="Vector" d="M25.9999 11.157C18.9609 11.157 14.6399 17.48 15.1709 26.162C15.6349 33.741 20.0439 39.078 25.9999 39.078C31.9559 39.078 36.3639 33.741 36.8279 26.162C37.3599 17.48 33.0379 11.157 25.9999 11.157Z" fill="white" stroke="#BFBFBF" stroke-width="2.475"/>
<path id="Vector_2" d="M38.4999 27.4771V21.2771C38.541 17.9207 37.2472 14.6854 34.903 12.2829C32.5589 9.88039 29.3564 8.50745 25.9999 8.46606C22.6439 8.50745 19.4417 9.88012 17.0976 12.2822C14.7535 14.6842 13.4594 17.919 13.4999 21.2751V27.4751L16.0999 20.2041C17.9026 18.5194 20.2164 17.4853 22.6739 17.2661C27.4609 16.8971 31.5999 17.1171 32.9609 15.2541C32.9609 15.2541 33.734 19.5081 35.823 21.5201L38.4999 27.4771Z" fill="#5F5F5F"/>
</g>
</g>
</svg>
