<svg width="52" height="52" viewBox="0 0 52 52" fill="none" xmlns="http://www.w3.org/2000/svg">
<g id="hair-20">
<g id="20">
<path id="Vector" d="M39.7571 20.7001C37.8001 12.4001 33.0731 8.48511 26.0001 8.48511C18.9271 8.48511 14.2001 12.4001 12.2431 20.7001C10.3941 28.5431 11.4601 32.8001 13.3691 37.3811C16.2451 44.2881 18.3501 44.7441 18.3501 44.7441L22.2631 43.3201L26.0001 45.6931L29.7361 43.3201L33.6491 44.7441C33.6491 44.7441 35.7491 44.2881 38.6301 37.3811C40.5391 32.8001 41.6061 28.5431 39.7571 20.7001Z" fill="#5F5F5F"/>
<path id="Vector_2" d="M26.0001 11.3362C18.9611 11.3362 14.6401 17.6612 15.1711 26.3412C15.6351 33.9202 20.0441 39.2572 26.0001 39.2572C31.9561 39.2572 36.3641 33.9202 36.8281 26.3412C37.3601 17.6612 33.0381 11.3362 26.0001 11.3362Z" fill="white" stroke="#BFBFBF" stroke-width="2.475"/>
<path id="Vector_3" d="M33.4241 21.3522L33.0381 17.4462C33.0381 17.4462 33.6711 21.2132 34.8951 25.7222C35.9711 29.0942 37.4858 32.31 39.4001 35.2872V22.3002L35.0121 12.7002L26.0001 8.78418L16.9861 12.7002L12.6001 22.3002V35.2872C14.5148 32.31 16.0301 29.0941 17.1071 25.7222C18.3301 21.2132 18.9631 17.4462 18.9631 17.4462L18.5771 21.3522H33.4241Z" fill="#5F5F5F"/>
</g>
</g>
</svg>
