<svg width="52" height="52" viewBox="0 0 52 52" fill="none" xmlns="http://www.w3.org/2000/svg">
<g id="hair-13">
<g id="13">
<path id="Vector" d="M39.7 21.4789C39.7 14.4059 33.075 8.6709 26 8.6709C18.925 8.6709 12.3 14.4059 12.3 21.4789C12.3 21.4789 11.648 29.4839 14.317 35.5329C15.3697 38.1157 17.1092 40.3611 19.347 42.0259L22.131 39.2659L26 44.1309L29.868 39.2659L32.651 42.0259C34.889 40.3614 36.6286 38.1159 37.681 35.5329C40.35 29.4839 39.7 21.4789 39.7 21.4789Z" fill="#5F5F5F"/>
<path id="Vector_2" d="M25.9999 11.2678C18.9609 11.2678 14.6399 17.5918 15.1709 26.2678C15.6349 33.8478 20.0439 39.1848 25.9999 39.1848C31.9559 39.1848 36.3639 33.8478 36.8279 26.2678C37.3599 17.5918 33.0379 11.2678 25.9999 11.2678Z" fill="white" stroke="#BFBFBF" stroke-width="2.475"/>
<path id="Vector_3" d="M34.361 11.775L26 9.33398L17.638 11.775L12.717 20.115L13.017 28.185C16.397 25.931 18.057 20.175 18.057 20.175L20.7 22.013L23.352 19.4L26 22.013L28.647 19.4L31.3 22.013L33.95 20.175C33.95 20.175 35.61 25.931 38.99 28.185L39.29 20.115L34.361 11.775Z" fill="#5F5F5F"/>
</g>
</g>
</svg>
