<svg width="52" height="52" viewBox="0 0 52 52" fill="none" xmlns="http://www.w3.org/2000/svg">
<g id="hair-57">
<g id="57">
<path id="Vector" d="M26.0001 11.0759C18.9611 11.0759 14.6401 17.3999 15.1711 26.0809C15.6351 33.6609 20.0441 38.9999 26.0001 38.9999C31.9561 38.9999 36.3641 33.6629 36.8281 26.0829C37.3601 17.3999 33.0381 11.0759 26.0001 11.0759Z" fill="white" stroke="#BFBFBF" stroke-width="2.475"/>
<path id="Vector_2" d="M13.383 24.5339C13.541 25.6609 13.7902 26.7732 14.128 27.8599L18.482 18.9299L13.217 21.1299C13.217 21.1299 13.3 23.3739 13.383 24.5339ZM38.782 21.1309L33.517 18.9309L37.87 27.8609C38.2084 26.7744 38.4576 25.662 38.615 24.5349C38.7 23.3739 38.782 21.1309 38.782 21.1309Z" fill="#5F5F5F"/>
<path id="Vector_3" d="M26.0001 7.53394C24.318 7.53407 22.6524 7.86551 21.0984 8.50935C19.5444 9.15318 18.1324 10.0968 16.9431 11.2863C15.7538 12.4758 14.8104 13.888 14.1668 15.4421C13.5232 16.9962 13.192 18.6618 13.1921 20.3439V22.3689H13.8561C13.8561 22.3689 15.9451 16.4899 26.0001 16.4899C36.0551 16.4899 38.1431 22.3689 38.1431 22.3689H38.8071V20.3439C38.8074 16.947 37.4583 13.689 35.0565 11.2867C32.6548 8.88435 29.3971 7.53447 26.0001 7.53394Z" fill="#808080"/>
<path id="Vector_4" d="M26.0001 18.669C33.0851 18.669 36.4541 21.546 37.9001 23.413C38.3293 23.2278 38.6677 22.8801 38.8411 22.446C38.8411 22.446 36.4861 16.146 26.0031 16.146C15.5201 16.146 13.1631 22.446 13.1631 22.446C13.3371 22.8804 13.6762 23.2281 14.1061 23.413C15.5451 21.546 18.9151 18.669 26.0001 18.669Z" fill="#404040"/>
<path id="Vector_5" d="M28.4191 7.77093C26.8219 7.45494 25.1782 7.45494 23.5811 7.77093C20.9331 9.11593 16.8121 12.3709 16.4871 19.6339H16.5181C16.9241 19.2724 17.3566 18.9418 17.8121 18.6449C18.5701 11.3189 23.5421 8.94493 25.3811 8.31793V16.4999C25.5811 16.4939 25.7881 16.4859 26.0001 16.4859C26.2121 16.4859 26.4141 16.4939 26.6181 16.4999V8.31993C28.4571 8.94693 33.4291 11.3199 34.1871 18.6469C34.6427 18.9436 35.0752 19.2742 35.4811 19.6359H35.5121C35.1871 12.3669 31.0661 9.11593 28.4191 7.77093Z" fill="#404040"/>
</g>
</g>
</svg>
