<svg width="52" height="52" viewBox="0 0 52 52" fill="none" xmlns="http://www.w3.org/2000/svg">
<g id="hair-108">
<g id="108">
<path id="Vector" d="M40.5001 20.3728C38.2701 13.0998 33.0731 8.83984 26.0001 8.83984C18.9271 8.83984 13.7301 13.0998 11.5001 20.3728C9.8101 25.8888 10.2541 33.5368 13.6341 40.7418C17.4635 38.7824 21.6986 37.7467 26.0001 37.7178C30.301 37.7468 34.5353 38.7825 38.3641 40.7418C41.7441 33.5368 42.1891 25.8888 40.5001 20.3728Z" fill="#5F5F5F"/>
<path id="Vector_2" d="M26.0001 11.2051C18.9611 11.2051 14.6401 17.5291 15.1711 26.2051C15.6351 33.7851 20.0441 39.1211 26.0001 39.1211C31.9551 39.1211 36.3631 33.7851 36.8281 26.2051C37.3601 17.5291 33.0391 11.2051 26.0001 11.2051Z" fill="white" stroke="#BFBFBF" stroke-width="2.475"/>
<path id="Vector_3" d="M26 13.668L29.333 12.584C29.333 12.584 35.167 21.667 39.25 25.251L37.833 17.668L33.167 11.168L26 9.5L18.833 11.165L14.167 17.665L12.75 25.251C16.833 21.667 22.667 12.584 22.667 12.584L26 13.668Z" fill="#5F5F5F"/>
</g>
</g>
</svg>
