<svg width="52" height="52" viewBox="0 0 52 52" fill="none" xmlns="http://www.w3.org/2000/svg">
<g id="hair-112">
<g id="112">
<path id="Vector" d="M26 22.75L18.059 22.833L16.713 34.191L15.566 38.685L17.268 41.314L15.713 45.483L15.264 41.561L12.859 38.762L13.125 33.875L12.125 30.125L16.625 19.375L35.5 19.25L39.875 30.125L38.875 33.875L39.141 38.762L36.736 41.561L36.287 45.483L34.732 41.314L36.434 38.685L35.287 34.191L33.941 22.833L26 22.75Z" fill="#5F5F5F"/>
<path id="Vector_2" d="M26.0001 11.2202C18.9621 11.2202 14.6411 17.5452 15.1721 26.2262C15.6361 33.8052 20.0451 39.1422 26.0001 39.1422C31.9551 39.1422 36.3641 33.8052 36.8281 26.2262C37.3601 17.5452 33.0391 11.2202 26.0001 11.2202Z" fill="white" stroke="#BFBFBF" stroke-width="2.475"/>
<path id="Vector_3" d="M26.0001 8.61279C22.53 8.69013 19.1948 9.97184 16.566 12.2383C13.9372 14.5048 12.1784 17.6149 11.5911 21.0358C10.6081 27.3078 12.0781 30.7878 12.0781 30.7878C12.0781 30.7878 14.5081 27.1808 18.5111 22.1128C20.7661 19.2588 24.8851 15.9408 26.0001 12.5438M26.0001 8.61279C29.4703 8.6899 32.8057 9.9715 35.4347 12.238C38.0637 14.5045 39.8226 17.6147 40.4101 21.0358C41.3931 27.3078 39.9241 30.7878 39.9241 30.7878C39.9241 30.7878 37.4941 27.1808 33.4901 22.1128C31.2361 19.2588 27.1171 15.9408 26.0021 12.5438" fill="#5F5F5F"/>
<path id="Vector_4" d="M32.939 7.26498L29.114 8.42198L26 6.37598L22.887 8.42198L19.062 7.26498L17.728 13.403L26 12.603L34.273 13.403L32.939 7.26498Z" fill="#5F5F5F"/>
<path id="Vector_5" d="M36.094 22.75H16.281V13.563L26 11.313L36.094 13.563V22.75Z" fill="#5F5F5F"/>
</g>
</g>
</svg>
