<svg width="52" height="52" viewBox="0 0 52 52" fill="none" xmlns="http://www.w3.org/2000/svg">
<g id="hair-8">
<g id="8">
<path id="Vector" d="M38.3329 35.5891C38.72 32.537 39.2745 29.5084 39.9939 26.5171H12.0049C12.7242 29.5084 13.2788 32.537 13.6659 35.5891C13.9029 39.2071 13.6059 45.0781 13.6059 45.0781L17.6379 39.2661L17.3379 45.1371L22.1379 38.3771L25.9999 45.6111L29.8539 38.3771L34.6539 45.1371L34.3539 39.2661L38.3859 45.0781C38.3859 45.0781 38.0999 39.2071 38.3329 35.5891Z" fill="#5F5F5F"/>
<path id="Vector_2" d="M25.9999 11.3381C18.9609 11.3381 14.6399 17.6631 15.1709 26.3431C15.6349 33.9231 20.0439 39.2601 25.9999 39.2601C31.9559 39.2601 36.3639 33.9231 36.8279 26.3431C37.3599 17.6631 33.0379 11.3381 25.9999 11.3381Z" fill="white" stroke="#BFBFBF" stroke-width="2.475"/>
<path id="Vector_3" d="M25.9999 8.62207C33.0729 8.62207 37.385 13.0701 39.638 19.9481C40.5975 23.0739 41.2141 26.2949 41.477 29.5541C41.477 29.5541 37.898 28.8641 33.3479 24.0231C31.1606 21.6879 29.5917 18.843 28.784 15.7471L25.9999 16.1341L23.2149 15.7471C22.4072 18.843 20.8383 21.6879 18.6509 24.0231C14.1009 28.8641 10.5229 29.5541 10.5229 29.5541C10.7852 26.2949 11.4015 23.0739 12.3609 19.9481C14.6139 13.0701 18.9259 8.62207 25.9999 8.62207Z" fill="#5F5F5F"/>
</g>
</g>
</svg>
