<svg width="52" height="52" viewBox="0 0 52 52" fill="none" xmlns="http://www.w3.org/2000/svg">
<g id="hair-0">
<g id="0">
<path id="Vector" d="M26.0001 39.8181C29.3361 39.8181 33.0381 40.9011 36.0541 41.0551C38.4352 41.2567 40.8127 40.6282 42.7831 39.2761C41.7729 38.6056 40.9419 37.6985 40.3622 36.6336C39.7825 35.5687 39.4718 34.3784 39.4571 33.1661C39.5221 29.8411 40.0141 25.9661 39.4571 22.1061C38.3001 14.0621 33.0741 9.11206 26.0001 9.11206C18.9271 9.11206 13.7001 14.0621 12.5421 22.1061C11.9851 25.9681 12.4781 29.8411 12.5421 33.1661C12.5273 34.3784 12.2166 35.5687 11.6369 36.6336C11.0573 37.6985 10.2262 38.6056 9.21606 39.2761C11.1865 40.628 13.564 41.2566 15.9451 41.0551C18.9611 40.9001 22.6641 39.8181 26.0001 39.8181Z" fill="#5F5F5F"/>
<path id="Vector_2" d="M26.0001 11.2781C18.9611 11.2781 14.6401 17.6021 15.1711 26.2781C15.6351 33.8621 20.0441 39.2001 26.0001 39.2001C31.9551 39.2001 36.3631 33.8631 36.8281 26.2831C37.3601 17.6001 33.0391 11.2781 26.0001 11.2781Z" fill="white" stroke="#BFBFBF" stroke-width="2.475"/>
<path id="Vector_3" d="M13.4771 29.3001C13.4771 29.3001 18.8131 16.5381 33.2771 16.2291C33.2771 16.2291 35.3661 26.0521 39.0001 28.9901V22.8001L37.8401 18.1591L34.4401 12.8221L30.0281 9.96311L24.6911 9.80811L18.8911 11.5871L14.3281 17.9291L12.9351 25.2771L13.4771 29.3001Z" fill="#5F5F5F"/>
</g>
</g>
</svg>
