<svg width="52" height="52" viewBox="0 0 52 52" fill="none" xmlns="http://www.w3.org/2000/svg">
<g id="hair-59">
<g id="59">
<path id="Vector" d="M25.9999 11.0371C18.9619 11.0371 14.6409 17.3611 15.1719 26.0421C15.6359 33.6221 20.0449 38.9581 25.9999 38.9581C31.9549 38.9581 36.3639 33.6221 36.8279 26.0421C37.3599 17.3611 33.0389 11.0371 25.9999 11.0371Z" fill="white" stroke="#BFBFBF" stroke-width="2.475"/>
<path id="Vector_2" d="M25.9999 7.01611C18.9269 7.01611 13.1919 14.3631 13.1919 22.6251V29.7551H15.3999C15.3999 29.7551 13.4669 17.1471 21.5879 12.9711C21.5879 12.9711 22.2879 14.4401 25.9959 14.4401C29.7039 14.4401 30.4049 12.9711 30.4049 12.9711C38.5299 17.1471 36.5999 29.7551 36.5999 29.7551H38.8119V22.6251C38.8089 14.3631 33.0729 7.01611 25.9999 7.01611Z" fill="#5F5F5F"/>
</g>
</g>
</svg>
