<svg width="52" height="52" viewBox="0 0 52 52" fill="none" xmlns="http://www.w3.org/2000/svg">
<g id="hair-74">
<g id="74">
<path id="Vector" d="M26 39.8151C26.335 39.8151 33.125 37.0001 33.125 37.0001L34.125 40.0001L36.625 36.8751L37.544 39.7301C39.1011 38.255 40.293 36.4372 41.025 34.4211C42.777 28.6701 41.45 24.1551 40.232 20.4991C38.375 14.9311 33.072 8.43408 26 8.43408C18.928 8.43408 13.623 14.9311 11.767 20.5001C10.549 24.1561 9.22197 28.6711 10.974 34.4221C11.7059 36.4382 12.8978 38.256 14.455 39.7311L15.374 36.8761L17.874 40.0001L18.874 37.0001C18.874 37.0001 25.664 39.8151 26 39.8151Z" fill="#5F5F5F"/>
<path id="Vector_2" d="M25.9999 11.0898C18.9609 11.0898 14.6399 17.4138 15.1709 26.0948C15.6349 33.6738 20.0429 39.0108 25.9999 39.0108C31.9559 39.0108 36.3649 33.6738 36.8279 26.0948C37.3589 17.4138 33.0369 11.0898 25.9999 11.0898Z" fill="white" stroke="#BFBFBF" stroke-width="2.475"/>
<path id="Vector_3" d="M13.1309 27.638C13.1309 27.638 25.3799 24.938 31.5669 15.267C32.3385 17.535 33.2424 19.7558 34.2739 21.918C36.6419 26.518 39.4589 27.638 39.4589 27.638L36.1309 13.333L26.9999 8.77002L19.4199 10.626L13.4829 18.446L13.1309 27.638Z" fill="#5F5F5F"/>
</g>
</g>
</svg>
