<svg width="52" height="52" viewBox="0 0 52 52" fill="none" xmlns="http://www.w3.org/2000/svg">
<g id="hair-89">
<g id="89">
<path id="Vector" d="M25.9989 25.423L38.1249 27.583L34.9999 38L32.8329 36.957L29.9109 38.124L25.9989 36.874L22.0889 38.124L19.1659 36.957L16.9999 38L13.8739 27.583L25.9989 25.423ZM12.1069 20.307L13.5769 22.691L15.3609 22.808L16.0169 17.994L14.3909 17.749L12.1069 20.307Z" fill="#5F5F5F"/>
<path id="Vector_2" d="M11.813 25.25L13.25 28.125L15.912 27.507L15.938 23.462L13.494 23.5L11.813 25.25ZM39.892 20.307L38.422 22.691L36.638 22.808L35.982 17.994L37.608 17.749L39.892 20.307ZM40.187 25.25L38.749 28.125L36.087 27.507L36.062 23.462L38.505 23.5L40.187 25.25Z" fill="#5F5F5F"/>
<path id="Vector_3" d="M25.9999 11.1172C18.9619 11.1172 14.6399 17.4402 15.1709 26.1172C15.6389 33.7002 20.0469 39.0382 25.9999 39.0382C31.9559 39.0382 36.3649 33.7012 36.8279 26.1212C37.3629 17.4402 33.0419 11.1172 25.9999 11.1172Z" fill="white" stroke="#BFBFBF" stroke-width="2.475"/>
<path id="Vector_4" d="M15.249 16.875L16.374 18L19.374 14.875L18.999 12.375L19.749 11.875L21.624 14L24.624 13.375L25.999 9.83L21.999 9.25L19.832 11.666L18.749 12.375L15.374 13.625L15.249 16.875ZM36.75 16.875L35.625 18L32.625 14.875L33 12.375L32.25 11.875L30.375 14L27.375 13.375L25.999 9.83L30 9.25L32.167 11.666L33.25 12.375L36.625 13.625L36.75 16.875Z" fill="#5F5F5F"/>
</g>
</g>
</svg>
