<svg width="52" height="52" viewBox="0 0 52 52" fill="none" xmlns="http://www.w3.org/2000/svg">
<g id="hair-85">
<g id="85">
<path id="Vector" d="M12.5872 29.6592L11.5872 38.3222L17.0002 43.3852L16.7122 39.5602L21.0002 44.1722L23.0002 39.5602L26.0002 43.6252L29.0002 39.5602L31.0002 44.1722L35.2882 39.5602L35.0012 43.3852L40.4132 38.3222L39.4132 29.6592" fill="#5F5F5F"/>
<path id="Vector_2" d="M26.0001 11.2871C18.9611 11.2871 14.6401 17.6101 15.1711 26.2871C15.6351 33.8671 20.0441 39.2041 26.0001 39.2041C31.9561 39.2041 36.3641 33.8671 36.8281 26.2871C37.3601 17.6101 33.0381 11.2871 26.0001 11.2871Z" fill="white" stroke="#BFBFBF" stroke-width="2.475"/>
<path id="Vector_3" d="M35.9001 11.828C37.5161 13.617 38.2741 16.497 39.4001 19.76C39.8941 21.2101 40.1966 22.7185 40.3001 24.247L42.8881 29.771C41.2546 32.0868 39.4848 34.3034 37.5881 36.409L35.2131 29.547L35.9001 25.159L30.1631 14.021C28.7991 14.474 27.4089 14.8437 26.0001 15.128V9.02796C28.9141 9.03296 33.0131 8.63096 35.9001 11.828ZM16.1001 11.828C14.4841 13.617 13.7261 16.497 12.6001 19.76C12.1061 21.2101 11.8035 22.7185 11.7001 24.247L9.11206 29.771C10.7455 32.0868 12.5153 34.3034 14.4121 36.409L16.7871 29.547L16.1001 25.159L21.8371 14.021C23.201 14.4741 24.5912 14.8437 26.0001 15.128V9.02796C23.0861 9.03296 18.9871 8.63096 16.1001 11.828Z" fill="#5F5F5F"/>
<path id="Vector_4" d="M17.75 19L18.625 25.5C18.625 25.5 27.625 19.75 31.375 14.125V11H18.75L17.75 19Z" fill="#5F5F5F"/>
</g>
</g>
</svg>
