<svg width="52" height="52" viewBox="0 0 52 52" fill="none" xmlns="http://www.w3.org/2000/svg">
<g id="hair-45">
<g id="45">
<path id="Vector" d="M26.0001 11.2C18.9611 11.2 14.6401 17.524 15.1711 26.205C15.6351 33.785 20.0441 39.1209 26.0001 39.1209C31.9561 39.1209 36.3641 33.785 36.8281 26.205C37.3601 17.525 33.0381 11.2 26.0001 11.2Z" fill="white" stroke="#BFBFBF" stroke-width="2.475"/>
<path id="Vector_2" d="M35.5911 14.141C34.4276 12.728 32.9619 11.594 31.302 10.8225C29.6422 10.051 27.8304 9.66157 26.0001 9.68298C24.1698 9.66143 22.358 10.0508 20.6981 10.8223C19.0382 11.5938 17.5726 12.7279 16.4091 14.141C12.7731 18.935 13.4601 26.114 13.4691 26.36L17.4141 17.544C17.4141 17.544 20.4301 15.455 26.0001 15.455C31.5691 15.455 34.5851 17.544 34.5851 17.544L38.5291 26.36C38.5401 26.114 39.2251 18.935 35.5911 14.141Z" fill="#5F5F5F"/>
</g>
</g>
</svg>
