<svg width="52" height="52" viewBox="0 0 52 52" fill="none" xmlns="http://www.w3.org/2000/svg">
<g id="hair-95">
<g id="95">
<path id="Vector" d="M26.0001 8.48389C33.0741 8.48389 38.5001 14.2959 39.9221 21.2929C41.3711 28.4169 42.4851 36.0269 33.2951 45.2189L32.2201 42.9259L30.3311 44.5939L29.9441 42.2729L26.0001 45.6929L22.0561 42.2729L21.6691 44.5939L19.7791 42.9259L18.7071 45.2189C9.51607 36.0269 10.6301 28.5189 12.0781 21.3909C13.5001 14.3999 18.9271 8.48389 26.0001 8.48389Z" fill="#5F5F5F"/>
<path id="Vector_2" d="M26.0001 11.3359C18.9621 11.3359 14.6411 17.6599 15.1721 26.3409C15.6351 33.9199 20.0441 39.2579 26.0001 39.2579C31.9561 39.2579 36.3641 33.9199 36.8281 26.3409C37.3601 17.6599 33.0381 11.3359 26.0001 11.3359Z" fill="white" stroke="#BFBFBF" stroke-width="2.475"/>
<path id="Vector_3" d="M26.0001 9.32471L31.9571 10.2537L34.9941 13.0367L39.9221 23.0917L38.1451 35.3117L36.2111 34.3847C37.9891 24.0977 35.5921 18.6847 35.5921 18.6847C35.5921 18.6847 28.0481 11.4997 26.0001 11.4997C23.9521 11.4997 16.4091 18.6837 16.4091 18.6837C16.4091 18.6837 14.0091 24.0977 15.7911 34.3837L13.8571 35.3107L12.0781 23.0907L17.0071 13.0357L20.0451 10.2527L26.0001 9.32471Z" fill="#5F5F5F"/>
<path id="Vector_4" d="M14 28C14 28 24.25 24.875 28.875 14.5C28.875 14.5 31.813 25.062 38 28L36.75 16.5L26 10.062L15.749 15.75L14 28Z" fill="#5F5F5F"/>
</g>
</g>
</svg>
