<svg width="52" height="52" viewBox="0 0 52 52" fill="none" xmlns="http://www.w3.org/2000/svg">
<g id="hair-26">
<g id="26">
<path id="Vector" d="M26.2821 11.1279C19.2431 11.1279 14.9221 17.4519 15.4531 26.1279C15.9171 33.7079 20.3261 39.0449 26.2821 39.0449C32.2371 39.0449 36.6461 33.7079 37.1101 26.1279C37.6421 17.4519 33.3201 11.1279 26.2821 11.1279Z" fill="white" stroke="#BFBFBF" stroke-width="2.475"/>
<path id="Vector_2" d="M26.2821 9.45582C29.5788 9.40284 32.7737 10.5978 35.2264 12.8011C37.6792 15.0044 39.2086 18.0534 39.5081 21.3368C39.8871 26.6188 39.1981 27.7568 37.7081 30.5608C37.7081 30.5608 36.9541 26.6738 36.2571 23.3478C35.6251 20.3278 35.0201 16.9288 35.0201 16.9288V22.3228H17.5421V16.9288C17.5421 16.9288 16.9361 20.3288 16.3041 23.3478C15.6041 26.6738 14.8541 30.5608 14.8541 30.5608C13.3651 27.7608 12.6761 26.6188 13.0541 21.3368C13.3537 18.053 14.8833 15.0038 17.3365 12.8004C19.7897 10.597 22.9851 9.40233 26.2821 9.45582Z" fill="#5F5F5F"/>
<path id="Vector_3" d="M35.3311 13.1389L30.1721 15.5189L25.8171 10.0449C26.4528 9.11162 27.301 8.3427 28.292 7.80148C29.283 7.26026 30.3884 6.96221 31.5171 6.93188C35.1281 7.01988 37.3871 9.86688 38.3661 12.5319C39.4221 15.4109 39.3661 20.4389 41.5911 21.7969C42.517 22.3772 43.5928 22.673 44.6851 22.6479C44.6851 22.6479 42.0091 27.9269 37.0281 23.0349L35.3311 13.1389Z" fill="#5F5F5F"/>
</g>
</g>
</svg>
