<svg width="52" height="52" viewBox="0 0 52 52" fill="none" xmlns="http://www.w3.org/2000/svg">
<g id="hair-83">
<g id="83">
<path id="Vector" d="M26 8.12718L18.58 7.43018L15.41 10.0012L12.181 12.1252L11.191 15.2512L8.50401 17.8272L9.55601 21.1672L7.83301 24.3342L9.64101 28.3342L8.86601 31.1672L12.482 34.6672L20.778 29.9132L26 33.7282M26 8.12718L33.42 7.43018L36.59 10.0012L39.82 12.1252L40.809 15.2512L43.496 17.8272L42.445 21.1672L44.168 24.3342L42.359 28.3342L43.135 31.1672L39.518 34.6672L31.223 29.9132L26 33.7282" fill="#5F5F5F"/>
<path id="Vector_2" d="M26 11.127C18.962 11.127 14.64 17.451 15.172 26.132C15.636 33.712 20.045 39.049 26 39.049C31.955 39.049 36.365 33.712 36.829 26.132C37.36 17.451 33.039 11.127 26 11.127Z" fill="white" stroke="#BFBFBF" stroke-width="2.475"/>
<path id="Vector_3" d="M26.0001 8.34326L17.8001 10.8183L13.3151 17.1603L12.4651 26.2873L15.6651 24.0873L16.4981 20.1713L20.8321 17.2543C21.7077 16.1733 22.4623 14.9997 23.0821 13.7543L26.0001 13.8353M26.0001 8.34326L34.2001 10.8183L38.6871 17.1603L39.5361 26.2873L36.3361 24.0873L35.5001 20.1683L31.1661 17.2513C30.2904 16.1703 29.5359 14.9967 28.9161 13.7513L26.0001 13.8353" fill="#5F5F5F"/>
</g>
</g>
</svg>
