<svg width="52" height="52" viewBox="0 0 52 52" fill="none" xmlns="http://www.w3.org/2000/svg">
<g id="hair-71">
<g id="71">
<path id="Vector" d="M39.516 28.459L41.47 23.509L40.062 21.266C38.657 14.537 33.146 8.67505 26 8.67505C18.854 8.67505 13.344 14.537 11.937 21.266L10.531 23.509L12.484 28.459L10.766 32.48L14.359 36.1931L13.814 39.132L16.391 43.772L17.8 40.6L21.676 44.2351L23.63 41.861L26 44.237L28.344 41.8941L30.328 44.237L34.2 40.6L35.606 43.7701L38.185 39.1301L37.637 36.1911L41.231 32.4781L39.516 28.459Z" fill="#5F5F5F"/>
<path id="Vector_2" d="M26.0001 11.2881C18.9621 11.2881 14.6411 17.6121 15.1721 26.2931C15.6361 33.8731 20.0451 39.2101 26.0001 39.2101C31.9551 39.2101 36.3641 33.8731 36.8281 26.2931C37.3601 17.6121 33.0391 11.2881 26.0001 11.2881Z" fill="white" stroke="#BFBFBF" stroke-width="2.475"/>
<path id="Vector_3" d="M12.9289 27.7631C12.9289 27.7631 21.2819 23.5091 23.4469 18.9451L22.2869 22.8901L28.4749 18.7901C31.3983 22.1389 34.6648 25.1718 38.2209 27.8391L39.7679 21.4201L34.9679 12.9891L26.6999 8.89111L17.8789 11.8301L12.2319 21.1111L12.9289 27.7631Z" fill="#5F5F5F"/>
</g>
</g>
</svg>
