<svg width="52" height="52" viewBox="0 0 52 52" fill="none" xmlns="http://www.w3.org/2000/svg">
<g id="hair-50">
<g id="50">
<path id="Vector" d="M37.6791 23.0269L36.0551 40.5849L30.5641 39.4249L26.0001 41.0489L21.4361 39.4249L15.9441 40.5849L14.3201 23.0269" fill="#5F5F5F"/>
<path id="Vector_2" d="M26.0001 11.116C18.9611 11.116 14.6401 17.44 15.1711 26.121C15.6351 33.7 20.0441 39.038 26.0001 39.038C31.9561 39.038 36.3641 33.701 36.8281 26.121C37.3601 17.44 33.0381 11.116 26.0001 11.116Z" fill="white" stroke="#BFBFBF" stroke-width="2.475"/>
<path id="Vector_3" d="M26.0001 8.73389C33.2491 8.73389 38.1271 13.3589 39.0781 20.0889L42.0101 23.8779C40.512 24.417 38.9091 24.6003 37.328 24.4132C35.7469 24.2261 34.231 23.6738 32.9001 22.7999C30.0847 20.7955 27.7319 18.2107 26.0001 15.2199C24.2685 18.2108 21.9156 20.7956 19.1001 22.7999C17.769 23.6752 16.2523 24.2287 14.6703 24.4165C13.0882 24.6043 11.4842 24.4212 9.98511 23.8819L12.9171 20.0929C13.8731 13.3589 18.7511 8.73389 26.0001 8.73389Z" fill="#5F5F5F"/>
</g>
</g>
</svg>
