<svg width="52" height="52" viewBox="0 0 52 52" fill="none" xmlns="http://www.w3.org/2000/svg">
<g id="hair-120">
<g id="120">
<path id="Vector" d="M39.0711 22.8999C39.0711 22.8999 39.6891 37.6719 41.1591 39.6829C39.4025 39.1341 37.6962 38.4356 36.0591 37.5949L36.8321 41.7709L30.6451 39.0639L26.0001 42.9999L21.3591 39.0549L15.1711 41.7619L15.9451 37.5859C14.3063 38.4267 12.5984 39.1253 10.8401 39.6739C12.3091 37.6669 12.9281 22.8999 12.9281 22.8999" fill="#5F5F5F"/>
<path id="Vector_2" d="M26.0001 11.2148C18.9611 11.2148 14.6401 17.5388 15.1711 26.2198C15.6351 33.7998 20.0441 39.1368 26.0001 39.1368C31.9561 39.1368 36.3641 33.7998 36.8281 26.2198C37.3601 17.5388 33.0381 11.2148 26.0001 11.2148Z" fill="white" stroke="#BFBFBF" stroke-width="2.475"/>
<path id="Vector_3" d="M26.0002 22.6879L28.2502 20.0619L30.2502 22.8119L32.1882 19.9999C33.1756 20.8413 34.2672 21.5522 35.4362 22.1149C36.1362 24.4349 35.5132 32.9489 35.5132 32.9489C38.6842 30.9379 40.4402 27.1749 39.6132 21.0379C38.6842 14.1539 31.8782 8.75586 26.0002 8.75586C20.1222 8.75586 13.3152 14.1559 12.3872 21.0379C11.5592 27.1749 13.3152 30.9379 16.4872 32.9489C16.4872 32.9489 15.8682 24.4349 16.5642 22.1149C17.7332 21.5523 18.8249 20.8415 19.8122 19.9999L21.7492 22.8119L23.7492 20.0619L26.0002 22.6879Z" fill="#5F5F5F"/>
</g>
</g>
</svg>
