<svg width="52" height="52" viewBox="0 0 52 52" fill="none" xmlns="http://www.w3.org/2000/svg">
<g id="hair-100">
<g id="100">
<path id="Vector" d="M26.0001 45.6002C29.9131 45.6002 35.8231 44.9002 37.6001 42.1192C39.1741 39.6542 37.6001 36.3962 37.6001 36.3962L37.4161 32.6112H38.5301C38.5301 32.6112 40.6181 29.5892 39.5201 21.4042C38.4221 13.2192 33.0731 8.53516 26.0001 8.53516C18.9271 8.53516 13.5781 13.2172 12.4801 21.4002C11.3821 29.5832 13.4691 32.6072 13.4691 32.6072H14.5801L14.4001 36.3942C14.4001 36.3942 12.8261 39.6522 14.4001 42.1172C16.1761 44.9002 22.0861 45.6002 26.0001 45.6002Z" fill="#5F5F5F"/>
<path id="Vector_2" d="M26.0001 11.334C18.9611 11.334 14.6401 17.658 15.1711 26.339C15.6351 33.918 20.0431 39.255 26.0001 39.255C31.9551 39.255 36.3651 33.918 36.8281 26.339C37.3601 17.658 33.0381 11.334 26.0001 11.334Z" fill="white" stroke="#BFBFBF" stroke-width="2.475"/>
<path id="Vector_3" d="M26 23.941C30.266 24.007 34.115 23.895 35.963 24.195V32.551H38.375L39 24.012L38.512 18.612L32.418 10.712L26 9.12305L19.58 10.715L13.488 18.615L12.998 24.015L13.625 32.554H16.037V24.2C19.3487 23.8934 22.677 23.8069 26 23.941Z" fill="#5F5F5F"/>
</g>
</g>
</svg>
