<svg width="52" height="52" viewBox="0 0 52 52" fill="none" xmlns="http://www.w3.org/2000/svg">
<g id="hair-19">
<g id="19">
<path id="Vector" d="M16.927 29.2C14.7218 30.9895 13.1559 33.4455 12.464 36.2C10.986 42.6 7.97803 43.548 7.97803 43.548C7.97803 43.548 13.178 46.371 16.254 43.47C18.961 40.918 19.463 34.724 22.132 32.951L16.927 29.2ZM35.072 29.2C37.2772 30.9895 38.8431 33.4455 39.535 36.2C41.013 42.6 44.021 43.548 44.021 43.548C44.021 43.548 38.821 46.371 35.745 43.47C33.038 40.918 32.536 34.724 29.867 32.951L35.072 29.2Z" fill="#5F5F5F"/>
<path id="Vector_2" d="M13.14 28.2309L26 36.2699L38.669 28.2309C38.9981 27.0034 39.1642 25.7378 39.163 24.4669V22.0669C39.1687 19.3007 38.3316 16.5984 36.763 14.3199C35.6052 12.5178 34.0132 11.0354 32.1332 10.0088C30.2533 8.98211 28.1456 8.44409 26.0035 8.44409C23.8615 8.44409 21.7538 8.98211 19.8739 10.0088C17.9939 11.0354 16.4019 12.5178 15.244 14.3199C13.676 16.5987 12.8389 19.3008 12.844 22.0669V24.4669C12.8414 25.7275 12.9404 26.9863 13.14 28.2309Z" fill="#5F5F5F"/>
<path id="Vector_3" d="M26.0001 11.2878C18.9611 11.2878 14.6401 17.6118 15.1711 26.2928C15.6351 33.8728 20.0441 39.2088 26.0001 39.2088C31.9561 39.2088 36.3641 33.8728 36.8281 26.2928C37.3601 17.6118 33.0381 11.2878 26.0001 11.2878Z" fill="white" stroke="#BFBFBF" stroke-width="2.475"/>
<path id="Vector_4" d="M13.14 28.2309C13.14 28.2309 25.377 21.0869 31.34 15.9309L38.673 28.2309C39.002 27.0034 39.1681 25.7378 39.167 24.4669V22.0669C39.1727 19.3007 38.3355 16.5984 36.767 14.3199C35.6091 12.5178 34.0172 11.0354 32.1372 10.0088C30.2573 8.98211 28.1495 8.44409 26.0075 8.44409C23.8655 8.44409 21.7578 8.98211 19.8778 10.0088C17.9979 11.0354 16.4059 12.5178 15.248 14.3199C13.68 16.5987 12.8429 19.3008 12.848 22.0669V24.4669C12.844 25.7274 12.9417 26.9862 13.14 28.2309Z" fill="#5F5F5F"/>
</g>
</g>
</svg>
