<svg width="52" height="52" viewBox="0 0 52 52" fill="none" xmlns="http://www.w3.org/2000/svg">
<g id="hair-37">
<g id="37">
<path id="Vector" d="M25.9999 11.25C18.9609 11.25 14.6399 17.574 15.1709 26.255C15.6349 33.835 20.0439 39.171 25.9999 39.171C31.9559 39.171 36.3639 33.835 36.8279 26.255C37.3599 17.574 33.0379 11.25 25.9999 11.25Z" fill="white" stroke="#BFBFBF" stroke-width="2.475"/>
<path id="Vector_2" d="M40.143 22.1591C40.143 15.0861 33.073 9.55908 26 9.55908C18.927 9.55908 11.856 15.0861 11.856 22.1591C11.856 22.1591 11.323 27.5861 14.169 31.1441L17.669 22.6031L20.369 25.6281L23.287 22.3381L25.987 25.5381L28.687 22.3381L31.605 25.6281L34.305 22.6031L37.805 31.1441C40.676 27.5861 40.143 22.1591 40.143 22.1591Z" fill="#5F5F5F"/>
</g>
</g>
</svg>
