<svg width="52" height="52" viewBox="0 0 52 52" fill="none" xmlns="http://www.w3.org/2000/svg">
<g id="hair-31">
<g id="31">
<path id="Vector" d="M26.0001 11.1689C18.9611 11.1689 14.6401 17.4929 15.1711 26.1739C15.6351 33.7529 20.0441 39.0899 26.0001 39.0899C31.9561 39.0899 36.3641 33.7529 36.8281 26.1739C37.3601 17.4929 33.0381 11.1689 26.0001 11.1689Z" fill="white" stroke="#BFBFBF" stroke-width="2.475"/>
<path id="Vector_2" d="M26 6.4519L28.887 9.0819L35.436 7.6369L36.777 13.5159L41.469 16.5059L39.38 22.3059L41.314 24.6259L39.69 27.0059L38.065 30.9699H36.287L36.673 21.0699L33.58 18.3629L31.336 14.9629C29.5854 14.5698 27.794 14.3868 26 14.4179C24.2055 14.3855 22.4135 14.5671 20.662 14.9589L18.419 18.3589L15.326 21.0699L15.712 30.9699H13.934L12.309 27.0059L10.685 24.6269L12.619 22.3069L10.53 16.5069L15.222 13.5169L16.563 7.6379L23.112 9.0829L26 6.4519Z" fill="#5F5F5F"/>
</g>
</g>
</svg>
