<svg width="52" height="52" viewBox="0 0 52 52" fill="none" xmlns="http://www.w3.org/2000/svg">
<g id="hair-62">
<g id="62">
<path id="Vector" d="M26.007 11.1758C18.969 11.1758 14.648 17.4998 15.179 26.1808C15.642 33.7608 20.05 39.0998 26.006 39.0998C31.961 39.0998 36.37 33.7628 36.834 26.1828C37.367 17.4998 33.045 11.1758 26.007 11.1758Z" fill="white" stroke="#BFBFBF" stroke-width="2.475"/>
<path id="Vector_2" d="M36.0309 21.9269V30.8209H38.5059V28.0369L40.0529 26.2579L38.5829 24.6339L40.9029 20.7669L38.4279 18.5999C36.4949 12.0999 33.0799 8.8999 26.0059 8.8999H26.1299C19.0569 8.8999 15.6419 12.0999 13.7089 18.5999L11.2329 20.7649L13.5539 24.6319L12.0839 26.2559L13.6309 28.0349V30.8189H16.1059V21.9269C19.9398 21.9633 23.7101 20.9467 27.0059 18.9879L26.0059 21.9269C28.689 21.8506 31.2608 20.8381 33.2759 19.0649L32.8119 21.0759L35.5189 20.4569L36.0309 21.9269Z" fill="#5F5F5F"/>
</g>
</g>
</svg>
