<svg width="52" height="52" viewBox="0 0 52 52" fill="none" xmlns="http://www.w3.org/2000/svg">
<g id="hair-17">
<g id="17">
<path id="Vector" d="M25.9999 45.821L29.0939 42.239L31.4939 44.756C33.2761 43.6704 34.7838 42.1883 35.8999 40.425C36.863 38.8906 37.5198 37.1842 37.8339 35.4L38.8099 36.668C38.8099 36.668 40.2579 35.304 40.8499 30.62C41.171 27.5069 40.9822 24.3623 40.2909 21.31C40.2909 14.234 33.0729 8.5 25.9999 8.5C18.9269 8.5 11.7089 14.234 11.7089 21.308C11.0188 24.3605 10.83 27.5049 11.1499 30.618C11.7439 35.302 13.1909 36.666 13.1909 36.666L14.1659 35.398C14.4803 37.1827 15.1371 38.8897 16.0999 40.425C17.2174 42.1882 18.726 43.6702 20.5089 44.756L22.9089 42.239L25.9999 45.821Z" fill="#5F5F5F"/>
<path id="Vector_2" d="M25.9999 11.343C18.9619 11.343 14.6409 17.668 15.1719 26.348C15.6359 33.928 20.0449 39.265 25.9999 39.265C31.9549 39.265 36.3639 33.928 36.8279 26.348C37.3599 17.668 33.0389 11.343 25.9999 11.343Z" fill="white" stroke="#BFBFBF" stroke-width="2.475"/>
<path id="Vector_3" d="M25.9999 14.489C26.7635 16.2906 28.0947 17.7934 29.7909 18.769C31.4695 19.6574 33.3023 20.2171 35.1909 20.418C35.1909 20.418 36.0559 27.818 34.9729 30.679C34.9729 30.679 38.9269 29.727 39.9949 28.246L39.2239 19.588L35.0739 11.879L25.9999 9.68604L16.9279 11.879L12.7759 19.588L12.0059 28.246C13.0729 29.727 17.0279 30.679 17.0279 30.679C15.9449 27.817 16.8099 20.418 16.8099 20.418C18.6984 20.2172 20.5313 19.6575 22.2099 18.769C23.9059 17.7936 25.2368 16.2907 25.9999 14.489Z" fill="#5F5F5F"/>
</g>
</g>
</svg>
