<svg width="52" height="52" viewBox="0 0 52 52" fill="none" xmlns="http://www.w3.org/2000/svg">
<g id="hair-23">
<g id="23">
<path id="Vector" d="M26.0001 11.282C18.9621 11.282 14.6411 17.606 15.1721 26.282C15.6361 33.866 20.0451 39.2 26.0001 39.2C31.9551 39.2 36.3641 33.863 36.8281 26.283C37.3601 17.606 33.0391 11.282 26.0001 11.282Z" fill="white" stroke="#BFBFBF" stroke-width="2.475"/>
<path id="Vector_2" d="M26 10.0441C27.5353 10.0178 29.059 10.3138 30.4728 10.9129C31.8866 11.5119 33.159 12.4008 34.208 13.5221C37.019 16.5101 38.389 21.0701 38.064 26.3621L37.964 25.2811H37.6C37.241 20.5371 33.6 14.6941 33.6 14.6941C31.0948 15.1677 28.5496 15.3978 26 15.3811C23.4505 15.3979 20.9053 15.1678 18.4 14.6941C18.4 14.6941 14.76 20.5371 14.4 25.2811H14.04L13.94 26.3621C13.615 21.0701 14.985 16.5101 17.796 13.5221C18.8447 12.4015 20.1165 11.513 21.5296 10.914C22.9426 10.3149 24.4655 10.0186 26 10.0441Z" fill="#5F5F5F"/>
</g>
</g>
</svg>
