<svg width="52" height="52" viewBox="0 0 52 52" fill="none" xmlns="http://www.w3.org/2000/svg">
<g id="hair-21">
<g id="21">
<path id="Vector" d="M39.46 20.933C38.037 12.869 33.073 8.71704 26 8.71704C18.927 8.71704 13.962 12.869 12.539 20.933C11.229 28.355 8.77296 34.795 13.839 39.315C16.571 41.746 21.375 41.45 26 41.39C30.625 41.45 35.428 41.746 38.156 39.315C43.226 34.8 40.77 28.355 39.46 20.933Z" fill="#5F5F5F"/>
<path id="Vector_2" d="M25.9999 11.135C18.9609 11.135 14.6399 17.459 15.1709 26.14C15.6349 33.719 20.0439 39.056 25.9999 39.056C31.9559 39.056 36.3639 33.719 36.8279 26.14C37.3599 17.459 33.0379 11.135 25.9999 11.135Z" fill="white" stroke="#BFBFBF" stroke-width="2.475"/>
<path id="Vector_3" d="M18.2649 11.135L25.9999 9.25195L33.8109 11.367L37.4999 17.791L39.5789 27.93L37.7999 34.512L34.1229 22.3C31.4632 21.6643 28.7343 21.3643 25.9999 21.407C23.2654 21.363 20.5362 21.6617 17.8759 22.296L14.1999 34.512L12.4199 27.93L14.4999 17.791L18.2649 11.135Z" fill="#5F5F5F"/>
</g>
</g>
</svg>
