<svg width="52" height="52" viewBox="0 0 52 52" fill="none" xmlns="http://www.w3.org/2000/svg">
<g id="hair-90">
<g id="90">
<path id="Vector" d="M26.0001 39.8178C29.3361 39.8178 33.0381 40.8998 36.0551 41.0548C38.4362 41.2563 40.8137 40.6278 42.7841 39.2758C41.7738 38.6055 40.9427 37.6984 40.363 36.6335C39.7833 35.5686 39.4727 34.3782 39.4581 33.1658C39.5221 29.8408 40.0151 25.9658 39.4581 22.1048C38.3001 14.0618 33.0731 9.11182 26.0001 9.11182C18.9261 9.11182 13.7001 14.0618 12.5411 22.1048C11.9841 25.9678 12.4781 29.8408 12.5411 33.1658C12.5265 34.3782 12.2159 35.5686 11.6362 36.6335C11.0565 37.6984 10.2254 38.6055 9.21509 39.2758C11.1855 40.6278 13.563 41.2563 15.9441 41.0548C18.9611 40.8998 22.6631 39.8178 26.0001 39.8178Z" fill="#5F5F5F"/>
<path id="Vector_2" d="M26.0001 11.2769C18.9611 11.2769 14.6401 17.6019 15.1711 26.2829C15.6351 33.8619 20.0441 39.1999 26.0001 39.1999C31.9561 39.1999 36.3641 33.8629 36.8281 26.2839C37.3601 17.5999 33.0381 11.2769 26.0001 11.2769Z" fill="white" stroke="#BFBFBF" stroke-width="2.475"/>
<path id="Vector_3" d="M38.808 22.434C38.808 20.752 38.4767 19.0865 37.833 17.5326C37.1894 15.9786 36.2459 14.5667 35.0566 13.3774C33.8673 12.188 32.4553 11.2446 30.9014 10.6009C29.3474 9.95727 27.6819 9.62598 26 9.62598C24.318 9.62598 22.6525 9.95727 21.0986 10.6009C19.5446 11.2446 18.1327 12.188 16.9434 13.3774C15.754 14.5667 14.8106 15.9786 14.1669 17.5326C13.5233 19.0865 13.192 20.752 13.192 22.434C13.0012 24.9316 13.2112 27.4437 13.814 29.875L15.148 23.115L17.372 25.961L19.062 21.061L21.591 23.826L23.954 19.271L26 23.56L28.046 19.271L30.408 23.826L32.938 21.061L34.628 25.961L36.852 23.115L38.186 29.875C38.7887 27.4437 38.9987 24.9316 38.808 22.434Z" fill="#5F5F5F"/>
</g>
</g>
</svg>
