<svg width="52" height="52" viewBox="0 0 52 52" fill="none" xmlns="http://www.w3.org/2000/svg">
<g id="hair-58">
<g id="58">
<path id="Vector" d="M26 38.5999C34.121 38.5999 37.365 38.5889 40.148 34.8759C42.593 31.6149 41.517 26.9979 40.154 20.0259C38.761 12.9119 33.072 7.96191 26 7.96191C18.928 7.96191 13.238 12.9119 11.845 20.0269C10.482 26.9989 9.40598 31.6159 11.851 34.8769C14.634 38.5899 17.878 38.5999 26 38.5999Z" fill="#5F5F5F"/>
<path id="Vector_2" d="M25.9999 11.0559C18.9609 11.0559 14.6399 17.3789 15.1709 26.0559C15.6349 33.6399 20.0439 38.9769 25.9999 38.9769C31.9549 38.9769 36.3639 33.6399 36.8279 26.0599C37.3599 17.3789 33.0389 11.0559 25.9999 11.0559Z" fill="white" stroke="#BFBFBF" stroke-width="2.475"/>
<path id="Vector_3" d="M25.9999 8.27197L35.8229 12.447L39.3809 21.11L39.1489 32.866L37.3699 33.717C37.3699 33.717 34.8179 23.044 34.5849 18.944L28.9399 10.9L25.9999 10.359L23.0599 10.9L17.4149 18.944C17.1819 23.044 14.6299 33.717 14.6299 33.717L12.8509 32.866L12.6189 21.11L16.1769 12.447L25.9999 8.27197Z" fill="#5F5F5F"/>
</g>
</g>
</svg>
