<svg width="52" height="52" viewBox="0 0 52 52" fill="none" xmlns="http://www.w3.org/2000/svg">
<g id="hair-61">
<g id="61">
<path id="Vector" d="M39.2481 20.96C37.8871 13.812 33.2481 8.73901 26.1761 8.73901C19.1041 8.73901 14.4661 13.812 13.1051 20.96C13.1051 20.96 6.1441 43.003 26.1761 43.003C46.2081 43.003 39.2481 20.96 39.2481 20.96Z" fill="#5F5F5F"/>
<path id="Vector_2" d="M26.177 11.2151C19.139 11.2151 14.817 17.5381 15.349 26.2151C15.813 33.7951 20.222 39.1321 26.177 39.1321C32.132 39.1321 36.541 33.7951 37.005 26.2151C37.537 17.5381 33.215 11.2151 26.177 11.2151Z" fill="white" stroke="#BFBFBF" stroke-width="2.475"/>
<path id="Vector_3" d="M33.9111 39.6769L39.6341 29.9319L37.5451 17.7109L34.1451 12.1429L26.1001 8.8999L18.2101 12.1429L15.1161 17.6339L12.4861 29.3119L18.4411 39.6769C16.8624 36.5727 15.9409 33.1763 15.7341 29.6999C15.5801 24.4409 18.1711 16.3579 18.1711 16.3579C18.1711 16.3579 20.6851 17.4029 26.1711 17.4029C31.6571 17.4029 34.1771 16.3579 34.1771 16.3579C34.1771 16.3579 36.7731 24.4399 36.6181 29.6999C36.4113 33.1763 35.4898 36.5727 33.9111 39.6769Z" fill="#5F5F5F"/>
<path id="Vector_4" d="M38.9381 15.8549C41.6615 18.7761 43.2995 22.5438 43.5781 26.5279C43.8373 30.1602 43.031 33.7892 41.2581 36.9699L38.2421 30.6279L36.1531 17.2469L37.0821 14.0759L38.9381 15.8549Z" fill="#5F5F5F"/>
<path id="Vector_5" d="M34.8538 15.5432L37.6092 13.8616L38.8177 15.842L36.0623 17.5236L34.8538 15.5432Z" fill="#BFBFBF"/>
</g>
</g>
</svg>
