<svg width="52" height="52" viewBox="0 0 52 52" fill="none" xmlns="http://www.w3.org/2000/svg">
<g id="hair-18">
<g id="18">
<path id="Vector" d="M25.9999 11.0549C18.9609 11.0549 14.6399 17.3789 15.1709 26.0599C15.6349 33.6389 20.0439 38.9759 25.9999 38.9759C31.9559 38.9759 36.3639 33.6389 36.8279 26.0599C37.3599 17.3789 33.0379 11.0549 25.9999 11.0549Z" fill="white" stroke="#BFBFBF" stroke-width="2.475"/>
<path id="Vector_2" d="M25.9999 9.8938C22.6032 9.89353 19.3455 11.2426 16.9434 13.6441C14.5412 16.0457 13.1914 19.3031 13.1909 22.6998V27.9198L16.8079 20.9198C16.8079 20.9198 19.9509 18.3138 25.9999 18.3138C32.0489 18.3138 35.1899 20.9218 35.1899 20.9218L38.8079 27.9218V22.6998C38.8074 19.3033 37.4577 16.046 35.0558 13.6445C32.6539 11.2429 29.3965 9.8938 25.9999 9.8938Z" fill="#5F5F5F"/>
<path id="Vector_3" d="M31.218 11.6289C31.218 12.6612 30.9119 13.6703 30.3384 14.5285C29.7649 15.3868 28.9497 16.0558 27.996 16.4507C27.0423 16.8457 25.9929 16.949 24.9805 16.7476C23.9681 16.5461 23.0381 16.0489 22.3083 15.3189C21.5784 14.589 21.0815 13.6589 20.8802 12.6465C20.6789 11.634 20.7824 10.5846 21.1776 9.63099C21.5728 8.67736 22.2418 7.86234 23.1002 7.28899C23.9586 6.71564 24.9678 6.40971 26 6.40991C26.6854 6.40991 27.364 6.54491 27.9971 6.8072C28.6302 7.0695 29.2055 7.45394 29.6901 7.93858C30.1746 8.42322 30.559 8.99857 30.8211 9.63176C31.0833 10.265 31.2182 10.9436 31.218 11.6289Z" fill="#5F5F5F"/>
</g>
</g>
</svg>
