<svg width="52" height="52" viewBox="0 0 52 52" fill="none" xmlns="http://www.w3.org/2000/svg">
<g id="hair-1">
<g id="1">
<path id="Vector" d="M25.9999 11.032C18.9609 11.032 14.6399 17.357 15.1709 26.037C15.6349 33.617 20.0439 38.954 25.9999 38.954C31.9549 38.954 36.3629 33.617 36.8279 26.037C37.3599 17.357 33.0389 11.032 25.9999 11.032Z" fill="white" stroke="#BFBFBF" stroke-width="2.475"/>
<path id="Vector_2" d="M13.14 28.9999L16.215 25.7289C16.215 25.7289 27.778 23.5049 33.738 18.3459L36.05 21.7259L38.669 29.8999C38.9999 28.5207 39.1677 27.1073 39.169 25.6889V23.2889C39.174 20.5225 38.337 17.8201 36.769 15.5409C35.6108 13.7391 34.0187 12.2569 32.1387 11.2304C30.2587 10.2039 28.151 9.66602 26.009 9.66602C23.867 9.66602 21.7593 10.2039 19.8793 11.2304C17.9993 12.2569 16.4071 13.7391 15.249 15.5409C13.681 17.8201 12.8439 20.5225 12.849 23.2889V25.6889C12.8452 26.7992 12.9426 27.9074 13.14 28.9999Z" fill="#5F5F5F"/>
<path id="Vector_3" d="M34.8949 8.89098L31.7519 11.144L30.8039 7.58598L27.7909 9.43598L25.9999 6.10498L24.2089 9.43598L21.1959 7.58598L20.2479 11.144L17.1049 8.89098L16.9199 13.848L20.0699 15.473L25.9999 15.176L31.9299 15.473L35.0799 13.848L34.8949 8.89098Z" fill="#5F5F5F"/>
</g>
</g>
</svg>
