<svg width="52" height="52" viewBox="0 0 52 52" fill="none" xmlns="http://www.w3.org/2000/svg">
<g id="hair-125">
<g id="125">
<path id="Vector" d="M26 22.6772L38.2719 23.0902L41.6759 29.0702L39.813 29.6882L40.25 36.6252L38.938 34.8132L38.438 38.0002L36.375 37.0002L34.375 39.6252L26 35.9382L17.626 39.6252L15.626 37.0002L13.563 38.0002L13.063 34.8132L11.751 36.6252L12.188 29.6882L10.325 29.0702L13.729 23.0902L26 22.6772Z" fill="#5F5F5F"/>
<path id="Vector_2" d="M25.9999 11.1001C18.9609 11.1001 14.6399 17.4231 15.1709 26.1001C15.6349 33.6851 20.0439 39.0211 25.9999 39.0211C31.9569 39.0211 36.3649 33.6851 36.8289 26.1061C37.3609 17.4251 33.0389 11.1001 25.9999 11.1001Z" fill="white" stroke="#BFBFBF" stroke-width="2.475"/>
<path id="Vector_3" d="M26 8.86002L36.9609 6.52002L34.727 10.67L42.1759 13.969L38.707 16.48L42.1759 28.867L39.875 29.75L38.375 23.125L36.75 29.375L28.084 13.083L26.002 13.833H26L23.917 13.083L15.251 29.375L13.626 23.125L12.126 29.75L9.82495 28.867L13.294 16.48L9.82495 13.969L17.274 10.67L15.04 6.52002L26 8.86002Z" fill="#5F5F5F"/>
</g>
</g>
</svg>
