<svg width="52" height="52" viewBox="0 0 52 52" fill="none" xmlns="http://www.w3.org/2000/svg">
<g id="hair-116">
<g id="116">
<path id="Vector" d="M26 38.5999C34.121 38.5999 37.365 38.5889 40.149 34.8759C42.595 31.6149 41.519 26.9979 40.155 20.0259C38.762 12.9119 33.072 7.96191 26 7.96191C18.928 7.96191 13.238 12.9119 11.846 20.0269C10.481 26.9999 9.40003 31.6159 11.851 34.8769C14.635 38.5899 17.878 38.5999 26 38.5999Z" fill="#5F5F5F"/>
<path id="Vector_2" d="M26.0001 11.0562C18.9621 11.0562 14.6411 17.3792 15.1721 26.0562C15.6351 33.6402 20.0441 38.9772 26.0001 38.9772C31.9551 38.9772 36.3641 33.6402 36.8281 26.0602C37.3591 17.3792 33.0381 11.0562 26.0001 11.0562Z" fill="white" stroke="#BFBFBF" stroke-width="2.475"/>
<path id="Vector_3" d="M25.9999 8.271L35.8229 12.447L39.3819 21.11L39.1489 32.866L37.3699 33.717C37.3699 33.717 35.3009 28.817 34.1249 25.062C32.8129 20.875 30.4379 12.25 30.4379 12.25C26.3407 15.2765 22.8076 18.9999 19.9999 23.25C17.8434 26.5385 16.0433 30.0473 14.6299 33.717L12.8509 32.866L12.6179 21.11L16.1769 12.447L25.9999 8.271Z" fill="#5F5F5F"/>
</g>
</g>
</svg>
