<svg width="52" height="52" viewBox="0 0 52 52" fill="none" xmlns="http://www.w3.org/2000/svg">
<g id="hair-117">
<g id="117">
<path id="Vector" d="M38.143 29.0469L35.9 44.5939L32.265 40.2619L26 45.2889L19.735 40.2619L16.099 44.5939L13.856 29.0469" fill="#5F5F5F"/>
<path id="Vector_2" d="M25.9999 11.3359C18.9609 11.3359 14.6399 17.6589 15.1709 26.3359C15.6349 33.9199 20.0439 39.2569 25.9999 39.2569C31.9559 39.2569 36.3639 33.9199 36.8279 26.3399C37.3599 17.6589 33.0379 11.3359 25.9999 11.3359Z" fill="white" stroke="#BFBFBF" stroke-width="2.475"/>
<path id="Vector_3" d="M25.9999 8.87598C31.8779 8.87598 38.5649 14.291 39.6119 21.158C40.1967 25.6658 39.72 30.248 38.2199 34.539C38.2199 34.539 34.2779 19.129 31.9999 16.312C29.6249 13.375 25.9999 15.125 25.9999 15.125C25.9999 15.125 22.3749 13.375 19.9999 16.312C17.7219 19.129 13.7789 34.539 13.7789 34.539C12.2793 30.2479 11.8026 25.6659 12.3869 21.158C13.4339 14.291 20.1209 8.87598 25.9999 8.87598Z" fill="#5F5F5F"/>
</g>
</g>
</svg>
