<svg width="52" height="52" viewBox="0 0 52 52" fill="none" xmlns="http://www.w3.org/2000/svg">
<g id="hair-110">
<g id="110">
<path id="Vector" d="M39.2539 23.1108C39.2539 23.1108 39.3459 30.0198 40.6759 33.5178C42.3669 37.9648 41.3869 42.4118 38.0969 45.1678L36.1399 40.9878C35.2262 42.4457 33.8928 43.593 32.3149 44.2788C30.3256 45.1584 28.1745 45.6128 25.9994 45.6128C23.8243 45.6128 21.6732 45.1584 19.6839 44.2788C18.1064 43.5927 16.7734 42.4455 15.8599 40.9878L13.8999 45.1678C10.6089 42.4118 9.6299 37.9678 11.3199 33.5178C12.6499 30.0178 12.7429 23.1108 12.7429 23.1108H39.2539Z" fill="#5F5F5F"/>
<path id="Vector_2" d="M25.9999 11.3101C18.9609 11.3101 14.6399 17.6351 15.1709 26.3151C15.6349 33.9001 20.0439 39.2301 25.9999 39.2301C31.9559 39.2301 36.3639 33.8951 36.8279 26.3151C37.3599 17.6351 33.0379 11.3101 25.9999 11.3101Z" fill="white" stroke="#BFBFBF" stroke-width="2.475"/>
<path id="Vector_3" d="M39.4309 19.1389C38.9214 15.972 37.2781 13.0983 34.8072 11.0529C32.3363 9.00757 29.2063 7.93 25.9999 8.02095C22.7937 7.93004 19.6637 9.00763 17.193 11.053C14.7223 13.0984 13.0792 15.9721 12.5699 19.1389C11.5909 24.6529 11.0569 28.0329 8.38892 29.6389C8.38892 29.6389 14.6829 30.3509 18.1519 23.6799C20.4279 19.3019 20.2639 17.2799 20.2639 17.2799L25.9999 15.0469L31.7359 17.2709C31.7359 17.2709 31.5729 19.2969 33.8489 23.6709C37.3179 30.3419 43.6109 29.6299 43.6109 29.6299C40.9429 28.0329 40.4099 24.6529 39.4309 19.1389Z" fill="#5F5F5F"/>
<path id="Vector_4" d="M34 21.125L31.333 25.125L28.666 21.125L26 25.125L23.333 21.125L20.666 25.125L18 21.125V12.916H34.041L34 21.125Z" fill="#5F5F5F"/>
</g>
</g>
</svg>
