<svg width="52" height="52" viewBox="0 0 52 52" fill="none" xmlns="http://www.w3.org/2000/svg">
<g id="hair-92">
<g id="92">
<path id="Vector" d="M38.3801 28.1851C37.4036 28.1851 36.4491 28.4746 35.6372 29.0172C34.8253 29.5597 34.1925 30.3308 33.8188 31.233C33.4452 32.1352 33.3475 33.1279 33.5381 34.0856C33.7286 35.0433 34.1989 35.923 34.8895 36.6134C35.58 37.3038 36.4598 37.7739 37.4176 37.9643C38.3753 38.1547 39.368 38.0568 40.2701 37.683C41.1722 37.3091 41.9432 36.6762 42.4856 35.8642C43.0279 35.0522 43.3173 34.0975 43.3171 33.1211C43.3171 32.4728 43.1894 31.8308 42.9413 31.2319C42.6932 30.633 42.3295 30.0888 41.871 29.6304C41.4126 29.1721 40.8683 28.8085 40.2694 28.5605C39.6704 28.3125 39.0284 28.1849 38.3801 28.1851ZM38.3801 28.1851C37.4036 28.1851 36.4491 28.4746 35.6372 29.0172C34.8253 29.5597 34.1925 30.3308 33.8188 31.233C33.4452 32.1352 33.3475 33.1279 33.5381 34.0856C33.7286 35.0433 34.1989 35.923 34.8895 36.6134C35.58 37.3038 36.4598 37.7739 37.4176 37.9643C38.3753 38.1547 39.368 38.0568 40.2701 37.683C41.1722 37.3091 41.9432 36.6762 42.4856 35.8642C43.0279 35.0522 43.3173 34.0975 43.3171 33.1211C43.3171 32.4728 43.1894 31.8308 42.9413 31.2319C42.6932 30.633 42.3295 30.0888 41.871 29.6304C41.4126 29.1721 40.8683 28.8085 40.2694 28.5605C39.6704 28.3125 39.0284 28.1849 38.3801 28.1851Z" fill="#5F5F5F"/>
<path id="Vector_2" d="M26.1471 11.2642C19.1081 11.2642 14.7871 17.5882 15.3181 26.2692C15.7831 33.8492 20.1911 39.1852 26.1471 39.1852C32.1021 39.1852 36.5111 33.8492 36.9751 26.2692C37.5061 17.5882 33.1851 11.2642 26.1471 11.2642Z" fill="white" stroke="#BFBFBF" stroke-width="2.475"/>
<path id="Vector_3" d="M26.0001 14L36.5701 24.281L39.0161 24.781V23.281C39.0213 20.5146 38.1842 17.8121 36.6161 15.533C35.4895 13.7348 33.9244 12.2522 32.0679 11.2245C30.2113 10.1969 28.1241 9.65771 26.0021 9.65771C23.88 9.65771 21.7928 10.1969 19.9363 11.2245C18.0797 12.2522 16.5147 13.7348 15.3881 15.533C13.8199 17.8121 12.9828 20.5146 12.9881 23.281V24.781L15.4341 24.281L26.0001 14Z" fill="#5F5F5F"/>
<path id="Vector_4" d="M26.063 10.688L35.126 14.125L38 24.562C34.0459 23.9959 30.0574 23.7039 26.063 23.688C22.0268 23.7035 17.9963 23.9955 14 24.562L17 14.125L26.063 10.688Z" fill="#5F5F5F"/>
</g>
</g>
</svg>
