<svg width="52" height="52" viewBox="0 0 52 52" fill="none" xmlns="http://www.w3.org/2000/svg">
<g id="hair-63">
<g id="63">
<path id="Vector" d="M39.071 22.9001C39.071 22.9001 39.689 37.6721 41.159 39.6831C39.4024 39.1344 37.6961 38.4358 36.059 37.5951L36.832 41.7711L30.645 39.0641L26 43.0001L21.358 39.0551L15.171 41.7621L15.944 37.5861C14.3069 38.4268 12.6006 39.1254 10.844 39.6741C12.309 37.6671 12.928 22.9001 12.928 22.9001" fill="#5F5F5F"/>
<path id="Vector_2" d="M25.9999 11.2151C18.9609 11.2151 14.6399 17.5391 15.1709 26.2201C15.6349 33.8001 20.0439 39.1371 25.9999 39.1371C31.9559 39.1371 36.3639 33.8001 36.8279 26.2201C37.3599 17.5391 33.0379 11.2151 25.9999 11.2151Z" fill="white" stroke="#BFBFBF" stroke-width="2.475"/>
<path id="Vector_3" d="M31.6449 18.7181C32.8371 19.6258 34.1055 20.4288 35.4359 21.1181C36.1359 23.4381 35.5129 32.9521 35.5129 32.9521C38.6839 30.9411 40.4399 27.1781 39.6129 21.0411C38.6839 14.1541 31.8779 8.7561 25.9999 8.7561C20.1219 8.7561 13.3149 14.1561 12.3869 21.0381C11.5589 27.1751 13.3149 30.9381 16.4869 32.9491C16.4869 32.9491 15.8679 23.4351 16.5639 21.1151C16.5639 21.1151 19.9639 19.5681 21.5139 17.3251L20.8139 21.1921C20.8139 21.1921 27.0009 19.7231 29.0139 15.5471C29.6339 16.7933 30.5345 17.8788 31.6449 18.7181Z" fill="#5F5F5F"/>
</g>
</g>
</svg>
