<svg width="52" height="52" viewBox="0 0 52 52" fill="none" xmlns="http://www.w3.org/2000/svg">
<g id="hair-98">
<g id="98">
<path id="Vector" d="M37.742 30.6292L40.173 31.7552L39.164 21.6742C39.0241 18.2608 37.5816 15.0307 35.133 12.6483C32.6844 10.266 29.416 8.91246 26 8.86621C22.5842 8.91271 19.316 10.2663 16.8677 12.6487C14.4193 15.031 12.9769 18.2609 12.837 21.6742L11.828 31.7552L14.26 30.6292C14.26 30.6292 13.073 38.0412 11.531 39.4042L18.531 39.5232L26 39.1072L33.473 39.5232L40.473 39.4042C38.928 38.0412 37.742 30.6292 37.742 30.6292Z" fill="#5F5F5F"/>
<path id="Vector_2" d="M26.0001 11.1484C18.9621 11.1484 14.6411 17.4734 15.1721 26.1544C15.6361 33.7334 20.0451 39.0704 26.0001 39.0704C31.9551 39.0704 36.3641 33.7334 36.8281 26.1544C37.3601 17.4734 33.0391 11.1484 26.0001 11.1484Z" fill="white" stroke="#BFBFBF" stroke-width="2.475"/>
<path id="Vector_3" d="M21.729 25.344C23.0537 24.8669 24.2972 24.189 25.416 23.334C26.3251 22.824 27.0094 21.9909 27.333 21L29 23.833C30.0085 22.952 30.9295 21.9754 31.75 20.917C32.3297 20.0311 32.8586 19.113 33.334 18.167L36.064 23.812L37.689 30.75L38.876 22.188L35.564 13.938L30.6 10.25L26 9.31201L21.4 10.25L16.44 13.938L13.127 22.188L14.315 30.75L15.94 23.812C17.7278 23.4182 19.4776 22.8677 21.169 22.167L21.729 25.344Z" fill="#5F5F5F"/>
</g>
</g>
</svg>
