<svg width="52" height="52" viewBox="0 0 52 52" fill="none" xmlns="http://www.w3.org/2000/svg">
<g id="hair-12">
<g id="12">
<path id="Vector" d="M39.5199 21.1259C39.2547 17.7221 37.7152 14.5435 35.2089 12.225C32.7027 9.90649 29.4141 8.61865 25.9999 8.61865C22.5857 8.61865 19.2972 9.90649 16.7909 12.225C14.2847 14.5435 12.7452 17.7221 12.4799 21.1259C12.4799 21.1259 11.3529 30.4359 14.7329 37.1949C17.4149 42.5589 21.1369 45.5999 25.9999 45.5999C30.8629 45.5999 34.5839 42.5569 37.2659 37.1929C40.6469 30.4359 39.5199 21.1259 39.5199 21.1259Z" fill="#5F5F5F"/>
<path id="Vector_2" d="M25.9999 11.3379C18.9609 11.3379 14.6399 17.6619 15.1709 26.3429C15.6349 33.9219 20.0439 39.2589 25.9999 39.2589C31.9559 39.2589 36.3639 33.9219 36.8279 26.3429C37.3599 17.6619 33.0379 11.3379 25.9999 11.3379Z" fill="white" stroke="#BFBFBF" stroke-width="2.475"/>
<path id="Vector_3" d="M13.1318 27.8858C13.1318 27.8858 25.3798 25.1858 31.5678 15.5148C32.3393 17.7829 33.2432 20.0037 34.2748 22.1658C36.6428 26.7658 39.4598 27.8858 39.4598 27.8858L36.1308 13.5858L26.9998 9.01782L19.4208 10.8738L13.4868 18.6998L13.1318 27.8858Z" fill="#5F5F5F"/>
</g>
</g>
</svg>
