<svg width="52" height="52" viewBox="0 0 52 52" fill="none" xmlns="http://www.w3.org/2000/svg">
<g id="makeup-12">
<path id="Vector" d="M42.09 25.9999C42.0841 29.1809 41.1354 32.2888 39.3638 34.9308C37.5922 37.5729 35.0772 39.6305 32.1366 40.8437C29.196 42.0569 25.9618 42.3713 22.8427 41.7471C19.7235 41.1228 16.8593 39.588 14.6121 37.3366C12.3649 35.0852 10.8354 32.2182 10.217 29.0979C9.59861 25.9775 9.91899 22.7439 11.1377 19.8056C12.3564 16.8673 14.4187 14.3561 17.064 12.5895C19.7093 10.8228 22.819 9.87989 26 9.87988C28.1155 9.87988 30.2102 10.2971 32.1643 11.1075C34.1184 11.918 35.8935 13.1059 37.388 14.6031C38.8825 16.1004 40.067 17.8777 40.8739 19.8333C41.6807 21.7889 42.094 23.8844 42.09 25.9999Z" fill="white" stroke="#999999" stroke-width="2.48"/>
<path id="Vector_2" d="M40.53 29.0002H39.23C38.676 30.851 37.7505 32.5693 36.51 34.0502L33 30.5402C30.9561 29.1047 28.4954 28.384 26 28.4902C23.5045 28.384 21.0439 29.1047 19 30.5402L15.49 34.0902C14.2447 32.5975 13.3189 30.8651 12.77 29.0002H11.47C12.1605 32.2679 13.9309 35.2079 16.496 37.3467C19.0611 39.4854 22.2715 40.6984 25.61 40.7902H26.37C29.712 40.7029 32.927 39.4919 35.4961 37.3527C38.0653 35.2136 39.8387 32.2711 40.53 29.0002ZM32.17 36.0802C31.11 36.7102 30.17 35.8702 29.65 35.5702C29.13 35.2702 28.85 34.7602 28.73 34.8002H23.27C23.15 34.8002 22.84 35.1402 22.35 35.5702C21.86 36.0002 20.89 36.7102 19.83 36.0802C18.77 35.4502 18.83 33.8102 19.94 32.2102C21.62 29.7802 26 30.0002 26 30.0002C26 30.0002 30.38 29.7802 32.06 32.2502C33.14 33.8502 33.24 35.4802 32.17 36.1202V36.0802Z" fill="url(#paint0_linear_1061_166)"/>
<path id="Vector_3" d="M37.59 35.2302L36.51 34.0902L33 30.5402C30.9561 29.1047 28.4954 28.384 26 28.4902C23.5046 28.384 21.0439 29.1047 19 30.5402L15.49 34.0902L14.41 35.2302C15.757 36.9192 17.458 38.2924 19.393 39.253C21.3281 40.2136 23.4502 40.7383 25.61 40.7902H26.37C28.5331 40.7413 30.6592 40.2179 32.5979 39.2572C34.5366 38.2965 36.2408 36.9218 37.59 35.2302ZM32.17 36.1202C31.11 36.7502 30.17 35.9102 29.65 35.6102C29.13 35.3102 28.85 34.8002 28.73 34.8402H23.27C23.15 34.8402 22.84 35.1802 22.35 35.6102C21.86 36.0402 20.89 36.7502 19.83 36.1202C18.77 35.4902 18.83 33.8502 19.94 32.2502C21.62 29.7802 26 30.0002 26 30.0002C26 30.0002 30.38 29.7802 32.06 32.2502C33.14 33.8502 33.24 35.4802 32.17 36.1202Z" fill="#808786"/>
</g>
<defs>
<linearGradient id="paint0_linear_1061_166" x1="26" y1="28.4802" x2="26" y2="40.8102" gradientUnits="userSpaceOnUse">
<stop stop-color="white"/>
<stop offset="0.06" stop-color="#E7E8E8"/>
<stop offset="0.17" stop-color="#C7CACA"/>
<stop offset="0.28" stop-color="#ADB2B1"/>
<stop offset="0.4" stop-color="#999F9E"/>
<stop offset="0.54" stop-color="#8B9190"/>
<stop offset="0.71" stop-color="#838988"/>
<stop offset="1" stop-color="#808786"/>
</linearGradient>
</defs>
</svg>
