<svg width="52" height="52" viewBox="0 0 52 52" fill="none" xmlns="http://www.w3.org/2000/svg">
<g id="makeup-05">
<path id="Vector" d="M26 42.0501C34.8862 42.0501 42.09 34.8464 42.09 25.9601C42.09 17.0739 34.8862 9.87012 26 9.87012C17.1137 9.87012 9.90997 17.0739 9.90997 25.9601C9.90997 34.8464 17.1137 42.0501 26 42.0501Z" fill="white" stroke="#999999" stroke-width="2.48"/>
<path id="Vector_2" d="M21.81 28.4602C20.87 26.7202 17.73 24.8502 15.57 24.3302C12.67 23.6402 10.28 25.6502 12.15 28.7402C13.43 30.8502 17.54 32.3502 20.07 32.3502C21.71 32.3502 23.21 31.0502 21.81 28.4602Z" fill="url(#paint0_linear_1061_136)"/>
<path id="Vector_3" d="M30.19 28.4602C31.13 26.7202 34.27 24.8502 36.43 24.3302C39.33 23.6402 41.72 25.6502 39.85 28.7402C38.57 30.8502 34.46 32.3502 31.93 32.3502C30.29 32.3502 28.79 31.0502 30.19 28.4602Z" fill="url(#paint1_linear_1061_136)"/>
</g>
<defs>
<linearGradient id="paint0_linear_1061_136" x1="11.46" y1="26.3102" x2="22.5" y2="30.3302" gradientUnits="userSpaceOnUse">
<stop stop-color="white"/>
<stop offset="0.05" stop-color="#FFF0F0"/>
<stop offset="0.15" stop-color="#FFD8D8"/>
<stop offset="0.25" stop-color="#FFC7C7"/>
<stop offset="0.36" stop-color="#FFBDBD"/>
<stop offset="0.5" stop-color="#FFBABA"/>
<stop offset="0.64" stop-color="#FFBDBD"/>
<stop offset="0.75" stop-color="#FFC7C7"/>
<stop offset="0.85" stop-color="#FFD8D8"/>
<stop offset="0.95" stop-color="#FFF0F0"/>
<stop offset="1" stop-color="white"/>
</linearGradient>
<linearGradient id="paint1_linear_1061_136" x1="40.54" y1="26.3102" x2="29.5" y2="30.3302" gradientUnits="userSpaceOnUse">
<stop stop-color="white"/>
<stop offset="0.05" stop-color="#FFF0F0"/>
<stop offset="0.15" stop-color="#FFD8D8"/>
<stop offset="0.25" stop-color="#FFC7C7"/>
<stop offset="0.36" stop-color="#FFBDBD"/>
<stop offset="0.5" stop-color="#FFBABA"/>
<stop offset="0.64" stop-color="#FFBDBD"/>
<stop offset="0.75" stop-color="#FFC7C7"/>
<stop offset="0.85" stop-color="#FFD8D8"/>
<stop offset="0.95" stop-color="#FFF0F0"/>
<stop offset="1" stop-color="white"/>
</linearGradient>
</defs>
</svg>
