<svg width="52" height="52" viewBox="0 0 52 52" fill="none" xmlns="http://www.w3.org/2000/svg">
<g id="makeup-06">
<path id="Vector" d="M42.09 26.0001C42.0821 29.1807 41.1317 32.2876 39.3589 34.9283C37.5861 37.569 35.0705 39.6251 32.1297 40.8368C29.189 42.0485 25.9551 42.3614 22.8365 41.7361C19.718 41.1107 16.8548 39.5751 14.6086 37.3233C12.3623 35.0715 10.8339 32.2045 10.2163 29.0844C9.59869 25.9644 9.91965 22.7313 11.1386 19.7935C12.3576 16.8558 14.4199 14.3452 17.065 12.579C19.7102 10.8128 22.8194 9.87013 26 9.87012C28.1163 9.87011 30.2119 10.2876 32.1666 11.0987C34.1214 11.9098 35.8969 13.0986 37.3915 14.5969C38.8861 16.0952 40.0705 17.8737 40.8767 19.8305C41.683 21.7872 42.0953 23.8838 42.09 26.0001Z" fill="white" stroke="#999999" stroke-width="2.48"/>
<path id="Vector_2" d="M21.81 28.4602C20.87 26.7202 17.73 24.8502 15.57 24.3302C12.67 23.6402 10.28 25.6502 12.15 28.7402C13.43 30.8502 17.54 32.3502 20.07 32.3502C21.71 32.3502 23.21 31.0502 21.81 28.4602Z" fill="url(#paint0_linear_1061_140)"/>
<path id="Vector_3" d="M30.19 28.4602C31.13 26.7202 34.27 24.8502 36.43 24.3302C39.33 23.6402 41.72 25.6502 39.85 28.7402C38.57 30.8502 34.46 32.3502 31.93 32.3502C30.29 32.3502 28.79 31.0502 30.19 28.4602Z" fill="url(#paint1_linear_1061_140)"/>
</g>
<defs>
<linearGradient id="paint0_linear_1061_140" x1="11.46" y1="26.3102" x2="22.5" y2="30.3302" gradientUnits="userSpaceOnUse">
<stop stop-color="white"/>
<stop offset="0.06" stop-color="#FBEBE0"/>
<stop offset="0.13" stop-color="#F7D7C2"/>
<stop offset="0.21" stop-color="#F4C8AA"/>
<stop offset="0.3" stop-color="#F2BD99"/>
<stop offset="0.39" stop-color="#F0B68F"/>
<stop offset="0.5" stop-color="#F0B48C"/>
<stop offset="0.61" stop-color="#F0B68F"/>
<stop offset="0.7" stop-color="#F2BD99"/>
<stop offset="0.79" stop-color="#F4C8AA"/>
<stop offset="0.87" stop-color="#F7D7C2"/>
<stop offset="0.94" stop-color="#FBEBE0"/>
<stop offset="1" stop-color="white"/>
</linearGradient>
<linearGradient id="paint1_linear_1061_140" x1="40.54" y1="26.3102" x2="29.5" y2="30.3302" gradientUnits="userSpaceOnUse">
<stop stop-color="white"/>
<stop offset="0.06" stop-color="#FBEBE0"/>
<stop offset="0.13" stop-color="#F7D7C2"/>
<stop offset="0.21" stop-color="#F4C8AA"/>
<stop offset="0.3" stop-color="#F2BD99"/>
<stop offset="0.39" stop-color="#F0B68F"/>
<stop offset="0.5" stop-color="#F0B48C"/>
<stop offset="0.61" stop-color="#F0B68F"/>
<stop offset="0.7" stop-color="#F2BD99"/>
<stop offset="0.79" stop-color="#F4C8AA"/>
<stop offset="0.87" stop-color="#F7D7C2"/>
<stop offset="0.94" stop-color="#FBEBE0"/>
<stop offset="1" stop-color="white"/>
</linearGradient>
</defs>
</svg>
