<svg width="52" height="52" viewBox="0 0 52 52" fill="none" xmlns="http://www.w3.org/2000/svg">
<g id="makeup-09">
<path id="Vector" d="M42.09 25.9999C42.0841 29.1809 41.1354 32.2888 39.3638 34.9308C37.5922 37.5729 35.0772 39.6305 32.1366 40.8437C29.196 42.0569 25.9618 42.3713 22.8427 41.7471C19.7235 41.1228 16.8593 39.588 14.6121 37.3366C12.3649 35.0852 10.8354 32.2182 10.217 29.0979C9.59861 25.9775 9.91899 22.7439 11.1377 19.8056C12.3564 16.8673 14.4187 14.3561 17.064 12.5895C19.7093 10.8228 22.819 9.87989 26 9.87988C28.1155 9.87988 30.2102 10.2971 32.1643 11.1075C34.1184 11.918 35.8935 13.1059 37.388 14.6031C38.8825 16.1004 40.067 17.8777 40.8739 19.8333C41.6807 21.7889 42.094 23.8844 42.09 25.9999Z" fill="white" stroke="#999999" stroke-width="2.48"/>
<path id="Vector_2" d="M31.69 18C32.2311 17.8099 32.8067 17.7384 33.3778 17.7904C33.9489 17.8423 34.5022 18.0164 35.0001 18.301C35.4981 18.5855 35.929 18.9737 36.2637 19.4394C36.5984 19.9051 36.829 20.4373 36.94 21C37.34 23.41 35.67 25.25 32.94 25.22C30.8218 25.1963 28.7402 24.6648 26.87 23.67C26.87 23.67 28.34 19 31.69 18Z" fill="url(#paint0_linear_1061_154)"/>
<path id="Vector_3" d="M20.31 18C19.7689 17.8099 19.1933 17.7384 18.6222 17.7904C18.0511 17.8423 17.4978 18.0164 16.9999 18.301C16.5019 18.5855 16.071 18.9737 15.7363 19.4394C15.4016 19.9051 15.171 20.4373 15.06 21C14.66 23.41 16.33 25.25 19.06 25.22C21.1749 25.1955 23.2531 24.664 25.12 23.67C25.12 23.67 23.66 19 20.31 18Z" fill="url(#paint1_linear_1061_154)"/>
<path id="Vector_4" d="M21.81 28.4602C20.87 26.7202 17.73 24.8502 15.57 24.3302C12.67 23.6402 10.28 25.6502 12.15 28.7402C13.43 30.8602 17.54 32.3502 20.07 32.3502C21.71 32.3502 23.21 31.0502 21.81 28.4602Z" fill="url(#paint2_linear_1061_154)"/>
<path id="Vector_5" d="M30.19 28.4602C31.13 26.7202 34.27 24.8502 36.43 24.3302C39.33 23.6402 41.72 25.6502 39.85 28.7402C38.57 30.8602 34.46 32.3502 31.93 32.3502C30.29 32.3502 28.79 31.0502 30.19 28.4602Z" fill="url(#paint3_linear_1061_154)"/>
</g>
<defs>
<linearGradient id="paint0_linear_1061_154" x1="31.01" y1="25.41" x2="33.9" y2="17.87" gradientUnits="userSpaceOnUse">
<stop stop-color="#E6DBDB"/>
<stop offset="1" stop-color="#CCB1B1"/>
</linearGradient>
<linearGradient id="paint1_linear_1061_154" x1="20.99" y1="25.41" x2="18.1" y2="17.87" gradientUnits="userSpaceOnUse">
<stop stop-color="#E6DBDB"/>
<stop offset="1" stop-color="#CCB1B1"/>
</linearGradient>
<linearGradient id="paint2_linear_1061_154" x1="11.49" y1="28.2702" x2="22.36" y2="28.2702" gradientUnits="userSpaceOnUse">
<stop stop-color="white"/>
<stop offset="0.05" stop-color="#FFF0F0"/>
<stop offset="0.15" stop-color="#FFD8D8"/>
<stop offset="0.25" stop-color="#FFC7C7"/>
<stop offset="0.36" stop-color="#FFBDBD"/>
<stop offset="0.5" stop-color="#FFBABA"/>
<stop offset="0.64" stop-color="#FFBDBD"/>
<stop offset="0.75" stop-color="#FFC7C7"/>
<stop offset="0.85" stop-color="#FFD8D8"/>
<stop offset="0.95" stop-color="#FFF0F0"/>
<stop offset="1" stop-color="white"/>
</linearGradient>
<linearGradient id="paint3_linear_1061_154" x1="40.54" y1="26.3102" x2="29.5" y2="30.3302" gradientUnits="userSpaceOnUse">
<stop stop-color="white"/>
<stop offset="0.05" stop-color="#FFF0F0"/>
<stop offset="0.15" stop-color="#FFD8D8"/>
<stop offset="0.25" stop-color="#FFC7C7"/>
<stop offset="0.36" stop-color="#FFBDBD"/>
<stop offset="0.5" stop-color="#FFBABA"/>
<stop offset="0.64" stop-color="#FFBDBD"/>
<stop offset="0.75" stop-color="#FFC7C7"/>
<stop offset="0.85" stop-color="#FFD8D8"/>
<stop offset="0.95" stop-color="#FFF0F0"/>
<stop offset="1" stop-color="white"/>
</linearGradient>
</defs>
</svg>
