<svg width="52" height="52" viewBox="0 0 52 52" fill="none" xmlns="http://www.w3.org/2000/svg">
<g id="makeup-10">
<path id="Vector" d="M26 42.0501C34.8862 42.0501 42.09 34.8464 42.09 25.9601C42.09 17.0739 34.8862 9.87012 26 9.87012C17.1137 9.87012 9.90997 17.0739 9.90997 25.9601C9.90997 34.8464 17.1137 42.0501 26 42.0501Z" fill="white" stroke="#999999" stroke-width="2.48"/>
<path id="Vector_2" fill-rule="evenodd" clip-rule="evenodd" d="M16.17 29.52C15.9722 29.52 15.7789 29.5786 15.6144 29.6885C15.45 29.7984 15.3218 29.9546 15.2461 30.1373C15.1704 30.32 15.1506 30.5211 15.1892 30.7151C15.2278 30.9091 15.323 31.0873 15.4629 31.2271C15.6027 31.367 15.7809 31.4622 15.9749 31.5008C16.1689 31.5394 16.3699 31.5196 16.5527 31.4439C16.7354 31.3682 16.8916 31.24 17.0015 31.0756C17.1113 30.9111 17.17 30.7178 17.17 30.52C17.1475 30.2624 17.0349 30.0209 16.852 29.838C16.6691 29.6551 16.4276 29.5425 16.17 29.52ZM18.53 26C18.3322 26 18.1389 26.0586 17.9744 26.1685C17.81 26.2784 17.6818 26.4346 17.6061 26.6173C17.5304 26.8 17.5106 27.0011 17.5492 27.1951C17.5878 27.3891 17.683 27.5673 17.8229 27.7071C17.9627 27.847 18.1409 27.9422 18.3349 27.9808C18.5289 28.0194 18.7299 27.9996 18.9127 27.9239C19.0954 27.8482 19.2516 27.72 19.3615 27.5556C19.4713 27.3911 19.53 27.1978 19.53 27C19.5075 26.7424 19.3949 26.5009 19.212 26.318C19.0291 26.1351 18.7876 26.0225 18.53 26ZM14.05 26.28C13.7848 26.28 13.5304 26.3854 13.3429 26.5729C13.1553 26.7604 13.05 27.0148 13.05 27.28C13.05 27.5452 13.1553 27.7996 13.3429 27.9871C13.5304 28.1746 13.7848 28.28 14.05 28.28C14.3152 28.28 14.5696 28.1746 14.7571 27.9871C14.9446 27.7996 15.05 27.5452 15.05 27.28C15.05 27.0148 14.9446 26.7604 14.7571 26.5729C14.5696 26.3854 14.3152 26.28 14.05 26.28ZM20.62 29.14C20.4222 29.14 20.2289 29.1986 20.0644 29.3085C19.9 29.4184 19.7718 29.5746 19.6961 29.7573C19.6204 29.94 19.6006 30.1411 19.6392 30.3351C19.6778 30.5291 19.773 30.7073 19.9129 30.8471C20.0527 30.987 20.2309 31.0822 20.4249 31.1208C20.6189 31.1594 20.8199 31.1396 21.0027 31.0639C21.1854 30.9882 21.3416 30.86 21.4515 30.6956C21.5613 30.5311 21.62 30.3378 21.62 30.14C21.5975 29.8824 21.4849 29.6409 21.302 29.458C21.1191 29.2751 20.8776 29.1625 20.62 29.14ZM34.81 30.54C34.81 30.7378 34.8686 30.9311 34.9785 31.0956C35.0884 31.26 35.2446 31.3882 35.4273 31.4639C35.61 31.5396 35.8111 31.5594 36.0051 31.5208C36.1991 31.4822 36.3772 31.387 36.5171 31.2471C36.6569 31.1073 36.7522 30.9291 36.7908 30.7351C36.8294 30.5411 36.8096 30.34 36.7339 30.1573C36.6582 29.9746 36.53 29.8184 36.3656 29.7085C36.2011 29.5986 36.0078 29.54 35.81 29.54C35.5523 29.5625 35.3109 29.6751 35.128 29.858C34.9451 30.0409 34.8325 30.2824 34.81 30.54ZM32.46 27C32.46 27.1978 32.5186 27.3911 32.6285 27.5556C32.7384 27.72 32.8946 27.8482 33.0773 27.9239C33.26 27.9996 33.4611 28.0194 33.6551 27.9808C33.8491 27.9422 34.0272 27.847 34.1671 27.7071C34.3069 27.5673 34.4022 27.3891 34.4408 27.1951C34.4794 27.0011 34.4596 26.8 34.3839 26.6173C34.3082 26.4346 34.18 26.2784 34.0156 26.1685C33.8511 26.0586 33.6578 26 33.46 26C33.2023 26.0225 32.9609 26.1351 32.778 26.318C32.5951 26.5009 32.4825 26.7424 32.46 27ZM36.93 27.29C36.93 27.4878 36.9886 27.6811 37.0985 27.8456C37.2084 28.01 37.3646 28.1382 37.5473 28.2139C37.73 28.2896 37.9311 28.3094 38.1251 28.2708C38.3191 28.2322 38.4972 28.137 38.6371 27.9971C38.7769 27.8573 38.8722 27.6791 38.9108 27.4851C38.9494 27.2911 38.9296 27.09 38.8539 26.9073C38.7782 26.7246 38.65 26.5684 38.4856 26.4585C38.3211 26.3486 38.1278 26.29 37.93 26.29C37.6723 26.3125 37.4309 26.4251 37.248 26.608C37.0651 26.7909 36.9525 27.0324 36.93 27.29ZM30.36 30.16C30.36 30.3578 30.4186 30.5511 30.5285 30.7156C30.6384 30.88 30.7946 31.0082 30.9773 31.0839C31.16 31.1596 31.3611 31.1794 31.5551 31.1408C31.7491 31.1022 31.9272 31.007 32.0671 30.8671C32.2069 30.7273 32.3022 30.5491 32.3408 30.3551C32.3794 30.1611 32.3596 29.96 32.2839 29.7773C32.2082 29.5946 32.08 29.4384 31.9156 29.3285C31.7511 29.2186 31.5578 29.16 31.36 29.16C31.1023 29.1825 30.8609 29.2951 30.678 29.478C30.4951 29.6609 30.3825 29.9024 30.36 30.16Z" fill="#C98F6E"/>
</g>
</svg>
