<svg width="52" height="52" viewBox="0 0 52 52" fill="none" xmlns="http://www.w3.org/2000/svg">
<g id="makeup-03">
<path id="Vector" d="M42.09 26.0001C42.0821 29.1807 41.1317 32.2876 39.3589 34.9283C37.5861 37.569 35.0705 39.6251 32.1297 40.8368C29.189 42.0485 25.9551 42.3614 22.8365 41.7361C19.718 41.1107 16.8548 39.5751 14.6086 37.3233C12.3623 35.0715 10.8339 32.2045 10.2163 29.0844C9.59869 25.9644 9.91965 22.7313 11.1386 19.7935C12.3576 16.8558 14.4199 14.3452 17.065 12.579C19.7102 10.8128 22.8194 9.87013 26 9.87012C28.1163 9.87011 30.2119 10.2876 32.1666 11.0987C34.1214 11.9098 35.8969 13.0986 37.3915 14.5969C38.8861 16.0952 40.0705 17.8737 40.8767 19.8305C41.683 21.7872 42.0953 23.8838 42.09 26.0001Z" fill="white" stroke="#999999" stroke-width="2.48"/>
<path id="Vector_2" d="M22.22 30.2802C23.47 32.9902 22.61 36.0402 20.31 37.1002C18.01 38.1602 15.13 36.8302 13.88 34.1002C12.63 31.3702 13.49 28.3402 15.8 27.2802C18.11 26.2202 21 27.5702 22.22 30.2802ZM29.78 30.2802C28.53 33.0002 29.39 36.0002 31.69 37.1002C33.99 38.2002 36.87 36.8302 38.12 34.1002C39.37 31.3702 38.51 28.3402 36.2 27.2802C33.89 26.2202 31 27.5702 29.78 30.2802Z" fill="#F0B48C"/>
</g>
</svg>
