<svg width="52" height="52" viewBox="0 0 52 52" fill="none" xmlns="http://www.w3.org/2000/svg">
<g id="makeup-07">
<path id="Vector" d="M41.8827 28.5425C43.3065 19.771 37.35 11.5061 28.5786 10.0823C19.8071 8.65853 11.5422 14.615 10.1184 23.3864C8.69463 32.1579 14.6511 40.4228 23.4225 41.8466C32.194 43.2704 40.4589 37.314 41.8827 28.5425Z" fill="white" stroke="#999999" stroke-width="2.48"/>
<path id="Vector_2" d="M22.22 30.2499C23.47 32.9499 22.61 36.0099 20.31 37.0699C18.01 38.1299 15.13 36.7899 13.88 34.0699C12.63 31.3499 13.49 28.3099 15.8 27.2499C18.11 26.1899 21 27.5399 22.22 30.2499ZM29.78 30.2499C28.53 32.9499 29.39 36.0099 31.69 37.0699C33.99 38.1299 36.87 36.7899 38.12 34.0699C39.37 31.3499 38.51 28.3099 36.2 27.2499C33.89 26.1899 31 27.5399 29.78 30.2499Z" fill="#FFBABA"/>
<path id="Vector_3" d="M31.69 18C32.2311 17.8099 32.8067 17.7384 33.3778 17.7904C33.9489 17.8423 34.5022 18.0164 35.0001 18.301C35.4981 18.5855 35.929 18.9737 36.2637 19.4394C36.5984 19.9051 36.829 20.4373 36.94 21C37.34 23.41 35.67 25.25 32.94 25.22C30.8218 25.1963 28.7402 24.6648 26.87 23.67C26.87 23.67 28.34 19 31.69 18Z" fill="url(#paint0_linear_1061_144)"/>
<path id="Vector_4" d="M20.31 18C19.7689 17.8099 19.1933 17.7384 18.6222 17.7904C18.0511 17.8423 17.4978 18.0164 16.9999 18.301C16.5019 18.5855 16.071 18.9737 15.7363 19.4394C15.4016 19.9051 15.171 20.4373 15.06 21C14.66 23.41 16.33 25.25 19.06 25.22C21.1749 25.1955 23.2531 24.664 25.12 23.67C25.12 23.67 23.66 19 20.31 18Z" fill="url(#paint1_linear_1061_144)"/>
</g>
<defs>
<linearGradient id="paint0_linear_1061_144" x1="23.619" y1="26.1129" x2="27.0972" y2="18.5377" gradientUnits="userSpaceOnUse">
<stop stop-color="#CCFFF5"/>
<stop offset="1" stop-color="#80FFE7"/>
</linearGradient>
<linearGradient id="paint1_linear_1061_144" x1="20.4615" y1="25.794" x2="16.9822" y2="18.2102" gradientUnits="userSpaceOnUse">
<stop stop-color="#CCFFF5"/>
<stop offset="1" stop-color="#80FFE7"/>
</linearGradient>
</defs>
</svg>
