<svg width="52" height="52" viewBox="0 0 52 52" fill="none" xmlns="http://www.w3.org/2000/svg">
<g id="makeup-04">
<path id="Vector" d="M26 42.0501C34.8862 42.0501 42.09 34.8464 42.09 25.9601C42.09 17.0739 34.8862 9.87012 26 9.87012C17.1137 9.87012 9.90997 17.0739 9.90997 25.9601C9.90997 34.8464 17.1137 42.0501 26 42.0501Z" fill="white" stroke="#999999" stroke-width="2.48"/>
<path id="Vector_2" d="M31.69 18C32.2311 17.8099 32.8067 17.7384 33.3778 17.7904C33.9489 17.8423 34.5022 18.0164 35.0001 18.301C35.4981 18.5855 35.929 18.9737 36.2637 19.4394C36.5984 19.9051 36.829 20.4373 36.94 21C37.34 23.41 35.67 25.25 32.94 25.22C30.8218 25.1963 28.7402 24.6648 26.87 23.67C26.87 23.67 28.34 19 31.69 18Z" fill="url(#paint0_linear_1061_132)"/>
<path id="Vector_3" d="M20.31 18C19.7689 17.8099 19.1933 17.7384 18.6222 17.7904C18.0511 17.8423 17.4978 18.0164 16.9999 18.301C16.5019 18.5855 16.071 18.9737 15.7363 19.4394C15.4016 19.9051 15.171 20.4373 15.06 21C14.66 23.41 16.33 25.25 19.06 25.22C21.1749 25.1955 23.2531 24.664 25.12 23.67C25.12 23.67 23.66 19 20.31 18Z" fill="url(#paint1_linear_1061_132)"/>
</g>
<defs>
<linearGradient id="paint0_linear_1061_132" x1="23.613" y1="26.1175" x2="27.0912" y2="18.5423" gradientUnits="userSpaceOnUse">
<stop stop-color="#CCFFF5"/>
<stop offset="1" stop-color="#80FFE7"/>
</linearGradient>
<linearGradient id="paint1_linear_1061_132" x1="20.4675" y1="25.7986" x2="16.9882" y2="18.2148" gradientUnits="userSpaceOnUse">
<stop stop-color="#CCFFF5"/>
<stop offset="1" stop-color="#80FFE7"/>
</linearGradient>
</defs>
</svg>
