<svg width="52" height="52" viewBox="0 0 52 52" fill="none" xmlns="http://www.w3.org/2000/svg">
<g id="makeup-02">
<path id="Vector" d="M26 42.0501C34.8862 42.0501 42.09 34.8464 42.09 25.9601C42.09 17.0739 34.8862 9.87012 26 9.87012C17.1137 9.87012 9.90997 17.0739 9.90997 25.9601C9.90997 34.8464 17.1137 42.0501 26 42.0501Z" fill="white" stroke="#999999" stroke-width="2.48"/>
<path id="Vector_2" d="M22.22 30.2802C23.47 32.9902 22.61 36.0402 20.31 37.1002C18.01 38.1602 15.13 36.8302 13.88 34.1002C12.63 31.3702 13.49 28.3402 15.8 27.2802C18.11 26.2202 21 27.5702 22.22 30.2802ZM29.78 30.2802C28.53 33.0002 29.39 36.0002 31.69 37.1002C33.99 38.2002 36.87 36.8302 38.12 34.1002C39.37 31.3702 38.51 28.3402 36.2 27.2802C33.89 26.2202 31 27.5702 29.78 30.2802Z" fill="#FFBABA"/>
</g>
</svg>
