<svg width="52" height="52" viewBox="0 0 52 52" fill="none" xmlns="http://www.w3.org/2000/svg">
<g id="mouth-15">
<path id="Vector" d="M10.329 20.4629C15.5028 21.3946 20.7436 21.9056 26 21.9909C31.2567 21.9059 36.4979 21.3948 41.672 20.4629C41.672 20.4629 36.168 30.7789 26 30.7789C15.832 30.7789 10.329 20.4629 10.329 20.4629Z" fill="#0055FF"/>
<path id="Vector_2" d="M41.675 20.4629C41.675 20.4629 36.168 30.7789 26 30.7789C15.832 30.7789 10.329 20.4629 10.329 20.4629" stroke="#0055FF" stroke-width="2.562" stroke-linejoin="bevel"/>
<path id="Vector_3" d="M9.33301 20.1778C14.8547 20.9705 20.4221 21.4038 26 21.4748C31.5783 21.403 37.146 20.9688 42.668 20.1748" stroke="#0055FF" stroke-width="1.708" stroke-linejoin="bevel"/>
<path id="Vector_4" d="M10.329 20.4619C15.5028 21.3936 20.7436 21.9047 26 21.9899C31.2567 21.9049 36.4979 21.3939 41.672 20.4619C41.672 20.4619 36.168 30.7789 26 30.7789C15.832 30.7789 10.329 20.4619 10.329 20.4619Z" fill="#0055FF"/>
<path id="Vector_5" d="M41.675 20.4619C41.675 20.4619 36.168 30.7789 26 30.7789C15.832 30.7789 10.329 20.4619 10.329 20.4619" stroke="#FF5F5F" stroke-width="2.562" stroke-linejoin="bevel"/>
<path id="Vector_6" d="M9.33301 20.1778C14.8548 20.97 20.4222 21.4029 26 21.4738C31.5783 21.4018 37.146 20.9675 42.668 20.1738" stroke="#FF5F5F" stroke-width="1.708" stroke-linejoin="bevel"/>
<path id="Vector_7" d="M26.001 21.8198V30.9098M19.289 21.8198V29.6508M32.713 21.8198V29.6508" stroke="#FF5F5F" stroke-width="2.135" stroke-linejoin="bevel"/>
</g>
</svg>
