<svg width="52" height="52" viewBox="0 0 52 52" fill="none" xmlns="http://www.w3.org/2000/svg">
<g id="mouth-35">
<path id="Vector" d="M44.111 24.8901C43.8218 23.7042 43.2262 22.615 42.3838 21.7316C41.5414 20.8482 40.4818 20.2014 39.311 19.8561C37.7168 19.4661 36.0498 19.4853 34.465 19.9121L34.337 19.9381C31.5859 20.4279 28.7939 20.6496 26 20.6001C23.2079 20.6506 20.4175 20.4303 17.668 19.9421L17.54 19.9161C15.9549 19.4893 14.2876 19.4701 12.693 19.8601C11.5222 20.2054 10.4625 20.8522 9.62017 21.7356C8.77779 22.619 8.1822 23.7082 7.89299 24.8941C7.70395 25.7382 7.69247 26.6123 7.85929 27.461C8.0261 28.3097 8.36756 29.1144 8.86199 29.8241C9.56942 30.7626 10.4609 31.5469 11.4819 32.129C12.503 32.711 13.632 33.0786 14.8 33.2091C18.5052 33.7849 22.2504 34.0638 26 34.0431C29.7496 34.0639 33.4948 33.785 37.2 33.2091C38.3697 33.0791 39.5005 32.7114 40.523 32.1286C41.5454 31.5459 42.438 30.7603 43.146 29.8201C43.6397 29.1101 43.9805 28.3053 44.1466 27.4566C44.3127 26.6079 44.3006 25.7339 44.111 24.8901Z" fill="#0055FF"/>
<path id="Vector_2" d="M26 32.5358C29.7023 32.5692 33.4008 32.2896 37.056 31.6998C40.821 31.0998 43.319 28.4798 42.635 25.1918C41.951 21.9038 38.363 20.3198 34.614 20.9008C31.7545 21.2231 28.8773 21.3624 26 21.3178C23.1225 21.3637 20.2449 21.2258 17.385 20.9048C13.636 20.3238 10.047 21.9208 9.36401 25.1958C8.68101 28.4708 11.178 31.1058 14.943 31.7038C18.5986 32.2922 22.2975 32.5705 26 32.5358Z" fill="#0055FF"/>
<path id="Vector_3" d="M44.111 24.8901C43.8218 23.7042 43.2262 22.615 42.3838 21.7316C41.5414 20.8482 40.4818 20.2014 39.311 19.8561C37.7168 19.4661 36.0498 19.4853 34.465 19.9121L34.337 19.9381C31.5859 20.4279 28.7939 20.6496 26 20.6001C23.2079 20.6506 20.4175 20.4303 17.668 19.9421L17.54 19.9161C15.9549 19.4893 14.2876 19.4701 12.693 19.8601C11.5222 20.2054 10.4625 20.8522 9.62017 21.7356C8.77779 22.619 8.1822 23.7082 7.89299 24.8941C7.70395 25.7382 7.69247 26.6123 7.85929 27.461C8.0261 28.3097 8.36756 29.1144 8.86199 29.8241C9.56942 30.7626 10.4609 31.5469 11.4819 32.129C12.503 32.711 13.632 33.0786 14.8 33.2091C18.5052 33.7849 22.2504 34.0638 26 34.0431C29.7496 34.0639 33.4948 33.785 37.2 33.2091C38.3697 33.0791 39.5005 32.7114 40.523 32.1286C41.5454 31.5459 42.438 30.7603 43.146 29.8201C43.6397 29.1101 43.9805 28.3053 44.1466 27.4566C44.3127 26.6079 44.3006 25.7339 44.111 24.8901ZM40.663 28.1071C40.194 28.6956 39.6128 29.1851 38.9531 29.5472C38.2934 29.9092 37.5683 30.1366 36.82 30.2161L36.695 30.2371C33.1574 30.7911 29.5806 31.056 26 31.0291C22.4177 31.0563 18.8392 30.7914 15.3 30.2371L15.175 30.2161C14.4267 30.1366 13.7016 29.9092 13.0419 29.5472C12.3822 29.1851 11.801 28.6956 11.332 28.1071C11.0707 27.7332 10.8911 27.3084 10.8049 26.8604C10.7188 26.4124 10.728 25.9513 10.832 25.5071C10.9633 24.7414 11.2943 24.0239 11.7915 23.4269C12.2888 22.83 12.9346 22.3747 13.664 22.1071C14.8094 21.656 16.0696 21.5859 17.258 21.9071C20.1398 22.425 23.0655 22.6595 25.993 22.6071C28.9202 22.6594 31.8455 22.425 34.727 21.9071C35.9154 21.5859 37.1756 21.656 38.321 22.1071C39.0504 22.3747 39.6962 22.83 40.1935 23.4269C40.6907 24.0239 41.0217 24.7414 41.153 25.5071C41.2584 25.9506 41.2692 26.4114 41.1848 26.8593C41.1004 27.3073 40.9226 27.7324 40.663 28.1071Z" fill="#FF5F5F"/>
<path id="Vector_4" d="M26 21.5249V32.2189M18.104 20.7339V32.2929M33.895 20.7339V32.2929" stroke="#FF5F5F" stroke-width="2.511" stroke-linejoin="bevel"/>
</g>
</svg>
