<svg width="52" height="52" viewBox="0 0 52 52" fill="none" xmlns="http://www.w3.org/2000/svg">
<g id="mouth-18">
<path id="Vector" d="M39.837 21.3208L42.207 25.1768C42.207 25.1768 36.574 30.6138 26.082 30.6138H25.931C15.439 30.6138 9.80603 25.1768 9.80603 25.1768L12.175 21.3208" stroke="#0055FF" stroke-width="2.009"/>
<path id="Vector_2" d="M40.726 21.8232C35.952 23.2573 30.9986 24.0068 26.014 24.0492H25.929C20.9441 24.0066 15.9904 23.2572 11.216 21.8232" stroke="#0055FF" stroke-width="2.009"/>
<path id="Vector_3" d="M26.009 30.1888C36.133 30.1888 41.471 25.2138 41.471 25.2138L39.283 21.5718C35.0012 23.0006 30.5226 23.7523 26.009 23.7998H25.932C21.419 23.7523 16.9411 23.0006 12.66 21.5718L10.472 25.2138C10.472 25.2138 15.809 30.1888 25.932 30.1888H26.009Z" fill="#0055FF"/>
<path id="Vector_4" d="M26.009 30.1888C36.133 30.1888 41.471 25.2138 41.471 25.2138L39.283 21.5718C35.0011 23.0003 30.5226 23.752 26.009 23.7998H25.932C21.419 23.752 16.9412 23.0003 12.66 21.5718L10.472 25.2138C10.472 25.2138 15.809 30.1888 25.932 30.1888H26.009Z" fill="#FF5F5F"/>
<path id="Vector_5" d="M26.046 30.4592C32.363 30.4592 33.887 28.7042 33.887 28.7042L33.821 24.0762C31.2646 24.6156 28.6587 24.8858 26.046 24.8822H25.959C23.3463 24.8858 20.7404 24.6156 18.184 24.0762L18.116 28.7002C18.116 28.7002 19.641 30.4552 25.959 30.4552L26.046 30.4592Z" fill="#0055FF"/>
<path id="Vector_6" d="M39.837 21.3198L42.207 25.1768C42.207 25.1768 36.574 30.6138 26.082 30.6138H25.931C15.439 30.6138 9.80603 25.1768 9.80603 25.1768L12.175 21.3198" stroke="#FF5F5F" stroke-width="2.009"/>
<path id="Vector_7" d="M40.726 21.8232C35.9519 23.2567 30.9985 24.0058 26.014 24.0482H25.929C20.9442 24.0057 15.9905 23.2565 11.216 21.8232" stroke="#FF5F5F" stroke-width="2.009"/>
</g>
</svg>
