<svg width="52" height="52" viewBox="0 0 52 52" fill="none" xmlns="http://www.w3.org/2000/svg">
<g id="mouth-14">
<path id="Vector" d="M12.652 26.7998V28.3208C14.2234 30.4162 16.2611 32.1169 18.6036 33.2883C20.9462 34.4596 23.5294 35.0695 26.1485 35.0695C28.7676 35.0695 31.3508 34.4596 33.6934 33.2883C36.036 32.1169 38.0736 30.4162 39.645 28.3208V26.7998H12.652Z" fill="#BE4E26"/>
<path id="Vector_2" d="M39.645 25.329L39.609 25.229H12.688L12.652 25.329V28.3H39.645V25.329Z" fill="#FF5F5F"/>
<path id="Vector_3" d="M26.148 18.5318C23.5362 18.524 20.9588 19.1271 18.6217 20.2931C16.2845 21.459 14.2525 23.1555 12.688 25.2468H39.609C38.0389 23.1612 36.0056 21.4689 33.6695 20.3036C31.3335 19.1382 28.7586 18.5317 26.148 18.5318Z" fill="#712A04"/>
</g>
</svg>
