<svg width="52" height="52" viewBox="0 0 52 52" fill="none" xmlns="http://www.w3.org/2000/svg">
<g id="mouth-23">
<path id="Vector" d="M7.492 23.2271C7.492 23.2271 13.392 31.7071 26 31.7071C38.608 31.7071 44.505 23.2271 44.505 23.2271H7.492Z" fill="#0055FF"/>
<path id="Vector_2" d="M7.492 23.2271C7.492 23.2271 13.392 31.7071 26 31.7071C38.608 31.7071 44.505 23.2271 44.505 23.2271" stroke="#0055FF" stroke-width="3.014" stroke-linejoin="bevel"/>
<path id="Vector_3" d="M45.749 23.1011H6.24799" stroke="#0055FF" stroke-width="2.009" stroke-linejoin="bevel"/>
<path id="Vector_4" d="M7.492 23.2271C7.492 23.2271 13.392 31.7071 26 31.7071C38.608 31.7071 44.505 23.2271 44.505 23.2271H7.492Z" fill="#FF5F5F"/>
<path id="Vector_5" d="M7.492 23.2271C8.95764 24.8227 10.6274 26.2181 12.458 27.3771H39.542C41.3722 26.218 43.0416 24.8226 44.507 23.2271H7.492Z" fill="#0055FF"/>
<path id="Vector_6" d="M7.492 23.2271C7.492 23.2271 13.392 31.7071 26 31.7071C38.608 31.7071 44.505 23.2271 44.505 23.2271" stroke="#FF5F5F" stroke-width="3.014" stroke-linejoin="bevel"/>
<path id="Vector_7" d="M45.749 23.1011H6.24799" stroke="#FF5F5F" stroke-width="2.009" stroke-linejoin="bevel"/>
</g>
</svg>
