<svg width="52" height="52" viewBox="0 0 52 52" fill="none" xmlns="http://www.w3.org/2000/svg">
<g id="mouth-07">
<path id="Vector" d="M26 21.1318C21 21.1318 16 26.1318 16 28.6318C16 31.1318 26 31.1318 26 31.1318C26 31.1318 36 31.1318 36 28.6318C36 26.1318 31 21.1318 26 21.1318Z" fill="#0055FF" stroke="#0055FF" stroke-width="2.009"/>
<path id="Vector_2" d="M26 21.1309C21 21.1309 16 26.1309 16 28.6309C16 31.1309 26 31.1309 26 31.1309C26 31.1309 36 31.1309 36 28.6309C36 26.1309 31 21.1309 26 21.1309Z" fill="#0055FF"/>
<path id="Vector_3" d="M26 21.1309C21 21.1309 16 26.1309 16 28.6309C16 31.1309 26 31.1309 26 31.1309C26 31.1309 36 31.1309 36 28.6309C36 26.1309 31 21.1309 26 21.1309Z" stroke="#FF5F5F" stroke-width="2.009"/>
<path id="Vector_4" d="M26 31.654C31 31.654 36 28.846 36 27.44C36 26.034 26 26.04 26 26.04C26 26.04 16 26.04 16 27.44C16 28.84 21 31.654 26 31.654Z" fill="#FF5F5F"/>
</g>
</svg>
