<svg width="52" height="52" viewBox="0 0 52 52" fill="none" xmlns="http://www.w3.org/2000/svg">
<g id="mouth-25">
<path id="Vector" d="M14.576 31.7582C18.642 34.3342 23.8 34.6192 26 34.6192C29.9731 34.5225 33.8752 33.5454 37.425 31.7582C40.0815 30.1652 42.1644 27.7708 43.374 24.9192V24.8452L41.282 24.9892C40.398 25.1602 39.247 25.3672 37.891 25.5782L34.891 26.6192L29.448 26.4912C28.3008 26.5562 27.152 26.5896 26.003 26.5912C24.852 26.5912 23.696 26.5512 22.557 26.4912L17.111 26.6192L14.111 25.5762C12.759 25.3662 11.611 25.1602 10.73 24.9892L8.63 24.8452V24.9052C9.95639 27.6848 12.0112 30.0531 14.576 31.7582Z" fill="#BE4E26"/>
<path id="Vector_2" d="M35.044 22.7998C31.827 22.0158 30.724 20.6318 26.007 20.6318H26C21.283 20.6318 20.18 22.0158 16.964 22.7998C14.761 23.266 12.4902 23.3155 10.269 22.9458L10.315 23.5788V24.2578L12.415 24.9878L14.106 25.5748C16.483 25.9438 19.451 26.3148 22.555 26.4888L26 26.3998L29.451 26.4808C32.551 26.3068 35.516 25.9368 37.892 25.5678L39.592 24.9798L41.692 24.2498V23.5708L41.741 22.9378C39.5197 23.3106 37.2481 23.2638 35.044 22.7998Z" fill="#712A04"/>
<path id="Vector_3" d="M16.974 28.2049C13.8665 28.1814 10.8833 26.9808 8.62601 24.8449L10.266 22.9449C14.434 26.5369 17.799 25.8319 21.366 25.0839C22.8842 24.7096 24.4372 24.4945 26 24.4419C27.5643 24.4932 29.1191 24.7074 30.639 25.0809C34.202 25.8289 37.567 26.5349 41.739 22.9419L43.378 24.8419C38.27 29.2419 33.944 28.3419 30.127 27.5359C28.7749 27.2011 27.392 27.0061 26 26.9539C24.6093 27.0074 23.2277 27.2034 21.877 27.5389C20.2705 27.9318 18.6271 28.1551 16.974 28.2049Z" fill="#FF5F5F"/>
</g>
</svg>
