<svg width="52" height="52" viewBox="0 0 52 52" fill="none" xmlns="http://www.w3.org/2000/svg">
<g id="mouth-02">
<path id="Vector" d="M25.964 30.2591H26.041C35.726 30.2241 42.485 22.8651 42.485 22.8651L42.185 22.8501C37.157 25.3384 31.6095 26.5956 26 26.5181C20.3905 26.5958 14.8429 25.3385 9.815 22.8501L9.521 22.8651C9.521 22.8651 16.279 30.2241 25.964 30.2591Z" fill="#BE4E26"/>
<path id="Vector_2" d="M42.188 22.8699C40.688 22.7939 33.658 22.4199 31.524 22.4199C29.6045 22.5779 27.7275 23.0706 25.978 23.8759H25.9C24.1979 23.0633 22.3612 22.5698 20.481 22.4199C18.345 22.4199 11.302 22.7939 9.814 22.8699C14.8422 25.3585 20.3902 26.6157 26 26.5379C31.6105 26.6159 37.1591 25.3587 42.188 22.8699Z" fill="#712A04"/>
</g>
</svg>
