<svg width="52" height="52" viewBox="0 0 52 52" fill="none" xmlns="http://www.w3.org/2000/svg">
<g id="mouth-30">
<path id="Vector" d="M35.121 23.608C32.264 23.779 29.112 23.896 26 23.896C22.888 23.896 19.736 23.779 16.879 23.608C14.179 23.448 11.764 23.125 9.37902 22.833L9.36902 22.891C12.64 25.956 19.377 28.443 26 28.443C26.831 28.443 27.664 28.404 28.491 28.33C34.26 27.81 39.772 25.571 42.631 22.891L42.621 22.833C40.836 23.051 39.032 23.288 37.104 23.46C36.458 23.518 35.797 23.5673 35.121 23.608Z" fill="#0055FF"/>
<path id="Vector_2" d="M37.1 23.4601C39.028 23.2881 40.832 23.0511 42.617 22.8331C40.836 23.0511 39.031 23.2881 37.1 23.4601ZM26 23.9001C22.889 23.9001 19.737 23.7831 16.88 23.6121C14.18 23.4521 11.764 23.1291 9.37998 22.8361C11.763 23.1281 14.18 23.4521 16.88 23.6121C19.736 23.7801 22.889 23.9001 26 23.9001Z" fill="#00FF00"/>
<path id="Vector_3" d="M9.38797 22.7879H9.35698L9.34998 22.8279H9.38097L9.38797 22.7879ZM42.613 22.7879L42.621 22.8319H42.651L42.644 22.7919L42.613 22.7879ZM42.644 22.7879L42.61 22.5799H42.578L42.613 22.7879H42.644ZM9.42397 22.5799H9.39097L9.35698 22.7879H9.38797L9.42397 22.5799Z" fill="#FF5F5F"/>
<path id="Vector_4" d="M42.613 22.7878L42.578 22.5798H42.61L42.358 21.0478C36.9384 20.2805 31.4735 19.8769 26 19.8398C20.5268 19.877 15.0622 20.2805 9.64298 21.0478L9.39098 22.5798H9.42398L9.38798 22.7878L9.38098 22.8318C11.764 23.1248 14.181 23.4478 16.881 23.6078C19.738 23.7788 22.89 23.8958 26.001 23.8958C29.112 23.8958 32.265 23.7788 35.122 23.6078C35.7986 23.5678 36.4596 23.5185 37.105 23.4598C39.032 23.2878 40.837 23.0508 42.622 22.8318L42.613 22.7878Z" fill="#712A04"/>
<path id="Vector_5" d="M42.665 22.8608L42.631 22.8908C39.772 25.5708 34.26 27.8098 28.491 28.3298C27.664 28.4038 26.831 28.4428 26 28.4428C19.377 28.4428 12.64 25.9558 9.37097 22.8908L9.33597 22.8608L9.08197 24.8468C9.35087 25.432 9.68141 25.9868 10.068 26.5018C10.087 26.5278 10.111 26.5528 10.13 26.5788C10.318 26.8298 10.518 27.0788 10.737 27.3308C12.7042 29.4228 15.0652 31.1057 17.6844 32.2831C20.3036 33.4605 23.1295 34.1091 26 34.1918C33.393 34.1918 40.961 29.2148 42.919 24.8468L42.665 22.8608Z" fill="#BE4E26"/>
</g>
</svg>
