<svg width="52" height="52" viewBox="0 0 52 52" fill="none" xmlns="http://www.w3.org/2000/svg">
<g id="mouth-06">
<path id="Vector" d="M46.423 22.791C43.193 23.484 31.709 25.817 26 25.817C20.291 25.817 8.807 23.484 5.578 22.791C9.758 25.227 18.22 27.871 26 27.871C33.78 27.871 42.246 25.227 46.423 22.791Z" fill="#BE4E26"/>
<path id="Vector_2" d="M46.423 22.8111C46.605 22.7051 46.791 22.5991 46.957 22.4941C40.0019 23.3146 33.0033 23.712 26 23.6841C18.997 23.712 11.9988 23.3146 5.04401 22.4941C5.21001 22.5991 5.39601 22.7051 5.57801 22.8111C8.80701 23.5001 20.292 25.8771 26 25.8771C31.708 25.8771 43.193 23.5001 46.423 22.8111Z" fill="#712A04"/>
</g>
</svg>
