<svg width="52" height="52" viewBox="0 0 52 52" fill="none" xmlns="http://www.w3.org/2000/svg">
<g id="mouth-28">
<path id="Vector" d="M15.114 29.5999C18.3136 31.8366 22.0978 33.0881 26 33.1999C29.9026 33.0883 33.6872 31.8368 36.887 29.5999C38.8726 28.1953 40.5364 26.3842 41.768 24.2869L41.568 23.1699H41.537L41.547 23.2579C38.376 25.0219 35.32 25.3479 30.547 25.8809C29.647 25.9809 28.725 27.7649 25.995 27.7649C23.265 27.7649 22.341 25.9809 21.445 25.8809C16.674 25.3479 13.617 25.0219 10.445 23.2579L10.455 23.1699H10.423L10.223 24.2869C11.4575 26.3852 13.1249 28.1964 15.114 29.5999Z" fill="#BE4E26"/>
<path id="Vector_2" d="M41.57 23.1669V23.1599H41.536L41.309 22.4909C41.117 22.4819 38.309 21.7759 35.395 21.0909C33.188 20.5719 31.095 19.6419 30.137 19.5549C28.265 19.3769 26.725 20.6859 26 21.0999C25.276 20.6899 23.735 19.3809 21.866 19.5519C20.905 19.6389 18.813 20.5689 16.606 21.0879C13.696 21.7749 10.886 22.4809 10.694 22.4879L10.467 23.1569H10.433V23.1639H10.465L10.435 23.2519C13.604 25.0159 16.681 25.3619 21.452 25.8949C22.352 25.9949 23.273 27.7789 26.002 27.7789C28.731 27.7789 29.655 25.9999 30.552 25.8999C35.322 25.3669 38.398 25.0209 41.569 23.2569L41.539 23.1689L41.57 23.1669Z" fill="#712A04"/>
</g>
</svg>
