<svg width="52" height="52" viewBox="0 0 52 52" fill="none" xmlns="http://www.w3.org/2000/svg">
<g id="mouth-34">
<path id="Vector" d="M44.3 22.647C39.894 24.291 33.33 25.335 26 25.335C18.67 25.335 12.107 24.291 7.70001 22.647" stroke="#FF5F5F" stroke-width="3.014"/>
<path id="Vector_2" d="M33.652 33.3271C31.1102 33.5961 28.556 33.7296 26 33.7271C23.4444 33.7297 20.8904 33.5961 18.349 33.3271M8.31001 25.3491C6.97701 23.5321 8.78401 21.3121 10.598 20.8911M43.689 25.3491C45.024 23.5321 43.217 21.3121 41.402 20.8911" stroke="#FF5F5F" stroke-width="2.009"/>
<path id="Vector_3" d="M44.3 22.832C38.3298 24.3999 32.1716 25.1359 26 25.019C19.8284 25.1358 13.6703 24.3999 7.70001 22.832" stroke="#FF5F5F" stroke-width="3.014"/>
<path id="Vector_4" d="M33.651 32.5082C31.1096 32.7772 28.5556 32.9107 26 32.9082C23.4444 32.9108 20.8904 32.7773 18.349 32.5082M8.30999 25.2822C6.97599 23.4662 8.78299 21.2462 10.597 20.8252M43.688 25.2822C45.024 23.4662 43.215 21.2462 41.401 20.8252" stroke="#FF5F5F" stroke-width="2.009"/>
</g>
</svg>
