<svg width="52" height="52" viewBox="0 0 52 52" fill="none" xmlns="http://www.w3.org/2000/svg">
<g id="mouth-27">
<path id="Vector" d="M26 32.4561C28.4266 32.5328 30.796 31.7101 32.653 30.1461C34.8588 28.3808 37.3336 26.981 39.983 26.0001C34.283 25.3311 31.214 19.9791 26.001 19.9741C20.788 19.9691 17.715 25.3331 12.018 26.0001C14.6655 26.9811 17.1385 28.3801 19.343 30.1441C21.2008 31.7096 23.5718 32.5331 26 32.4561Z" fill="#0055FF" stroke="#0055FF" stroke-width="3.014"/>
<path id="Vector_2" d="M26 31.5201C28.0627 31.5852 30.0767 30.8857 31.655 29.5561C33.5287 28.0568 35.6307 26.8677 37.881 26.0341C33.038 25.4661 30.427 20.9161 25.996 20.9111C21.565 20.9061 18.953 25.4661 14.11 26.0341C16.3603 26.8677 18.4623 28.0568 20.336 29.5561C21.9168 30.8876 23.9343 31.5871 26 31.5201Z" fill="#FF5F5F"/>
<path id="Vector_3" d="M26 20.4131H26.011C31.383 20.4131 35.791 23.2801 38.211 24.9401C38.0113 25.5369 37.6363 26.0596 37.135 26.4401H14.874C14.3725 26.0596 13.9973 25.5369 13.797 24.9401C16.216 23.2801 20.623 20.4131 25.997 20.4131H26.008" fill="#0055FF"/>
<path id="Vector_4" d="M26 32.4571C28.4268 32.5334 30.7961 31.7104 32.653 30.1461C34.8588 28.3808 37.3336 26.981 39.983 26.0001C34.283 25.3311 31.214 19.9791 26.001 19.9741C20.788 19.9691 17.715 25.3331 12.018 26.0001C14.6655 26.9811 17.1385 28.3801 19.343 30.1441C21.2007 31.7099 23.5717 32.5337 26 32.4571Z" stroke="#FF5F5F" stroke-width="3.014" stroke-linejoin="bevel"/>
</g>
</svg>
