<svg width="52" height="52" viewBox="0 0 52 52" fill="none" xmlns="http://www.w3.org/2000/svg">
<g id="mustache-4">
<path id="Vector" d="M26 39.3602C34.2014 39.3602 40.85 32.7116 40.85 24.5102C40.85 16.3087 34.2014 9.66016 26 9.66016C17.7986 9.66016 11.15 16.3087 11.15 24.5102C11.15 32.7116 17.7986 39.3602 26 39.3602Z" fill="white" stroke="#BFBFBF" stroke-width="2.48"/>
<g id="Vector_2">
<path d="M26 23.3301C20.48 23.3301 17.32 26.6401 17.32 30.8401C17.2751 31.9908 17.5276 33.1336 18.0531 34.1583C18.5786 35.183 19.3594 36.055 20.32 36.6901V33.0501C20.32 29.1101 21.32 25.4701 26.02 25.4701C30.72 25.4701 31.72 29.1101 31.72 33.0501V36.6901C32.6806 36.055 33.4614 35.183 33.9869 34.1583C34.5123 33.1336 34.7648 31.9908 34.72 30.8401C34.68 26.6401 31.52 23.3301 26 23.3301Z" fill="#1E1E1E"/>
<path d="M34.4318 34.3865C34.9953 33.2875 35.2667 32.0621 35.2199 30.828C35.1969 28.6022 34.3451 26.5917 32.7517 25.1404C31.1582 23.6891 28.8604 22.8301 26 22.8301C23.1398 22.8301 20.8416 23.689 19.2527 25.141C17.6641 26.5927 16.8224 28.6039 16.82 30.8304C16.7736 32.0637 17.045 33.2882 17.6082 34.3865C18.1729 35.4877 19.0119 36.4247 20.0443 37.1072L20.82 37.62V36.6901V33.0501C20.82 31.103 21.0709 29.3215 21.8368 28.0389C22.5741 26.8042 23.8256 25.9701 26.02 25.9701C28.2143 25.9701 29.4659 26.8042 30.2032 28.0389C30.9691 29.3215 31.22 31.103 31.22 33.0501V36.6901V37.62L31.9957 37.1072C33.0281 36.4247 33.8671 35.4877 34.4318 34.3865Z" stroke="white" stroke-opacity="0.27"/>
</g>
</g>
</svg>
