<svg width="52" height="52" viewBox="0 0 52 52" fill="none" xmlns="http://www.w3.org/2000/svg">
<g id="mustache-6">
<path id="Vector" d="M26 39.3602C34.2014 39.3602 40.85 32.7116 40.85 24.5102C40.85 16.3087 34.2014 9.66016 26 9.66016C17.7986 9.66016 11.15 16.3087 11.15 24.5102C11.15 32.7116 17.7986 39.3602 26 39.3602Z" fill="white" stroke="#BFBFBF" stroke-width="2.48"/>
<g id="Vector_2">
<path d="M26 31.5698C24.4594 31.5681 22.9202 31.478 21.39 31.2998C22.0479 32.9026 23.0519 34.3402 24.33 35.5098L26 34.0798L27.67 35.5098C28.9482 34.3402 29.9521 32.9026 30.61 31.2998C29.0798 31.478 27.5406 31.5681 26 31.5698Z" fill="#1E1E1E"/>
<path d="M21.4478 30.8032L20.6054 30.7051L20.9275 31.4897C21.6134 33.1606 22.66 34.6593 23.9925 35.8787L24.319 36.1775L24.6552 35.8896L26 34.7381L27.3448 35.8896L27.681 36.1775L28.0076 35.8787C29.3401 34.6593 30.3867 33.1606 31.0726 31.4897L31.3946 30.7051L30.5522 30.8032C29.0411 30.9791 27.5213 31.0681 26 31.0698C24.4788 31.0681 22.9589 30.9791 21.4478 30.8032Z" stroke="white" stroke-opacity="0.27"/>
</g>
</g>
</svg>
