<svg width="52" height="52" viewBox="0 0 52 52" fill="none" xmlns="http://www.w3.org/2000/svg">
<g id="mustache-5">
<path id="Vector" d="M26 39.3602C34.2014 39.3602 40.85 32.7116 40.85 24.5102C40.85 16.3087 34.2014 9.66016 26 9.66016C17.7986 9.66016 11.15 16.3087 11.15 24.5102C11.15 32.7116 17.7986 39.3602 26 39.3602Z" fill="white" stroke="#BFBFBF" stroke-width="2.48"/>
<g id="Vector_2">
<path d="M17.75 30.17C19.0143 29.4974 20.3582 28.9867 21.75 28.65C23.1438 28.3229 24.5685 28.1452 26 28.12V25C24.2906 24.9157 22.5816 25.173 20.9728 25.7568C19.3639 26.3406 17.8876 27.2391 16.63 28.4L17.75 30.17ZM26 25V28.09C27.4449 28.1124 28.8831 28.29 30.29 28.62C31.6818 28.9567 33.0258 29.4674 34.29 30.14L35.41 28.4C34.1476 27.2342 32.6647 26.3328 31.0486 25.7489C29.4326 25.165 27.716 24.9103 26 25Z" fill="#1E1E1E"/>
<path d="M17.3275 30.4373L17.5754 30.8292L17.9848 30.6114C19.2115 29.9588 20.5155 29.4633 21.8659 29.1363C23.2246 28.8176 24.6134 28.6445 26.0088 28.6199L26.5 28.6112V28.6043C27.7374 28.6555 28.9676 28.8235 30.1742 29.1064C31.5246 29.4333 32.8285 29.9288 34.0552 30.5814L34.4614 30.7975L34.7104 30.4106L35.8304 28.6706L36.0577 28.3175L35.7492 28.0326C34.4378 26.8216 32.8974 25.8852 31.2186 25.2786C29.5477 24.6749 27.7734 24.41 25.9993 24.4993C24.232 24.4156 22.4655 24.6832 20.8022 25.2868C19.1309 25.8932 17.5973 26.8267 16.2909 28.0325L15.9847 28.3152L16.2075 28.6673L17.3275 30.4373Z" stroke="white" stroke-opacity="0.27"/>
</g>
</g>
</svg>
