<svg width="52" height="52" viewBox="0 0 52 52" fill="none" xmlns="http://www.w3.org/2000/svg">
<g id="mustache-2">
<path id="Vector" d="M26 39.3602C34.2014 39.3602 40.85 32.7116 40.85 24.5102C40.85 16.3087 34.2014 9.66016 26 9.66016C17.7986 9.66016 11.15 16.3087 11.15 24.5102C11.15 32.7116 17.7986 39.3602 26 39.3602Z" fill="white" stroke="#BFBFBF" stroke-width="2.48"/>
<g id="Vector_2">
<path d="M21.65 25.5401C20.1438 26.8114 19.155 28.5899 18.87 30.5401L21.19 29.5401L22.19 31.4101L24.09 29.8501L25.97 31.8501V24.1001C24.4143 24.1134 22.9025 24.6173 21.65 25.5401ZM30.35 25.5401C29.0892 24.6113 27.5659 24.1071 26 24.1001V31.8201L27.88 29.8201L29.78 31.3801L30.78 29.5101L33.1 30.5101C32.8159 28.5749 31.8387 26.8088 30.35 25.5401Z" fill="#1E1E1E"/>
<path d="M21.3534 25.1375L21.3401 25.1473L21.3275 25.158C19.728 26.508 18.6779 28.3967 18.3753 30.4678L18.2458 31.3536L19.0679 30.9993L20.9658 30.1812L21.7491 31.6459L22.0364 32.1832L22.5073 31.7965L24.0459 30.5332L25.5 32.0801V33.082L25.9709 32.5811L26.47 33.112V32.0501L27.9241 30.5032L29.4627 31.7665L29.9336 32.1532L30.2209 31.6159L31.0042 30.1512L32.9021 30.9693L33.7248 31.3239L33.5947 30.4375C33.293 28.3824 32.2552 26.5068 30.6743 25.1595L30.6608 25.148L30.6465 25.1375C29.4263 24.2387 27.9759 23.7122 26.47 23.6161V23.5958L25.9793 23.6L25.5 23.5979V23.6179C24.0046 23.7191 22.5653 24.2447 21.3534 25.1375Z" stroke="white" stroke-opacity="0.27"/>
</g>
</g>
</svg>
