<svg width="52" height="52" viewBox="0 0 52 52" fill="none" xmlns="http://www.w3.org/2000/svg">
<g id="mustache-3">
<path id="Vector" d="M40.85 24.5102C40.85 27.4472 39.9791 30.3183 38.3473 32.7604C36.7156 35.2024 34.3963 37.1058 31.6828 38.2298C28.9694 39.3537 25.9835 39.6478 23.1029 39.0748C20.2223 38.5018 17.5763 37.0875 15.4995 35.0107C13.4227 32.9339 12.0083 30.2879 11.4353 27.4072C10.8623 24.5266 11.1564 21.5408 12.2804 18.8273C13.4044 16.1138 15.3077 13.7946 17.7498 12.1628C20.1919 10.5311 23.0629 9.66016 26 9.66016C29.9385 9.66016 33.7156 11.2247 36.5005 14.0096C39.2854 16.7945 40.85 20.5717 40.85 24.5102Z" fill="white" stroke="#BFBFBF" stroke-width="2.48"/>
<g id="Vector_2">
<path d="M25.11 25.5298C22.4539 25.685 19.9003 26.6092 17.76 28.1898L18.94 29.6198C20.754 28.3261 22.8881 27.5548 25.11 27.3898V25.5298ZM26.89 25.5298C29.5461 25.685 32.0998 26.6092 34.24 28.1898L33.06 29.6198C31.246 28.3261 29.1119 27.5548 26.89 27.3898V25.5298Z" fill="#1E1E1E"/>
<path d="M25.61 25.5298V24.9997L25.0808 25.0306C22.3279 25.1915 19.6812 26.1494 17.463 27.7876L17.0385 28.101L17.3744 28.508L18.5544 29.938L18.8509 30.2974L19.2303 30.0269C20.9699 28.7863 23.0163 28.0467 25.147 27.8884L25.61 27.854V27.3898V25.5298ZM26.9192 25.0306L26.39 24.9997V25.5298V27.3898V27.854L26.853 27.8884C28.9837 28.0467 31.0302 28.7863 32.7697 30.0269L33.1491 30.2974L33.4457 29.938L34.6257 28.508L34.9615 28.101L34.537 27.7876C32.3188 26.1494 29.6721 25.1915 26.9192 25.0306Z" stroke="white" stroke-opacity="0.27"/>
</g>
</g>
</svg>
