<svg width="52" height="52" viewBox="0 0 52 52" fill="none" xmlns="http://www.w3.org/2000/svg">
<g id="nose-17">
<path id="Vector" d="M31.9 12.1001C35.166 19.9791 35.166 25.4581 35.166 25.4581C35.166 25.4581 39.243 27.2481 39.298 31.0311C39.398 37.3741 31.705 36.9891 31.705 36.9891C31.2499 38.0522 30.4828 38.9521 29.5052 39.5699C28.5276 40.1877 27.3856 40.4943 26.23 40.4491C25.0744 40.4945 23.9323 40.1881 22.9546 39.5703C21.977 38.9524 21.21 38.0523 20.755 36.9891C20.755 36.9891 13.065 37.3741 13.162 31.0311C13.217 27.2481 17.293 25.4581 17.293 25.4581C17.293 25.4581 17.293 19.9791 20.561 12.1001" stroke="#FF5F5F" stroke-width="3.506"/>
</g>
</svg>
