<svg width="52" height="52" viewBox="0 0 52 52" fill="none" xmlns="http://www.w3.org/2000/svg">
<g id="nose-03">
<path id="Vector" d="M22.45 21.8202C20.59 20.6602 17.4499 22.2902 16.2299 24.2902C15.6218 25.1951 15.3971 26.3042 15.6051 27.3745C15.8132 28.4448 16.437 29.389 17.34 30.0002C17.8107 30.273 18.3305 30.4503 18.8698 30.522C19.4091 30.5938 19.9573 30.5585 20.4829 30.4183C21.0086 30.2781 21.5014 30.0356 21.9333 29.7047C22.3652 29.3739 22.7277 28.9612 23 28.4902C24.21 26.4902 24.31 23.0002 22.45 21.8202ZM35.77 24.2902C34.53 22.2902 31.4099 20.6602 29.5499 21.8202C27.6899 22.9802 27.79 26.4902 29.04 28.4902C29.2763 29.0077 29.6203 29.4688 30.049 29.8427C30.4778 30.2167 30.9813 30.4949 31.5261 30.6588C32.0709 30.8227 32.6444 30.8685 33.2083 30.7931C33.7722 30.7177 34.3135 30.523 34.7961 30.2218C35.2788 29.9206 35.6916 29.5199 36.0071 29.0465C36.3225 28.573 36.5334 28.0378 36.6256 27.4764C36.7177 26.915 36.6891 26.3404 36.5415 25.791C36.394 25.2415 36.1309 24.7299 35.77 24.2902Z" fill="#FF5F5F"/>
</g>
</svg>
