<svg width="52" height="52" viewBox="0 0 52 52" fill="none" xmlns="http://www.w3.org/2000/svg">
<path d="M42.09 25.9999C42.0841 29.1809 41.1354 32.2888 39.3638 34.9308C37.5922 37.5729 35.0772 39.6305 32.1366 40.8437C29.196 42.0569 25.9618 42.3713 22.8427 41.7471C19.7235 41.1228 16.8593 39.588 14.6121 37.3366C12.3649 35.0852 10.8354 32.2182 10.217 29.0979C9.59861 25.9775 9.91899 22.7439 11.1377 19.8056C12.3564 16.8673 14.4187 14.3561 17.064 12.5895C19.7093 10.8228 22.819 9.87989 26 9.87988C28.1155 9.87988 30.2102 10.2971 32.1643 11.1075C34.1184 11.918 35.8935 13.1059 37.388 14.6031C38.8825 16.1004 40.067 17.8777 40.8739 19.8333C41.6807 21.7889 42.094 23.8844 42.09 25.9999Z" fill="white" stroke="#999999" stroke-width="2.48"/>
<path d="M14.05 21.3099C13.9012 20.4866 14.0463 19.6372 14.46 18.9099C14.46 18.9099 21.06 17.7099 23.29 20.3399C24.281 21.611 24.7399 23.2171 24.57 24.8199C24.57 24.8199 18.88 25.2299 16.88 24.3999C16.173 24.1889 15.5364 23.7901 15.038 23.246C14.5397 22.7018 14.1982 22.0327 14.05 21.3099Z" fill="url(#paint0_linear_1061_195)"/>
<path d="M38 21.3099C38.1488 20.4866 38.0037 19.6372 37.59 18.9099C37.59 18.9099 30.99 17.7099 28.76 20.3399C27.769 21.611 27.3101 23.2171 27.48 24.8199C27.48 24.8199 33.17 25.2299 35.18 24.3999C35.8852 24.1874 36.5197 23.7879 37.0161 23.2438C37.5126 22.6998 37.8526 22.0315 38 21.3099Z" fill="url(#paint1_linear_1061_195)"/>
<defs>
<linearGradient id="paint0_linear_1061_195" x1="18.37" y1="24.9499" x2="20.59" y2="18.8399" gradientUnits="userSpaceOnUse">
<stop stop-color="white"/>
<stop offset="1" stop-color="#996D54"/>
</linearGradient>
<linearGradient id="paint1_linear_1061_195" x1="33.63" y1="24.9499" x2="31.41" y2="18.8399" gradientUnits="userSpaceOnUse">
<stop stop-color="white"/>
<stop offset="1" stop-color="#996D54"/>
</linearGradient>
</defs>
</svg>
