<svg width="52" height="52" viewBox="0 0 52 52" fill="none" xmlns="http://www.w3.org/2000/svg">
<path d="M42.09 25.9999C42.0841 29.1809 41.1354 32.2888 39.3638 34.9308C37.5922 37.5729 35.0772 39.6305 32.1366 40.8437C29.196 42.0569 25.9618 42.3713 22.8427 41.7471C19.7235 41.1228 16.8593 39.588 14.6121 37.3366C12.3649 35.0852 10.8354 32.2182 10.217 29.0979C9.59861 25.9775 9.91899 22.7439 11.1377 19.8056C12.3564 16.8673 14.4187 14.3561 17.064 12.5895C19.7093 10.8228 22.819 9.87989 26 9.87988C28.1155 9.87988 30.2102 10.2971 32.1643 11.1075C34.1184 11.918 35.8935 13.1059 37.388 14.6031C38.8825 16.1004 40.067 17.8777 40.8739 19.8333C41.6807 21.7889 42.094 23.8844 42.09 25.9999Z" fill="white" stroke="#999999" stroke-width="2.48"/>
<path d="M12.58 21.26L14.96 19.96M13.33 23.65L15.71 22.36M16 24.63C18.11 26.63 21.43 26 23.41 23.17M39.42 21.26L37.04 19.96M38.67 23.65L36.29 22.36M36 24.63C33.89 26.63 30.57 26 28.59 23.17" stroke="#996D54" stroke-width="1.86"/>
<path d="M37.58 34.5198C37.3728 33.212 36.9325 31.952 36.28 30.7998C35.5637 29.5613 34.6166 28.4716 33.49 27.5898M35.63 36.6898C35.4009 35.1268 34.8964 33.6167 34.14 32.2298C33.3942 30.9251 32.4026 29.7773 31.22 28.8498M14.42 34.5198C14.6271 33.212 15.0675 31.952 15.72 30.7998C16.4362 29.5613 17.3833 28.4716 18.51 27.5898M16.37 36.6898C16.5991 35.1268 17.1035 33.6167 17.86 32.2298C18.6058 30.9251 19.5974 29.7773 20.78 28.8498" stroke="#996D54" stroke-width="1.86"/>
</svg>
