<svg width="52" height="52" viewBox="0 0 52 52" fill="none" xmlns="http://www.w3.org/2000/svg">
<path d="M41.8827 28.5425C43.3065 19.771 37.35 11.5061 28.5786 10.0823C19.8071 8.65853 11.5422 14.615 10.1184 23.3864C8.69463 32.1579 14.6511 40.4228 23.4225 41.8466C32.194 43.2704 40.4589 37.314 41.8827 28.5425Z" fill="white" stroke="#999999" stroke-width="2.48"/>
<path d="M20.07 38C21.2108 38.817 22.5998 39.2129 24 39.12C24.3945 39.1197 24.783 39.023 25.1316 38.8382C25.4802 38.6535 25.7783 38.3863 26 38.06C26.2217 38.3863 26.5199 38.6535 26.8684 38.8382C27.217 39.023 27.6055 39.1197 28 39.12C29.4002 39.2129 30.7892 38.817 31.93 38M26 38.7V34.96" stroke="#996D54" stroke-width="1.86"/>
</svg>
