<svg width="52" height="52" viewBox="0 0 52 52" fill="none" xmlns="http://www.w3.org/2000/svg">
<path d="M42.09 25.9999C42.0841 29.1809 41.1354 32.2888 39.3638 34.9308C37.5922 37.5729 35.0772 39.6305 32.1366 40.8437C29.196 42.0569 25.9618 42.3713 22.8427 41.7471C19.7235 41.1228 16.8593 39.588 14.6121 37.3366C12.3649 35.0852 10.8354 32.2182 10.217 29.0979C9.59861 25.9775 9.91899 22.7439 11.1377 19.8056C12.3564 16.8673 14.4187 14.3561 17.064 12.5895C19.7093 10.8228 22.819 9.87989 26 9.87988C28.1155 9.87988 30.2102 10.2971 32.1643 11.1075C34.1184 11.918 35.8935 13.1059 37.388 14.6031C38.8825 16.1004 40.067 17.8777 40.8739 19.8333C41.6807 21.7889 42.094 23.8844 42.09 25.9999Z" fill="white" stroke="#999999" stroke-width="2.48"/>
<path d="M22.5 26.1602C22.4353 27.3364 21.908 28.4393 21.033 29.228C20.1581 30.0168 19.0066 30.4274 17.83 30.3702C16.6527 30.4301 15.4997 30.0204 14.6242 29.2311C13.7486 28.4418 13.222 27.3373 13.16 26.1602M29.5 26.1602C29.5646 27.3364 30.092 28.4393 30.9669 29.228C31.8419 30.0168 32.9934 30.4274 34.17 30.3702C35.3473 30.4301 36.5002 30.0204 37.3758 29.2311C38.2513 28.4418 38.7779 27.3373 38.84 26.1602" stroke="#996D54" stroke-width="1.86"/>
</svg>
